<?xml version="1.0" encoding="utf-8" standalone="no"?>
<!DOCTYPE svg PUBLIC "-//W3C//DTD SVG 1.1//EN"
  "http://www.w3.org/Graphics/SVG/1.1/DTD/svg11.dtd">
<svg xmlns:xlink="http://www.w3.org/1999/xlink" width="423.604375pt" height="279.128125pt" viewBox="0 0 423.604375 279.128125" xmlns="http://www.w3.org/2000/svg" version="1.1">
 <metadata>
  <rdf:RDF xmlns:dc="http://purl.org/dc/elements/1.1/" xmlns:cc="http://creativecommons.org/ns#" xmlns:rdf="http://www.w3.org/1999/02/22-rdf-syntax-ns#">
   <cc:Work>
    <dc:type rdf:resource="http://purl.org/dc/dcmitype/StillImage"/>
    <dc:date>2025-12-08T22:58:33.671264</dc:date>
    <dc:format>image/svg+xml</dc:format>
    <dc:creator>
     <cc:Agent>
      <dc:title>Matplotlib v3.10.7, https://matplotlib.org/</dc:title>
     </cc:Agent>
    </dc:creator>
   </cc:Work>
  </rdf:RDF>
 </metadata>
 <defs>
  <style type="text/css">*{stroke-linejoin: round; stroke-linecap: butt}</style>
 </defs>
 <g id="figure_1">
  <g id="patch_1">
   <path d="M 0 279.128125 
L 423.604375 279.128125 
L 423.604375 -0 
L 0 -0 
z
" style="fill: #ffffff"/>
  </g>
  <g id="axes_1">
   <g id="patch_2">
    <path d="M 43.397813 237.1 
L 383.107812 237.1 
L 383.107812 32.7 
L 43.397813 32.7 
z
" style="fill: #ffffff"/>
   </g>
   <g id="line2d_1">
    <path d="M 43.397813 162.351131 
L 383.107812 162.351131 
" clip-path="url(#pacc276d062)" style="fill: none; stroke: #808080; stroke-opacity: 0.1; stroke-width: 1.5; stroke-linecap: square"/>
   </g>
   <g id="line2d_2">
    <path d="M 43.397813 136.575659 
L 383.107812 136.575659 
" clip-path="url(#pacc276d062)" style="fill: none; stroke: #808080; stroke-opacity: 0.1; stroke-width: 1.5; stroke-linecap: square"/>
   </g>
   <g id="line2d_3">
    <path d="M 43.397813 110.800187 
L 383.107812 110.800187 
" clip-path="url(#pacc276d062)" style="fill: none; stroke: #808080; stroke-opacity: 0.1; stroke-width: 1.5; stroke-linecap: square"/>
   </g>
   <g id="line2d_4">
    <path d="M 43.397813 85.024714 
L 383.107812 85.024714 
" clip-path="url(#pacc276d062)" style="fill: none; stroke: #808080; stroke-opacity: 0.1; stroke-width: 1.5; stroke-linecap: square"/>
   </g>
   <g id="line2d_5">
    <path d="M 43.397813 59.249242 
L 383.107812 59.249242 
" clip-path="url(#pacc276d062)" style="fill: none; stroke: #808080; stroke-opacity: 0.1; stroke-width: 1.5; stroke-linecap: square"/>
   </g>
   <g id="line2d_6">
    <path d="M 43.397813 33.47377 
L 383.107812 33.47377 
" clip-path="url(#pacc276d062)" style="fill: none; stroke: #808080; stroke-opacity: 0.1; stroke-width: 1.5; stroke-linecap: square"/>
   </g>
   <g id="line2d_7">
    <path d="M 43.397813 175.238867 
L 383.107812 175.238867 
" clip-path="url(#pacc276d062)" style="fill: none; stroke: #808080; stroke-opacity: 0.1; stroke-width: 1.5; stroke-linecap: square"/>
   </g>
   <g id="line2d_8">
    <path d="M 43.397813 188.126603 
L 383.107812 188.126603 
" clip-path="url(#pacc276d062)" style="fill: none; stroke: #808080; stroke-opacity: 0.1; stroke-width: 1.5; stroke-linecap: square"/>
   </g>
   <g id="line2d_9">
    <path d="M 43.397813 201.014339 
L 383.107812 201.014339 
" clip-path="url(#pacc276d062)" style="fill: none; stroke: #808080; stroke-opacity: 0.1; stroke-width: 1.5; stroke-linecap: square"/>
   </g>
   <g id="line2d_10">
    <path d="M 43.397813 213.902075 
L 383.107812 213.902075 
" clip-path="url(#pacc276d062)" style="fill: none; stroke: #808080; stroke-opacity: 0.1; stroke-width: 1.5; stroke-linecap: square"/>
   </g>
   <g id="line2d_11">
    <path d="M 43.397813 226.789811 
L 383.107812 226.789811 
" clip-path="url(#pacc276d062)" style="fill: none; stroke: #808080; stroke-opacity: 0.1; stroke-width: 1.5; stroke-linecap: square"/>
   </g>
   <g id="axes_2">
    <g id="patch_3">
     <path d="M 383.107812 237.1 
L 383.107813 237.1 
L 383.107813 32.7 
L 383.107812 32.7 
z
" style="fill: #ffffff"/>
    </g>
    <g id="matplotlib.axis_1"/>
    <g id="matplotlib.axis_2">
     <g id="ytick_1">
      <g id="line2d_12">
       <defs>
        <path id="m19d140e166" d="M 0 0 
L 3.5 0 
" style="stroke: #000000; stroke-width: 0.8"/>
       </defs>
       <g>
        <use xlink:href="#m19d140e166" x="383.107813" y="162.351131" style="stroke: #000000; stroke-width: 0.8"/>
       </g>
      </g>
      <g id="text_1">
       <!-- 0 -->
       <g transform="translate(390.107813 166.476131) scale(0.11 -0.11)">
        <defs>
         <path id="RobotoCondensed-Regular-30" d="M 2797 1944 
Q 2797 825 2467 381 
Q 2138 -63 1581 -63 
Q 1038 -63 703 370 
Q 369 803 359 1878 
L 359 2638 
Q 359 3753 695 4183 
Q 1031 4613 1578 4613 
Q 2131 4613 2461 4189 
Q 2791 3766 2797 2681 
L 2797 1944 
z
M 2247 2734 
Q 2247 3503 2073 3822 
Q 1900 4141 1578 4141 
Q 1266 4141 1092 3833 
Q 919 3525 913 2791 
L 913 1850 
Q 913 1088 1089 750 
Q 1266 413 1581 413 
Q 1903 413 2072 738 
Q 2241 1063 2247 1794 
L 2247 2734 
z
" transform="scale(0.015625)"/>
        </defs>
        <use xlink:href="#RobotoCondensed-Regular-30"/>
       </g>
      </g>
     </g>
     <g id="ytick_2">
      <g id="line2d_13">
       <g>
        <use xlink:href="#m19d140e166" x="383.107813" y="175.238867" style="stroke: #000000; stroke-width: 0.8"/>
       </g>
      </g>
      <g id="text_2">
       <!-- 9 -->
       <g transform="translate(390.107813 179.363867) scale(0.11 -0.11)">
        <defs>
         <path id="RobotoCondensed-Regular-39" d="M 2744 2563 
Q 2744 2119 2687 1667 
Q 2631 1216 2450 836 
Q 2269 456 1903 225 
Q 1538 -6 869 -6 
L 866 484 
Q 1428 484 1698 690 
Q 1969 897 2072 1233 
Q 2175 1569 2191 1950 
Q 1859 1522 1413 1522 
Q 1025 1522 786 1747 
Q 547 1972 436 2320 
Q 325 2669 325 3041 
Q 325 3691 623 4152 
Q 922 4613 1522 4613 
Q 1969 4613 2237 4344 
Q 2506 4075 2625 3653 
Q 2744 3231 2744 2772 
L 2744 2563 
z
M 866 3072 
Q 866 2666 1020 2334 
Q 1175 2003 1506 2003 
Q 1716 2003 1906 2179 
Q 2097 2356 2194 2616 
L 2194 2850 
Q 2194 3472 1983 3803 
Q 1772 4134 1522 4134 
Q 1206 4134 1036 3829 
Q 866 3525 866 3072 
z
" transform="scale(0.015625)"/>
        </defs>
        <use xlink:href="#RobotoCondensed-Regular-39"/>
       </g>
      </g>
     </g>
     <g id="ytick_3">
      <g id="line2d_14">
       <g>
        <use xlink:href="#m19d140e166" x="383.107813" y="188.126603" style="stroke: #000000; stroke-width: 0.8"/>
       </g>
      </g>
      <g id="text_3">
       <!-- 17 -->
       <g transform="translate(390.107813 192.251603) scale(0.11 -0.11)">
        <defs>
         <path id="RobotoCondensed-Regular-31" d="M 2013 4575 
L 2013 0 
L 1459 0 
L 1459 3853 
L 503 3428 
L 503 3950 
L 1928 4575 
L 2013 4575 
z
" transform="scale(0.015625)"/>
         <path id="RobotoCondensed-Regular-37" d="M 2878 4550 
L 2878 4225 
L 1313 0 
L 731 0 
L 2297 4075 
L 269 4075 
L 269 4550 
L 2878 4550 
z
" transform="scale(0.015625)"/>
        </defs>
        <use xlink:href="#RobotoCondensed-Regular-31"/>
        <use xlink:href="#RobotoCondensed-Regular-37" transform="translate(49.365234 0)"/>
       </g>
      </g>
     </g>
     <g id="ytick_4">
      <g id="line2d_15">
       <g>
        <use xlink:href="#m19d140e166" x="383.107813" y="201.014339" style="stroke: #000000; stroke-width: 0.8"/>
       </g>
      </g>
      <g id="text_4">
       <!-- 26 -->
       <g transform="translate(390.107813 205.139339) scale(0.11 -0.11)">
        <defs>
         <path id="RobotoCondensed-Regular-32" d="M 2909 475 
L 2909 0 
L 366 0 
L 366 416 
L 1628 2088 
Q 1966 2541 2077 2802 
Q 2188 3063 2188 3328 
Q 2188 3663 2027 3900 
Q 1866 4138 1575 4138 
Q 1194 4138 1022 3878 
Q 850 3619 850 3213 
L 297 3213 
Q 297 3788 617 4200 
Q 938 4613 1575 4613 
Q 2125 4613 2433 4278 
Q 2741 3944 2741 3397 
Q 2741 2997 2541 2594 
Q 2341 2191 2047 1809 
L 1028 475 
L 2909 475 
z
" transform="scale(0.015625)"/>
         <path id="RobotoCondensed-Regular-36" d="M 2847 1484 
Q 2847 838 2544 387 
Q 2241 -63 1641 -63 
Q 1216 -63 944 198 
Q 672 459 542 861 
Q 413 1263 413 1684 
L 413 1956 
Q 413 2438 481 2900 
Q 550 3363 742 3738 
Q 934 4113 1296 4334 
Q 1659 4556 2291 4556 
L 2291 4066 
Q 1775 4066 1508 3859 
Q 1241 3653 1122 3318 
Q 1003 2984 978 2606 
Q 1272 2984 1750 2984 
Q 2138 2984 2380 2765 
Q 2622 2547 2734 2201 
Q 2847 1856 2847 1484 
z
M 969 1666 
Q 969 1059 1180 737 
Q 1391 416 1641 416 
Q 1959 416 2129 708 
Q 2300 1000 2300 1456 
Q 2300 1863 2144 2184 
Q 1988 2506 1659 2506 
Q 1425 2506 1236 2329 
Q 1047 2153 969 1900 
L 969 1666 
z
" transform="scale(0.015625)"/>
        </defs>
        <use xlink:href="#RobotoCondensed-Regular-32"/>
        <use xlink:href="#RobotoCondensed-Regular-36" transform="translate(49.365234 0)"/>
       </g>
      </g>
     </g>
     <g id="ytick_5">
      <g id="line2d_16">
       <g>
        <use xlink:href="#m19d140e166" x="383.107813" y="213.902075" style="stroke: #000000; stroke-width: 0.8"/>
       </g>
      </g>
      <g id="text_5">
       <!-- 34 -->
       <g transform="translate(390.107813 218.027075) scale(0.11 -0.11)">
        <defs>
         <path id="RobotoCondensed-Regular-33" d="M 1075 2084 
L 1075 2559 
L 1431 2559 
Q 1788 2559 1961 2781 
Q 2134 3003 2134 3338 
Q 2134 4138 1519 4138 
Q 1228 4138 1054 3927 
Q 881 3716 881 3359 
L 331 3359 
Q 331 3881 653 4247 
Q 975 4613 1519 4613 
Q 2038 4613 2363 4286 
Q 2688 3959 2688 3325 
Q 2688 3072 2550 2786 
Q 2413 2500 2100 2338 
Q 2484 2194 2612 1886 
Q 2741 1578 2741 1269 
Q 2741 631 2389 284 
Q 2038 -63 1516 -63 
Q 1006 -63 656 267 
Q 306 597 306 1203 
L 859 1203 
Q 859 844 1032 628 
Q 1206 413 1516 413 
Q 1822 413 2005 622 
Q 2188 831 2188 1256 
Q 2188 2084 1403 2084 
L 1075 2084 
z
" transform="scale(0.015625)"/>
         <path id="RobotoCondensed-Regular-34" d="M 188 1397 
L 1878 4550 
L 2463 4550 
L 2463 1531 
L 2969 1531 
L 2969 1056 
L 2463 1056 
L 2463 0 
L 1909 0 
L 1909 1056 
L 188 1056 
L 188 1397 
z
M 803 1531 
L 1909 1531 
L 1909 3703 
L 1878 3638 
L 803 1531 
z
" transform="scale(0.015625)"/>
        </defs>
        <use xlink:href="#RobotoCondensed-Regular-33"/>
        <use xlink:href="#RobotoCondensed-Regular-34" transform="translate(49.365234 0)"/>
       </g>
      </g>
     </g>
     <g id="ytick_6">
      <g id="line2d_17">
       <g>
        <use xlink:href="#m19d140e166" x="383.107813" y="226.789811" style="stroke: #000000; stroke-width: 0.8"/>
       </g>
      </g>
      <g id="text_6">
       <!-- 43 -->
       <g transform="translate(390.107813 230.914811) scale(0.11 -0.11)">
        <use xlink:href="#RobotoCondensed-Regular-34"/>
        <use xlink:href="#RobotoCondensed-Regular-33" transform="translate(49.365234 0)"/>
       </g>
      </g>
     </g>
     <g id="text_7">
      <!-- EF1% -->
      <g transform="translate(413.966875 147.52625) rotate(-90) scale(0.12 -0.12)">
       <defs>
        <path id="RobotoCondensed-Regular-45" d="M 491 0 
L 491 4550 
L 2906 4550 
L 2906 4056 
L 1066 4056 
L 1066 2594 
L 2672 2594 
L 2672 2103 
L 1066 2103 
L 1066 491 
L 2938 491 
L 2938 0 
L 491 0 
z
" transform="scale(0.015625)"/>
        <path id="RobotoCondensed-Regular-46" d="M 491 0 
L 491 4550 
L 2859 4550 
L 2859 4056 
L 1066 4056 
L 1066 2503 
L 2600 2503 
L 2600 2009 
L 1066 2009 
L 1066 0 
L 491 0 
z
" transform="scale(0.015625)"/>
        <path id="RobotoCondensed-Regular-25" d="M 334 3675 
Q 334 4063 545 4339 
Q 756 4616 1128 4616 
Q 1506 4616 1717 4339 
Q 1928 4063 1928 3675 
L 1928 3434 
Q 1928 3053 1718 2776 
Q 1509 2500 1134 2500 
Q 759 2500 546 2776 
Q 334 3053 334 3434 
L 334 3675 
z
M 741 3434 
Q 741 3219 836 3047 
Q 931 2875 1134 2875 
Q 1331 2875 1426 3045 
Q 1522 3216 1522 3434 
L 1522 3675 
Q 1522 3894 1425 4067 
Q 1328 4241 1128 4241 
Q 931 4241 836 4067 
Q 741 3894 741 3675 
L 741 3434 
z
M 3116 3903 
L 1250 347 
L 944 553 
L 2813 4109 
L 3116 3903 
z
M 2172 1116 
Q 2172 1500 2384 1776 
Q 2597 2053 2969 2053 
Q 3344 2053 3555 1776 
Q 3766 1500 3766 1116 
L 3766 872 
Q 3766 488 3555 211 
Q 3344 -66 2972 -66 
Q 2597 -66 2384 211 
Q 2172 488 2172 872 
L 2172 1116 
z
M 2578 872 
Q 2578 653 2675 481 
Q 2772 309 2972 309 
Q 3169 309 3264 479 
Q 3359 650 3359 872 
L 3359 1116 
Q 3359 1338 3262 1508 
Q 3166 1678 2969 1678 
Q 2772 1678 2675 1508 
Q 2578 1338 2578 1116 
L 2578 872 
z
" transform="scale(0.015625)"/>
       </defs>
       <use xlink:href="#RobotoCondensed-Regular-45"/>
       <use xlink:href="#RobotoCondensed-Regular-46" transform="translate(49.707031 0)"/>
       <use xlink:href="#RobotoCondensed-Regular-31" transform="translate(97.802734 0)"/>
       <use xlink:href="#RobotoCondensed-Regular-25" transform="translate(147.167969 0)"/>
      </g>
     </g>
    </g>
    <g id="patch_4">
     <path d="M 383.107813 237.1 
L 383.107813 32.7 
" style="fill: none; stroke: #000000; stroke-width: 0.8; stroke-linejoin: miter; stroke-linecap: square"/>
    </g>
   </g>
   <g id="patch_5">
    <path d="M 58.839176 162.351131 
L 85.382311 162.351131 
L 85.382311 87.205748 
L 58.839176 87.205748 
z
" clip-path="url(#pacc276d062)" style="fill: #7c92ff; stroke: #000000; stroke-width: 1.2; stroke-linejoin: miter"/>
   </g>
   <g id="patch_6">
    <path d="M 58.839176 162.351131 
L 85.382311 162.351131 
L 85.382311 170.352041 
L 58.839176 170.352041 
z
" clip-path="url(#pacc276d062)" style="fill: #b8c4ff; stroke: #000000; stroke-width: 1.2; stroke-linejoin: miter"/>
   </g>
   <g id="patch_7">
    <path d="M 143.103098 162.351131 
L 169.646233 162.351131 
L 169.646233 66.956597 
L 143.103098 66.956597 
z
" clip-path="url(#pacc276d062)" style="fill: #7c92ff; stroke: #000000; stroke-width: 1.2; stroke-linejoin: miter"/>
   </g>
   <g id="patch_8">
    <path d="M 143.103098 162.351131 
L 169.646233 162.351131 
L 169.646233 198.045555 
L 143.103098 198.045555 
z
" clip-path="url(#pacc276d062)" style="fill: #b8c4ff; stroke: #000000; stroke-width: 1.2; stroke-linejoin: miter"/>
   </g>
   <g id="patch_9">
    <path d="M 227.367019 162.351131 
L 253.910155 162.351131 
L 253.910155 92.164779 
L 227.367019 92.164779 
z
" clip-path="url(#pacc276d062)" style="fill: #7c92ff; stroke: #000000; stroke-width: 1.2; stroke-linejoin: miter"/>
   </g>
   <g id="patch_10">
    <path d="M 227.367019 162.351131 
L 253.910155 162.351131 
L 253.910155 169.485151 
L 227.367019 169.485151 
z
" clip-path="url(#pacc276d062)" style="fill: #b8c4ff; stroke: #000000; stroke-width: 1.2; stroke-linejoin: miter"/>
   </g>
   <g id="patch_11">
    <path d="M 311.630941 162.351131 
L 338.174076 162.351131 
L 338.174076 59.402683 
L 311.630941 59.402683 
z
" clip-path="url(#pacc276d062)" style="fill: #7c92ff; stroke: #000000; stroke-width: 1.2; stroke-linejoin: miter"/>
   </g>
   <g id="patch_12">
    <path d="M 311.630941 162.351131 
L 338.174076 162.351131 
L 338.174076 208.986751 
L 311.630941 208.986751 
z
" clip-path="url(#pacc276d062)" style="fill: #b8c4ff; stroke: #000000; stroke-width: 1.2; stroke-linejoin: miter"/>
   </g>
   <g id="patch_13">
    <path d="M 88.331549 162.351131 
L 114.874684 162.351131 
L 114.874684 92.609304 
L 88.331549 92.609304 
z
" clip-path="url(#pacc276d062)" style="fill: #69f7ae; stroke: #000000; stroke-width: 1.2; stroke-linejoin: miter"/>
   </g>
   <g id="patch_14">
    <path d="M 88.331549 162.351131 
L 114.874684 162.351131 
L 114.874684 176.091312 
L 88.331549 176.091312 
z
" clip-path="url(#pacc276d062)" style="fill: #a8facd; stroke: #000000; stroke-width: 1.2; stroke-linejoin: miter"/>
   </g>
   <g id="patch_15">
    <path d="M 172.59547 162.351131 
L 199.138606 162.351131 
L 199.138606 80.972668 
L 172.59547 80.972668 
z
" clip-path="url(#pacc276d062)" style="fill: #69f7ae; stroke: #000000; stroke-width: 1.2; stroke-linejoin: miter"/>
   </g>
   <g id="patch_16">
    <path d="M 172.59547 162.351131 
L 199.138606 162.351131 
L 199.138606 182.941124 
L 172.59547 182.941124 
z
" clip-path="url(#pacc276d062)" style="fill: #a8facd; stroke: #000000; stroke-width: 1.2; stroke-linejoin: miter"/>
   </g>
   <g id="patch_17">
    <path d="M 256.859392 162.351131 
L 283.402527 162.351131 
L 283.402527 92.177412 
L 256.859392 92.177412 
z
" clip-path="url(#pacc276d062)" style="fill: #69f7ae; stroke: #000000; stroke-width: 1.2; stroke-linejoin: miter"/>
   </g>
   <g id="patch_18">
    <path d="M 256.859392 162.351131 
L 283.402527 162.351131 
L 283.402527 165.702701 
L 256.859392 165.702701 
z
" clip-path="url(#pacc276d062)" style="fill: #a8facd; stroke: #000000; stroke-width: 1.2; stroke-linejoin: miter"/>
   </g>
   <g id="patch_19">
    <path d="M 341.123314 162.351131 
L 367.666449 162.351131 
L 367.666449 88.71517 
L 341.123314 88.71517 
z
" clip-path="url(#pacc276d062)" style="fill: #69f7ae; stroke: #000000; stroke-width: 1.2; stroke-linejoin: miter"/>
   </g>
   <g id="patch_20">
    <path d="M 341.123314 162.351131 
L 367.666449 162.351131 
L 367.666449 173.454104 
L 341.123314 173.454104 
z
" clip-path="url(#pacc276d062)" style="fill: #a8facd; stroke: #000000; stroke-width: 1.2; stroke-linejoin: miter"/>
   </g>
   <g id="matplotlib.axis_3">
    <g id="xtick_1">
     <g id="line2d_18">
      <defs>
       <path id="m87cfa533f0" d="M 0 0 
L 0 3.5 
" style="stroke: #000000; stroke-width: 0.8"/>
      </defs>
      <g>
       <use xlink:href="#m87cfa533f0" x="86.85693" y="237.1" style="stroke: #000000; stroke-width: 0.8"/>
      </g>
     </g>
     <g id="text_8">
      <!-- Riniker 1 -->
      <g transform="translate(66.328493 253.1) scale(0.12 -0.12)">
       <defs>
        <path id="RobotoCondensed-Regular-52" d="M 2678 0 
L 1869 1844 
L 1069 1844 
L 1069 0 
L 494 0 
L 494 4550 
L 1766 4550 
Q 2444 4550 2783 4208 
Q 3122 3866 3122 3184 
Q 3122 2303 2409 1975 
L 3294 38 
L 3294 0 
L 2678 0 
z
M 1069 4056 
L 1069 2334 
L 1759 2334 
Q 2153 2334 2350 2582 
Q 2547 2831 2547 3184 
Q 2547 3578 2369 3817 
Q 2191 4056 1766 4056 
L 1069 4056 
z
" transform="scale(0.015625)"/>
        <path id="RobotoCondensed-Regular-69" d="M 428 4278 
Q 428 4419 506 4516 
Q 584 4613 741 4613 
Q 894 4613 975 4516 
Q 1056 4419 1056 4278 
Q 1056 4144 975 4048 
Q 894 3953 741 3953 
Q 584 3953 506 4048 
Q 428 4144 428 4278 
z
M 1009 3381 
L 1009 0 
L 459 0 
L 459 3381 
L 1009 3381 
z
" transform="scale(0.015625)"/>
        <path id="RobotoCondensed-Regular-6e" d="M 1603 2956 
Q 1400 2956 1236 2818 
Q 1072 2681 969 2459 
L 969 0 
L 416 0 
L 416 3381 
L 938 3381 
L 953 3022 
Q 1275 3444 1775 3444 
Q 2191 3444 2437 3162 
Q 2684 2881 2684 2216 
L 2684 0 
L 2131 0 
L 2131 2222 
Q 2131 2619 2000 2787 
Q 1869 2956 1603 2956 
z
" transform="scale(0.015625)"/>
        <path id="RobotoCondensed-Regular-6b" d="M 2181 0 
L 1266 1553 
L 972 1213 
L 972 0 
L 419 0 
L 419 4800 
L 972 4800 
L 972 1934 
L 2022 3381 
L 2688 3381 
L 1613 1972 
L 2825 0 
L 2181 0 
z
" transform="scale(0.015625)"/>
        <path id="RobotoCondensed-Regular-65" d="M 2722 447 
Q 2584 253 2323 95 
Q 2063 -63 1625 -63 
Q 1019 -63 666 301 
Q 313 666 309 1431 
L 309 1828 
Q 309 2722 696 3083 
Q 1084 3444 1563 3444 
Q 2197 3444 2472 3034 
Q 2747 2625 2747 1850 
L 2747 1528 
L 863 1528 
L 863 1447 
Q 863 906 1067 657 
Q 1272 409 1656 409 
Q 1934 409 2114 517 
Q 2294 625 2431 794 
L 2722 447 
z
M 1563 2969 
Q 1275 2969 1084 2770 
Q 894 2572 866 2000 
L 2194 2000 
L 2194 2078 
Q 2172 2469 2048 2719 
Q 1925 2969 1563 2969 
z
" transform="scale(0.015625)"/>
        <path id="RobotoCondensed-Regular-72" d="M 1563 2888 
Q 1138 2888 969 2425 
L 969 0 
L 416 0 
L 416 3381 
L 950 3381 
L 963 3041 
Q 1184 3444 1591 3444 
Q 1738 3444 1809 3400 
L 1813 2863 
Q 1691 2888 1563 2888 
z
" transform="scale(0.015625)"/>
        <path id="RobotoCondensed-Regular-20" transform="scale(0.015625)"/>
       </defs>
       <use xlink:href="#RobotoCondensed-Regular-52"/>
       <use xlink:href="#RobotoCondensed-Regular-69" transform="translate(53.076172 0)"/>
       <use xlink:href="#RobotoCondensed-Regular-6e" transform="translate(76.025391 0)"/>
       <use xlink:href="#RobotoCondensed-Regular-69" transform="translate(124.462891 0)"/>
       <use xlink:href="#RobotoCondensed-Regular-6b" transform="translate(147.412109 0)"/>
       <use xlink:href="#RobotoCondensed-Regular-65" transform="translate(192.480469 0)"/>
       <use xlink:href="#RobotoCondensed-Regular-72" transform="translate(239.355469 0)"/>
       <use xlink:href="#RobotoCondensed-Regular-20" transform="translate(269.824219 0)"/>
       <use xlink:href="#RobotoCondensed-Regular-31" transform="translate(292.773438 0)"/>
      </g>
     </g>
    </g>
    <g id="xtick_2">
     <g id="line2d_19">
      <g>
       <use xlink:href="#m87cfa533f0" x="171.120852" y="237.1" style="stroke: #000000; stroke-width: 0.8"/>
      </g>
     </g>
     <g id="text_9">
      <!-- Riniker 2 -->
      <g transform="translate(150.592414 253.1) scale(0.12 -0.12)">
       <use xlink:href="#RobotoCondensed-Regular-52"/>
       <use xlink:href="#RobotoCondensed-Regular-69" transform="translate(53.076172 0)"/>
       <use xlink:href="#RobotoCondensed-Regular-6e" transform="translate(76.025391 0)"/>
       <use xlink:href="#RobotoCondensed-Regular-69" transform="translate(124.462891 0)"/>
       <use xlink:href="#RobotoCondensed-Regular-6b" transform="translate(147.412109 0)"/>
       <use xlink:href="#RobotoCondensed-Regular-65" transform="translate(192.480469 0)"/>
       <use xlink:href="#RobotoCondensed-Regular-72" transform="translate(239.355469 0)"/>
       <use xlink:href="#RobotoCondensed-Regular-20" transform="translate(269.824219 0)"/>
       <use xlink:href="#RobotoCondensed-Regular-32" transform="translate(292.773438 0)"/>
      </g>
     </g>
    </g>
    <g id="xtick_3">
     <g id="line2d_20">
      <g>
       <use xlink:href="#m87cfa533f0" x="255.384773" y="237.1" style="stroke: #000000; stroke-width: 0.8"/>
      </g>
     </g>
     <g id="text_10">
      <!-- MUV -->
      <g transform="translate(244.119773 253.1) scale(0.12 -0.12)">
       <defs>
        <path id="RobotoCondensed-Regular-4d" d="M 2419 841 
L 3606 4550 
L 4341 4550 
L 4341 0 
L 3769 0 
L 3769 1775 
L 3822 3538 
L 2634 0 
L 2197 0 
L 1009 3544 
L 1063 1775 
L 1063 0 
L 491 0 
L 491 4550 
L 1228 4550 
L 2419 841 
z
" transform="scale(0.015625)"/>
        <path id="RobotoCondensed-Regular-55" d="M 2631 4550 
L 3206 4550 
L 3206 1347 
Q 3206 578 2781 257 
Q 2356 -63 1803 -63 
Q 1213 -63 809 257 
Q 406 578 406 1347 
L 406 4550 
L 978 4550 
L 978 1347 
Q 978 813 1203 620 
Q 1428 428 1803 428 
Q 2181 428 2406 620 
Q 2631 813 2631 1347 
L 2631 4550 
z
" transform="scale(0.015625)"/>
        <path id="RobotoCondensed-Regular-56" d="M 3459 4550 
L 2047 0 
L 1547 0 
L 134 4550 
L 759 4550 
L 1794 872 
L 2834 4550 
L 3459 4550 
z
" transform="scale(0.015625)"/>
       </defs>
       <use xlink:href="#RobotoCondensed-Regular-4d"/>
       <use xlink:href="#RobotoCondensed-Regular-55" transform="translate(75.537109 0)"/>
       <use xlink:href="#RobotoCondensed-Regular-56" transform="translate(131.689453 0)"/>
      </g>
     </g>
    </g>
    <g id="xtick_4">
     <g id="line2d_21">
      <g>
       <use xlink:href="#m87cfa533f0" x="339.648695" y="237.1" style="stroke: #000000; stroke-width: 0.8"/>
      </g>
     </g>
     <g id="text_11">
      <!-- DUD-E -->
      <g transform="translate(324.959007 253.1) scale(0.12 -0.12)">
       <defs>
        <path id="RobotoCondensed-Regular-44" d="M 491 0 
L 491 4550 
L 1575 4550 
Q 2344 4550 2800 4070 
Q 3256 3591 3256 2659 
L 3256 1888 
Q 3256 956 2797 478 
Q 2338 0 1522 0 
L 491 0 
z
M 1066 4056 
L 1066 491 
L 1522 491 
Q 2128 491 2404 836 
Q 2681 1181 2688 1856 
L 2688 2666 
Q 2688 3388 2413 3722 
Q 2138 4056 1575 4056 
L 1066 4056 
z
" transform="scale(0.015625)"/>
        <path id="RobotoCondensed-Regular-2d" d="M 1441 2172 
L 1441 1697 
L 150 1697 
L 150 2172 
L 1441 2172 
z
" transform="scale(0.015625)"/>
       </defs>
       <use xlink:href="#RobotoCondensed-Regular-44"/>
       <use xlink:href="#RobotoCondensed-Regular-55" transform="translate(57.080078 0)"/>
       <use xlink:href="#RobotoCondensed-Regular-44" transform="translate(113.232422 0)"/>
       <use xlink:href="#RobotoCondensed-Regular-2d" transform="translate(170.3125 0)"/>
       <use xlink:href="#RobotoCondensed-Regular-45" transform="translate(195.117188 0)"/>
      </g>
     </g>
    </g>
    <g id="text_12">
     <!-- Dataset -->
     <g transform="translate(193.45625 269.2875) scale(0.13 -0.13)">
      <defs>
       <path id="RobotoCondensed-Regular-61" d="M 2156 0 
Q 2103 122 2081 366 
Q 1966 194 1775 65 
Q 1584 -63 1334 -63 
Q 891 -63 623 187 
Q 356 438 356 922 
Q 356 1409 690 1729 
Q 1025 2050 1691 2050 
L 2072 2050 
L 2072 2413 
Q 2072 2713 1936 2841 
Q 1800 2969 1528 2969 
Q 1263 2969 1114 2812 
Q 966 2656 966 2444 
L 413 2444 
Q 413 2806 722 3125 
Q 1031 3444 1556 3444 
Q 2025 3444 2325 3209 
Q 2625 2975 2625 2406 
L 2625 794 
Q 2625 316 2728 50 
L 2728 0 
L 2156 0 
z
M 1419 441 
Q 1653 441 1825 562 
Q 1997 684 2072 834 
L 2072 1644 
L 1781 1644 
Q 1384 1644 1146 1475 
Q 909 1306 909 991 
Q 909 688 1036 564 
Q 1163 441 1419 441 
z
" transform="scale(0.015625)"/>
       <path id="RobotoCondensed-Regular-74" d="M 1647 0 
Q 1488 -63 1259 -63 
Q 991 -63 789 134 
Q 588 331 588 841 
L 588 2938 
L 72 2938 
L 72 3381 
L 588 3381 
L 588 4203 
L 1141 4203 
L 1141 3381 
L 1650 3381 
L 1650 2938 
L 1141 2938 
L 1141 838 
Q 1141 578 1230 506 
Q 1319 434 1431 434 
Q 1550 434 1650 472 
L 1647 0 
z
" transform="scale(0.015625)"/>
       <path id="RobotoCondensed-Regular-73" d="M 2056 866 
Q 2056 1059 1907 1190 
Q 1759 1322 1340 1500 
Q 922 1678 681 1863 
Q 409 2072 409 2484 
Q 409 2888 703 3166 
Q 997 3444 1481 3444 
Q 2000 3444 2287 3150 
Q 2575 2856 2575 2419 
L 2025 2419 
Q 2025 2628 1884 2798 
Q 1744 2969 1481 2969 
Q 1203 2969 1083 2828 
Q 963 2688 963 2503 
Q 963 2319 1081 2217 
Q 1200 2116 1553 1959 
Q 2066 1756 2337 1537 
Q 2609 1319 2609 909 
Q 2609 463 2303 200 
Q 1997 -63 1494 -63 
Q 919 -63 616 265 
Q 313 594 313 1013 
L 866 1013 
Q 881 653 1081 533 
Q 1281 413 1494 413 
Q 2056 413 2056 866 
z
" transform="scale(0.015625)"/>
      </defs>
      <use xlink:href="#RobotoCondensed-Regular-44"/>
      <use xlink:href="#RobotoCondensed-Regular-61" transform="translate(57.080078 0)"/>
      <use xlink:href="#RobotoCondensed-Regular-74" transform="translate(104.980469 0)"/>
      <use xlink:href="#RobotoCondensed-Regular-61" transform="translate(134.570312 0)"/>
      <use xlink:href="#RobotoCondensed-Regular-73" transform="translate(182.470703 0)"/>
      <use xlink:href="#RobotoCondensed-Regular-65" transform="translate(228.076172 0)"/>
      <use xlink:href="#RobotoCondensed-Regular-74" transform="translate(274.951172 0)"/>
     </g>
    </g>
   </g>
   <g id="matplotlib.axis_4">
    <g id="ytick_7">
     <g id="line2d_22">
      <defs>
       <path id="m2e90569bf2" d="M 0 0 
L -3.5 0 
" style="stroke: #000000; stroke-width: 0.8"/>
      </defs>
      <g>
       <use xlink:href="#m2e90569bf2" x="43.397813" y="162.351131" style="stroke: #000000; stroke-width: 0.8"/>
      </g>
     </g>
     <g id="text_13">
      <!-- 0.0 -->
      <g transform="translate(22.6375 166.476131) scale(0.11 -0.11)">
       <defs>
        <path id="RobotoCondensed-Regular-2e" d="M 450 306 
Q 450 453 542 554 
Q 634 656 809 656 
Q 984 656 1076 554 
Q 1169 453 1169 306 
Q 1169 163 1076 62 
Q 984 -38 809 -38 
Q 634 -38 542 62 
Q 450 163 450 306 
z
" transform="scale(0.015625)"/>
       </defs>
       <use xlink:href="#RobotoCondensed-Regular-30"/>
       <use xlink:href="#RobotoCondensed-Regular-2e" transform="translate(49.365234 0)"/>
       <use xlink:href="#RobotoCondensed-Regular-30" transform="translate(75.732422 0)"/>
      </g>
     </g>
    </g>
    <g id="ytick_8">
     <g id="line2d_23">
      <g>
       <use xlink:href="#m2e90569bf2" x="43.397813" y="136.575659" style="stroke: #000000; stroke-width: 0.8"/>
      </g>
     </g>
     <g id="text_14">
      <!-- 0.2 -->
      <g transform="translate(22.6375 140.700659) scale(0.11 -0.11)">
       <use xlink:href="#RobotoCondensed-Regular-30"/>
       <use xlink:href="#RobotoCondensed-Regular-2e" transform="translate(49.365234 0)"/>
       <use xlink:href="#RobotoCondensed-Regular-32" transform="translate(75.732422 0)"/>
      </g>
     </g>
    </g>
    <g id="ytick_9">
     <g id="line2d_24">
      <g>
       <use xlink:href="#m2e90569bf2" x="43.397813" y="110.800187" style="stroke: #000000; stroke-width: 0.8"/>
      </g>
     </g>
     <g id="text_15">
      <!-- 0.4 -->
      <g transform="translate(22.6375 114.925187) scale(0.11 -0.11)">
       <use xlink:href="#RobotoCondensed-Regular-30"/>
       <use xlink:href="#RobotoCondensed-Regular-2e" transform="translate(49.365234 0)"/>
       <use xlink:href="#RobotoCondensed-Regular-34" transform="translate(75.732422 0)"/>
      </g>
     </g>
    </g>
    <g id="ytick_10">
     <g id="line2d_25">
      <g>
       <use xlink:href="#m2e90569bf2" x="43.397813" y="85.024714" style="stroke: #000000; stroke-width: 0.8"/>
      </g>
     </g>
     <g id="text_16">
      <!-- 0.6 -->
      <g transform="translate(22.6375 89.149714) scale(0.11 -0.11)">
       <use xlink:href="#RobotoCondensed-Regular-30"/>
       <use xlink:href="#RobotoCondensed-Regular-2e" transform="translate(49.365234 0)"/>
       <use xlink:href="#RobotoCondensed-Regular-36" transform="translate(75.732422 0)"/>
      </g>
     </g>
    </g>
    <g id="ytick_11">
     <g id="line2d_26">
      <g>
       <use xlink:href="#m2e90569bf2" x="43.397813" y="59.249242" style="stroke: #000000; stroke-width: 0.8"/>
      </g>
     </g>
     <g id="text_17">
      <!-- 0.8 -->
      <g transform="translate(22.6375 63.374242) scale(0.11 -0.11)">
       <defs>
        <path id="RobotoCondensed-Regular-38" d="M 2794 1231 
Q 2794 606 2445 271 
Q 2097 -63 1578 -63 
Q 1063 -63 714 273 
Q 366 609 366 1231 
Q 366 1613 536 1905 
Q 706 2197 1000 2347 
Q 450 2666 450 3366 
Q 450 3963 769 4288 
Q 1088 4613 1581 4613 
Q 2075 4613 2392 4288 
Q 2709 3963 2709 3366 
Q 2709 3028 2557 2761 
Q 2406 2494 2150 2344 
Q 2444 2194 2619 1901 
Q 2794 1609 2794 1231 
z
M 2156 3356 
Q 2156 3697 2000 3917 
Q 1844 4138 1581 4138 
Q 1319 4138 1161 3927 
Q 1003 3716 1003 3356 
Q 1003 3003 1159 2790 
Q 1316 2578 1581 2578 
Q 1844 2578 2000 2790 
Q 2156 3003 2156 3356 
z
M 2244 1244 
Q 2244 1625 2061 1865 
Q 1878 2106 1575 2106 
Q 1266 2106 1091 1865 
Q 916 1625 916 1244 
Q 916 850 1089 631 
Q 1263 413 1578 413 
Q 1897 413 2070 631 
Q 2244 850 2244 1244 
z
" transform="scale(0.015625)"/>
       </defs>
       <use xlink:href="#RobotoCondensed-Regular-30"/>
       <use xlink:href="#RobotoCondensed-Regular-2e" transform="translate(49.365234 0)"/>
       <use xlink:href="#RobotoCondensed-Regular-38" transform="translate(75.732422 0)"/>
      </g>
     </g>
    </g>
    <g id="ytick_12">
     <g id="line2d_27">
      <g>
       <use xlink:href="#m2e90569bf2" x="43.397813" y="33.47377" style="stroke: #000000; stroke-width: 0.8"/>
      </g>
     </g>
     <g id="text_18">
      <!-- 1.0 -->
      <g transform="translate(22.6375 37.59877) scale(0.11 -0.11)">
       <use xlink:href="#RobotoCondensed-Regular-31"/>
       <use xlink:href="#RobotoCondensed-Regular-2e" transform="translate(49.365234 0)"/>
       <use xlink:href="#RobotoCondensed-Regular-30" transform="translate(75.732422 0)"/>
      </g>
     </g>
    </g>
    <g id="text_19">
     <!-- AUC -->
     <g transform="translate(16.2 145.130937) rotate(-90) scale(0.12 -0.12)">
      <defs>
       <path id="RobotoCondensed-Regular-41" d="M 134 0 
L 1600 4550 
L 2094 4550 
L 3559 0 
L 2972 0 
L 2616 1191 
L 1078 1191 
L 722 0 
L 134 0 
z
M 1228 1684 
L 2466 1684 
L 1847 3750 
L 1228 1684 
z
" transform="scale(0.015625)"/>
       <path id="RobotoCondensed-Regular-43" d="M 2769 1447 
L 3344 1447 
Q 3313 744 2950 340 
Q 2588 -63 1878 -63 
Q 1194 -63 792 457 
Q 391 978 391 1856 
L 391 2697 
Q 391 3572 798 4092 
Q 1206 4613 1931 4613 
Q 2594 4613 2953 4219 
Q 3313 3825 3344 3091 
L 2769 3091 
Q 2734 3628 2543 3873 
Q 2353 4119 1931 4119 
Q 1431 4119 1198 3731 
Q 966 3344 966 2703 
L 966 1856 
Q 966 1259 1170 843 
Q 1375 428 1878 428 
Q 2350 428 2537 665 
Q 2725 903 2769 1447 
z
" transform="scale(0.015625)"/>
      </defs>
      <use xlink:href="#RobotoCondensed-Regular-41"/>
      <use xlink:href="#RobotoCondensed-Regular-55" transform="translate(57.666016 0)"/>
      <use xlink:href="#RobotoCondensed-Regular-43" transform="translate(113.818359 0)"/>
     </g>
    </g>
   </g>
   <g id="LineCollection_1">
    <path d="M 72.110744 100.29799 
L 72.110744 74.113506 
" clip-path="url(#pacc276d062)" style="fill: none; stroke: #000000; stroke-width: 1.5"/>
   </g>
   <g id="line2d_28">
    <defs>
     <path id="m506fca4648" d="M 3 0 
L -3 -0 
" style="stroke: #000000; stroke-width: 1.5"/>
    </defs>
    <g clip-path="url(#pacc276d062)">
     <use xlink:href="#m506fca4648" x="72.110744" y="100.29799" style="fill: #1f77b4; stroke: #000000; stroke-width: 1.5"/>
    </g>
   </g>
   <g id="line2d_29">
    <g clip-path="url(#pacc276d062)">
     <use xlink:href="#m506fca4648" x="72.110744" y="74.113506" style="fill: #1f77b4; stroke: #000000; stroke-width: 1.5"/>
    </g>
   </g>
   <g id="LineCollection_2">
    <path d="M 72.110744 176.300186 
L 72.110744 164.403895 
" clip-path="url(#pacc276d062)" style="fill: none; stroke: #000000; stroke-width: 1.5"/>
   </g>
   <g id="line2d_30">
    <g clip-path="url(#pacc276d062)">
     <use xlink:href="#m506fca4648" x="72.110744" y="176.300186" style="fill: #1f77b4; stroke: #000000; stroke-width: 1.5"/>
    </g>
   </g>
   <g id="line2d_31">
    <g clip-path="url(#pacc276d062)">
     <use xlink:href="#m506fca4648" x="72.110744" y="164.403895" style="fill: #1f77b4; stroke: #000000; stroke-width: 1.5"/>
    </g>
   </g>
   <g id="LineCollection_3">
    <path d="M 156.374665 81.571918 
L 156.374665 52.341277 
" clip-path="url(#pacc276d062)" style="fill: none; stroke: #000000; stroke-width: 1.5"/>
   </g>
   <g id="line2d_32">
    <g clip-path="url(#pacc276d062)">
     <use xlink:href="#m506fca4648" x="156.374665" y="81.571918" style="fill: #1f77b4; stroke: #000000; stroke-width: 1.5"/>
    </g>
   </g>
   <g id="line2d_33">
    <g clip-path="url(#pacc276d062)">
     <use xlink:href="#m506fca4648" x="156.374665" y="52.341277" style="fill: #1f77b4; stroke: #000000; stroke-width: 1.5"/>
    </g>
   </g>
   <g id="LineCollection_4">
    <path d="M 156.374665 221.469103 
L 156.374665 174.622007 
" clip-path="url(#pacc276d062)" style="fill: none; stroke: #000000; stroke-width: 1.5"/>
   </g>
   <g id="line2d_34">
    <g clip-path="url(#pacc276d062)">
     <use xlink:href="#m506fca4648" x="156.374665" y="221.469103" style="fill: #1f77b4; stroke: #000000; stroke-width: 1.5"/>
    </g>
   </g>
   <g id="line2d_35">
    <g clip-path="url(#pacc276d062)">
     <use xlink:href="#m506fca4648" x="156.374665" y="174.622007" style="fill: #1f77b4; stroke: #000000; stroke-width: 1.5"/>
    </g>
   </g>
   <g id="LineCollection_5">
    <path d="M 240.638587 101.501637 
L 240.638587 82.82792 
" clip-path="url(#pacc276d062)" style="fill: none; stroke: #000000; stroke-width: 1.5"/>
   </g>
   <g id="line2d_36">
    <g clip-path="url(#pacc276d062)">
     <use xlink:href="#m506fca4648" x="240.638587" y="101.501637" style="fill: #1f77b4; stroke: #000000; stroke-width: 1.5"/>
    </g>
   </g>
   <g id="line2d_37">
    <g clip-path="url(#pacc276d062)">
     <use xlink:href="#m506fca4648" x="240.638587" y="82.82792" style="fill: #1f77b4; stroke: #000000; stroke-width: 1.5"/>
    </g>
   </g>
   <g id="LineCollection_6">
    <path d="M 240.638587 174.321919 
L 240.638587 164.648382 
" clip-path="url(#pacc276d062)" style="fill: none; stroke: #000000; stroke-width: 1.5"/>
   </g>
   <g id="line2d_38">
    <g clip-path="url(#pacc276d062)">
     <use xlink:href="#m506fca4648" x="240.638587" y="174.321919" style="fill: #1f77b4; stroke: #000000; stroke-width: 1.5"/>
    </g>
   </g>
   <g id="line2d_39">
    <g clip-path="url(#pacc276d062)">
     <use xlink:href="#m506fca4648" x="240.638587" y="164.648382" style="fill: #1f77b4; stroke: #000000; stroke-width: 1.5"/>
    </g>
   </g>
   <g id="LineCollection_7">
    <path d="M 324.902509 70.640082 
L 324.902509 48.165283 
" clip-path="url(#pacc276d062)" style="fill: none; stroke: #000000; stroke-width: 1.5"/>
   </g>
   <g id="line2d_40">
    <g clip-path="url(#pacc276d062)">
     <use xlink:href="#m506fca4648" x="324.902509" y="70.640082" style="fill: #1f77b4; stroke: #000000; stroke-width: 1.5"/>
    </g>
   </g>
   <g id="line2d_41">
    <g clip-path="url(#pacc276d062)">
     <use xlink:href="#m506fca4648" x="324.902509" y="48.165283" style="fill: #1f77b4; stroke: #000000; stroke-width: 1.5"/>
    </g>
   </g>
   <g id="LineCollection_8">
    <path d="M 324.902509 226.789811 
L 324.902509 191.183691 
" clip-path="url(#pacc276d062)" style="fill: none; stroke: #000000; stroke-width: 1.5"/>
   </g>
   <g id="line2d_42">
    <g clip-path="url(#pacc276d062)">
     <use xlink:href="#m506fca4648" x="324.902509" y="226.789811" style="fill: #1f77b4; stroke: #000000; stroke-width: 1.5"/>
    </g>
   </g>
   <g id="line2d_43">
    <g clip-path="url(#pacc276d062)">
     <use xlink:href="#m506fca4648" x="324.902509" y="191.183691" style="fill: #1f77b4; stroke: #000000; stroke-width: 1.5"/>
    </g>
   </g>
   <g id="LineCollection_9">
    <path d="M 101.603116 103.229347 
L 101.603116 81.989261 
" clip-path="url(#pacc276d062)" style="fill: none; stroke: #000000; stroke-width: 1.5"/>
   </g>
   <g id="line2d_44">
    <g clip-path="url(#pacc276d062)">
     <use xlink:href="#m506fca4648" x="101.603116" y="103.229347" style="fill: #1f77b4; stroke: #000000; stroke-width: 1.5"/>
    </g>
   </g>
   <g id="line2d_45">
    <g clip-path="url(#pacc276d062)">
     <use xlink:href="#m506fca4648" x="101.603116" y="81.989261" style="fill: #1f77b4; stroke: #000000; stroke-width: 1.5"/>
    </g>
   </g>
   <g id="LineCollection_10">
    <path d="M 101.603116 185.340718 
L 101.603116 166.841906 
" clip-path="url(#pacc276d062)" style="fill: none; stroke: #000000; stroke-width: 1.5"/>
   </g>
   <g id="line2d_46">
    <g clip-path="url(#pacc276d062)">
     <use xlink:href="#m506fca4648" x="101.603116" y="185.340718" style="fill: #1f77b4; stroke: #000000; stroke-width: 1.5"/>
    </g>
   </g>
   <g id="line2d_47">
    <g clip-path="url(#pacc276d062)">
     <use xlink:href="#m506fca4648" x="101.603116" y="166.841906" style="fill: #1f77b4; stroke: #000000; stroke-width: 1.5"/>
    </g>
   </g>
   <g id="LineCollection_11">
    <path d="M 185.867038 93.010521 
L 185.867038 68.934815 
" clip-path="url(#pacc276d062)" style="fill: none; stroke: #000000; stroke-width: 1.5"/>
   </g>
   <g id="line2d_48">
    <g clip-path="url(#pacc276d062)">
     <use xlink:href="#m506fca4648" x="185.867038" y="93.010521" style="fill: #1f77b4; stroke: #000000; stroke-width: 1.5"/>
    </g>
   </g>
   <g id="line2d_49">
    <g clip-path="url(#pacc276d062)">
     <use xlink:href="#m506fca4648" x="185.867038" y="68.934815" style="fill: #1f77b4; stroke: #000000; stroke-width: 1.5"/>
    </g>
   </g>
   <g id="LineCollection_12">
    <path d="M 185.867038 197.809162 
L 185.867038 168.073087 
" clip-path="url(#pacc276d062)" style="fill: none; stroke: #000000; stroke-width: 1.5"/>
   </g>
   <g id="line2d_50">
    <g clip-path="url(#pacc276d062)">
     <use xlink:href="#m506fca4648" x="185.867038" y="197.809162" style="fill: #1f77b4; stroke: #000000; stroke-width: 1.5"/>
    </g>
   </g>
   <g id="line2d_51">
    <g clip-path="url(#pacc276d062)">
     <use xlink:href="#m506fca4648" x="185.867038" y="168.073087" style="fill: #1f77b4; stroke: #000000; stroke-width: 1.5"/>
    </g>
   </g>
   <g id="LineCollection_13">
    <path d="M 270.13096 97.754875 
L 270.13096 86.59995 
" clip-path="url(#pacc276d062)" style="fill: none; stroke: #000000; stroke-width: 1.5"/>
   </g>
   <g id="line2d_52">
    <g clip-path="url(#pacc276d062)">
     <use xlink:href="#m506fca4648" x="270.13096" y="97.754875" style="fill: #1f77b4; stroke: #000000; stroke-width: 1.5"/>
    </g>
   </g>
   <g id="line2d_53">
    <g clip-path="url(#pacc276d062)">
     <use xlink:href="#m506fca4648" x="270.13096" y="86.59995" style="fill: #1f77b4; stroke: #000000; stroke-width: 1.5"/>
    </g>
   </g>
   <g id="LineCollection_14">
    <path d="M 270.13096 167.313712 
L 270.13096 164.091691 
" clip-path="url(#pacc276d062)" style="fill: none; stroke: #000000; stroke-width: 1.5"/>
   </g>
   <g id="line2d_54">
    <g clip-path="url(#pacc276d062)">
     <use xlink:href="#m506fca4648" x="270.13096" y="167.313712" style="fill: #1f77b4; stroke: #000000; stroke-width: 1.5"/>
    </g>
   </g>
   <g id="line2d_55">
    <g clip-path="url(#pacc276d062)">
     <use xlink:href="#m506fca4648" x="270.13096" y="164.091691" style="fill: #1f77b4; stroke: #000000; stroke-width: 1.5"/>
    </g>
   </g>
   <g id="LineCollection_15">
    <path d="M 354.394881 93.964795 
L 354.394881 83.465544 
" clip-path="url(#pacc276d062)" style="fill: none; stroke: #000000; stroke-width: 1.5"/>
   </g>
   <g id="line2d_56">
    <g clip-path="url(#pacc276d062)">
     <use xlink:href="#m506fca4648" x="354.394881" y="93.964795" style="fill: #1f77b4; stroke: #000000; stroke-width: 1.5"/>
    </g>
   </g>
   <g id="line2d_57">
    <g clip-path="url(#pacc276d062)">
     <use xlink:href="#m506fca4648" x="354.394881" y="83.465544" style="fill: #1f77b4; stroke: #000000; stroke-width: 1.5"/>
    </g>
   </g>
   <g id="LineCollection_16">
    <path d="M 354.394881 179.002591 
L 354.394881 167.905617 
" clip-path="url(#pacc276d062)" style="fill: none; stroke: #000000; stroke-width: 1.5"/>
   </g>
   <g id="line2d_58">
    <g clip-path="url(#pacc276d062)">
     <use xlink:href="#m506fca4648" x="354.394881" y="179.002591" style="fill: #1f77b4; stroke: #000000; stroke-width: 1.5"/>
    </g>
   </g>
   <g id="line2d_59">
    <g clip-path="url(#pacc276d062)">
     <use xlink:href="#m506fca4648" x="354.394881" y="167.905617" style="fill: #1f77b4; stroke: #000000; stroke-width: 1.5"/>
    </g>
   </g>
   <g id="line2d_60">
    <path d="M 43.397813 162.351131 
L 383.107812 162.351131 
" clip-path="url(#pacc276d062)" style="fill: none; stroke: #000000; stroke-width: 1.5; stroke-linecap: square"/>
   </g>
   <g id="patch_21">
    <path d="M 43.397813 237.1 
L 43.397813 32.7 
" style="fill: none; stroke: #000000; stroke-width: 0.8; stroke-linejoin: miter; stroke-linecap: square"/>
   </g>
   <g id="patch_22">
    <path d="M 383.107812 237.1 
L 383.107812 32.7 
" style="fill: none; stroke: #000000; stroke-width: 0.8; stroke-linejoin: miter; stroke-linecap: square"/>
   </g>
   <g id="patch_23">
    <path d="M 43.397812 237.1 
L 383.107812 237.1 
" style="fill: none; stroke: #000000; stroke-width: 0.8; stroke-linejoin: miter; stroke-linecap: square"/>
   </g>
   <g id="patch_24">
    <path d="M 43.397812 32.7 
L 383.107812 32.7 
" style="fill: none; stroke: #000000; stroke-width: 0.8; stroke-linejoin: miter; stroke-linecap: square"/>
   </g>
   <g id="text_20">
    <!-- Bioactivity Prediction: AUC and EF1% by Dataset and Encoding -->
    <g transform="translate(41.453125 17.7) scale(0.14 -0.14)">
     <defs>
      <path id="RobotoCondensed-Regular-42" d="M 3125 1313 
Q 3125 675 2776 337 
Q 2428 0 1847 0 
L 491 0 
L 491 4550 
L 1791 4550 
Q 2375 4550 2706 4261 
Q 3038 3972 3038 3338 
Q 3038 3025 2880 2779 
Q 2722 2534 2453 2400 
Q 2781 2297 2953 1998 
Q 3125 1700 3125 1313 
z
M 1066 4056 
L 1066 2613 
L 1797 2613 
Q 2088 2613 2275 2806 
Q 2463 3000 2463 3344 
Q 2463 4041 1819 4056 
L 1066 4056 
z
M 2550 1306 
Q 2550 2106 1906 2128 
L 1066 2128 
L 1066 491 
L 1847 491 
Q 2181 491 2365 711 
Q 2550 931 2550 1306 
z
" transform="scale(0.015625)"/>
      <path id="RobotoCondensed-Regular-6f" d="M 300 1850 
Q 300 2641 678 3042 
Q 1056 3444 1603 3444 
Q 2156 3444 2536 3042 
Q 2916 2641 2916 1850 
L 2916 1528 
Q 2916 738 2536 337 
Q 2156 -63 1609 -63 
Q 1059 -63 679 337 
Q 300 738 300 1528 
L 300 1850 
z
M 853 1528 
Q 853 969 1068 689 
Q 1284 409 1609 409 
Q 2341 409 2363 1466 
L 2363 1850 
Q 2363 2403 2145 2686 
Q 1928 2969 1603 2969 
Q 1281 2969 1067 2686 
Q 853 2403 853 1850 
L 853 1528 
z
" transform="scale(0.015625)"/>
      <path id="RobotoCondensed-Regular-63" d="M 1588 409 
Q 1834 409 2012 564 
Q 2191 719 2213 1069 
L 2731 1069 
Q 2713 559 2378 248 
Q 2044 -63 1588 -63 
Q 934 -63 621 342 
Q 309 747 303 1472 
L 303 1881 
Q 303 2619 617 3031 
Q 931 3444 1588 3444 
Q 2103 3444 2408 3120 
Q 2713 2797 2731 2219 
L 2213 2219 
Q 2169 2969 1588 2969 
Q 1150 2969 1003 2672 
Q 856 2375 856 1881 
L 856 1500 
Q 856 1003 1001 706 
Q 1147 409 1588 409 
z
" transform="scale(0.015625)"/>
      <path id="RobotoCondensed-Regular-76" d="M 2578 3381 
L 1575 0 
L 1159 0 
L 144 3381 
L 706 3381 
L 1372 847 
L 2016 3381 
L 2578 3381 
z
" transform="scale(0.015625)"/>
      <path id="RobotoCondensed-Regular-79" d="M 1425 -522 
Q 1153 -1366 563 -1366 
Q 409 -1366 278 -1316 
L 278 -847 
Q 328 -859 397 -859 
Q 631 -859 770 -746 
Q 909 -634 997 -338 
L 1106 31 
L 109 3381 
L 713 3381 
L 1341 922 
L 1953 3381 
L 2541 3381 
L 1425 -522 
z
" transform="scale(0.015625)"/>
      <path id="RobotoCondensed-Regular-50" d="M 1066 1784 
L 1066 0 
L 491 0 
L 491 4550 
L 1941 4550 
Q 2600 4550 2951 4159 
Q 3303 3769 3303 3163 
Q 3303 2506 2954 2147 
Q 2606 1788 1950 1784 
L 1066 1784 
z
M 1066 4056 
L 1066 2275 
L 1941 2275 
Q 2359 2275 2543 2522 
Q 2728 2769 2728 3156 
Q 2728 3506 2543 3781 
Q 2359 4056 1941 4056 
L 1066 4056 
z
" transform="scale(0.015625)"/>
      <path id="RobotoCondensed-Regular-64" d="M 2234 0 
L 2209 366 
Q 1941 -63 1425 -63 
Q 925 -63 611 331 
Q 297 725 297 1528 
L 297 1844 
Q 297 2678 609 3061 
Q 922 3444 1431 3444 
Q 1922 3444 2188 3050 
L 2188 4800 
L 2738 4800 
L 2738 0 
L 2234 0 
z
M 850 1528 
Q 850 963 1019 695 
Q 1188 428 1569 428 
Q 1981 428 2188 847 
L 2188 2544 
Q 1972 2956 1575 2956 
Q 1194 2956 1023 2687 
Q 853 2419 850 1866 
L 850 1528 
z
" transform="scale(0.015625)"/>
      <path id="RobotoCondensed-Regular-3a" d="M 434 306 
Q 434 453 526 554 
Q 618 656 793 656 
Q 968 656 1060 554 
Q 1153 453 1153 306 
Q 1153 163 1060 62 
Q 968 -38 793 -38 
Q 618 -38 526 62 
Q 434 163 434 306 
z
M 426 3058 
Q 426 3205 518 3306 
Q 610 3408 785 3408 
Q 960 3408 1052 3306 
Q 1145 3205 1145 3058 
Q 1145 2915 1052 2814 
Q 960 2714 785 2714 
Q 610 2714 518 2814 
Q 426 2915 426 3058 
z
" transform="scale(0.015625)"/>
      <path id="RobotoCondensed-Regular-62" d="M 2866 1528 
Q 2866 725 2575 331 
Q 2284 -63 1753 -63 
Q 1219 -63 950 400 
L 922 0 
L 416 0 
L 416 4800 
L 969 4800 
L 969 3016 
Q 1234 3444 1750 3444 
Q 2278 3444 2567 3073 
Q 2856 2703 2866 1897 
L 2866 1528 
z
M 1606 2956 
Q 1181 2956 969 2497 
L 969 884 
Q 1181 428 1609 428 
Q 1984 428 2146 690 
Q 2309 953 2313 1506 
L 2313 1844 
Q 2313 2406 2159 2681 
Q 2006 2956 1606 2956 
z
" transform="scale(0.015625)"/>
      <path id="RobotoCondensed-Regular-67" d="M 1525 -1334 
Q 1331 -1334 1007 -1229 
Q 684 -1125 497 -906 
L 725 -522 
Q 1056 -859 1484 -859 
Q 1806 -859 2000 -679 
Q 2194 -500 2194 -56 
L 2194 338 
Q 1925 -63 1428 -63 
Q 919 -63 611 331 
Q 303 725 303 1528 
L 303 1844 
Q 303 2678 608 3061 
Q 913 3444 1434 3444 
Q 1953 3444 2219 3006 
L 2247 3381 
L 2744 3381 
L 2744 -41 
Q 2741 -703 2402 -1018 
Q 2063 -1334 1525 -1334 
z
M 856 1528 
Q 856 963 1025 695 
Q 1194 428 1572 428 
Q 1988 428 2194 853 
L 2194 2541 
Q 1978 2956 1578 2956 
Q 1197 2956 1028 2687 
Q 859 2419 856 1866 
L 856 1528 
z
" transform="scale(0.015625)"/>
     </defs>
     <use xlink:href="#RobotoCondensed-Regular-42"/>
     <use xlink:href="#RobotoCondensed-Regular-69" transform="translate(54.589844 0)"/>
     <use xlink:href="#RobotoCondensed-Regular-6f" transform="translate(77.539062 0)"/>
     <use xlink:href="#RobotoCondensed-Regular-61" transform="translate(127.734375 0)"/>
     <use xlink:href="#RobotoCondensed-Regular-63" transform="translate(175.634766 0)"/>
     <use xlink:href="#RobotoCondensed-Regular-74" transform="translate(221.826172 0)"/>
     <use xlink:href="#RobotoCondensed-Regular-69" transform="translate(251.416016 0)"/>
     <use xlink:href="#RobotoCondensed-Regular-76" transform="translate(274.365234 0)"/>
     <use xlink:href="#RobotoCondensed-Regular-69" transform="translate(317.138672 0)"/>
     <use xlink:href="#RobotoCondensed-Regular-74" transform="translate(340.087891 0)"/>
     <use xlink:href="#RobotoCondensed-Regular-79" transform="translate(369.677734 0)"/>
     <use xlink:href="#RobotoCondensed-Regular-20" transform="translate(411.328125 0)"/>
     <use xlink:href="#RobotoCondensed-Regular-50" transform="translate(434.277344 0)"/>
     <use xlink:href="#RobotoCondensed-Regular-72" transform="translate(489.697266 0)"/>
     <use xlink:href="#RobotoCondensed-Regular-65" transform="translate(520.166016 0)"/>
     <use xlink:href="#RobotoCondensed-Regular-64" transform="translate(567.041016 0)"/>
     <use xlink:href="#RobotoCondensed-Regular-69" transform="translate(616.650391 0)"/>
     <use xlink:href="#RobotoCondensed-Regular-63" transform="translate(639.599609 0)"/>
     <use xlink:href="#RobotoCondensed-Regular-74" transform="translate(685.791016 0)"/>
     <use xlink:href="#RobotoCondensed-Regular-69" transform="translate(715.380859 0)"/>
     <use xlink:href="#RobotoCondensed-Regular-6f" transform="translate(738.330078 0)"/>
     <use xlink:href="#RobotoCondensed-Regular-6e" transform="translate(788.525391 0)"/>
     <use xlink:href="#RobotoCondensed-Regular-3a" transform="translate(836.962891 0)"/>
     <use xlink:href="#RobotoCondensed-Regular-20" transform="translate(860.302734 0)"/>
     <use xlink:href="#RobotoCondensed-Regular-41" transform="translate(883.251953 0)"/>
     <use xlink:href="#RobotoCondensed-Regular-55" transform="translate(940.917969 0)"/>
     <use xlink:href="#RobotoCondensed-Regular-43" transform="translate(997.070312 0)"/>
     <use xlink:href="#RobotoCondensed-Regular-20" transform="translate(1053.759766 0)"/>
     <use xlink:href="#RobotoCondensed-Regular-61" transform="translate(1076.708984 0)"/>
     <use xlink:href="#RobotoCondensed-Regular-6e" transform="translate(1124.609375 0)"/>
     <use xlink:href="#RobotoCondensed-Regular-64" transform="translate(1173.046875 0)"/>
     <use xlink:href="#RobotoCondensed-Regular-20" transform="translate(1222.65625 0)"/>
     <use xlink:href="#RobotoCondensed-Regular-45" transform="translate(1245.605469 0)"/>
     <use xlink:href="#RobotoCondensed-Regular-46" transform="translate(1295.3125 0)"/>
     <use xlink:href="#RobotoCondensed-Regular-31" transform="translate(1343.408203 0)"/>
     <use xlink:href="#RobotoCondensed-Regular-25" transform="translate(1392.773438 0)"/>
     <use xlink:href="#RobotoCondensed-Regular-20" transform="translate(1456.054688 0)"/>
     <use xlink:href="#RobotoCondensed-Regular-62" transform="translate(1479.003906 0)"/>
     <use xlink:href="#RobotoCondensed-Regular-79" transform="translate(1528.320312 0)"/>
     <use xlink:href="#RobotoCondensed-Regular-20" transform="translate(1569.970703 0)"/>
     <use xlink:href="#RobotoCondensed-Regular-44" transform="translate(1592.919922 0)"/>
     <use xlink:href="#RobotoCondensed-Regular-61" transform="translate(1650 0)"/>
     <use xlink:href="#RobotoCondensed-Regular-74" transform="translate(1697.900391 0)"/>
     <use xlink:href="#RobotoCondensed-Regular-61" transform="translate(1727.490234 0)"/>
     <use xlink:href="#RobotoCondensed-Regular-73" transform="translate(1775.390625 0)"/>
     <use xlink:href="#RobotoCondensed-Regular-65" transform="translate(1820.996094 0)"/>
     <use xlink:href="#RobotoCondensed-Regular-74" transform="translate(1867.871094 0)"/>
     <use xlink:href="#RobotoCondensed-Regular-20" transform="translate(1897.460938 0)"/>
     <use xlink:href="#RobotoCondensed-Regular-61" transform="translate(1920.410156 0)"/>
     <use xlink:href="#RobotoCondensed-Regular-6e" transform="translate(1968.310547 0)"/>
     <use xlink:href="#RobotoCondensed-Regular-64" transform="translate(2016.748047 0)"/>
     <use xlink:href="#RobotoCondensed-Regular-20" transform="translate(2066.357422 0)"/>
     <use xlink:href="#RobotoCondensed-Regular-45" transform="translate(2089.306641 0)"/>
     <use xlink:href="#RobotoCondensed-Regular-6e" transform="translate(2139.013672 0)"/>
     <use xlink:href="#RobotoCondensed-Regular-63" transform="translate(2187.451172 0)"/>
     <use xlink:href="#RobotoCondensed-Regular-6f" transform="translate(2233.642578 0)"/>
     <use xlink:href="#RobotoCondensed-Regular-64" transform="translate(2283.837891 0)"/>
     <use xlink:href="#RobotoCondensed-Regular-69" transform="translate(2333.447266 0)"/>
     <use xlink:href="#RobotoCondensed-Regular-6e" transform="translate(2356.396484 0)"/>
     <use xlink:href="#RobotoCondensed-Regular-67" transform="translate(2404.833984 0)"/>
    </g>
   </g>
  </g>
 </g>
 <defs>
  <clipPath id="pacc276d062">
   <rect x="43.397813" y="32.7" width="339.71" height="204.4"/>
  </clipPath>
 </defs>
</svg>
