<?xml version="1.0" encoding="utf-8" standalone="no"?>
<!DOCTYPE svg PUBLIC "-//W3C//DTD SVG 1.1//EN"
  "http://www.w3.org/Graphics/SVG/1.1/DTD/svg11.dtd">
<svg xmlns:xlink="http://www.w3.org/1999/xlink" width="432pt" height="288pt" viewBox="0 0 432 288" xmlns="http://www.w3.org/2000/svg" version="1.1">
 <metadata>
  <rdf:RDF xmlns:dc="http://purl.org/dc/elements/1.1/" xmlns:cc="http://creativecommons.org/ns#" xmlns:rdf="http://www.w3.org/1999/02/22-rdf-syntax-ns#">
   <cc:Work>
    <dc:type rdf:resource="http://purl.org/dc/dcmitype/StillImage"/>
    <dc:date>2025-12-04T13:25:56.386407</dc:date>
    <dc:format>image/svg+xml</dc:format>
    <dc:creator>
     <cc:Agent>
      <dc:title>Matplotlib v3.10.7, https://matplotlib.org/</dc:title>
     </cc:Agent>
    </dc:creator>
   </cc:Work>
  </rdf:RDF>
 </metadata>
 <defs>
  <style type="text/css">*{stroke-linejoin: round; stroke-linecap: butt}</style>
 </defs>
 <g id="figure_1">
  <g id="patch_1">
   <path d="M 0 288 
L 432 288 
L 432 0 
L 0 0 
z
" style="fill: #ffffff"/>
  </g>
  <g id="axes_1">
   <g id="patch_2">
    <path d="M 54.965 244.24 
L 420.12 244.24 
L 420.12 51.936 
L 54.965 51.936 
z
" style="fill: #ffffff"/>
   </g>
   <g id="matplotlib.axis_1">
    <g id="xtick_1">
     <g id="line2d_1">
      <defs>
       <path id="mefca55462d" d="M 0 0 
L 0 3.5 
" style="stroke: #000000; stroke-width: 0.8"/>
      </defs>
      <g>
       <use xlink:href="#mefca55462d" x="104.758864" y="244.24" style="stroke: #000000; stroke-width: 0.8"/>
      </g>
     </g>
     <g id="text_1">
      <!-- 8 -->
      <g transform="translate(102.044098 259.49) scale(0.11 -0.11)">
       <defs>
        <path id="RobotoCondensed-Regular-38" d="M 2794 1231 
Q 2794 606 2445 271 
Q 2097 -63 1578 -63 
Q 1063 -63 714 273 
Q 366 609 366 1231 
Q 366 1613 536 1905 
Q 706 2197 1000 2347 
Q 450 2666 450 3366 
Q 450 3963 769 4288 
Q 1088 4613 1581 4613 
Q 2075 4613 2392 4288 
Q 2709 3963 2709 3366 
Q 2709 3028 2557 2761 
Q 2406 2494 2150 2344 
Q 2444 2194 2619 1901 
Q 2794 1609 2794 1231 
z
M 2156 3356 
Q 2156 3697 2000 3917 
Q 1844 4138 1581 4138 
Q 1319 4138 1161 3927 
Q 1003 3716 1003 3356 
Q 1003 3003 1159 2790 
Q 1316 2578 1581 2578 
Q 1844 2578 2000 2790 
Q 2156 3003 2156 3356 
z
M 2244 1244 
Q 2244 1625 2061 1865 
Q 1878 2106 1575 2106 
Q 1266 2106 1091 1865 
Q 916 1625 916 1244 
Q 916 850 1089 631 
Q 1263 413 1578 413 
Q 1897 413 2070 631 
Q 2244 850 2244 1244 
z
" transform="scale(0.015625)"/>
       </defs>
       <use xlink:href="#RobotoCondensed-Regular-38"/>
      </g>
     </g>
    </g>
    <g id="xtick_2">
     <g id="line2d_2">
      <g>
       <use xlink:href="#mefca55462d" x="171.150682" y="244.24" style="stroke: #000000; stroke-width: 0.8"/>
      </g>
     </g>
     <g id="text_2">
      <!-- 16 -->
      <g transform="translate(165.721151 259.49) scale(0.11 -0.11)">
       <defs>
        <path id="RobotoCondensed-Regular-31" d="M 2013 4575 
L 2013 0 
L 1459 0 
L 1459 3853 
L 503 3428 
L 503 3950 
L 1928 4575 
L 2013 4575 
z
" transform="scale(0.015625)"/>
        <path id="RobotoCondensed-Regular-36" d="M 2847 1484 
Q 2847 838 2544 387 
Q 2241 -63 1641 -63 
Q 1216 -63 944 198 
Q 672 459 542 861 
Q 413 1263 413 1684 
L 413 1956 
Q 413 2438 481 2900 
Q 550 3363 742 3738 
Q 934 4113 1296 4334 
Q 1659 4556 2291 4556 
L 2291 4066 
Q 1775 4066 1508 3859 
Q 1241 3653 1122 3318 
Q 1003 2984 978 2606 
Q 1272 2984 1750 2984 
Q 2138 2984 2380 2765 
Q 2622 2547 2734 2201 
Q 2847 1856 2847 1484 
z
M 969 1666 
Q 969 1059 1180 737 
Q 1391 416 1641 416 
Q 1959 416 2129 708 
Q 2300 1000 2300 1456 
Q 2300 1863 2144 2184 
Q 1988 2506 1659 2506 
Q 1425 2506 1236 2329 
Q 1047 2153 969 1900 
L 969 1666 
z
" transform="scale(0.015625)"/>
       </defs>
       <use xlink:href="#RobotoCondensed-Regular-31"/>
       <use xlink:href="#RobotoCondensed-Regular-36" transform="translate(49.365234 0)"/>
      </g>
     </g>
    </g>
    <g id="xtick_3">
     <g id="line2d_3">
      <g>
       <use xlink:href="#mefca55462d" x="237.5425" y="244.24" style="stroke: #000000; stroke-width: 0.8"/>
      </g>
     </g>
     <g id="text_3">
      <!-- 32 -->
      <g transform="translate(232.112969 259.49) scale(0.11 -0.11)">
       <defs>
        <path id="RobotoCondensed-Regular-33" d="M 1075 2084 
L 1075 2559 
L 1431 2559 
Q 1788 2559 1961 2781 
Q 2134 3003 2134 3338 
Q 2134 4138 1519 4138 
Q 1228 4138 1054 3927 
Q 881 3716 881 3359 
L 331 3359 
Q 331 3881 653 4247 
Q 975 4613 1519 4613 
Q 2038 4613 2363 4286 
Q 2688 3959 2688 3325 
Q 2688 3072 2550 2786 
Q 2413 2500 2100 2338 
Q 2484 2194 2612 1886 
Q 2741 1578 2741 1269 
Q 2741 631 2389 284 
Q 2038 -63 1516 -63 
Q 1006 -63 656 267 
Q 306 597 306 1203 
L 859 1203 
Q 859 844 1032 628 
Q 1206 413 1516 413 
Q 1822 413 2005 622 
Q 2188 831 2188 1256 
Q 2188 2084 1403 2084 
L 1075 2084 
z
" transform="scale(0.015625)"/>
        <path id="RobotoCondensed-Regular-32" d="M 2909 475 
L 2909 0 
L 366 0 
L 366 416 
L 1628 2088 
Q 1966 2541 2077 2802 
Q 2188 3063 2188 3328 
Q 2188 3663 2027 3900 
Q 1866 4138 1575 4138 
Q 1194 4138 1022 3878 
Q 850 3619 850 3213 
L 297 3213 
Q 297 3788 617 4200 
Q 938 4613 1575 4613 
Q 2125 4613 2433 4278 
Q 2741 3944 2741 3397 
Q 2741 2997 2541 2594 
Q 2341 2191 2047 1809 
L 1028 475 
L 2909 475 
z
" transform="scale(0.015625)"/>
       </defs>
       <use xlink:href="#RobotoCondensed-Regular-33"/>
       <use xlink:href="#RobotoCondensed-Regular-32" transform="translate(49.365234 0)"/>
      </g>
     </g>
    </g>
    <g id="xtick_4">
     <g id="line2d_4">
      <g>
       <use xlink:href="#mefca55462d" x="303.934318" y="244.24" style="stroke: #000000; stroke-width: 0.8"/>
      </g>
     </g>
     <g id="text_4">
      <!-- 64 -->
      <g transform="translate(298.504787 259.49) scale(0.11 -0.11)">
       <defs>
        <path id="RobotoCondensed-Regular-34" d="M 188 1397 
L 1878 4550 
L 2463 4550 
L 2463 1531 
L 2969 1531 
L 2969 1056 
L 2463 1056 
L 2463 0 
L 1909 0 
L 1909 1056 
L 188 1056 
L 188 1397 
z
M 803 1531 
L 1909 1531 
L 1909 3703 
L 1878 3638 
L 803 1531 
z
" transform="scale(0.015625)"/>
       </defs>
       <use xlink:href="#RobotoCondensed-Regular-36"/>
       <use xlink:href="#RobotoCondensed-Regular-34" transform="translate(49.365234 0)"/>
      </g>
     </g>
    </g>
    <g id="xtick_5">
     <g id="line2d_5">
      <g>
       <use xlink:href="#mefca55462d" x="370.326136" y="244.24" style="stroke: #000000; stroke-width: 0.8"/>
      </g>
     </g>
     <g id="text_5">
      <!-- 128 -->
      <g transform="translate(362.181839 259.49) scale(0.11 -0.11)">
       <use xlink:href="#RobotoCondensed-Regular-31"/>
       <use xlink:href="#RobotoCondensed-Regular-32" transform="translate(49.365234 0)"/>
       <use xlink:href="#RobotoCondensed-Regular-38" transform="translate(98.730469 0)"/>
      </g>
     </g>
    </g>
    <g id="text_6">
     <!-- Embedding Size -->
     <g transform="translate(199.764063 274.724375) scale(0.12 -0.12)">
      <defs>
       <path id="RobotoCondensed-Regular-45" d="M 491 0 
L 491 4550 
L 2906 4550 
L 2906 4056 
L 1066 4056 
L 1066 2594 
L 2672 2594 
L 2672 2103 
L 1066 2103 
L 1066 491 
L 2938 491 
L 2938 0 
L 491 0 
z
" transform="scale(0.015625)"/>
       <path id="RobotoCondensed-Regular-6d" d="M 1556 2956 
Q 1141 2956 969 2544 
L 969 0 
L 419 0 
L 419 3381 
L 938 3381 
L 953 3075 
Q 1256 3444 1766 3444 
Q 2325 3444 2553 2953 
Q 2872 3444 3441 3444 
Q 3903 3444 4151 3153 
Q 4400 2863 4400 2222 
L 4400 0 
L 3847 0 
L 3847 2228 
Q 3847 2653 3692 2804 
Q 3538 2956 3272 2956 
Q 3016 2956 2864 2757 
Q 2713 2559 2684 2272 
L 2684 0 
L 2131 0 
L 2131 2272 
Q 2116 2956 1556 2956 
z
" transform="scale(0.015625)"/>
       <path id="RobotoCondensed-Regular-62" d="M 2866 1528 
Q 2866 725 2575 331 
Q 2284 -63 1753 -63 
Q 1219 -63 950 400 
L 922 0 
L 416 0 
L 416 4800 
L 969 4800 
L 969 3016 
Q 1234 3444 1750 3444 
Q 2278 3444 2567 3073 
Q 2856 2703 2866 1897 
L 2866 1528 
z
M 1606 2956 
Q 1181 2956 969 2497 
L 969 884 
Q 1181 428 1609 428 
Q 1984 428 2146 690 
Q 2309 953 2313 1506 
L 2313 1844 
Q 2313 2406 2159 2681 
Q 2006 2956 1606 2956 
z
" transform="scale(0.015625)"/>
       <path id="RobotoCondensed-Regular-65" d="M 2722 447 
Q 2584 253 2323 95 
Q 2063 -63 1625 -63 
Q 1019 -63 666 301 
Q 313 666 309 1431 
L 309 1828 
Q 309 2722 696 3083 
Q 1084 3444 1563 3444 
Q 2197 3444 2472 3034 
Q 2747 2625 2747 1850 
L 2747 1528 
L 863 1528 
L 863 1447 
Q 863 906 1067 657 
Q 1272 409 1656 409 
Q 1934 409 2114 517 
Q 2294 625 2431 794 
L 2722 447 
z
M 1563 2969 
Q 1275 2969 1084 2770 
Q 894 2572 866 2000 
L 2194 2000 
L 2194 2078 
Q 2172 2469 2048 2719 
Q 1925 2969 1563 2969 
z
" transform="scale(0.015625)"/>
       <path id="RobotoCondensed-Regular-64" d="M 2234 0 
L 2209 366 
Q 1941 -63 1425 -63 
Q 925 -63 611 331 
Q 297 725 297 1528 
L 297 1844 
Q 297 2678 609 3061 
Q 922 3444 1431 3444 
Q 1922 3444 2188 3050 
L 2188 4800 
L 2738 4800 
L 2738 0 
L 2234 0 
z
M 850 1528 
Q 850 963 1019 695 
Q 1188 428 1569 428 
Q 1981 428 2188 847 
L 2188 2544 
Q 1972 2956 1575 2956 
Q 1194 2956 1023 2687 
Q 853 2419 850 1866 
L 850 1528 
z
" transform="scale(0.015625)"/>
       <path id="RobotoCondensed-Regular-69" d="M 428 4278 
Q 428 4419 506 4516 
Q 584 4613 741 4613 
Q 894 4613 975 4516 
Q 1056 4419 1056 4278 
Q 1056 4144 975 4048 
Q 894 3953 741 3953 
Q 584 3953 506 4048 
Q 428 4144 428 4278 
z
M 1009 3381 
L 1009 0 
L 459 0 
L 459 3381 
L 1009 3381 
z
" transform="scale(0.015625)"/>
       <path id="RobotoCondensed-Regular-6e" d="M 1603 2956 
Q 1400 2956 1236 2818 
Q 1072 2681 969 2459 
L 969 0 
L 416 0 
L 416 3381 
L 938 3381 
L 953 3022 
Q 1275 3444 1775 3444 
Q 2191 3444 2437 3162 
Q 2684 2881 2684 2216 
L 2684 0 
L 2131 0 
L 2131 2222 
Q 2131 2619 2000 2787 
Q 1869 2956 1603 2956 
z
" transform="scale(0.015625)"/>
       <path id="RobotoCondensed-Regular-67" d="M 1525 -1334 
Q 1331 -1334 1007 -1229 
Q 684 -1125 497 -906 
L 725 -522 
Q 1056 -859 1484 -859 
Q 1806 -859 2000 -679 
Q 2194 -500 2194 -56 
L 2194 338 
Q 1925 -63 1428 -63 
Q 919 -63 611 331 
Q 303 725 303 1528 
L 303 1844 
Q 303 2678 608 3061 
Q 913 3444 1434 3444 
Q 1953 3444 2219 3006 
L 2247 3381 
L 2744 3381 
L 2744 -41 
Q 2741 -703 2402 -1018 
Q 2063 -1334 1525 -1334 
z
M 856 1528 
Q 856 963 1025 695 
Q 1194 428 1572 428 
Q 1988 428 2194 853 
L 2194 2541 
Q 1978 2956 1578 2956 
Q 1197 2956 1028 2687 
Q 859 2419 856 1866 
L 856 1528 
z
" transform="scale(0.015625)"/>
       <path id="RobotoCondensed-Regular-20" transform="scale(0.015625)"/>
       <path id="RobotoCondensed-Regular-53" d="M 2481 1150 
Q 2481 1469 2312 1656 
Q 2144 1844 1591 2042 
Q 1038 2241 713 2547 
Q 388 2853 388 3375 
Q 388 3906 741 4259 
Q 1094 4613 1691 4613 
Q 2356 4613 2706 4191 
Q 3056 3769 3056 3238 
L 2481 3238 
Q 2481 3619 2293 3869 
Q 2106 4119 1691 4119 
Q 1313 4119 1139 3908 
Q 966 3697 966 3381 
Q 966 3094 1170 2903 
Q 1375 2713 1806 2556 
Q 2475 2338 2765 2013 
Q 3056 1688 3056 1156 
Q 3056 600 2695 268 
Q 2334 -63 1719 -63 
Q 1363 -63 1028 93 
Q 694 250 480 558 
Q 266 866 266 1319 
L 841 1319 
Q 841 853 1098 640 
Q 1356 428 1719 428 
Q 2094 428 2287 623 
Q 2481 819 2481 1150 
z
" transform="scale(0.015625)"/>
       <path id="RobotoCondensed-Regular-7a" d="M 306 2903 
L 306 3381 
L 2494 3381 
L 2494 2972 
L 931 475 
L 2556 475 
L 2556 0 
L 297 0 
L 297 425 
L 1844 2903 
L 306 2903 
z
" transform="scale(0.015625)"/>
      </defs>
      <use xlink:href="#RobotoCondensed-Regular-45"/>
      <use xlink:href="#RobotoCondensed-Regular-6d" transform="translate(49.707031 0)"/>
      <use xlink:href="#RobotoCondensed-Regular-62" transform="translate(125 0)"/>
      <use xlink:href="#RobotoCondensed-Regular-65" transform="translate(174.316406 0)"/>
      <use xlink:href="#RobotoCondensed-Regular-64" transform="translate(221.191406 0)"/>
      <use xlink:href="#RobotoCondensed-Regular-64" transform="translate(270.800781 0)"/>
      <use xlink:href="#RobotoCondensed-Regular-69" transform="translate(320.410156 0)"/>
      <use xlink:href="#RobotoCondensed-Regular-6e" transform="translate(343.359375 0)"/>
      <use xlink:href="#RobotoCondensed-Regular-67" transform="translate(391.796875 0)"/>
      <use xlink:href="#RobotoCondensed-Regular-20" transform="translate(441.113281 0)"/>
      <use xlink:href="#RobotoCondensed-Regular-53" transform="translate(464.0625 0)"/>
      <use xlink:href="#RobotoCondensed-Regular-69" transform="translate(515.917969 0)"/>
      <use xlink:href="#RobotoCondensed-Regular-7a" transform="translate(538.867188 0)"/>
      <use xlink:href="#RobotoCondensed-Regular-65" transform="translate(582.763672 0)"/>
     </g>
    </g>
   </g>
   <g id="matplotlib.axis_2">
    <g id="ytick_1">
     <g id="line2d_6">
      <path d="M 54.965 238.018293 
L 420.12 238.018293 
" clip-path="url(#p027ea4ecf5)" style="fill: none; stroke: #b0b0b0; stroke-opacity: 0.3; stroke-width: 0.8; stroke-linecap: square"/>
     </g>
     <g id="line2d_7">
      <defs>
       <path id="m8e1ca58ba7" d="M 0 0 
L -3.5 0 
" style="stroke: #000000; stroke-width: 0.8"/>
      </defs>
      <g>
       <use xlink:href="#m8e1ca58ba7" x="54.965" y="238.018293" style="stroke: #000000; stroke-width: 0.8"/>
      </g>
     </g>
     <g id="text_7">
      <!-- 0 -->
      <g transform="translate(42.535469 242.143293) scale(0.11 -0.11)">
       <defs>
        <path id="RobotoCondensed-Regular-30" d="M 2797 1944 
Q 2797 825 2467 381 
Q 2138 -63 1581 -63 
Q 1038 -63 703 370 
Q 369 803 359 1878 
L 359 2638 
Q 359 3753 695 4183 
Q 1031 4613 1578 4613 
Q 2131 4613 2461 4189 
Q 2791 3766 2797 2681 
L 2797 1944 
z
M 2247 2734 
Q 2247 3503 2073 3822 
Q 1900 4141 1578 4141 
Q 1266 4141 1092 3833 
Q 919 3525 913 2791 
L 913 1850 
Q 913 1088 1089 750 
Q 1266 413 1581 413 
Q 1903 413 2072 738 
Q 2241 1063 2247 1794 
L 2247 2734 
z
" transform="scale(0.015625)"/>
       </defs>
       <use xlink:href="#RobotoCondensed-Regular-30"/>
      </g>
     </g>
    </g>
    <g id="ytick_2">
     <g id="line2d_8">
      <path d="M 54.965 197.172428 
L 420.12 197.172428 
" clip-path="url(#p027ea4ecf5)" style="fill: none; stroke: #b0b0b0; stroke-opacity: 0.3; stroke-width: 0.8; stroke-linecap: square"/>
     </g>
     <g id="line2d_9">
      <g>
       <use xlink:href="#m8e1ca58ba7" x="54.965" y="197.172428" style="stroke: #000000; stroke-width: 0.8"/>
      </g>
     </g>
     <g id="text_8">
      <!-- 200 -->
      <g transform="translate(31.676406 201.297428) scale(0.11 -0.11)">
       <use xlink:href="#RobotoCondensed-Regular-32"/>
       <use xlink:href="#RobotoCondensed-Regular-30" transform="translate(49.365234 0)"/>
       <use xlink:href="#RobotoCondensed-Regular-30" transform="translate(98.730469 0)"/>
      </g>
     </g>
    </g>
    <g id="ytick_3">
     <g id="line2d_10">
      <path d="M 54.965 156.326563 
L 420.12 156.326563 
" clip-path="url(#p027ea4ecf5)" style="fill: none; stroke: #b0b0b0; stroke-opacity: 0.3; stroke-width: 0.8; stroke-linecap: square"/>
     </g>
     <g id="line2d_11">
      <g>
       <use xlink:href="#m8e1ca58ba7" x="54.965" y="156.326563" style="stroke: #000000; stroke-width: 0.8"/>
      </g>
     </g>
     <g id="text_9">
      <!-- 400 -->
      <g transform="translate(31.676406 160.451563) scale(0.11 -0.11)">
       <use xlink:href="#RobotoCondensed-Regular-34"/>
       <use xlink:href="#RobotoCondensed-Regular-30" transform="translate(49.365234 0)"/>
       <use xlink:href="#RobotoCondensed-Regular-30" transform="translate(98.730469 0)"/>
      </g>
     </g>
    </g>
    <g id="ytick_4">
     <g id="line2d_12">
      <path d="M 54.965 115.480698 
L 420.12 115.480698 
" clip-path="url(#p027ea4ecf5)" style="fill: none; stroke: #b0b0b0; stroke-opacity: 0.3; stroke-width: 0.8; stroke-linecap: square"/>
     </g>
     <g id="line2d_13">
      <g>
       <use xlink:href="#m8e1ca58ba7" x="54.965" y="115.480698" style="stroke: #000000; stroke-width: 0.8"/>
      </g>
     </g>
     <g id="text_10">
      <!-- 600 -->
      <g transform="translate(31.676406 119.605698) scale(0.11 -0.11)">
       <use xlink:href="#RobotoCondensed-Regular-36"/>
       <use xlink:href="#RobotoCondensed-Regular-30" transform="translate(49.365234 0)"/>
       <use xlink:href="#RobotoCondensed-Regular-30" transform="translate(98.730469 0)"/>
      </g>
     </g>
    </g>
    <g id="ytick_5">
     <g id="line2d_14">
      <path d="M 54.965 74.634833 
L 420.12 74.634833 
" clip-path="url(#p027ea4ecf5)" style="fill: none; stroke: #b0b0b0; stroke-opacity: 0.3; stroke-width: 0.8; stroke-linecap: square"/>
     </g>
     <g id="line2d_15">
      <g>
       <use xlink:href="#m8e1ca58ba7" x="54.965" y="74.634833" style="stroke: #000000; stroke-width: 0.8"/>
      </g>
     </g>
     <g id="text_11">
      <!-- 800 -->
      <g transform="translate(31.676406 78.759833) scale(0.11 -0.11)">
       <use xlink:href="#RobotoCondensed-Regular-38"/>
       <use xlink:href="#RobotoCondensed-Regular-30" transform="translate(49.365234 0)"/>
       <use xlink:href="#RobotoCondensed-Regular-30" transform="translate(98.730469 0)"/>
      </g>
     </g>
    </g>
    <g id="text_12">
     <!-- Area Under Curve (AUC) $\downarrow$ -->
     <g transform="translate(24.916406 213.368) rotate(-90) scale(0.12 -0.12)">
      <defs>
       <path id="RobotoCondensed-Regular-41" d="M 134 0 
L 1600 4550 
L 2094 4550 
L 3559 0 
L 2972 0 
L 2616 1191 
L 1078 1191 
L 722 0 
L 134 0 
z
M 1228 1684 
L 2466 1684 
L 1847 3750 
L 1228 1684 
z
" transform="scale(0.015625)"/>
       <path id="RobotoCondensed-Regular-72" d="M 1563 2888 
Q 1138 2888 969 2425 
L 969 0 
L 416 0 
L 416 3381 
L 950 3381 
L 963 3041 
Q 1184 3444 1591 3444 
Q 1738 3444 1809 3400 
L 1813 2863 
Q 1691 2888 1563 2888 
z
" transform="scale(0.015625)"/>
       <path id="RobotoCondensed-Regular-61" d="M 2156 0 
Q 2103 122 2081 366 
Q 1966 194 1775 65 
Q 1584 -63 1334 -63 
Q 891 -63 623 187 
Q 356 438 356 922 
Q 356 1409 690 1729 
Q 1025 2050 1691 2050 
L 2072 2050 
L 2072 2413 
Q 2072 2713 1936 2841 
Q 1800 2969 1528 2969 
Q 1263 2969 1114 2812 
Q 966 2656 966 2444 
L 413 2444 
Q 413 2806 722 3125 
Q 1031 3444 1556 3444 
Q 2025 3444 2325 3209 
Q 2625 2975 2625 2406 
L 2625 794 
Q 2625 316 2728 50 
L 2728 0 
L 2156 0 
z
M 1419 441 
Q 1653 441 1825 562 
Q 1997 684 2072 834 
L 2072 1644 
L 1781 1644 
Q 1384 1644 1146 1475 
Q 909 1306 909 991 
Q 909 688 1036 564 
Q 1163 441 1419 441 
z
" transform="scale(0.015625)"/>
       <path id="RobotoCondensed-Regular-55" d="M 2631 4550 
L 3206 4550 
L 3206 1347 
Q 3206 578 2781 257 
Q 2356 -63 1803 -63 
Q 1213 -63 809 257 
Q 406 578 406 1347 
L 406 4550 
L 978 4550 
L 978 1347 
Q 978 813 1203 620 
Q 1428 428 1803 428 
Q 2181 428 2406 620 
Q 2631 813 2631 1347 
L 2631 4550 
z
" transform="scale(0.015625)"/>
       <path id="RobotoCondensed-Regular-43" d="M 2769 1447 
L 3344 1447 
Q 3313 744 2950 340 
Q 2588 -63 1878 -63 
Q 1194 -63 792 457 
Q 391 978 391 1856 
L 391 2697 
Q 391 3572 798 4092 
Q 1206 4613 1931 4613 
Q 2594 4613 2953 4219 
Q 3313 3825 3344 3091 
L 2769 3091 
Q 2734 3628 2543 3873 
Q 2353 4119 1931 4119 
Q 1431 4119 1198 3731 
Q 966 3344 966 2703 
L 966 1856 
Q 966 1259 1170 843 
Q 1375 428 1878 428 
Q 2350 428 2537 665 
Q 2725 903 2769 1447 
z
" transform="scale(0.015625)"/>
       <path id="RobotoCondensed-Regular-75" d="M 2153 0 
L 2144 297 
Q 1863 -63 1338 -63 
Q 919 -63 662 231 
Q 406 525 406 1200 
L 406 3381 
L 956 3381 
L 956 1178 
Q 959 731 1107 579 
Q 1256 428 1431 428 
Q 1931 428 2125 881 
L 2125 3381 
L 2678 3381 
L 2678 0 
L 2153 0 
z
" transform="scale(0.015625)"/>
       <path id="RobotoCondensed-Regular-76" d="M 2578 3381 
L 1575 0 
L 1159 0 
L 144 3381 
L 706 3381 
L 1372 847 
L 2016 3381 
L 2578 3381 
z
" transform="scale(0.015625)"/>
       <path id="RobotoCondensed-Regular-28" d="M 406 1850 
Q 406 2756 636 3434 
Q 866 4113 1177 4541 
Q 1488 4969 1728 5134 
L 1841 4753 
Q 1547 4475 1253 3761 
Q 959 3047 959 1813 
Q 959 625 1253 -97 
Q 1547 -819 1841 -1119 
L 1728 -1469 
Q 1488 -1306 1177 -878 
Q 866 -450 636 226 
Q 406 903 406 1850 
z
" transform="scale(0.015625)"/>
       <path id="RobotoCondensed-Regular-29" d="M 1603 1819 
Q 1603 906 1373 228 
Q 1144 -450 833 -878 
Q 522 -1306 281 -1469 
L 169 -1119 
Q 463 -841 758 -109 
Q 1053 622 1053 1856 
Q 1053 2647 904 3236 
Q 756 3825 550 4212 
Q 344 4600 169 4781 
L 281 5134 
Q 522 4969 833 4541 
Q 1144 4113 1373 3436 
Q 1603 2759 1603 1819 
z
" transform="scale(0.015625)"/>
       <path id="DejaVuSans-2193" d="M 2822 -22 
L 2541 -22 
L 1309 1209 
L 1684 1584 
L 2416 853 
L 2416 4666 
L 2947 4666 
L 2947 853 
L 3672 1584 
L 4047 1209 
L 2822 -22 
z
" transform="scale(0.015625)"/>
      </defs>
      <use xlink:href="#RobotoCondensed-Regular-41" transform="translate(0 0.78125)"/>
      <use xlink:href="#RobotoCondensed-Regular-72" transform="translate(57.666016 0.78125)"/>
      <use xlink:href="#RobotoCondensed-Regular-65" transform="translate(88.134766 0.78125)"/>
      <use xlink:href="#RobotoCondensed-Regular-61" transform="translate(135.009766 0.78125)"/>
      <use xlink:href="#RobotoCondensed-Regular-20" transform="translate(182.910156 0.78125)"/>
      <use xlink:href="#RobotoCondensed-Regular-55" transform="translate(205.859375 0.78125)"/>
      <use xlink:href="#RobotoCondensed-Regular-6e" transform="translate(262.011719 0.78125)"/>
      <use xlink:href="#RobotoCondensed-Regular-64" transform="translate(310.449219 0.78125)"/>
      <use xlink:href="#RobotoCondensed-Regular-65" transform="translate(360.058594 0.78125)"/>
      <use xlink:href="#RobotoCondensed-Regular-72" transform="translate(406.933594 0.78125)"/>
      <use xlink:href="#RobotoCondensed-Regular-20" transform="translate(437.402344 0.78125)"/>
      <use xlink:href="#RobotoCondensed-Regular-43" transform="translate(460.351562 0.78125)"/>
      <use xlink:href="#RobotoCondensed-Regular-75" transform="translate(517.041016 0.78125)"/>
      <use xlink:href="#RobotoCondensed-Regular-72" transform="translate(565.380859 0.78125)"/>
      <use xlink:href="#RobotoCondensed-Regular-76" transform="translate(595.849609 0.78125)"/>
      <use xlink:href="#RobotoCondensed-Regular-65" transform="translate(638.623047 0.78125)"/>
      <use xlink:href="#RobotoCondensed-Regular-20" transform="translate(685.498047 0.78125)"/>
      <use xlink:href="#RobotoCondensed-Regular-28" transform="translate(708.447266 0.78125)"/>
      <use xlink:href="#RobotoCondensed-Regular-41" transform="translate(739.84375 0.78125)"/>
      <use xlink:href="#RobotoCondensed-Regular-55" transform="translate(797.509766 0.78125)"/>
      <use xlink:href="#RobotoCondensed-Regular-43" transform="translate(853.662109 0.78125)"/>
      <use xlink:href="#RobotoCondensed-Regular-29" transform="translate(910.351562 0.78125)"/>
      <use xlink:href="#RobotoCondensed-Regular-20" transform="translate(942.236328 0.78125)"/>
      <use xlink:href="#DejaVuSans-2193" transform="translate(984.667969 0.78125)"/>
     </g>
    </g>
   </g>
   <g id="patch_3">
    <path d="M 81.106778 174.451286 
L 95.21504 174.451286 
L 95.21504 115.095995 
L 81.106778 115.095995 
L 81.106778 174.451286 
z
" clip-path="url(#p027ea4ecf5)" style="fill: #808080; opacity: 0.95; stroke: #000000; stroke-width: 1.5; stroke-linejoin: miter"/>
   </g>
   <g id="line2d_16">
    <path d="M 88.160909 174.451286 
L 88.160909 214.054006 
" clip-path="url(#p027ea4ecf5)" style="fill: none; stroke: #000000; stroke-width: 1.5; stroke-linecap: square"/>
   </g>
   <g id="line2d_17">
    <path d="M 88.160909 115.095995 
L 88.160909 97.864928 
" clip-path="url(#p027ea4ecf5)" style="fill: none; stroke: #000000; stroke-width: 1.5; stroke-linecap: square"/>
   </g>
   <g id="line2d_18">
    <path d="M 84.633844 214.054006 
L 91.687974 214.054006 
" clip-path="url(#p027ea4ecf5)" style="fill: none; stroke: #000000; stroke-width: 1.5; stroke-linecap: square"/>
   </g>
   <g id="line2d_19">
    <path d="M 84.633844 97.864928 
L 91.687974 97.864928 
" clip-path="url(#p027ea4ecf5)" style="fill: none; stroke: #000000; stroke-width: 1.5; stroke-linecap: square"/>
   </g>
   <g id="line2d_20"/>
   <g id="patch_4">
    <path d="M 97.704733 149.699971 
L 111.812994 149.699971 
L 111.812994 124.506818 
L 97.704733 124.506818 
L 97.704733 149.699971 
z
" clip-path="url(#p027ea4ecf5)" style="fill: #7c92ff; opacity: 0.95; stroke: #000000; stroke-width: 1.5; stroke-linejoin: miter"/>
   </g>
   <g id="line2d_21">
    <path d="M 104.758864 149.699971 
L 104.758864 177.946288 
" clip-path="url(#p027ea4ecf5)" style="fill: none; stroke: #000000; stroke-width: 1.5; stroke-linecap: square"/>
   </g>
   <g id="line2d_22">
    <path d="M 104.758864 124.506818 
L 104.758864 115.742943 
" clip-path="url(#p027ea4ecf5)" style="fill: none; stroke: #000000; stroke-width: 1.5; stroke-linecap: square"/>
   </g>
   <g id="line2d_23">
    <path d="M 101.231798 177.946288 
L 108.285929 177.946288 
" clip-path="url(#p027ea4ecf5)" style="fill: none; stroke: #000000; stroke-width: 1.5; stroke-linecap: square"/>
   </g>
   <g id="line2d_24">
    <path d="M 101.231798 115.742943 
L 108.285929 115.742943 
" clip-path="url(#p027ea4ecf5)" style="fill: none; stroke: #000000; stroke-width: 1.5; stroke-linecap: square"/>
   </g>
   <g id="line2d_25">
    <defs>
     <path id="mc0089b6dd4" d="M 0 2.5 
C 0.663008 2.5 1.29895 2.236584 1.767767 1.767767 
C 2.236584 1.29895 2.5 0.663008 2.5 0 
C 2.5 -0.663008 2.236584 -1.29895 1.767767 -1.767767 
C 1.29895 -2.236584 0.663008 -2.5 0 -2.5 
C -0.663008 -2.5 -1.29895 -2.236584 -1.767767 -1.767767 
C -2.236584 -1.29895 -2.5 -0.663008 -2.5 0 
C -2.5 0.663008 -2.236584 1.29895 -1.767767 1.767767 
C -1.29895 2.236584 -0.663008 2.5 0 2.5 
z
" style="stroke: #000000; stroke-opacity: 0.5"/>
    </defs>
    <g clip-path="url(#p027ea4ecf5)">
     <use xlink:href="#mc0089b6dd4" x="104.758864" y="214.054006" style="fill-opacity: 0.5; stroke: #000000; stroke-opacity: 0.5"/>
    </g>
   </g>
   <g id="patch_5">
    <path d="M 114.302688 227.35368 
L 128.410949 227.35368 
L 128.410949 203.503745 
L 114.302688 203.503745 
L 114.302688 227.35368 
z
" clip-path="url(#p027ea4ecf5)" style="fill: #69f7ae; opacity: 0.95; stroke: #000000; stroke-width: 1.5; stroke-linejoin: miter"/>
   </g>
   <g id="line2d_26">
    <path d="M 121.356818 227.35368 
L 121.356818 235.498909 
" clip-path="url(#p027ea4ecf5)" style="fill: none; stroke: #000000; stroke-width: 1.5; stroke-linecap: square"/>
   </g>
   <g id="line2d_27">
    <path d="M 121.356818 203.503745 
L 121.356818 171.556763 
" clip-path="url(#p027ea4ecf5)" style="fill: none; stroke: #000000; stroke-width: 1.5; stroke-linecap: square"/>
   </g>
   <g id="line2d_28">
    <path d="M 117.829753 235.498909 
L 124.883884 235.498909 
" clip-path="url(#p027ea4ecf5)" style="fill: none; stroke: #000000; stroke-width: 1.5; stroke-linecap: square"/>
   </g>
   <g id="line2d_29">
    <path d="M 117.829753 171.556763 
L 124.883884 171.556763 
" clip-path="url(#p027ea4ecf5)" style="fill: none; stroke: #000000; stroke-width: 1.5; stroke-linecap: square"/>
   </g>
   <g id="line2d_30"/>
   <g id="patch_6">
    <path d="M 147.498597 164.49729 
L 161.606858 164.49729 
L 161.606858 98.560479 
L 147.498597 98.560479 
L 147.498597 164.49729 
z
" clip-path="url(#p027ea4ecf5)" style="fill: #808080; opacity: 0.95; stroke: #000000; stroke-width: 1.5; stroke-linejoin: miter"/>
   </g>
   <g id="line2d_31">
    <path d="M 154.552727 164.49729 
L 154.552727 214.054006 
" clip-path="url(#p027ea4ecf5)" style="fill: none; stroke: #000000; stroke-width: 1.5; stroke-linecap: square"/>
   </g>
   <g id="line2d_32">
    <path d="M 154.552727 98.560479 
L 154.552727 60.677091 
" clip-path="url(#p027ea4ecf5)" style="fill: none; stroke: #000000; stroke-width: 1.5; stroke-linecap: square"/>
   </g>
   <g id="line2d_33">
    <path d="M 151.025662 214.054006 
L 158.079793 214.054006 
" clip-path="url(#p027ea4ecf5)" style="fill: none; stroke: #000000; stroke-width: 1.5; stroke-linecap: square"/>
   </g>
   <g id="line2d_34">
    <path d="M 151.025662 60.677091 
L 158.079793 60.677091 
" clip-path="url(#p027ea4ecf5)" style="fill: none; stroke: #000000; stroke-width: 1.5; stroke-linecap: square"/>
   </g>
   <g id="line2d_35"/>
   <g id="patch_7">
    <path d="M 164.096551 172.118091 
L 178.204813 172.118091 
L 178.204813 108.018296 
L 164.096551 108.018296 
L 164.096551 172.118091 
z
" clip-path="url(#p027ea4ecf5)" style="fill: #7c92ff; opacity: 0.95; stroke: #000000; stroke-width: 1.5; stroke-linejoin: miter"/>
   </g>
   <g id="line2d_36">
    <path d="M 171.150682 172.118091 
L 171.150682 216.499777 
" clip-path="url(#p027ea4ecf5)" style="fill: none; stroke: #000000; stroke-width: 1.5; stroke-linecap: square"/>
   </g>
   <g id="line2d_37">
    <path d="M 171.150682 108.018296 
L 171.150682 85.180497 
" clip-path="url(#p027ea4ecf5)" style="fill: none; stroke: #000000; stroke-width: 1.5; stroke-linecap: square"/>
   </g>
   <g id="line2d_38">
    <path d="M 167.623616 216.499777 
L 174.677747 216.499777 
" clip-path="url(#p027ea4ecf5)" style="fill: none; stroke: #000000; stroke-width: 1.5; stroke-linecap: square"/>
   </g>
   <g id="line2d_39">
    <path d="M 167.623616 85.180497 
L 174.677747 85.180497 
" clip-path="url(#p027ea4ecf5)" style="fill: none; stroke: #000000; stroke-width: 1.5; stroke-linecap: square"/>
   </g>
   <g id="line2d_40"/>
   <g id="patch_8">
    <path d="M 180.694506 230.038285 
L 194.802767 230.038285 
L 194.802767 220.70635 
L 180.694506 220.70635 
L 180.694506 230.038285 
z
" clip-path="url(#p027ea4ecf5)" style="fill: #69f7ae; opacity: 0.95; stroke: #000000; stroke-width: 1.5; stroke-linejoin: miter"/>
   </g>
   <g id="line2d_41">
    <path d="M 187.748636 230.038285 
L 187.748636 233.170326 
" clip-path="url(#p027ea4ecf5)" style="fill: none; stroke: #000000; stroke-width: 1.5; stroke-linecap: square"/>
   </g>
   <g id="line2d_42">
    <path d="M 187.748636 220.70635 
L 187.748636 213.484941 
" clip-path="url(#p027ea4ecf5)" style="fill: none; stroke: #000000; stroke-width: 1.5; stroke-linecap: square"/>
   </g>
   <g id="line2d_43">
    <path d="M 184.221571 233.170326 
L 191.275702 233.170326 
" clip-path="url(#p027ea4ecf5)" style="fill: none; stroke: #000000; stroke-width: 1.5; stroke-linecap: square"/>
   </g>
   <g id="line2d_44">
    <path d="M 184.221571 213.484941 
L 191.275702 213.484941 
" clip-path="url(#p027ea4ecf5)" style="fill: none; stroke: #000000; stroke-width: 1.5; stroke-linecap: square"/>
   </g>
   <g id="line2d_45">
    <g clip-path="url(#p027ea4ecf5)">
     <use xlink:href="#mc0089b6dd4" x="187.748636" y="200.121053" style="fill-opacity: 0.5; stroke: #000000; stroke-opacity: 0.5"/>
    </g>
   </g>
   <g id="patch_9">
    <path d="M 213.890415 174.758449 
L 227.998676 174.758449 
L 227.998676 117.134362 
L 213.890415 117.134362 
L 213.890415 174.758449 
z
" clip-path="url(#p027ea4ecf5)" style="fill: #808080; opacity: 0.95; stroke: #000000; stroke-width: 1.5; stroke-linejoin: miter"/>
   </g>
   <g id="line2d_46">
    <path d="M 220.944545 174.758449 
L 220.944545 214.054006 
" clip-path="url(#p027ea4ecf5)" style="fill: none; stroke: #000000; stroke-width: 1.5; stroke-linecap: square"/>
   </g>
   <g id="line2d_47">
    <path d="M 220.944545 117.134362 
L 220.944545 71.278843 
" clip-path="url(#p027ea4ecf5)" style="fill: none; stroke: #000000; stroke-width: 1.5; stroke-linecap: square"/>
   </g>
   <g id="line2d_48">
    <path d="M 217.41748 214.054006 
L 224.471611 214.054006 
" clip-path="url(#p027ea4ecf5)" style="fill: none; stroke: #000000; stroke-width: 1.5; stroke-linecap: square"/>
   </g>
   <g id="line2d_49">
    <path d="M 217.41748 71.278843 
L 224.471611 71.278843 
" clip-path="url(#p027ea4ecf5)" style="fill: none; stroke: #000000; stroke-width: 1.5; stroke-linecap: square"/>
   </g>
   <g id="line2d_50"/>
   <g id="patch_10">
    <path d="M 230.488369 223.864748 
L 244.596631 223.864748 
L 244.596631 126.395949 
L 230.488369 126.395949 
L 230.488369 223.864748 
z
" clip-path="url(#p027ea4ecf5)" style="fill: #7c92ff; opacity: 0.95; stroke: #000000; stroke-width: 1.5; stroke-linejoin: miter"/>
   </g>
   <g id="line2d_51">
    <path d="M 237.5425 223.864748 
L 237.5425 230.495201 
" clip-path="url(#p027ea4ecf5)" style="fill: none; stroke: #000000; stroke-width: 1.5; stroke-linecap: square"/>
   </g>
   <g id="line2d_52">
    <path d="M 237.5425 126.395949 
L 237.5425 106.243142 
" clip-path="url(#p027ea4ecf5)" style="fill: none; stroke: #000000; stroke-width: 1.5; stroke-linecap: square"/>
   </g>
   <g id="line2d_53">
    <path d="M 234.015435 230.495201 
L 241.069565 230.495201 
" clip-path="url(#p027ea4ecf5)" style="fill: none; stroke: #000000; stroke-width: 1.5; stroke-linecap: square"/>
   </g>
   <g id="line2d_54">
    <path d="M 234.015435 106.243142 
L 241.069565 106.243142 
" clip-path="url(#p027ea4ecf5)" style="fill: none; stroke: #000000; stroke-width: 1.5; stroke-linecap: square"/>
   </g>
   <g id="line2d_55"/>
   <g id="patch_11">
    <path d="M 247.086324 223.168601 
L 261.194585 223.168601 
L 261.194585 213.616583 
L 247.086324 213.616583 
L 247.086324 223.168601 
z
" clip-path="url(#p027ea4ecf5)" style="fill: #69f7ae; opacity: 0.95; stroke: #000000; stroke-width: 1.5; stroke-linejoin: miter"/>
   </g>
   <g id="line2d_56">
    <path d="M 254.140455 223.168601 
L 254.140455 234.687914 
" clip-path="url(#p027ea4ecf5)" style="fill: none; stroke: #000000; stroke-width: 1.5; stroke-linecap: square"/>
   </g>
   <g id="line2d_57">
    <path d="M 254.140455 213.616583 
L 254.140455 211.624697 
" clip-path="url(#p027ea4ecf5)" style="fill: none; stroke: #000000; stroke-width: 1.5; stroke-linecap: square"/>
   </g>
   <g id="line2d_58">
    <path d="M 250.613389 234.687914 
L 257.66752 234.687914 
" clip-path="url(#p027ea4ecf5)" style="fill: none; stroke: #000000; stroke-width: 1.5; stroke-linecap: square"/>
   </g>
   <g id="line2d_59">
    <path d="M 250.613389 211.624697 
L 257.66752 211.624697 
" clip-path="url(#p027ea4ecf5)" style="fill: none; stroke: #000000; stroke-width: 1.5; stroke-linecap: square"/>
   </g>
   <g id="line2d_60">
    <g clip-path="url(#p027ea4ecf5)">
     <use xlink:href="#mc0089b6dd4" x="254.140455" y="122.358261" style="fill-opacity: 0.5; stroke: #000000; stroke-opacity: 0.5"/>
    </g>
   </g>
   <g id="patch_12">
    <path d="M 280.282233 147.509779 
L 294.390494 147.509779 
L 294.390494 114.797636 
L 280.282233 114.797636 
L 280.282233 147.509779 
z
" clip-path="url(#p027ea4ecf5)" style="fill: #808080; opacity: 0.95; stroke: #000000; stroke-width: 1.5; stroke-linejoin: miter"/>
   </g>
   <g id="line2d_61">
    <path d="M 287.336364 147.509779 
L 287.336364 177.946288 
" clip-path="url(#p027ea4ecf5)" style="fill: none; stroke: #000000; stroke-width: 1.5; stroke-linecap: square"/>
   </g>
   <g id="line2d_62">
    <path d="M 287.336364 114.797636 
L 287.336364 107.641087 
" clip-path="url(#p027ea4ecf5)" style="fill: none; stroke: #000000; stroke-width: 1.5; stroke-linecap: square"/>
   </g>
   <g id="line2d_63">
    <path d="M 283.809298 177.946288 
L 290.863429 177.946288 
" clip-path="url(#p027ea4ecf5)" style="fill: none; stroke: #000000; stroke-width: 1.5; stroke-linecap: square"/>
   </g>
   <g id="line2d_64">
    <path d="M 283.809298 107.641087 
L 290.863429 107.641087 
" clip-path="url(#p027ea4ecf5)" style="fill: none; stroke: #000000; stroke-width: 1.5; stroke-linecap: square"/>
   </g>
   <g id="line2d_65">
    <g clip-path="url(#p027ea4ecf5)">
     <use xlink:href="#mc0089b6dd4" x="287.336364" y="214.054006" style="fill-opacity: 0.5; stroke: #000000; stroke-opacity: 0.5"/>
    </g>
   </g>
   <g id="patch_13">
    <path d="M 296.880188 215.006995 
L 310.988449 215.006995 
L 310.988449 122.449 
L 296.880188 122.449 
L 296.880188 215.006995 
z
" clip-path="url(#p027ea4ecf5)" style="fill: #7c92ff; opacity: 0.95; stroke: #000000; stroke-width: 1.5; stroke-linejoin: miter"/>
   </g>
   <g id="line2d_66">
    <path d="M 303.934318 215.006995 
L 303.934318 227.857576 
" clip-path="url(#p027ea4ecf5)" style="fill: none; stroke: #000000; stroke-width: 1.5; stroke-linecap: square"/>
   </g>
   <g id="line2d_67">
    <path d="M 303.934318 122.449 
L 303.934318 97.481385 
" clip-path="url(#p027ea4ecf5)" style="fill: none; stroke: #000000; stroke-width: 1.5; stroke-linecap: square"/>
   </g>
   <g id="line2d_68">
    <path d="M 300.407253 227.857576 
L 307.461384 227.857576 
" clip-path="url(#p027ea4ecf5)" style="fill: none; stroke: #000000; stroke-width: 1.5; stroke-linecap: square"/>
   </g>
   <g id="line2d_69">
    <path d="M 300.407253 97.481385 
L 307.461384 97.481385 
" clip-path="url(#p027ea4ecf5)" style="fill: none; stroke: #000000; stroke-width: 1.5; stroke-linecap: square"/>
   </g>
   <g id="line2d_70"/>
   <g id="patch_14">
    <path d="M 313.478142 232.427764 
L 327.586403 232.427764 
L 327.586403 222.441983 
L 313.478142 222.441983 
L 313.478142 232.427764 
z
" clip-path="url(#p027ea4ecf5)" style="fill: #69f7ae; opacity: 0.95; stroke: #000000; stroke-width: 1.5; stroke-linejoin: miter"/>
   </g>
   <g id="line2d_71">
    <path d="M 320.532273 232.427764 
L 320.532273 234.703353 
" clip-path="url(#p027ea4ecf5)" style="fill: none; stroke: #000000; stroke-width: 1.5; stroke-linecap: square"/>
   </g>
   <g id="line2d_72">
    <path d="M 320.532273 222.441983 
L 320.532273 221.307689 
" clip-path="url(#p027ea4ecf5)" style="fill: none; stroke: #000000; stroke-width: 1.5; stroke-linecap: square"/>
   </g>
   <g id="line2d_73">
    <path d="M 317.005207 234.703353 
L 324.059338 234.703353 
" clip-path="url(#p027ea4ecf5)" style="fill: none; stroke: #000000; stroke-width: 1.5; stroke-linecap: square"/>
   </g>
   <g id="line2d_74">
    <path d="M 317.005207 221.307689 
L 324.059338 221.307689 
" clip-path="url(#p027ea4ecf5)" style="fill: none; stroke: #000000; stroke-width: 1.5; stroke-linecap: square"/>
   </g>
   <g id="line2d_75">
    <g clip-path="url(#p027ea4ecf5)">
     <use xlink:href="#mc0089b6dd4" x="320.532273" y="195.128079" style="fill-opacity: 0.5; stroke: #000000; stroke-opacity: 0.5"/>
    </g>
   </g>
   <g id="patch_15">
    <path d="M 346.674051 147.509779 
L 360.782313 147.509779 
L 360.782313 116.261862 
L 346.674051 116.261862 
L 346.674051 147.509779 
z
" clip-path="url(#p027ea4ecf5)" style="fill: #808080; opacity: 0.95; stroke: #000000; stroke-width: 1.5; stroke-linejoin: miter"/>
   </g>
   <g id="line2d_76">
    <path d="M 353.728182 147.509779 
L 353.728182 177.946288 
" clip-path="url(#p027ea4ecf5)" style="fill: none; stroke: #000000; stroke-width: 1.5; stroke-linecap: square"/>
   </g>
   <g id="line2d_77">
    <path d="M 353.728182 116.261862 
L 353.728182 108.645859 
" clip-path="url(#p027ea4ecf5)" style="fill: none; stroke: #000000; stroke-width: 1.5; stroke-linecap: square"/>
   </g>
   <g id="line2d_78">
    <path d="M 350.201116 177.946288 
L 357.255247 177.946288 
" clip-path="url(#p027ea4ecf5)" style="fill: none; stroke: #000000; stroke-width: 1.5; stroke-linecap: square"/>
   </g>
   <g id="line2d_79">
    <path d="M 350.201116 108.645859 
L 357.255247 108.645859 
" clip-path="url(#p027ea4ecf5)" style="fill: none; stroke: #000000; stroke-width: 1.5; stroke-linecap: square"/>
   </g>
   <g id="line2d_80">
    <g clip-path="url(#p027ea4ecf5)">
     <use xlink:href="#mc0089b6dd4" x="353.728182" y="214.054006" style="fill-opacity: 0.5; stroke: #000000; stroke-opacity: 0.5"/>
    </g>
   </g>
   <g id="patch_16">
    <path d="M 363.272006 186.120609 
L 377.380267 186.120609 
L 377.380267 107.767775 
L 363.272006 107.767775 
L 363.272006 186.120609 
z
" clip-path="url(#p027ea4ecf5)" style="fill: #7c92ff; opacity: 0.95; stroke: #000000; stroke-width: 1.5; stroke-linejoin: miter"/>
   </g>
   <g id="line2d_81">
    <path d="M 370.326136 186.120609 
L 370.326136 214.054006 
" clip-path="url(#p027ea4ecf5)" style="fill: none; stroke: #000000; stroke-width: 1.5; stroke-linecap: square"/>
   </g>
   <g id="line2d_82">
    <path d="M 370.326136 107.767775 
L 370.326136 90.329054 
" clip-path="url(#p027ea4ecf5)" style="fill: none; stroke: #000000; stroke-width: 1.5; stroke-linecap: square"/>
   </g>
   <g id="line2d_83">
    <path d="M 366.799071 214.054006 
L 373.853202 214.054006 
" clip-path="url(#p027ea4ecf5)" style="fill: none; stroke: #000000; stroke-width: 1.5; stroke-linecap: square"/>
   </g>
   <g id="line2d_84">
    <path d="M 366.799071 90.329054 
L 373.853202 90.329054 
" clip-path="url(#p027ea4ecf5)" style="fill: none; stroke: #000000; stroke-width: 1.5; stroke-linecap: square"/>
   </g>
   <g id="line2d_85"/>
   <g id="patch_17">
    <path d="M 379.86996 233.30525 
L 393.978222 233.30525 
L 393.978222 227.370561 
L 379.86996 227.370561 
L 379.86996 233.30525 
z
" clip-path="url(#p027ea4ecf5)" style="fill: #69f7ae; opacity: 0.95; stroke: #000000; stroke-width: 1.5; stroke-linejoin: miter"/>
   </g>
   <g id="line2d_86">
    <path d="M 386.924091 233.30525 
L 386.924091 235.148288 
" clip-path="url(#p027ea4ecf5)" style="fill: none; stroke: #000000; stroke-width: 1.5; stroke-linecap: square"/>
   </g>
   <g id="line2d_87">
    <path d="M 386.924091 227.370561 
L 386.924091 222.13606 
" clip-path="url(#p027ea4ecf5)" style="fill: none; stroke: #000000; stroke-width: 1.5; stroke-linecap: square"/>
   </g>
   <g id="line2d_88">
    <path d="M 383.397026 235.148288 
L 390.451156 235.148288 
" clip-path="url(#p027ea4ecf5)" style="fill: none; stroke: #000000; stroke-width: 1.5; stroke-linecap: square"/>
   </g>
   <g id="line2d_89">
    <path d="M 383.397026 222.13606 
L 390.451156 222.13606 
" clip-path="url(#p027ea4ecf5)" style="fill: none; stroke: #000000; stroke-width: 1.5; stroke-linecap: square"/>
   </g>
   <g id="line2d_90"/>
   <g id="line2d_91">
    <path d="M 81.106778 148.891501 
L 95.21504 148.891501 
" clip-path="url(#p027ea4ecf5)" style="fill: none; stroke: #000000"/>
   </g>
   <g id="line2d_92">
    <path d="M 97.704733 128.596128 
L 111.812994 128.596128 
" clip-path="url(#p027ea4ecf5)" style="fill: none; stroke: #000000"/>
   </g>
   <g id="line2d_93">
    <path d="M 114.302688 218.855049 
L 128.410949 218.855049 
" clip-path="url(#p027ea4ecf5)" style="fill: none; stroke: #000000"/>
   </g>
   <g id="line2d_94">
    <path d="M 147.498597 133.638253 
L 161.606858 133.638253 
" clip-path="url(#p027ea4ecf5)" style="fill: none; stroke: #000000"/>
   </g>
   <g id="line2d_95">
    <path d="M 164.096551 129.553496 
L 178.204813 129.553496 
" clip-path="url(#p027ea4ecf5)" style="fill: none; stroke: #000000"/>
   </g>
   <g id="line2d_96">
    <path d="M 180.694506 226.998374 
L 194.802767 226.998374 
" clip-path="url(#p027ea4ecf5)" style="fill: none; stroke: #000000"/>
   </g>
   <g id="line2d_97">
    <path d="M 213.890415 155.130294 
L 227.998676 155.130294 
" clip-path="url(#p027ea4ecf5)" style="fill: none; stroke: #000000"/>
   </g>
   <g id="line2d_98">
    <path d="M 230.488369 191.422615 
L 244.596631 191.422615 
" clip-path="url(#p027ea4ecf5)" style="fill: none; stroke: #000000"/>
   </g>
   <g id="line2d_99">
    <path d="M 247.086324 220.473841 
L 261.194585 220.473841 
" clip-path="url(#p027ea4ecf5)" style="fill: none; stroke: #000000"/>
   </g>
   <g id="line2d_100">
    <path d="M 280.282233 123.760727 
L 294.390494 123.760727 
" clip-path="url(#p027ea4ecf5)" style="fill: none; stroke: #000000"/>
   </g>
   <g id="line2d_101">
    <path d="M 296.880188 171.109789 
L 310.988449 171.109789 
" clip-path="url(#p027ea4ecf5)" style="fill: none; stroke: #000000"/>
   </g>
   <g id="line2d_102">
    <path d="M 313.478142 227.208333 
L 327.586403 227.208333 
" clip-path="url(#p027ea4ecf5)" style="fill: none; stroke: #000000"/>
   </g>
   <g id="line2d_103">
    <path d="M 346.674051 123.960892 
L 360.782313 123.960892 
" clip-path="url(#p027ea4ecf5)" style="fill: none; stroke: #000000"/>
   </g>
   <g id="line2d_104">
    <path d="M 363.272006 123.673972 
L 377.380267 123.673972 
" clip-path="url(#p027ea4ecf5)" style="fill: none; stroke: #000000"/>
   </g>
   <g id="line2d_105">
    <path d="M 379.86996 230.868548 
L 393.978222 230.868548 
" clip-path="url(#p027ea4ecf5)" style="fill: none; stroke: #000000"/>
   </g>
   <g id="patch_18">
    <path d="M 54.965 244.24 
L 54.965 51.936 
" style="fill: none; stroke: #000000; stroke-width: 0.8; stroke-linejoin: miter; stroke-linecap: square"/>
   </g>
   <g id="patch_19">
    <path d="M 420.12 244.24 
L 420.12 51.936 
" style="fill: none; stroke: #000000; stroke-width: 0.8; stroke-linejoin: miter; stroke-linecap: square"/>
   </g>
   <g id="patch_20">
    <path d="M 54.965 244.24 
L 420.12 244.24 
" style="fill: none; stroke: #000000; stroke-width: 0.8; stroke-linejoin: miter; stroke-linecap: square"/>
   </g>
   <g id="patch_21">
    <path d="M 54.965 51.936 
L 420.12 51.936 
" style="fill: none; stroke: #000000; stroke-width: 0.8; stroke-linejoin: miter; stroke-linecap: square"/>
   </g>
   <g id="text_13">
    <!-- Bayesian Optimization Convergence Speed Comparison -->
    <g transform="translate(95.471797 22.461313) scale(0.13 -0.13)">
     <defs>
      <path id="RobotoCondensed-Regular-42" d="M 3125 1313 
Q 3125 675 2776 337 
Q 2428 0 1847 0 
L 491 0 
L 491 4550 
L 1791 4550 
Q 2375 4550 2706 4261 
Q 3038 3972 3038 3338 
Q 3038 3025 2880 2779 
Q 2722 2534 2453 2400 
Q 2781 2297 2953 1998 
Q 3125 1700 3125 1313 
z
M 1066 4056 
L 1066 2613 
L 1797 2613 
Q 2088 2613 2275 2806 
Q 2463 3000 2463 3344 
Q 2463 4041 1819 4056 
L 1066 4056 
z
M 2550 1306 
Q 2550 2106 1906 2128 
L 1066 2128 
L 1066 491 
L 1847 491 
Q 2181 491 2365 711 
Q 2550 931 2550 1306 
z
" transform="scale(0.015625)"/>
      <path id="RobotoCondensed-Regular-79" d="M 1425 -522 
Q 1153 -1366 563 -1366 
Q 409 -1366 278 -1316 
L 278 -847 
Q 328 -859 397 -859 
Q 631 -859 770 -746 
Q 909 -634 997 -338 
L 1106 31 
L 109 3381 
L 713 3381 
L 1341 922 
L 1953 3381 
L 2541 3381 
L 1425 -522 
z
" transform="scale(0.015625)"/>
      <path id="RobotoCondensed-Regular-73" d="M 2056 866 
Q 2056 1059 1907 1190 
Q 1759 1322 1340 1500 
Q 922 1678 681 1863 
Q 409 2072 409 2484 
Q 409 2888 703 3166 
Q 997 3444 1481 3444 
Q 2000 3444 2287 3150 
Q 2575 2856 2575 2419 
L 2025 2419 
Q 2025 2628 1884 2798 
Q 1744 2969 1481 2969 
Q 1203 2969 1083 2828 
Q 963 2688 963 2503 
Q 963 2319 1081 2217 
Q 1200 2116 1553 1959 
Q 2066 1756 2337 1537 
Q 2609 1319 2609 909 
Q 2609 463 2303 200 
Q 1997 -63 1494 -63 
Q 919 -63 616 265 
Q 313 594 313 1013 
L 866 1013 
Q 881 653 1081 533 
Q 1281 413 1494 413 
Q 2056 413 2056 866 
z
" transform="scale(0.015625)"/>
      <path id="RobotoCondensed-Regular-4f" d="M 3450 1878 
Q 3450 913 3040 425 
Q 2631 -63 1925 -63 
Q 1253 -63 829 412 
Q 406 888 394 1822 
L 394 2669 
Q 394 3631 816 4122 
Q 1238 4613 1922 4613 
Q 2622 4613 3031 4131 
Q 3441 3650 3450 2713 
L 3450 1878 
z
M 2881 2675 
Q 2881 3425 2634 3762 
Q 2388 4100 1922 4100 
Q 1478 4100 1220 3762 
Q 963 3425 963 2675 
L 963 1878 
Q 963 1125 1223 786 
Q 1484 447 1925 447 
Q 2394 447 2636 781 
Q 2878 1116 2881 1859 
L 2881 2675 
z
" transform="scale(0.015625)"/>
      <path id="RobotoCondensed-Regular-70" d="M 1750 -63 
Q 1244 -63 969 325 
L 969 -1300 
L 416 -1300 
L 416 3381 
L 919 3381 
L 947 3013 
Q 1222 3444 1744 3444 
Q 2275 3444 2562 3073 
Q 2850 2703 2859 1897 
L 2859 1528 
Q 2859 725 2570 331 
Q 2281 -63 1750 -63 
z
M 1572 2956 
Q 1181 2956 969 2559 
L 969 797 
Q 1178 409 1578 409 
Q 2288 409 2306 1472 
L 2306 1844 
Q 2306 2956 1572 2956 
z
" transform="scale(0.015625)"/>
      <path id="RobotoCondensed-Regular-74" d="M 1647 0 
Q 1488 -63 1259 -63 
Q 991 -63 789 134 
Q 588 331 588 841 
L 588 2938 
L 72 2938 
L 72 3381 
L 588 3381 
L 588 4203 
L 1141 4203 
L 1141 3381 
L 1650 3381 
L 1650 2938 
L 1141 2938 
L 1141 838 
Q 1141 578 1230 506 
Q 1319 434 1431 434 
Q 1550 434 1650 472 
L 1647 0 
z
" transform="scale(0.015625)"/>
      <path id="RobotoCondensed-Regular-6f" d="M 300 1850 
Q 300 2641 678 3042 
Q 1056 3444 1603 3444 
Q 2156 3444 2536 3042 
Q 2916 2641 2916 1850 
L 2916 1528 
Q 2916 738 2536 337 
Q 2156 -63 1609 -63 
Q 1059 -63 679 337 
Q 300 738 300 1528 
L 300 1850 
z
M 853 1528 
Q 853 969 1068 689 
Q 1284 409 1609 409 
Q 2341 409 2363 1466 
L 2363 1850 
Q 2363 2403 2145 2686 
Q 1928 2969 1603 2969 
Q 1281 2969 1067 2686 
Q 853 2403 853 1850 
L 853 1528 
z
" transform="scale(0.015625)"/>
      <path id="RobotoCondensed-Regular-63" d="M 1588 409 
Q 1834 409 2012 564 
Q 2191 719 2213 1069 
L 2731 1069 
Q 2713 559 2378 248 
Q 2044 -63 1588 -63 
Q 934 -63 621 342 
Q 309 747 303 1472 
L 303 1881 
Q 303 2619 617 3031 
Q 931 3444 1588 3444 
Q 2103 3444 2408 3120 
Q 2713 2797 2731 2219 
L 2213 2219 
Q 2169 2969 1588 2969 
Q 1150 2969 1003 2672 
Q 856 2375 856 1881 
L 856 1500 
Q 856 1003 1001 706 
Q 1147 409 1588 409 
z
" transform="scale(0.015625)"/>
     </defs>
     <use xlink:href="#RobotoCondensed-Regular-42"/>
     <use xlink:href="#RobotoCondensed-Regular-61" transform="translate(54.589844 0)"/>
     <use xlink:href="#RobotoCondensed-Regular-79" transform="translate(102.490234 0)"/>
     <use xlink:href="#RobotoCondensed-Regular-65" transform="translate(144.140625 0)"/>
     <use xlink:href="#RobotoCondensed-Regular-73" transform="translate(191.015625 0)"/>
     <use xlink:href="#RobotoCondensed-Regular-69" transform="translate(236.621094 0)"/>
     <use xlink:href="#RobotoCondensed-Regular-61" transform="translate(259.570312 0)"/>
     <use xlink:href="#RobotoCondensed-Regular-6e" transform="translate(307.470703 0)"/>
     <use xlink:href="#RobotoCondensed-Regular-20" transform="translate(355.908203 0)"/>
     <use xlink:href="#RobotoCondensed-Regular-4f" transform="translate(378.857422 0)"/>
     <use xlink:href="#RobotoCondensed-Regular-70" transform="translate(438.964844 0)"/>
     <use xlink:href="#RobotoCondensed-Regular-74" transform="translate(488.28125 0)"/>
     <use xlink:href="#RobotoCondensed-Regular-69" transform="translate(517.871094 0)"/>
     <use xlink:href="#RobotoCondensed-Regular-6d" transform="translate(540.820312 0)"/>
     <use xlink:href="#RobotoCondensed-Regular-69" transform="translate(616.113281 0)"/>
     <use xlink:href="#RobotoCondensed-Regular-7a" transform="translate(639.0625 0)"/>
     <use xlink:href="#RobotoCondensed-Regular-61" transform="translate(682.958984 0)"/>
     <use xlink:href="#RobotoCondensed-Regular-74" transform="translate(730.859375 0)"/>
     <use xlink:href="#RobotoCondensed-Regular-69" transform="translate(760.449219 0)"/>
     <use xlink:href="#RobotoCondensed-Regular-6f" transform="translate(783.398438 0)"/>
     <use xlink:href="#RobotoCondensed-Regular-6e" transform="translate(833.59375 0)"/>
     <use xlink:href="#RobotoCondensed-Regular-20" transform="translate(882.03125 0)"/>
     <use xlink:href="#RobotoCondensed-Regular-43" transform="translate(904.980469 0)"/>
     <use xlink:href="#RobotoCondensed-Regular-6f" transform="translate(961.669922 0)"/>
     <use xlink:href="#RobotoCondensed-Regular-6e" transform="translate(1011.865234 0)"/>
     <use xlink:href="#RobotoCondensed-Regular-76" transform="translate(1060.302734 0)"/>
     <use xlink:href="#RobotoCondensed-Regular-65" transform="translate(1103.076172 0)"/>
     <use xlink:href="#RobotoCondensed-Regular-72" transform="translate(1149.951172 0)"/>
     <use xlink:href="#RobotoCondensed-Regular-67" transform="translate(1180.419922 0)"/>
     <use xlink:href="#RobotoCondensed-Regular-65" transform="translate(1229.736328 0)"/>
     <use xlink:href="#RobotoCondensed-Regular-6e" transform="translate(1276.611328 0)"/>
     <use xlink:href="#RobotoCondensed-Regular-63" transform="translate(1325.048828 0)"/>
     <use xlink:href="#RobotoCondensed-Regular-65" transform="translate(1371.240234 0)"/>
     <use xlink:href="#RobotoCondensed-Regular-20" transform="translate(1418.115234 0)"/>
     <use xlink:href="#RobotoCondensed-Regular-53" transform="translate(1441.064453 0)"/>
     <use xlink:href="#RobotoCondensed-Regular-70" transform="translate(1492.919922 0)"/>
     <use xlink:href="#RobotoCondensed-Regular-65" transform="translate(1542.236328 0)"/>
     <use xlink:href="#RobotoCondensed-Regular-65" transform="translate(1589.111328 0)"/>
     <use xlink:href="#RobotoCondensed-Regular-64" transform="translate(1635.986328 0)"/>
     <use xlink:href="#RobotoCondensed-Regular-20" transform="translate(1685.595703 0)"/>
     <use xlink:href="#RobotoCondensed-Regular-43" transform="translate(1708.544922 0)"/>
     <use xlink:href="#RobotoCondensed-Regular-6f" transform="translate(1765.234375 0)"/>
     <use xlink:href="#RobotoCondensed-Regular-6d" transform="translate(1815.429688 0)"/>
     <use xlink:href="#RobotoCondensed-Regular-70" transform="translate(1890.722656 0)"/>
     <use xlink:href="#RobotoCondensed-Regular-61" transform="translate(1940.039062 0)"/>
     <use xlink:href="#RobotoCondensed-Regular-72" transform="translate(1987.939453 0)"/>
     <use xlink:href="#RobotoCondensed-Regular-69" transform="translate(2018.408203 0)"/>
     <use xlink:href="#RobotoCondensed-Regular-73" transform="translate(2041.357422 0)"/>
     <use xlink:href="#RobotoCondensed-Regular-6f" transform="translate(2086.962891 0)"/>
     <use xlink:href="#RobotoCondensed-Regular-6e" transform="translate(2137.158203 0)"/>
    </g>
    <!-- by Representation Method and Embedding Size -->
    <g transform="translate(116.986797 36.936) scale(0.13 -0.13)">
     <defs>
      <path id="RobotoCondensed-Regular-52" d="M 2678 0 
L 1869 1844 
L 1069 1844 
L 1069 0 
L 494 0 
L 494 4550 
L 1766 4550 
Q 2444 4550 2783 4208 
Q 3122 3866 3122 3184 
Q 3122 2303 2409 1975 
L 3294 38 
L 3294 0 
L 2678 0 
z
M 1069 4056 
L 1069 2334 
L 1759 2334 
Q 2153 2334 2350 2582 
Q 2547 2831 2547 3184 
Q 2547 3578 2369 3817 
Q 2191 4056 1766 4056 
L 1069 4056 
z
" transform="scale(0.015625)"/>
      <path id="RobotoCondensed-Regular-4d" d="M 2419 841 
L 3606 4550 
L 4341 4550 
L 4341 0 
L 3769 0 
L 3769 1775 
L 3822 3538 
L 2634 0 
L 2197 0 
L 1009 3544 
L 1063 1775 
L 1063 0 
L 491 0 
L 491 4550 
L 1228 4550 
L 2419 841 
z
" transform="scale(0.015625)"/>
      <path id="RobotoCondensed-Regular-68" d="M 1603 2956 
Q 1400 2956 1236 2818 
Q 1072 2681 969 2459 
L 969 0 
L 416 0 
L 416 4800 
L 969 4800 
L 969 3041 
Q 1288 3444 1775 3444 
Q 2191 3444 2437 3162 
Q 2684 2881 2684 2216 
L 2684 0 
L 2131 0 
L 2131 2222 
Q 2131 2619 2000 2787 
Q 1869 2956 1603 2956 
z
" transform="scale(0.015625)"/>
     </defs>
     <use xlink:href="#RobotoCondensed-Regular-62"/>
     <use xlink:href="#RobotoCondensed-Regular-79" transform="translate(49.316406 0)"/>
     <use xlink:href="#RobotoCondensed-Regular-20" transform="translate(90.966797 0)"/>
     <use xlink:href="#RobotoCondensed-Regular-52" transform="translate(113.916016 0)"/>
     <use xlink:href="#RobotoCondensed-Regular-65" transform="translate(166.992188 0)"/>
     <use xlink:href="#RobotoCondensed-Regular-70" transform="translate(213.867188 0)"/>
     <use xlink:href="#RobotoCondensed-Regular-72" transform="translate(263.183594 0)"/>
     <use xlink:href="#RobotoCondensed-Regular-65" transform="translate(293.652344 0)"/>
     <use xlink:href="#RobotoCondensed-Regular-73" transform="translate(340.527344 0)"/>
     <use xlink:href="#RobotoCondensed-Regular-65" transform="translate(386.132812 0)"/>
     <use xlink:href="#RobotoCondensed-Regular-6e" transform="translate(433.007812 0)"/>
     <use xlink:href="#RobotoCondensed-Regular-74" transform="translate(481.445312 0)"/>
     <use xlink:href="#RobotoCondensed-Regular-61" transform="translate(511.035156 0)"/>
     <use xlink:href="#RobotoCondensed-Regular-74" transform="translate(558.935547 0)"/>
     <use xlink:href="#RobotoCondensed-Regular-69" transform="translate(588.525391 0)"/>
     <use xlink:href="#RobotoCondensed-Regular-6f" transform="translate(611.474609 0)"/>
     <use xlink:href="#RobotoCondensed-Regular-6e" transform="translate(661.669922 0)"/>
     <use xlink:href="#RobotoCondensed-Regular-20" transform="translate(710.107422 0)"/>
     <use xlink:href="#RobotoCondensed-Regular-4d" transform="translate(733.056641 0)"/>
     <use xlink:href="#RobotoCondensed-Regular-65" transform="translate(808.59375 0)"/>
     <use xlink:href="#RobotoCondensed-Regular-74" transform="translate(855.46875 0)"/>
     <use xlink:href="#RobotoCondensed-Regular-68" transform="translate(885.058594 0)"/>
     <use xlink:href="#RobotoCondensed-Regular-6f" transform="translate(933.349609 0)"/>
     <use xlink:href="#RobotoCondensed-Regular-64" transform="translate(983.544922 0)"/>
     <use xlink:href="#RobotoCondensed-Regular-20" transform="translate(1033.154297 0)"/>
     <use xlink:href="#RobotoCondensed-Regular-61" transform="translate(1056.103516 0)"/>
     <use xlink:href="#RobotoCondensed-Regular-6e" transform="translate(1104.003906 0)"/>
     <use xlink:href="#RobotoCondensed-Regular-64" transform="translate(1152.441406 0)"/>
     <use xlink:href="#RobotoCondensed-Regular-20" transform="translate(1202.050781 0)"/>
     <use xlink:href="#RobotoCondensed-Regular-45" transform="translate(1225 0)"/>
     <use xlink:href="#RobotoCondensed-Regular-6d" transform="translate(1274.707031 0)"/>
     <use xlink:href="#RobotoCondensed-Regular-62" transform="translate(1350 0)"/>
     <use xlink:href="#RobotoCondensed-Regular-65" transform="translate(1399.316406 0)"/>
     <use xlink:href="#RobotoCondensed-Regular-64" transform="translate(1446.191406 0)"/>
     <use xlink:href="#RobotoCondensed-Regular-64" transform="translate(1495.800781 0)"/>
     <use xlink:href="#RobotoCondensed-Regular-69" transform="translate(1545.410156 0)"/>
     <use xlink:href="#RobotoCondensed-Regular-6e" transform="translate(1568.359375 0)"/>
     <use xlink:href="#RobotoCondensed-Regular-67" transform="translate(1616.796875 0)"/>
     <use xlink:href="#RobotoCondensed-Regular-20" transform="translate(1666.113281 0)"/>
     <use xlink:href="#RobotoCondensed-Regular-53" transform="translate(1689.0625 0)"/>
     <use xlink:href="#RobotoCondensed-Regular-69" transform="translate(1740.917969 0)"/>
     <use xlink:href="#RobotoCondensed-Regular-7a" transform="translate(1763.867188 0)"/>
     <use xlink:href="#RobotoCondensed-Regular-65" transform="translate(1807.763672 0)"/>
    </g>
   </g>
   <g id="legend_1">
    <g id="patch_22">
     <path d="M 283.23875 110.418187 
L 412.42 110.418187 
Q 414.62 110.418187 414.62 108.218187 
L 414.62 59.636 
Q 414.62 57.436 412.42 57.436 
L 283.23875 57.436 
Q 281.03875 57.436 281.03875 59.636 
L 281.03875 108.218187 
Q 281.03875 110.418187 283.23875 110.418187 
z
" style="fill: #ffffff; opacity: 0.8; stroke: #cccccc; stroke-linejoin: miter"/>
    </g>
    <g id="patch_23">
     <path d="M 285.43875 70.086 
L 307.43875 70.086 
L 307.43875 62.386 
L 285.43875 62.386 
z
" style="fill: #808080; opacity: 0.7"/>
    </g>
    <g id="text_14">
     <!-- Random Repr. -->
     <g transform="translate(316.23875 70.086) scale(0.11 -0.11)">
      <defs>
       <path id="RobotoCondensed-Regular-2e" d="M 450 306 
Q 450 453 542 554 
Q 634 656 809 656 
Q 984 656 1076 554 
Q 1169 453 1169 306 
Q 1169 163 1076 62 
Q 984 -38 809 -38 
Q 634 -38 542 62 
Q 450 163 450 306 
z
" transform="scale(0.015625)"/>
      </defs>
      <use xlink:href="#RobotoCondensed-Regular-52"/>
      <use xlink:href="#RobotoCondensed-Regular-61" transform="translate(53.076172 0)"/>
      <use xlink:href="#RobotoCondensed-Regular-6e" transform="translate(100.976562 0)"/>
      <use xlink:href="#RobotoCondensed-Regular-64" transform="translate(149.414062 0)"/>
      <use xlink:href="#RobotoCondensed-Regular-6f" transform="translate(199.023438 0)"/>
      <use xlink:href="#RobotoCondensed-Regular-6d" transform="translate(249.21875 0)"/>
      <use xlink:href="#RobotoCondensed-Regular-20" transform="translate(324.511719 0)"/>
      <use xlink:href="#RobotoCondensed-Regular-52" transform="translate(347.460938 0)"/>
      <use xlink:href="#RobotoCondensed-Regular-65" transform="translate(400.537109 0)"/>
      <use xlink:href="#RobotoCondensed-Regular-70" transform="translate(447.412109 0)"/>
      <use xlink:href="#RobotoCondensed-Regular-72" transform="translate(496.728516 0)"/>
      <use xlink:href="#RobotoCondensed-Regular-2e" transform="translate(527.197266 0)"/>
     </g>
    </g>
    <g id="patch_24">
     <path d="M 285.43875 86.644437 
L 307.43875 86.644437 
L 307.43875 78.944437 
L 285.43875 78.944437 
z
" style="fill: #7c92ff; opacity: 0.7"/>
    </g>
    <g id="text_15">
     <!-- Morgan FP (Radius 2) -->
     <g transform="translate(316.23875 86.644437) scale(0.11 -0.11)">
      <defs>
       <path id="RobotoCondensed-Regular-46" d="M 491 0 
L 491 4550 
L 2859 4550 
L 2859 4056 
L 1066 4056 
L 1066 2503 
L 2600 2503 
L 2600 2009 
L 1066 2009 
L 1066 0 
L 491 0 
z
" transform="scale(0.015625)"/>
       <path id="RobotoCondensed-Regular-50" d="M 1066 1784 
L 1066 0 
L 491 0 
L 491 4550 
L 1941 4550 
Q 2600 4550 2951 4159 
Q 3303 3769 3303 3163 
Q 3303 2506 2954 2147 
Q 2606 1788 1950 1784 
L 1066 1784 
z
M 1066 4056 
L 1066 2275 
L 1941 2275 
Q 2359 2275 2543 2522 
Q 2728 2769 2728 3156 
Q 2728 3506 2543 3781 
Q 2359 4056 1941 4056 
L 1066 4056 
z
" transform="scale(0.015625)"/>
      </defs>
      <use xlink:href="#RobotoCondensed-Regular-4d"/>
      <use xlink:href="#RobotoCondensed-Regular-6f" transform="translate(75.537109 0)"/>
      <use xlink:href="#RobotoCondensed-Regular-72" transform="translate(125.732422 0)"/>
      <use xlink:href="#RobotoCondensed-Regular-67" transform="translate(156.201172 0)"/>
      <use xlink:href="#RobotoCondensed-Regular-61" transform="translate(205.517578 0)"/>
      <use xlink:href="#RobotoCondensed-Regular-6e" transform="translate(253.417969 0)"/>
      <use xlink:href="#RobotoCondensed-Regular-20" transform="translate(301.855469 0)"/>
      <use xlink:href="#RobotoCondensed-Regular-46" transform="translate(324.804688 0)"/>
      <use xlink:href="#RobotoCondensed-Regular-50" transform="translate(372.900391 0)"/>
      <use xlink:href="#RobotoCondensed-Regular-20" transform="translate(428.320312 0)"/>
      <use xlink:href="#RobotoCondensed-Regular-28" transform="translate(451.269531 0)"/>
      <use xlink:href="#RobotoCondensed-Regular-52" transform="translate(482.666016 0)"/>
      <use xlink:href="#RobotoCondensed-Regular-61" transform="translate(535.742188 0)"/>
      <use xlink:href="#RobotoCondensed-Regular-64" transform="translate(583.642578 0)"/>
      <use xlink:href="#RobotoCondensed-Regular-69" transform="translate(633.251953 0)"/>
      <use xlink:href="#RobotoCondensed-Regular-75" transform="translate(656.201172 0)"/>
      <use xlink:href="#RobotoCondensed-Regular-73" transform="translate(704.541016 0)"/>
      <use xlink:href="#RobotoCondensed-Regular-20" transform="translate(750.146484 0)"/>
      <use xlink:href="#RobotoCondensed-Regular-32" transform="translate(773.095703 0)"/>
      <use xlink:href="#RobotoCondensed-Regular-29" transform="translate(822.460938 0)"/>
     </g>
    </g>
    <g id="patch_25">
     <path d="M 285.43875 103.493344 
L 307.43875 103.493344 
L 307.43875 95.793344 
L 285.43875 95.793344 
z
" style="fill: #69f7ae; opacity: 0.7"/>
    </g>
    <g id="text_16">
     <!-- HDC (Depth 2) -->
     <g transform="translate(316.23875 103.493344) scale(0.11 -0.11)">
      <defs>
       <path id="RobotoCondensed-Regular-48" d="M 2894 0 
L 2894 2103 
L 1066 2103 
L 1066 0 
L 491 0 
L 491 4550 
L 1066 4550 
L 1066 2594 
L 2894 2594 
L 2894 4550 
L 3469 4550 
L 3469 0 
L 2894 0 
z
" transform="scale(0.015625)"/>
       <path id="RobotoCondensed-Regular-44" d="M 491 0 
L 491 4550 
L 1575 4550 
Q 2344 4550 2800 4070 
Q 3256 3591 3256 2659 
L 3256 1888 
Q 3256 956 2797 478 
Q 2338 0 1522 0 
L 491 0 
z
M 1066 4056 
L 1066 491 
L 1522 491 
Q 2128 491 2404 836 
Q 2681 1181 2688 1856 
L 2688 2666 
Q 2688 3388 2413 3722 
Q 2138 4056 1575 4056 
L 1066 4056 
z
" transform="scale(0.015625)"/>
      </defs>
      <use xlink:href="#RobotoCondensed-Regular-48"/>
      <use xlink:href="#RobotoCondensed-Regular-44" transform="translate(62.011719 0)"/>
      <use xlink:href="#RobotoCondensed-Regular-43" transform="translate(119.091797 0)"/>
      <use xlink:href="#RobotoCondensed-Regular-20" transform="translate(175.78125 0)"/>
      <use xlink:href="#RobotoCondensed-Regular-28" transform="translate(198.730469 0)"/>
      <use xlink:href="#RobotoCondensed-Regular-44" transform="translate(230.126953 0)"/>
      <use xlink:href="#RobotoCondensed-Regular-65" transform="translate(287.207031 0)"/>
      <use xlink:href="#RobotoCondensed-Regular-70" transform="translate(334.082031 0)"/>
      <use xlink:href="#RobotoCondensed-Regular-74" transform="translate(383.398438 0)"/>
      <use xlink:href="#RobotoCondensed-Regular-68" transform="translate(412.988281 0)"/>
      <use xlink:href="#RobotoCondensed-Regular-20" transform="translate(461.279297 0)"/>
      <use xlink:href="#RobotoCondensed-Regular-32" transform="translate(484.228516 0)"/>
      <use xlink:href="#RobotoCondensed-Regular-29" transform="translate(533.59375 0)"/>
     </g>
    </g>
   </g>
  </g>
 </g>
 <defs>
  <clipPath id="p027ea4ecf5">
   <rect x="54.965" y="51.936" width="365.155" height="192.304"/>
  </clipPath>
 </defs>
</svg>
