<?xml version="1.0" encoding="utf-8" standalone="no"?>
<!DOCTYPE svg PUBLIC "-//W3C//DTD SVG 1.1//EN"
  "http://www.w3.org/Graphics/SVG/1.1/DTD/svg11.dtd">
<svg xmlns:xlink="http://www.w3.org/1999/xlink" width="864pt" height="288pt" viewBox="0 0 864 288" xmlns="http://www.w3.org/2000/svg" version="1.1">
 <metadata>
  <rdf:RDF xmlns:dc="http://purl.org/dc/elements/1.1/" xmlns:cc="http://creativecommons.org/ns#" xmlns:rdf="http://www.w3.org/1999/02/22-rdf-syntax-ns#">
   <cc:Work>
    <dc:type rdf:resource="http://purl.org/dc/dcmitype/StillImage"/>
    <dc:date>2025-12-04T13:28:05.477054</dc:date>
    <dc:format>image/svg+xml</dc:format>
    <dc:creator>
     <cc:Agent>
      <dc:title>Matplotlib v3.10.7, https://matplotlib.org/</dc:title>
     </cc:Agent>
    </dc:creator>
   </cc:Work>
  </rdf:RDF>
 </metadata>
 <defs>
  <style type="text/css">*{stroke-linejoin: round; stroke-linecap: butt}</style>
 </defs>
 <g id="figure_1">
  <g id="patch_1">
   <path d="M 0 288 
L 864 288 
L 864 0 
L 0 0 
z
" style="fill: #ffffff"/>
  </g>
  <g id="axes_1">
   <g id="patch_2">
    <path d="M 56.72 244.24 
L 843.885 244.24 
L 843.885 52.719 
L 56.72 52.719 
z
" style="fill: #ffffff"/>
   </g>
   <g id="matplotlib.axis_1">
    <g id="xtick_1">
     <g id="line2d_1">
      <path d="M 56.72 244.24 
L 56.72 52.719 
" clip-path="url(#pf2f6b1dbb6)" style="fill: none; stroke-dasharray: 2.96,1.28; stroke-dashoffset: 0; stroke: #b0b0b0; stroke-opacity: 0.3; stroke-width: 0.8"/>
     </g>
     <g id="line2d_2">
      <defs>
       <path id="m2c48f3b215" d="M 0 0 
L 0 3.5 
" style="stroke: #000000; stroke-width: 0.8"/>
      </defs>
      <g>
       <use xlink:href="#m2c48f3b215" x="56.72" y="244.24" style="stroke: #000000; stroke-width: 0.8"/>
      </g>
     </g>
     <g id="text_1">
      <!-- 0 -->
      <g transform="translate(54.005234 259.49) scale(0.11 -0.11)">
       <defs>
        <path id="RobotoCondensed-Regular-30" d="M 2797 1944 
Q 2797 825 2467 381 
Q 2138 -63 1581 -63 
Q 1038 -63 703 370 
Q 369 803 359 1878 
L 359 2638 
Q 359 3753 695 4183 
Q 1031 4613 1578 4613 
Q 2131 4613 2461 4189 
Q 2791 3766 2797 2681 
L 2797 1944 
z
M 2247 2734 
Q 2247 3503 2073 3822 
Q 1900 4141 1578 4141 
Q 1266 4141 1092 3833 
Q 919 3525 913 2791 
L 913 1850 
Q 913 1088 1089 750 
Q 1266 413 1581 413 
Q 1903 413 2072 738 
Q 2241 1063 2247 1794 
L 2247 2734 
z
" transform="scale(0.015625)"/>
       </defs>
       <use xlink:href="#RobotoCondensed-Regular-30"/>
      </g>
     </g>
    </g>
    <g id="xtick_2">
     <g id="line2d_3">
      <path d="M 214.153 244.24 
L 214.153 52.719 
" clip-path="url(#pf2f6b1dbb6)" style="fill: none; stroke-dasharray: 2.96,1.28; stroke-dashoffset: 0; stroke: #b0b0b0; stroke-opacity: 0.3; stroke-width: 0.8"/>
     </g>
     <g id="line2d_4">
      <g>
       <use xlink:href="#m2c48f3b215" x="214.153" y="244.24" style="stroke: #000000; stroke-width: 0.8"/>
      </g>
     </g>
     <g id="text_2">
      <!-- 20 -->
      <g transform="translate(208.723469 259.49) scale(0.11 -0.11)">
       <defs>
        <path id="RobotoCondensed-Regular-32" d="M 2909 475 
L 2909 0 
L 366 0 
L 366 416 
L 1628 2088 
Q 1966 2541 2077 2802 
Q 2188 3063 2188 3328 
Q 2188 3663 2027 3900 
Q 1866 4138 1575 4138 
Q 1194 4138 1022 3878 
Q 850 3619 850 3213 
L 297 3213 
Q 297 3788 617 4200 
Q 938 4613 1575 4613 
Q 2125 4613 2433 4278 
Q 2741 3944 2741 3397 
Q 2741 2997 2541 2594 
Q 2341 2191 2047 1809 
L 1028 475 
L 2909 475 
z
" transform="scale(0.015625)"/>
       </defs>
       <use xlink:href="#RobotoCondensed-Regular-32"/>
       <use xlink:href="#RobotoCondensed-Regular-30" transform="translate(49.365234 0)"/>
      </g>
     </g>
    </g>
    <g id="xtick_3">
     <g id="line2d_5">
      <path d="M 371.586 244.24 
L 371.586 52.719 
" clip-path="url(#pf2f6b1dbb6)" style="fill: none; stroke-dasharray: 2.96,1.28; stroke-dashoffset: 0; stroke: #b0b0b0; stroke-opacity: 0.3; stroke-width: 0.8"/>
     </g>
     <g id="line2d_6">
      <g>
       <use xlink:href="#m2c48f3b215" x="371.586" y="244.24" style="stroke: #000000; stroke-width: 0.8"/>
      </g>
     </g>
     <g id="text_3">
      <!-- 40 -->
      <g transform="translate(366.156469 259.49) scale(0.11 -0.11)">
       <defs>
        <path id="RobotoCondensed-Regular-34" d="M 188 1397 
L 1878 4550 
L 2463 4550 
L 2463 1531 
L 2969 1531 
L 2969 1056 
L 2463 1056 
L 2463 0 
L 1909 0 
L 1909 1056 
L 188 1056 
L 188 1397 
z
M 803 1531 
L 1909 1531 
L 1909 3703 
L 1878 3638 
L 803 1531 
z
" transform="scale(0.015625)"/>
       </defs>
       <use xlink:href="#RobotoCondensed-Regular-34"/>
       <use xlink:href="#RobotoCondensed-Regular-30" transform="translate(49.365234 0)"/>
      </g>
     </g>
    </g>
    <g id="xtick_4">
     <g id="line2d_7">
      <path d="M 529.019 244.24 
L 529.019 52.719 
" clip-path="url(#pf2f6b1dbb6)" style="fill: none; stroke-dasharray: 2.96,1.28; stroke-dashoffset: 0; stroke: #b0b0b0; stroke-opacity: 0.3; stroke-width: 0.8"/>
     </g>
     <g id="line2d_8">
      <g>
       <use xlink:href="#m2c48f3b215" x="529.019" y="244.24" style="stroke: #000000; stroke-width: 0.8"/>
      </g>
     </g>
     <g id="text_4">
      <!-- 60 -->
      <g transform="translate(523.589469 259.49) scale(0.11 -0.11)">
       <defs>
        <path id="RobotoCondensed-Regular-36" d="M 2847 1484 
Q 2847 838 2544 387 
Q 2241 -63 1641 -63 
Q 1216 -63 944 198 
Q 672 459 542 861 
Q 413 1263 413 1684 
L 413 1956 
Q 413 2438 481 2900 
Q 550 3363 742 3738 
Q 934 4113 1296 4334 
Q 1659 4556 2291 4556 
L 2291 4066 
Q 1775 4066 1508 3859 
Q 1241 3653 1122 3318 
Q 1003 2984 978 2606 
Q 1272 2984 1750 2984 
Q 2138 2984 2380 2765 
Q 2622 2547 2734 2201 
Q 2847 1856 2847 1484 
z
M 969 1666 
Q 969 1059 1180 737 
Q 1391 416 1641 416 
Q 1959 416 2129 708 
Q 2300 1000 2300 1456 
Q 2300 1863 2144 2184 
Q 1988 2506 1659 2506 
Q 1425 2506 1236 2329 
Q 1047 2153 969 1900 
L 969 1666 
z
" transform="scale(0.015625)"/>
       </defs>
       <use xlink:href="#RobotoCondensed-Regular-36"/>
       <use xlink:href="#RobotoCondensed-Regular-30" transform="translate(49.365234 0)"/>
      </g>
     </g>
    </g>
    <g id="xtick_5">
     <g id="line2d_9">
      <path d="M 686.452 244.24 
L 686.452 52.719 
" clip-path="url(#pf2f6b1dbb6)" style="fill: none; stroke-dasharray: 2.96,1.28; stroke-dashoffset: 0; stroke: #b0b0b0; stroke-opacity: 0.3; stroke-width: 0.8"/>
     </g>
     <g id="line2d_10">
      <g>
       <use xlink:href="#m2c48f3b215" x="686.452" y="244.24" style="stroke: #000000; stroke-width: 0.8"/>
      </g>
     </g>
     <g id="text_5">
      <!-- 80 -->
      <g transform="translate(681.022469 259.49) scale(0.11 -0.11)">
       <defs>
        <path id="RobotoCondensed-Regular-38" d="M 2794 1231 
Q 2794 606 2445 271 
Q 2097 -63 1578 -63 
Q 1063 -63 714 273 
Q 366 609 366 1231 
Q 366 1613 536 1905 
Q 706 2197 1000 2347 
Q 450 2666 450 3366 
Q 450 3963 769 4288 
Q 1088 4613 1581 4613 
Q 2075 4613 2392 4288 
Q 2709 3963 2709 3366 
Q 2709 3028 2557 2761 
Q 2406 2494 2150 2344 
Q 2444 2194 2619 1901 
Q 2794 1609 2794 1231 
z
M 2156 3356 
Q 2156 3697 2000 3917 
Q 1844 4138 1581 4138 
Q 1319 4138 1161 3927 
Q 1003 3716 1003 3356 
Q 1003 3003 1159 2790 
Q 1316 2578 1581 2578 
Q 1844 2578 2000 2790 
Q 2156 3003 2156 3356 
z
M 2244 1244 
Q 2244 1625 2061 1865 
Q 1878 2106 1575 2106 
Q 1266 2106 1091 1865 
Q 916 1625 916 1244 
Q 916 850 1089 631 
Q 1263 413 1578 413 
Q 1897 413 2070 631 
Q 2244 850 2244 1244 
z
" transform="scale(0.015625)"/>
       </defs>
       <use xlink:href="#RobotoCondensed-Regular-38"/>
       <use xlink:href="#RobotoCondensed-Regular-30" transform="translate(49.365234 0)"/>
      </g>
     </g>
    </g>
    <g id="xtick_6">
     <g id="line2d_11">
      <path d="M 843.885 244.24 
L 843.885 52.719 
" clip-path="url(#pf2f6b1dbb6)" style="fill: none; stroke-dasharray: 2.96,1.28; stroke-dashoffset: 0; stroke: #b0b0b0; stroke-opacity: 0.3; stroke-width: 0.8"/>
     </g>
     <g id="line2d_12">
      <g>
       <use xlink:href="#m2c48f3b215" x="843.885" y="244.24" style="stroke: #000000; stroke-width: 0.8"/>
      </g>
     </g>
     <g id="text_6">
      <!-- 100 -->
      <g transform="translate(835.740703 259.49) scale(0.11 -0.11)">
       <defs>
        <path id="RobotoCondensed-Regular-31" d="M 2013 4575 
L 2013 0 
L 1459 0 
L 1459 3853 
L 503 3428 
L 503 3950 
L 1928 4575 
L 2013 4575 
z
" transform="scale(0.015625)"/>
       </defs>
       <use xlink:href="#RobotoCondensed-Regular-31"/>
       <use xlink:href="#RobotoCondensed-Regular-30" transform="translate(49.365234 0)"/>
       <use xlink:href="#RobotoCondensed-Regular-30" transform="translate(98.730469 0)"/>
      </g>
     </g>
    </g>
    <g id="text_7">
     <!-- BO Round -->
     <g transform="translate(427.062813 274.724375) scale(0.12 -0.12)">
      <defs>
       <path id="RobotoCondensed-Regular-42" d="M 3125 1313 
Q 3125 675 2776 337 
Q 2428 0 1847 0 
L 491 0 
L 491 4550 
L 1791 4550 
Q 2375 4550 2706 4261 
Q 3038 3972 3038 3338 
Q 3038 3025 2880 2779 
Q 2722 2534 2453 2400 
Q 2781 2297 2953 1998 
Q 3125 1700 3125 1313 
z
M 1066 4056 
L 1066 2613 
L 1797 2613 
Q 2088 2613 2275 2806 
Q 2463 3000 2463 3344 
Q 2463 4041 1819 4056 
L 1066 4056 
z
M 2550 1306 
Q 2550 2106 1906 2128 
L 1066 2128 
L 1066 491 
L 1847 491 
Q 2181 491 2365 711 
Q 2550 931 2550 1306 
z
" transform="scale(0.015625)"/>
       <path id="RobotoCondensed-Regular-4f" d="M 3450 1878 
Q 3450 913 3040 425 
Q 2631 -63 1925 -63 
Q 1253 -63 829 412 
Q 406 888 394 1822 
L 394 2669 
Q 394 3631 816 4122 
Q 1238 4613 1922 4613 
Q 2622 4613 3031 4131 
Q 3441 3650 3450 2713 
L 3450 1878 
z
M 2881 2675 
Q 2881 3425 2634 3762 
Q 2388 4100 1922 4100 
Q 1478 4100 1220 3762 
Q 963 3425 963 2675 
L 963 1878 
Q 963 1125 1223 786 
Q 1484 447 1925 447 
Q 2394 447 2636 781 
Q 2878 1116 2881 1859 
L 2881 2675 
z
" transform="scale(0.015625)"/>
       <path id="RobotoCondensed-Regular-20" transform="scale(0.015625)"/>
       <path id="RobotoCondensed-Regular-52" d="M 2678 0 
L 1869 1844 
L 1069 1844 
L 1069 0 
L 494 0 
L 494 4550 
L 1766 4550 
Q 2444 4550 2783 4208 
Q 3122 3866 3122 3184 
Q 3122 2303 2409 1975 
L 3294 38 
L 3294 0 
L 2678 0 
z
M 1069 4056 
L 1069 2334 
L 1759 2334 
Q 2153 2334 2350 2582 
Q 2547 2831 2547 3184 
Q 2547 3578 2369 3817 
Q 2191 4056 1766 4056 
L 1069 4056 
z
" transform="scale(0.015625)"/>
       <path id="RobotoCondensed-Regular-6f" d="M 300 1850 
Q 300 2641 678 3042 
Q 1056 3444 1603 3444 
Q 2156 3444 2536 3042 
Q 2916 2641 2916 1850 
L 2916 1528 
Q 2916 738 2536 337 
Q 2156 -63 1609 -63 
Q 1059 -63 679 337 
Q 300 738 300 1528 
L 300 1850 
z
M 853 1528 
Q 853 969 1068 689 
Q 1284 409 1609 409 
Q 2341 409 2363 1466 
L 2363 1850 
Q 2363 2403 2145 2686 
Q 1928 2969 1603 2969 
Q 1281 2969 1067 2686 
Q 853 2403 853 1850 
L 853 1528 
z
" transform="scale(0.015625)"/>
       <path id="RobotoCondensed-Regular-75" d="M 2153 0 
L 2144 297 
Q 1863 -63 1338 -63 
Q 919 -63 662 231 
Q 406 525 406 1200 
L 406 3381 
L 956 3381 
L 956 1178 
Q 959 731 1107 579 
Q 1256 428 1431 428 
Q 1931 428 2125 881 
L 2125 3381 
L 2678 3381 
L 2678 0 
L 2153 0 
z
" transform="scale(0.015625)"/>
       <path id="RobotoCondensed-Regular-6e" d="M 1603 2956 
Q 1400 2956 1236 2818 
Q 1072 2681 969 2459 
L 969 0 
L 416 0 
L 416 3381 
L 938 3381 
L 953 3022 
Q 1275 3444 1775 3444 
Q 2191 3444 2437 3162 
Q 2684 2881 2684 2216 
L 2684 0 
L 2131 0 
L 2131 2222 
Q 2131 2619 2000 2787 
Q 1869 2956 1603 2956 
z
" transform="scale(0.015625)"/>
       <path id="RobotoCondensed-Regular-64" d="M 2234 0 
L 2209 366 
Q 1941 -63 1425 -63 
Q 925 -63 611 331 
Q 297 725 297 1528 
L 297 1844 
Q 297 2678 609 3061 
Q 922 3444 1431 3444 
Q 1922 3444 2188 3050 
L 2188 4800 
L 2738 4800 
L 2738 0 
L 2234 0 
z
M 850 1528 
Q 850 963 1019 695 
Q 1188 428 1569 428 
Q 1981 428 2188 847 
L 2188 2544 
Q 1972 2956 1575 2956 
Q 1194 2956 1023 2687 
Q 853 2419 850 1866 
L 850 1528 
z
" transform="scale(0.015625)"/>
      </defs>
      <use xlink:href="#RobotoCondensed-Regular-42"/>
      <use xlink:href="#RobotoCondensed-Regular-4f" transform="translate(54.589844 0)"/>
      <use xlink:href="#RobotoCondensed-Regular-20" transform="translate(114.697266 0)"/>
      <use xlink:href="#RobotoCondensed-Regular-52" transform="translate(137.646484 0)"/>
      <use xlink:href="#RobotoCondensed-Regular-6f" transform="translate(190.722656 0)"/>
      <use xlink:href="#RobotoCondensed-Regular-75" transform="translate(240.917969 0)"/>
      <use xlink:href="#RobotoCondensed-Regular-6e" transform="translate(289.257812 0)"/>
      <use xlink:href="#RobotoCondensed-Regular-64" transform="translate(337.695312 0)"/>
     </g>
    </g>
   </g>
   <g id="matplotlib.axis_2">
    <g id="ytick_1">
     <g id="line2d_13">
      <path d="M 56.72 210.934024 
L 843.885 210.934024 
" clip-path="url(#pf2f6b1dbb6)" style="fill: none; stroke-dasharray: 2.96,1.28; stroke-dashoffset: 0; stroke: #b0b0b0; stroke-opacity: 0.3; stroke-width: 0.8"/>
     </g>
     <g id="line2d_14">
      <defs>
       <path id="m2fdabb73d1" d="M 0 0 
L -3.5 0 
" style="stroke: #000000; stroke-width: 0.8"/>
      </defs>
      <g>
       <use xlink:href="#m2fdabb73d1" x="56.72" y="210.934024" style="stroke: #000000; stroke-width: 0.8"/>
      </g>
     </g>
     <g id="text_8">
      <!-- 0.05 -->
      <g transform="translate(30.530156 215.059024) scale(0.11 -0.11)">
       <defs>
        <path id="RobotoCondensed-Regular-2e" d="M 450 306 
Q 450 453 542 554 
Q 634 656 809 656 
Q 984 656 1076 554 
Q 1169 453 1169 306 
Q 1169 163 1076 62 
Q 984 -38 809 -38 
Q 634 -38 542 62 
Q 450 163 450 306 
z
" transform="scale(0.015625)"/>
        <path id="RobotoCondensed-Regular-35" d="M 1034 2166 
L 594 2284 
L 788 4550 
L 2769 4550 
L 2769 4016 
L 1253 4016 
L 1147 2778 
Q 1438 2975 1753 2975 
Q 2288 2975 2591 2561 
Q 2894 2147 2894 1450 
Q 2894 797 2584 367 
Q 2275 -63 1656 -63 
Q 1194 -63 850 248 
Q 506 559 453 1197 
L 975 1197 
Q 1066 413 1656 413 
Q 1978 413 2159 691 
Q 2341 969 2341 1444 
Q 2341 1872 2153 2164 
Q 1966 2456 1619 2456 
Q 1384 2456 1273 2378 
Q 1163 2300 1034 2166 
z
" transform="scale(0.015625)"/>
       </defs>
       <use xlink:href="#RobotoCondensed-Regular-30"/>
       <use xlink:href="#RobotoCondensed-Regular-2e" transform="translate(49.365234 0)"/>
       <use xlink:href="#RobotoCondensed-Regular-30" transform="translate(75.732422 0)"/>
       <use xlink:href="#RobotoCondensed-Regular-35" transform="translate(125.097656 0)"/>
      </g>
     </g>
    </g>
    <g id="ytick_2">
     <g id="line2d_15">
      <path d="M 56.72 172.879178 
L 843.885 172.879178 
" clip-path="url(#pf2f6b1dbb6)" style="fill: none; stroke-dasharray: 2.96,1.28; stroke-dashoffset: 0; stroke: #b0b0b0; stroke-opacity: 0.3; stroke-width: 0.8"/>
     </g>
     <g id="line2d_16">
      <g>
       <use xlink:href="#m2fdabb73d1" x="56.72" y="172.879178" style="stroke: #000000; stroke-width: 0.8"/>
      </g>
     </g>
     <g id="text_9">
      <!-- 0.10 -->
      <g transform="translate(30.530156 177.004178) scale(0.11 -0.11)">
       <use xlink:href="#RobotoCondensed-Regular-30"/>
       <use xlink:href="#RobotoCondensed-Regular-2e" transform="translate(49.365234 0)"/>
       <use xlink:href="#RobotoCondensed-Regular-31" transform="translate(75.732422 0)"/>
       <use xlink:href="#RobotoCondensed-Regular-30" transform="translate(125.097656 0)"/>
      </g>
     </g>
    </g>
    <g id="ytick_3">
     <g id="line2d_17">
      <path d="M 56.72 134.824332 
L 843.885 134.824332 
" clip-path="url(#pf2f6b1dbb6)" style="fill: none; stroke-dasharray: 2.96,1.28; stroke-dashoffset: 0; stroke: #b0b0b0; stroke-opacity: 0.3; stroke-width: 0.8"/>
     </g>
     <g id="line2d_18">
      <g>
       <use xlink:href="#m2fdabb73d1" x="56.72" y="134.824332" style="stroke: #000000; stroke-width: 0.8"/>
      </g>
     </g>
     <g id="text_10">
      <!-- 0.15 -->
      <g transform="translate(30.530156 138.949332) scale(0.11 -0.11)">
       <use xlink:href="#RobotoCondensed-Regular-30"/>
       <use xlink:href="#RobotoCondensed-Regular-2e" transform="translate(49.365234 0)"/>
       <use xlink:href="#RobotoCondensed-Regular-31" transform="translate(75.732422 0)"/>
       <use xlink:href="#RobotoCondensed-Regular-35" transform="translate(125.097656 0)"/>
      </g>
     </g>
    </g>
    <g id="ytick_4">
     <g id="line2d_19">
      <path d="M 56.72 96.769485 
L 843.885 96.769485 
" clip-path="url(#pf2f6b1dbb6)" style="fill: none; stroke-dasharray: 2.96,1.28; stroke-dashoffset: 0; stroke: #b0b0b0; stroke-opacity: 0.3; stroke-width: 0.8"/>
     </g>
     <g id="line2d_20">
      <g>
       <use xlink:href="#m2fdabb73d1" x="56.72" y="96.769485" style="stroke: #000000; stroke-width: 0.8"/>
      </g>
     </g>
     <g id="text_11">
      <!-- 0.20 -->
      <g transform="translate(30.530156 100.894485) scale(0.11 -0.11)">
       <use xlink:href="#RobotoCondensed-Regular-30"/>
       <use xlink:href="#RobotoCondensed-Regular-2e" transform="translate(49.365234 0)"/>
       <use xlink:href="#RobotoCondensed-Regular-32" transform="translate(75.732422 0)"/>
       <use xlink:href="#RobotoCondensed-Regular-30" transform="translate(125.097656 0)"/>
      </g>
     </g>
    </g>
    <g id="ytick_5">
     <g id="line2d_21">
      <path d="M 56.72 58.714639 
L 843.885 58.714639 
" clip-path="url(#pf2f6b1dbb6)" style="fill: none; stroke-dasharray: 2.96,1.28; stroke-dashoffset: 0; stroke: #b0b0b0; stroke-opacity: 0.3; stroke-width: 0.8"/>
     </g>
     <g id="line2d_22">
      <g>
       <use xlink:href="#m2fdabb73d1" x="56.72" y="58.714639" style="stroke: #000000; stroke-width: 0.8"/>
      </g>
     </g>
     <g id="text_12">
      <!-- 0.25 -->
      <g transform="translate(30.530156 62.839639) scale(0.11 -0.11)">
       <use xlink:href="#RobotoCondensed-Regular-30"/>
       <use xlink:href="#RobotoCondensed-Regular-2e" transform="translate(49.365234 0)"/>
       <use xlink:href="#RobotoCondensed-Regular-32" transform="translate(75.732422 0)"/>
       <use xlink:href="#RobotoCondensed-Regular-35" transform="translate(125.097656 0)"/>
      </g>
     </g>
    </g>
    <g id="text_13">
     <!-- Best Distance to Target $\downarrow$ -->
     <g transform="translate(24.010156 212.7995) rotate(-90) scale(0.12 -0.12)">
      <defs>
       <path id="RobotoCondensed-Regular-65" d="M 2722 447 
Q 2584 253 2323 95 
Q 2063 -63 1625 -63 
Q 1019 -63 666 301 
Q 313 666 309 1431 
L 309 1828 
Q 309 2722 696 3083 
Q 1084 3444 1563 3444 
Q 2197 3444 2472 3034 
Q 2747 2625 2747 1850 
L 2747 1528 
L 863 1528 
L 863 1447 
Q 863 906 1067 657 
Q 1272 409 1656 409 
Q 1934 409 2114 517 
Q 2294 625 2431 794 
L 2722 447 
z
M 1563 2969 
Q 1275 2969 1084 2770 
Q 894 2572 866 2000 
L 2194 2000 
L 2194 2078 
Q 2172 2469 2048 2719 
Q 1925 2969 1563 2969 
z
" transform="scale(0.015625)"/>
       <path id="RobotoCondensed-Regular-73" d="M 2056 866 
Q 2056 1059 1907 1190 
Q 1759 1322 1340 1500 
Q 922 1678 681 1863 
Q 409 2072 409 2484 
Q 409 2888 703 3166 
Q 997 3444 1481 3444 
Q 2000 3444 2287 3150 
Q 2575 2856 2575 2419 
L 2025 2419 
Q 2025 2628 1884 2798 
Q 1744 2969 1481 2969 
Q 1203 2969 1083 2828 
Q 963 2688 963 2503 
Q 963 2319 1081 2217 
Q 1200 2116 1553 1959 
Q 2066 1756 2337 1537 
Q 2609 1319 2609 909 
Q 2609 463 2303 200 
Q 1997 -63 1494 -63 
Q 919 -63 616 265 
Q 313 594 313 1013 
L 866 1013 
Q 881 653 1081 533 
Q 1281 413 1494 413 
Q 2056 413 2056 866 
z
" transform="scale(0.015625)"/>
       <path id="RobotoCondensed-Regular-74" d="M 1647 0 
Q 1488 -63 1259 -63 
Q 991 -63 789 134 
Q 588 331 588 841 
L 588 2938 
L 72 2938 
L 72 3381 
L 588 3381 
L 588 4203 
L 1141 4203 
L 1141 3381 
L 1650 3381 
L 1650 2938 
L 1141 2938 
L 1141 838 
Q 1141 578 1230 506 
Q 1319 434 1431 434 
Q 1550 434 1650 472 
L 1647 0 
z
" transform="scale(0.015625)"/>
       <path id="RobotoCondensed-Regular-44" d="M 491 0 
L 491 4550 
L 1575 4550 
Q 2344 4550 2800 4070 
Q 3256 3591 3256 2659 
L 3256 1888 
Q 3256 956 2797 478 
Q 2338 0 1522 0 
L 491 0 
z
M 1066 4056 
L 1066 491 
L 1522 491 
Q 2128 491 2404 836 
Q 2681 1181 2688 1856 
L 2688 2666 
Q 2688 3388 2413 3722 
Q 2138 4056 1575 4056 
L 1066 4056 
z
" transform="scale(0.015625)"/>
       <path id="RobotoCondensed-Regular-69" d="M 428 4278 
Q 428 4419 506 4516 
Q 584 4613 741 4613 
Q 894 4613 975 4516 
Q 1056 4419 1056 4278 
Q 1056 4144 975 4048 
Q 894 3953 741 3953 
Q 584 3953 506 4048 
Q 428 4144 428 4278 
z
M 1009 3381 
L 1009 0 
L 459 0 
L 459 3381 
L 1009 3381 
z
" transform="scale(0.015625)"/>
       <path id="RobotoCondensed-Regular-61" d="M 2156 0 
Q 2103 122 2081 366 
Q 1966 194 1775 65 
Q 1584 -63 1334 -63 
Q 891 -63 623 187 
Q 356 438 356 922 
Q 356 1409 690 1729 
Q 1025 2050 1691 2050 
L 2072 2050 
L 2072 2413 
Q 2072 2713 1936 2841 
Q 1800 2969 1528 2969 
Q 1263 2969 1114 2812 
Q 966 2656 966 2444 
L 413 2444 
Q 413 2806 722 3125 
Q 1031 3444 1556 3444 
Q 2025 3444 2325 3209 
Q 2625 2975 2625 2406 
L 2625 794 
Q 2625 316 2728 50 
L 2728 0 
L 2156 0 
z
M 1419 441 
Q 1653 441 1825 562 
Q 1997 684 2072 834 
L 2072 1644 
L 1781 1644 
Q 1384 1644 1146 1475 
Q 909 1306 909 991 
Q 909 688 1036 564 
Q 1163 441 1419 441 
z
" transform="scale(0.015625)"/>
       <path id="RobotoCondensed-Regular-63" d="M 1588 409 
Q 1834 409 2012 564 
Q 2191 719 2213 1069 
L 2731 1069 
Q 2713 559 2378 248 
Q 2044 -63 1588 -63 
Q 934 -63 621 342 
Q 309 747 303 1472 
L 303 1881 
Q 303 2619 617 3031 
Q 931 3444 1588 3444 
Q 2103 3444 2408 3120 
Q 2713 2797 2731 2219 
L 2213 2219 
Q 2169 2969 1588 2969 
Q 1150 2969 1003 2672 
Q 856 2375 856 1881 
L 856 1500 
Q 856 1003 1001 706 
Q 1147 409 1588 409 
z
" transform="scale(0.015625)"/>
       <path id="RobotoCondensed-Regular-54" d="M 191 4056 
L 191 4550 
L 3150 4550 
L 3150 4056 
L 1953 4056 
L 1953 0 
L 1384 0 
L 1384 4056 
L 191 4056 
z
" transform="scale(0.015625)"/>
       <path id="RobotoCondensed-Regular-72" d="M 1563 2888 
Q 1138 2888 969 2425 
L 969 0 
L 416 0 
L 416 3381 
L 950 3381 
L 963 3041 
Q 1184 3444 1591 3444 
Q 1738 3444 1809 3400 
L 1813 2863 
Q 1691 2888 1563 2888 
z
" transform="scale(0.015625)"/>
       <path id="RobotoCondensed-Regular-67" d="M 1525 -1334 
Q 1331 -1334 1007 -1229 
Q 684 -1125 497 -906 
L 725 -522 
Q 1056 -859 1484 -859 
Q 1806 -859 2000 -679 
Q 2194 -500 2194 -56 
L 2194 338 
Q 1925 -63 1428 -63 
Q 919 -63 611 331 
Q 303 725 303 1528 
L 303 1844 
Q 303 2678 608 3061 
Q 913 3444 1434 3444 
Q 1953 3444 2219 3006 
L 2247 3381 
L 2744 3381 
L 2744 -41 
Q 2741 -703 2402 -1018 
Q 2063 -1334 1525 -1334 
z
M 856 1528 
Q 856 963 1025 695 
Q 1194 428 1572 428 
Q 1988 428 2194 853 
L 2194 2541 
Q 1978 2956 1578 2956 
Q 1197 2956 1028 2687 
Q 859 2419 856 1866 
L 856 1528 
z
" transform="scale(0.015625)"/>
       <path id="DejaVuSans-2193" d="M 2822 -22 
L 2541 -22 
L 1309 1209 
L 1684 1584 
L 2416 853 
L 2416 4666 
L 2947 4666 
L 2947 853 
L 3672 1584 
L 4047 1209 
L 2822 -22 
z
" transform="scale(0.015625)"/>
      </defs>
      <use xlink:href="#RobotoCondensed-Regular-42" transform="translate(0 0.09375)"/>
      <use xlink:href="#RobotoCondensed-Regular-65" transform="translate(54.589844 0.09375)"/>
      <use xlink:href="#RobotoCondensed-Regular-73" transform="translate(101.464844 0.09375)"/>
      <use xlink:href="#RobotoCondensed-Regular-74" transform="translate(147.070312 0.09375)"/>
      <use xlink:href="#RobotoCondensed-Regular-20" transform="translate(176.660156 0.09375)"/>
      <use xlink:href="#RobotoCondensed-Regular-44" transform="translate(199.609375 0.09375)"/>
      <use xlink:href="#RobotoCondensed-Regular-69" transform="translate(256.689453 0.09375)"/>
      <use xlink:href="#RobotoCondensed-Regular-73" transform="translate(279.638672 0.09375)"/>
      <use xlink:href="#RobotoCondensed-Regular-74" transform="translate(325.244141 0.09375)"/>
      <use xlink:href="#RobotoCondensed-Regular-61" transform="translate(354.833984 0.09375)"/>
      <use xlink:href="#RobotoCondensed-Regular-6e" transform="translate(402.734375 0.09375)"/>
      <use xlink:href="#RobotoCondensed-Regular-63" transform="translate(451.171875 0.09375)"/>
      <use xlink:href="#RobotoCondensed-Regular-65" transform="translate(497.363281 0.09375)"/>
      <use xlink:href="#RobotoCondensed-Regular-20" transform="translate(544.238281 0.09375)"/>
      <use xlink:href="#RobotoCondensed-Regular-74" transform="translate(567.1875 0.09375)"/>
      <use xlink:href="#RobotoCondensed-Regular-6f" transform="translate(596.777344 0.09375)"/>
      <use xlink:href="#RobotoCondensed-Regular-20" transform="translate(646.972656 0.09375)"/>
      <use xlink:href="#RobotoCondensed-Regular-54" transform="translate(669.921875 0.09375)"/>
      <use xlink:href="#RobotoCondensed-Regular-61" transform="translate(721.972656 0.09375)"/>
      <use xlink:href="#RobotoCondensed-Regular-72" transform="translate(769.873047 0.09375)"/>
      <use xlink:href="#RobotoCondensed-Regular-67" transform="translate(800.341797 0.09375)"/>
      <use xlink:href="#RobotoCondensed-Regular-65" transform="translate(849.658203 0.09375)"/>
      <use xlink:href="#RobotoCondensed-Regular-74" transform="translate(896.533203 0.09375)"/>
      <use xlink:href="#RobotoCondensed-Regular-20" transform="translate(926.123047 0.09375)"/>
      <use xlink:href="#DejaVuSans-2193" transform="translate(968.554688 0.09375)"/>
     </g>
    </g>
   </g>
   <g id="FillBetweenPolyCollection_1">
    <defs>
     <path id="m4102af82f3" d="M 56.72 -226.5755 
L 56.72 -196.196872 
L 64.59165 -196.196872 
L 72.4633 -196.196872 
L 80.33495 -196.196872 
L 88.2066 -196.196872 
L 96.07825 -196.196872 
L 103.9499 -196.196872 
L 111.82155 -196.196872 
L 119.6932 -196.196872 
L 127.56485 -196.196872 
L 135.4365 -196.196872 
L 143.30815 -173.178254 
L 151.1798 -158.361187 
L 159.05145 -158.361187 
L 166.9231 -158.361187 
L 174.79475 -158.361187 
L 182.6664 -158.361187 
L 190.53805 -158.361187 
L 198.4097 -158.361187 
L 206.28135 -158.361187 
L 214.153 -158.361187 
L 222.02465 -158.361187 
L 229.8963 -158.361187 
L 237.76795 -158.361187 
L 245.6396 -158.361187 
L 253.51125 -158.361187 
L 261.3829 -158.361187 
L 269.25455 -158.361187 
L 277.1262 -158.361187 
L 284.99785 -158.361187 
L 292.8695 -158.361187 
L 300.74115 -158.361187 
L 308.6128 -158.361187 
L 316.48445 -158.361187 
L 324.3561 -158.361187 
L 332.22775 -158.361187 
L 340.0994 -158.361187 
L 347.97105 -158.07242 
L 355.8427 -158.07242 
L 363.71435 -158.07242 
L 371.586 -158.07242 
L 379.45765 -158.07242 
L 387.3293 -145.411632 
L 395.20095 -125.670824 
L 403.0726 -116.99274 
L 410.94425 -108.938068 
L 418.8159 -108.938068 
L 426.68755 -108.938068 
L 434.5592 -108.938068 
L 442.43085 -101.53588 
L 450.3025 -95.048678 
L 458.17415 -95.048678 
L 466.0458 -89.72896 
L 473.91745 -89.72896 
L 481.7891 -89.72896 
L 489.66075 -89.72896 
L 497.5324 -89.72896 
L 505.40405 -89.72896 
L 513.2757 -89.72896 
L 521.14735 -89.72896 
L 529.019 -89.72896 
L 536.89065 -89.72896 
L 544.7623 -89.72896 
L 552.63395 -89.72896 
L 560.5056 -89.72896 
L 568.37725 -89.72896 
L 576.2489 -89.72896 
L 584.12055 -89.72896 
L 591.9922 -89.72896 
L 599.86385 -89.72896 
L 607.7355 -89.72896 
L 615.60715 -89.72896 
L 623.4788 -89.72896 
L 631.35045 -86.317286 
L 639.2221 -86.317286 
L 647.09375 -86.317286 
L 654.9654 -86.317286 
L 662.83705 -86.317286 
L 670.7087 -86.317286 
L 678.58035 -86.317286 
L 686.452 -86.317286 
L 694.32365 -86.317286 
L 702.1953 -86.317286 
L 710.06695 -86.317286 
L 717.9386 -86.317286 
L 725.81025 -86.317286 
L 733.6819 -86.317286 
L 741.55355 -86.317286 
L 749.4252 -86.317286 
L 757.29685 -86.317286 
L 765.1685 -86.317286 
L 773.04015 -86.317286 
L 780.9118 -86.317286 
L 788.78345 -86.317286 
L 796.6551 -86.317286 
L 804.52675 -86.317286 
L 812.3984 -86.317286 
L 820.27005 -86.317286 
L 828.1417 -86.317286 
L 836.01335 -86.317286 
L 843.885 -86.317286 
L 843.885 -86.317286 
L 843.885 -86.317286 
L 836.01335 -86.317286 
L 828.1417 -86.317286 
L 820.27005 -86.317286 
L 812.3984 -86.317286 
L 804.52675 -86.317286 
L 796.6551 -86.317286 
L 788.78345 -86.317286 
L 780.9118 -86.317286 
L 773.04015 -86.317286 
L 765.1685 -86.317286 
L 757.29685 -86.317286 
L 749.4252 -86.317286 
L 741.55355 -86.317286 
L 733.6819 -86.317286 
L 725.81025 -95.712218 
L 717.9386 -95.712218 
L 710.06695 -95.712218 
L 702.1953 -95.712218 
L 694.32365 -95.712218 
L 686.452 -95.712218 
L 678.58035 -95.712218 
L 670.7087 -95.712218 
L 662.83705 -95.712218 
L 654.9654 -95.712218 
L 647.09375 -95.712218 
L 639.2221 -95.712218 
L 631.35045 -95.712218 
L 623.4788 -103.592551 
L 615.60715 -103.592551 
L 607.7355 -103.592551 
L 599.86385 -103.592551 
L 591.9922 -103.592551 
L 584.12055 -103.592551 
L 576.2489 -103.592551 
L 568.37725 -103.592551 
L 560.5056 -103.592551 
L 552.63395 -103.592551 
L 544.7623 -103.592551 
L 536.89065 -103.592551 
L 529.019 -103.592551 
L 521.14735 -103.592551 
L 513.2757 -103.592551 
L 505.40405 -103.592551 
L 497.5324 -103.592551 
L 489.66075 -103.592551 
L 481.7891 -103.592551 
L 473.91745 -103.592551 
L 466.0458 -103.592551 
L 458.17415 -114.73252 
L 450.3025 -114.73252 
L 442.43085 -124.044992 
L 434.5592 -133.102491 
L 426.68755 -133.102491 
L 418.8159 -133.102491 
L 410.94425 -133.102491 
L 403.0726 -141.507506 
L 395.20095 -149.28911 
L 387.3293 -162.467677 
L 379.45765 -166.266576 
L 371.586 -166.266576 
L 363.71435 -166.266576 
L 355.8427 -166.266576 
L 347.97105 -166.266576 
L 340.0994 -166.637823 
L 332.22775 -166.637823 
L 324.3561 -166.637823 
L 316.48445 -166.637823 
L 308.6128 -166.637823 
L 300.74115 -166.637823 
L 292.8695 -166.637823 
L 284.99785 -166.637823 
L 277.1262 -166.637823 
L 269.25455 -166.637823 
L 261.3829 -166.637823 
L 253.51125 -166.637823 
L 245.6396 -166.637823 
L 237.76795 -166.637823 
L 229.8963 -166.637823 
L 222.02465 -166.637823 
L 214.153 -166.637823 
L 206.28135 -166.637823 
L 198.4097 -166.637823 
L 190.53805 -166.637823 
L 182.6664 -166.637823 
L 174.79475 -166.637823 
L 166.9231 -166.637823 
L 159.05145 -166.637823 
L 151.1798 -166.637823 
L 143.30815 -199.579785 
L 135.4365 -226.5755 
L 127.56485 -226.5755 
L 119.6932 -226.5755 
L 111.82155 -226.5755 
L 103.9499 -226.5755 
L 96.07825 -226.5755 
L 88.2066 -226.5755 
L 80.33495 -226.5755 
L 72.4633 -226.5755 
L 64.59165 -226.5755 
L 56.72 -226.5755 
z
" style="stroke: #808080; stroke-opacity: 0.15; stroke-width: 2"/>
    </defs>
    <g clip-path="url(#pf2f6b1dbb6)">
     <use xlink:href="#m4102af82f3" x="0" y="288" style="fill: #808080; fill-opacity: 0.15; stroke: #808080; stroke-opacity: 0.15; stroke-width: 2"/>
    </g>
   </g>
   <g id="FillBetweenPolyCollection_2">
    <defs>
     <path id="m36a86028f6" d="M 56.72 -226.5755 
L 56.72 -196.196872 
L 64.59165 -186.332435 
L 72.4633 -186.332435 
L 80.33495 -186.332435 
L 88.2066 -186.332435 
L 96.07825 -159.955907 
L 103.9499 -157.098376 
L 111.82155 -156.703546 
L 119.6932 -152.232325 
L 127.56485 -148.648731 
L 135.4365 -144.467686 
L 143.30815 -144.467686 
L 151.1798 -143.081138 
L 159.05145 -143.081138 
L 166.9231 -143.081138 
L 174.79475 -143.081138 
L 182.6664 -143.081138 
L 190.53805 -139.399118 
L 198.4097 -137.552805 
L 206.28135 -134.653656 
L 214.153 -134.653656 
L 222.02465 -134.653656 
L 229.8963 -134.653656 
L 237.76795 -131.408616 
L 245.6396 -131.408616 
L 253.51125 -123.244635 
L 261.3829 -123.244635 
L 269.25455 -123.244635 
L 277.1262 -123.244635 
L 284.99785 -123.244635 
L 292.8695 -123.244635 
L 300.74115 -123.244635 
L 308.6128 -111.395011 
L 316.48445 -110.960979 
L 324.3561 -110.960979 
L 332.22775 -110.960979 
L 340.0994 -110.359563 
L 347.97105 -110.359563 
L 355.8427 -110.359563 
L 363.71435 -102.700926 
L 371.586 -98.988425 
L 379.45765 -98.988425 
L 387.3293 -98.988425 
L 395.20095 -98.988425 
L 403.0726 -98.988425 
L 410.94425 -98.788969 
L 418.8159 -98.788969 
L 426.68755 -94.123024 
L 434.5592 -94.123024 
L 442.43085 -94.123024 
L 450.3025 -94.123024 
L 458.17415 -88.860765 
L 466.0458 -88.860765 
L 473.91745 -88.860765 
L 481.7891 -88.860765 
L 489.66075 -88.860765 
L 497.5324 -88.860765 
L 505.40405 -82.511516 
L 513.2757 -82.511516 
L 521.14735 -82.511516 
L 529.019 -80.943579 
L 536.89065 -80.541149 
L 544.7623 -80.541149 
L 552.63395 -80.541149 
L 560.5056 -79.793004 
L 568.37725 -79.793004 
L 576.2489 -79.793004 
L 584.12055 -79.793004 
L 591.9922 -79.793004 
L 599.86385 -79.793004 
L 607.7355 -79.793004 
L 615.60715 -79.793004 
L 623.4788 -79.793004 
L 631.35045 -79.793004 
L 639.2221 -79.793004 
L 647.09375 -79.793004 
L 654.9654 -79.524711 
L 662.83705 -79.524711 
L 670.7087 -79.524711 
L 678.58035 -79.524711 
L 686.452 -79.524711 
L 694.32365 -79.524711 
L 702.1953 -79.524711 
L 710.06695 -77.375969 
L 717.9386 -77.375969 
L 725.81025 -77.375969 
L 733.6819 -77.375969 
L 741.55355 -77.375969 
L 749.4252 -77.375969 
L 757.29685 -77.147288 
L 765.1685 -77.147288 
L 773.04015 -77.147288 
L 780.9118 -77.147288 
L 788.78345 -73.880574 
L 796.6551 -73.692934 
L 804.52675 -73.204807 
L 812.3984 -73.204807 
L 820.27005 -70.916489 
L 828.1417 -70.167396 
L 836.01335 -70.167396 
L 843.885 -70.167396 
L 843.885 -101.706726 
L 843.885 -101.706726 
L 836.01335 -101.706726 
L 828.1417 -101.706726 
L 820.27005 -102.164187 
L 812.3984 -103.81387 
L 804.52675 -103.81387 
L 796.6551 -104.06398 
L 788.78345 -104.215453 
L 780.9118 -107.506462 
L 773.04015 -107.506462 
L 765.1685 -107.506462 
L 757.29685 -107.506462 
L 749.4252 -107.690604 
L 741.55355 -107.690604 
L 733.6819 -107.690604 
L 725.81025 -107.690604 
L 717.9386 -107.690604 
L 710.06695 -107.690604 
L 702.1953 -108.903182 
L 694.32365 -108.903182 
L 686.452 -108.903182 
L 678.58035 -108.903182 
L 670.7087 -108.903182 
L 662.83705 -108.903182 
L 654.9654 -108.903182 
L 647.09375 -109.78464 
L 639.2221 -109.78464 
L 631.35045 -109.78464 
L 623.4788 -109.78464 
L 615.60715 -109.78464 
L 607.7355 -109.78464 
L 599.86385 -109.78464 
L 591.9922 -109.78464 
L 584.12055 -109.78464 
L 576.2489 -109.78464 
L 568.37725 -109.78464 
L 560.5056 -109.78464 
L 552.63395 -111.335667 
L 544.7623 -111.335667 
L 536.89065 -111.335667 
L 529.019 -112.275303 
L 521.14735 -118.361297 
L 513.2757 -118.361297 
L 505.40405 -118.361297 
L 497.5324 -125.042187 
L 489.66075 -125.042187 
L 481.7891 -125.042187 
L 473.91745 -125.042187 
L 466.0458 -125.042187 
L 458.17415 -125.042187 
L 450.3025 -137.634866 
L 442.43085 -137.634866 
L 434.5592 -137.634866 
L 426.68755 -137.634866 
L 418.8159 -140.851661 
L 410.94425 -140.851661 
L 403.0726 -141.620138 
L 395.20095 -141.620138 
L 387.3293 -141.620138 
L 379.45765 -141.620138 
L 371.586 -141.620138 
L 363.71435 -146.539532 
L 355.8427 -153.616782 
L 347.97105 -153.616782 
L 340.0994 -153.616782 
L 332.22775 -153.912701 
L 324.3561 -153.912701 
L 316.48445 -153.912701 
L 308.6128 -154.5628 
L 300.74115 -160.263811 
L 292.8695 -160.263811 
L 284.99785 -160.263811 
L 277.1262 -160.263811 
L 269.25455 -160.263811 
L 261.3829 -160.263811 
L 253.51125 -160.263811 
L 245.6396 -165.989642 
L 237.76795 -165.989642 
L 229.8963 -168.135482 
L 222.02465 -168.135482 
L 214.153 -168.135482 
L 206.28135 -168.135482 
L 198.4097 -169.081035 
L 190.53805 -169.998979 
L 182.6664 -173.698116 
L 174.79475 -173.698116 
L 166.9231 -173.698116 
L 159.05145 -173.698116 
L 151.1798 -173.698116 
L 143.30815 -175.49676 
L 135.4365 -175.49676 
L 127.56485 -177.679664 
L 119.6932 -184.830708 
L 111.82155 -191.287858 
L 103.9499 -192.561649 
L 96.07825 -194.010414 
L 88.2066 -212.868669 
L 80.33495 -212.868669 
L 72.4633 -212.868669 
L 64.59165 -212.868669 
L 56.72 -226.5755 
z
" style="stroke: #7c92ff; stroke-opacity: 0.15; stroke-width: 2"/>
    </defs>
    <g clip-path="url(#pf2f6b1dbb6)">
     <use xlink:href="#m36a86028f6" x="0" y="288" style="fill: #7c92ff; fill-opacity: 0.15; stroke: #7c92ff; stroke-opacity: 0.15; stroke-width: 2"/>
    </g>
   </g>
   <g id="FillBetweenPolyCollection_3">
    <defs>
     <path id="me582fe4946" d="M 56.72 -226.5755 
L 56.72 -196.196872 
L 64.59165 -196.196872 
L 72.4633 -188.366496 
L 80.33495 -177.024692 
L 88.2066 -171.263639 
L 96.07825 -169.591022 
L 103.9499 -157.913991 
L 111.82155 -143.59386 
L 119.6932 -123.506984 
L 127.56485 -111.908864 
L 135.4365 -111.030745 
L 143.30815 -111.030745 
L 151.1798 -107.735718 
L 159.05145 -107.735718 
L 166.9231 -107.735718 
L 174.79475 -107.735718 
L 182.6664 -107.735718 
L 190.53805 -107.735718 
L 198.4097 -98.627129 
L 206.28135 -98.627129 
L 214.153 -98.627129 
L 222.02465 -90.910091 
L 229.8963 -88.846497 
L 237.76795 -86.809643 
L 245.6396 -86.809643 
L 253.51125 -86.809643 
L 261.3829 -86.809643 
L 269.25455 -86.809643 
L 277.1262 -86.809643 
L 284.99785 -86.36338 
L 292.8695 -82.043754 
L 300.74115 -82.043754 
L 308.6128 -80.425205 
L 316.48445 -80.425205 
L 324.3561 -80.425205 
L 332.22775 -80.425205 
L 340.0994 -80.425205 
L 347.97105 -80.425205 
L 355.8427 -80.425205 
L 363.71435 -80.425205 
L 371.586 -79.71756 
L 379.45765 -79.71756 
L 387.3293 -79.71756 
L 395.20095 -75.890686 
L 403.0726 -74.445822 
L 410.94425 -69.870974 
L 418.8159 -69.870974 
L 426.68755 -69.397719 
L 434.5592 -69.397719 
L 442.43085 -69.397719 
L 450.3025 -69.397719 
L 458.17415 -69.397719 
L 466.0458 -69.397719 
L 473.91745 -69.397719 
L 481.7891 -67.968816 
L 489.66075 -67.968816 
L 497.5324 -67.968816 
L 505.40405 -67.968816 
L 513.2757 -66.257876 
L 521.14735 -66.257876 
L 529.019 -66.257876 
L 536.89065 -66.257876 
L 544.7623 -66.257876 
L 552.63395 -66.257876 
L 560.5056 -66.257876 
L 568.37725 -66.257876 
L 576.2489 -66.257876 
L 584.12055 -66.257876 
L 591.9922 -66.257876 
L 599.86385 -63.986864 
L 607.7355 -63.986864 
L 615.60715 -63.986864 
L 623.4788 -63.986864 
L 631.35045 -61.25087 
L 639.2221 -61.25087 
L 647.09375 -59.91835 
L 654.9654 -55.90918 
L 662.83705 -55.90918 
L 670.7087 -55.90918 
L 678.58035 -55.90918 
L 686.452 -55.90918 
L 694.32365 -55.90918 
L 702.1953 -55.90918 
L 710.06695 -55.90918 
L 717.9386 -55.29194 
L 725.81025 -55.29194 
L 733.6819 -55.29194 
L 741.55355 -55.29194 
L 749.4252 -55.29194 
L 757.29685 -55.29194 
L 765.1685 -53.761832 
L 773.04015 -53.616322 
L 780.9118 -53.616322 
L 788.78345 -53.032876 
L 796.6551 -53.032876 
L 804.52675 -53.032876 
L 812.3984 -53.032876 
L 820.27005 -53.032876 
L 828.1417 -53.032876 
L 836.01335 -52.4655 
L 843.885 -52.4655 
L 843.885 -71.15499 
L 843.885 -71.15499 
L 836.01335 -71.15499 
L 828.1417 -71.535611 
L 820.27005 -71.535611 
L 812.3984 -71.535611 
L 804.52675 -71.535611 
L 796.6551 -71.535611 
L 788.78345 -71.535611 
L 780.9118 -72.030355 
L 773.04015 -72.030355 
L 765.1685 -72.166518 
L 757.29685 -73.793804 
L 749.4252 -73.793804 
L 741.55355 -73.793804 
L 733.6819 -73.793804 
L 725.81025 -73.793804 
L 717.9386 -73.793804 
L 710.06695 -74.636693 
L 702.1953 -74.636693 
L 694.32365 -74.636693 
L 686.452 -74.636693 
L 678.58035 -74.636693 
L 670.7087 -74.636693 
L 662.83705 -74.636693 
L 654.9654 -74.636693 
L 647.09375 -80.118247 
L 639.2221 -82.141774 
L 631.35045 -82.141774 
L 623.4788 -89.851318 
L 615.60715 -89.851318 
L 607.7355 -89.851318 
L 599.86385 -89.851318 
L 591.9922 -91.194318 
L 584.12055 -91.194318 
L 576.2489 -91.194318 
L 568.37725 -91.194318 
L 560.5056 -91.194318 
L 552.63395 -91.194318 
L 544.7623 -91.194318 
L 536.89065 -91.194318 
L 529.019 -91.194318 
L 521.14735 -91.194318 
L 513.2757 -91.194318 
L 505.40405 -94.26131 
L 497.5324 -94.26131 
L 489.66075 -94.26131 
L 481.7891 -94.26131 
L 473.91745 -95.159872 
L 466.0458 -95.159872 
L 458.17415 -95.159872 
L 450.3025 -95.159872 
L 442.43085 -95.159872 
L 434.5592 -95.159872 
L 426.68755 -95.159872 
L 418.8159 -96.239354 
L 410.94425 -96.239354 
L 403.0726 -100.373607 
L 395.20095 -104.968837 
L 387.3293 -108.043701 
L 379.45765 -108.043701 
L 371.586 -108.043701 
L 363.71435 -108.88 
L 355.8427 -108.88 
L 347.97105 -108.88 
L 340.0994 -108.88 
L 332.22775 -108.88 
L 324.3561 -108.88 
L 316.48445 -108.88 
L 308.6128 -108.88 
L 300.74115 -109.63153 
L 292.8695 -109.63153 
L 284.99785 -117.817635 
L 277.1262 -118.046105 
L 269.25455 -118.046105 
L 261.3829 -118.046105 
L 253.51125 -118.046105 
L 245.6396 -118.046105 
L 237.76795 -118.046105 
L 229.8963 -122.465689 
L 222.02465 -129.140244 
L 214.153 -133.932304 
L 206.28135 -133.932304 
L 198.4097 -133.932304 
L 190.53805 -141.720011 
L 182.6664 -141.720011 
L 174.79475 -141.720011 
L 166.9231 -141.720011 
L 159.05145 -141.720011 
L 151.1798 -141.720011 
L 143.30815 -143.769469 
L 135.4365 -143.769469 
L 127.56485 -144.359681 
L 119.6932 -155.861405 
L 111.82155 -172.755359 
L 103.9499 -178.915213 
L 96.07825 -192.570677 
L 88.2066 -195.223718 
L 80.33495 -203.425565 
L 72.4633 -217.805183 
L 64.59165 -226.5755 
L 56.72 -226.5755 
z
" style="stroke: #69f7ae; stroke-opacity: 0.15; stroke-width: 2"/>
    </defs>
    <g clip-path="url(#pf2f6b1dbb6)">
     <use xlink:href="#me582fe4946" x="0" y="288" style="fill: #69f7ae; fill-opacity: 0.15; stroke: #69f7ae; stroke-opacity: 0.15; stroke-width: 2"/>
    </g>
   </g>
   <g id="patch_3">
    <path d="M 56.72 244.24 
L 56.72 52.719 
" style="fill: none; stroke: #000000; stroke-width: 0.8; stroke-linejoin: miter; stroke-linecap: square"/>
   </g>
   <g id="patch_4">
    <path d="M 843.885 244.24 
L 843.885 52.719 
" style="fill: none; stroke: #000000; stroke-width: 0.8; stroke-linejoin: miter; stroke-linecap: square"/>
   </g>
   <g id="patch_5">
    <path d="M 56.72 244.24 
L 843.885 244.24 
" style="fill: none; stroke: #000000; stroke-width: 0.8; stroke-linejoin: miter; stroke-linecap: square"/>
   </g>
   <g id="patch_6">
    <path d="M 56.72 52.719 
L 843.885 52.719 
" style="fill: none; stroke: #000000; stroke-width: 0.8; stroke-linejoin: miter; stroke-linecap: square"/>
   </g>
   <g id="line2d_23">
    <path d="M 56.72 76.613814 
L 64.59165 76.613814 
L 72.4633 76.613814 
L 80.33495 76.613814 
L 88.2066 76.613814 
L 96.07825 76.613814 
L 103.9499 76.613814 
L 111.82155 76.613814 
L 119.6932 76.613814 
L 127.56485 76.613814 
L 135.4365 76.613814 
L 143.30815 101.62098 
L 151.1798 125.500495 
L 159.05145 125.500495 
L 166.9231 125.500495 
L 174.79475 125.500495 
L 182.6664 125.500495 
L 190.53805 125.500495 
L 198.4097 125.500495 
L 206.28135 125.500495 
L 214.153 125.500495 
L 222.02465 125.500495 
L 229.8963 125.500495 
L 237.76795 125.500495 
L 245.6396 125.500495 
L 253.51125 125.500495 
L 261.3829 125.500495 
L 269.25455 125.500495 
L 277.1262 125.500495 
L 284.99785 125.500495 
L 292.8695 125.500495 
L 300.74115 125.500495 
L 308.6128 125.500495 
L 316.48445 125.500495 
L 324.3561 125.500495 
L 332.22775 125.500495 
L 340.0994 125.500495 
L 347.97105 125.830502 
L 355.8427 125.830502 
L 363.71435 125.830502 
L 371.586 125.830502 
L 379.45765 125.830502 
L 387.3293 134.060346 
L 395.20095 150.520033 
L 403.0726 158.749877 
L 410.94425 166.979721 
L 418.8159 166.979721 
L 426.68755 166.979721 
L 434.5592 166.979721 
L 442.43085 175.209564 
L 450.3025 183.109401 
L 458.17415 183.109401 
L 466.0458 191.339245 
L 473.91745 191.339245 
L 481.7891 191.339245 
L 489.66075 191.339245 
L 497.5324 191.339245 
L 505.40405 191.339245 
L 513.2757 191.339245 
L 521.14735 191.339245 
L 529.019 191.339245 
L 536.89065 191.339245 
L 544.7623 191.339245 
L 552.63395 191.339245 
L 560.5056 191.339245 
L 568.37725 191.339245 
L 576.2489 191.339245 
L 584.12055 191.339245 
L 591.9922 191.339245 
L 599.86385 191.339245 
L 607.7355 191.339245 
L 615.60715 191.339245 
L 623.4788 191.339245 
L 631.35045 196.985248 
L 639.2221 196.985248 
L 647.09375 196.985248 
L 654.9654 196.985248 
L 662.83705 196.985248 
L 670.7087 196.985248 
L 678.58035 196.985248 
L 686.452 196.985248 
L 694.32365 196.985248 
L 702.1953 196.985248 
L 710.06695 196.985248 
L 717.9386 196.985248 
L 725.81025 196.985248 
L 733.6819 201.682714 
L 741.55355 201.682714 
L 749.4252 201.682714 
L 757.29685 201.682714 
L 765.1685 201.682714 
L 773.04015 201.682714 
L 780.9118 201.682714 
L 788.78345 201.682714 
L 796.6551 201.682714 
L 804.52675 201.682714 
L 812.3984 201.682714 
L 820.27005 201.682714 
L 828.1417 201.682714 
L 836.01335 201.682714 
L 843.885 201.682714 
" clip-path="url(#pf2f6b1dbb6)" style="fill: none; stroke: #808080; stroke-width: 2.5; stroke-linecap: square"/>
   </g>
   <g id="line2d_24">
    <path d="M 56.72 76.613814 
L 64.59165 88.399448 
L 72.4633 88.399448 
L 80.33495 88.399448 
L 88.2066 88.399448 
L 96.07825 111.016839 
L 103.9499 113.169987 
L 111.82155 114.004298 
L 119.6932 119.468484 
L 127.56485 124.835802 
L 135.4365 128.017777 
L 143.30815 128.017777 
L 151.1798 129.610373 
L 159.05145 129.610373 
L 166.9231 129.610373 
L 174.79475 129.610373 
L 182.6664 129.610373 
L 190.53805 133.300952 
L 198.4097 134.68308 
L 206.28135 136.605431 
L 214.153 136.605431 
L 222.02465 136.605431 
L 229.8963 136.605431 
L 237.76795 139.300871 
L 245.6396 139.300871 
L 253.51125 146.245777 
L 261.3829 146.245777 
L 269.25455 146.245777 
L 277.1262 146.245777 
L 284.99785 146.245777 
L 292.8695 146.245777 
L 300.74115 146.245777 
L 308.6128 155.021094 
L 316.48445 155.56316 
L 324.3561 155.56316 
L 332.22775 155.56316 
L 340.0994 156.011828 
L 347.97105 156.011828 
L 355.8427 156.011828 
L 363.71435 163.379771 
L 371.586 167.695718 
L 379.45765 167.695718 
L 387.3293 167.695718 
L 395.20095 167.695718 
L 403.0726 167.695718 
L 410.94425 168.179685 
L 418.8159 168.179685 
L 426.68755 172.121055 
L 434.5592 172.121055 
L 442.43085 172.121055 
L 450.3025 172.121055 
L 458.17415 181.048524 
L 466.0458 181.048524 
L 473.91745 181.048524 
L 481.7891 181.048524 
L 489.66075 181.048524 
L 497.5324 181.048524 
L 505.40405 187.563593 
L 513.2757 187.563593 
L 521.14735 187.563593 
L 529.019 191.390559 
L 536.89065 192.061592 
L 544.7623 192.061592 
L 552.63395 192.061592 
L 560.5056 193.211178 
L 568.37725 193.211178 
L 576.2489 193.211178 
L 584.12055 193.211178 
L 591.9922 193.211178 
L 599.86385 193.211178 
L 607.7355 193.211178 
L 615.60715 193.211178 
L 623.4788 193.211178 
L 631.35045 193.211178 
L 639.2221 193.211178 
L 647.09375 193.211178 
L 654.9654 193.786053 
L 662.83705 193.786053 
L 670.7087 193.786053 
L 678.58035 193.786053 
L 686.452 193.786053 
L 694.32365 193.786053 
L 702.1953 193.786053 
L 710.06695 195.466713 
L 717.9386 195.466713 
L 725.81025 195.466713 
L 733.6819 195.466713 
L 741.55355 195.466713 
L 749.4252 195.466713 
L 757.29685 195.673125 
L 765.1685 195.673125 
L 773.04015 195.673125 
L 780.9118 195.673125 
L 788.78345 198.951986 
L 796.6551 199.121543 
L 804.52675 199.490662 
L 812.3984 199.490662 
L 820.27005 201.459662 
L 828.1417 202.062939 
L 836.01335 202.062939 
L 843.885 202.062939 
" clip-path="url(#pf2f6b1dbb6)" style="fill: none; stroke: #7c92ff; stroke-width: 2.5; stroke-linecap: square"/>
   </g>
   <g id="line2d_25">
    <path d="M 56.72 76.613814 
L 64.59165 76.613814 
L 72.4633 84.914161 
L 80.33495 97.774872 
L 88.2066 104.756322 
L 96.07825 106.919151 
L 103.9499 119.585398 
L 111.82155 129.82539 
L 119.6932 148.315805 
L 127.56485 159.865728 
L 135.4365 160.599893 
L 143.30815 160.599893 
L 151.1798 163.272136 
L 159.05145 163.272136 
L 166.9231 163.272136 
L 174.79475 163.272136 
L 182.6664 163.272136 
L 190.53805 163.272136 
L 198.4097 171.720284 
L 206.28135 171.720284 
L 214.153 171.720284 
L 222.02465 177.974832 
L 229.8963 182.343907 
L 237.76795 185.572126 
L 245.6396 185.572126 
L 253.51125 185.572126 
L 261.3829 185.572126 
L 269.25455 185.572126 
L 277.1262 185.572126 
L 284.99785 185.909492 
L 292.8695 192.162358 
L 300.74115 192.162358 
L 308.6128 193.347397 
L 316.48445 193.347397 
L 324.3561 193.347397 
L 332.22775 193.347397 
L 340.0994 193.347397 
L 347.97105 193.347397 
L 355.8427 193.347397 
L 363.71435 193.347397 
L 371.586 194.11937 
L 379.45765 194.11937 
L 387.3293 194.11937 
L 395.20095 197.570239 
L 403.0726 200.590285 
L 410.94425 204.944836 
L 418.8159 204.944836 
L 426.68755 205.721204 
L 434.5592 205.721204 
L 442.43085 205.721204 
L 450.3025 205.721204 
L 458.17415 205.721204 
L 466.0458 205.721204 
L 473.91745 205.721204 
L 481.7891 206.884937 
L 489.66075 206.884937 
L 497.5324 206.884937 
L 505.40405 206.884937 
L 513.2757 209.273903 
L 521.14735 209.273903 
L 529.019 209.273903 
L 536.89065 209.273903 
L 544.7623 209.273903 
L 552.63395 209.273903 
L 560.5056 209.273903 
L 568.37725 209.273903 
L 576.2489 209.273903 
L 584.12055 209.273903 
L 591.9922 209.273903 
L 599.86385 211.080909 
L 607.7355 211.080909 
L 615.60715 211.080909 
L 623.4788 211.080909 
L 631.35045 216.303678 
L 639.2221 216.303678 
L 647.09375 217.981701 
L 654.9654 222.727064 
L 662.83705 222.727064 
L 670.7087 222.727064 
L 678.58035 222.727064 
L 686.452 222.727064 
L 694.32365 222.727064 
L 702.1953 222.727064 
L 710.06695 222.727064 
L 717.9386 223.457128 
L 725.81025 223.457128 
L 733.6819 223.457128 
L 741.55355 223.457128 
L 749.4252 223.457128 
L 757.29685 223.457128 
L 765.1685 225.035825 
L 773.04015 225.176661 
L 780.9118 225.176661 
L 788.78345 225.715756 
L 796.6551 225.715756 
L 804.52675 225.715756 
L 812.3984 225.715756 
L 820.27005 225.715756 
L 828.1417 225.715756 
L 836.01335 226.189755 
L 843.885 226.189755 
" clip-path="url(#pf2f6b1dbb6)" style="fill: none; stroke: #69f7ae; stroke-width: 2.5; stroke-linecap: square"/>
   </g>
   <g id="text_14">
    <!-- Best Value Evolution Over BO Rounds -->
    <g transform="translate(354.819531 22.56425) scale(0.13 -0.13)">
     <defs>
      <path id="RobotoCondensed-Regular-56" d="M 3459 4550 
L 2047 0 
L 1547 0 
L 134 4550 
L 759 4550 
L 1794 872 
L 2834 4550 
L 3459 4550 
z
" transform="scale(0.015625)"/>
      <path id="RobotoCondensed-Regular-6c" d="M 1009 4800 
L 1009 0 
L 459 0 
L 459 4800 
L 1009 4800 
z
" transform="scale(0.015625)"/>
      <path id="RobotoCondensed-Regular-45" d="M 491 0 
L 491 4550 
L 2906 4550 
L 2906 4056 
L 1066 4056 
L 1066 2594 
L 2672 2594 
L 2672 2103 
L 1066 2103 
L 1066 491 
L 2938 491 
L 2938 0 
L 491 0 
z
" transform="scale(0.015625)"/>
      <path id="RobotoCondensed-Regular-76" d="M 2578 3381 
L 1575 0 
L 1159 0 
L 144 3381 
L 706 3381 
L 1372 847 
L 2016 3381 
L 2578 3381 
z
" transform="scale(0.015625)"/>
     </defs>
     <use xlink:href="#RobotoCondensed-Regular-42"/>
     <use xlink:href="#RobotoCondensed-Regular-65" transform="translate(54.589844 0)"/>
     <use xlink:href="#RobotoCondensed-Regular-73" transform="translate(101.464844 0)"/>
     <use xlink:href="#RobotoCondensed-Regular-74" transform="translate(147.070312 0)"/>
     <use xlink:href="#RobotoCondensed-Regular-20" transform="translate(176.660156 0)"/>
     <use xlink:href="#RobotoCondensed-Regular-56" transform="translate(199.609375 0)"/>
     <use xlink:href="#RobotoCondensed-Regular-61" transform="translate(255.664062 0)"/>
     <use xlink:href="#RobotoCondensed-Regular-6c" transform="translate(303.564453 0)"/>
     <use xlink:href="#RobotoCondensed-Regular-75" transform="translate(326.513672 0)"/>
     <use xlink:href="#RobotoCondensed-Regular-65" transform="translate(374.853516 0)"/>
     <use xlink:href="#RobotoCondensed-Regular-20" transform="translate(421.728516 0)"/>
     <use xlink:href="#RobotoCondensed-Regular-45" transform="translate(444.677734 0)"/>
     <use xlink:href="#RobotoCondensed-Regular-76" transform="translate(494.384766 0)"/>
     <use xlink:href="#RobotoCondensed-Regular-6f" transform="translate(537.158203 0)"/>
     <use xlink:href="#RobotoCondensed-Regular-6c" transform="translate(587.353516 0)"/>
     <use xlink:href="#RobotoCondensed-Regular-75" transform="translate(610.302734 0)"/>
     <use xlink:href="#RobotoCondensed-Regular-74" transform="translate(658.642578 0)"/>
     <use xlink:href="#RobotoCondensed-Regular-69" transform="translate(688.232422 0)"/>
     <use xlink:href="#RobotoCondensed-Regular-6f" transform="translate(711.181641 0)"/>
     <use xlink:href="#RobotoCondensed-Regular-6e" transform="translate(761.376953 0)"/>
     <use xlink:href="#RobotoCondensed-Regular-20" transform="translate(809.814453 0)"/>
     <use xlink:href="#RobotoCondensed-Regular-4f" transform="translate(832.763672 0)"/>
     <use xlink:href="#RobotoCondensed-Regular-76" transform="translate(892.871094 0)"/>
     <use xlink:href="#RobotoCondensed-Regular-65" transform="translate(935.644531 0)"/>
     <use xlink:href="#RobotoCondensed-Regular-72" transform="translate(982.519531 0)"/>
     <use xlink:href="#RobotoCondensed-Regular-20" transform="translate(1012.988281 0)"/>
     <use xlink:href="#RobotoCondensed-Regular-42" transform="translate(1035.9375 0)"/>
     <use xlink:href="#RobotoCondensed-Regular-4f" transform="translate(1090.527344 0)"/>
     <use xlink:href="#RobotoCondensed-Regular-20" transform="translate(1150.634766 0)"/>
     <use xlink:href="#RobotoCondensed-Regular-52" transform="translate(1173.583984 0)"/>
     <use xlink:href="#RobotoCondensed-Regular-6f" transform="translate(1226.660156 0)"/>
     <use xlink:href="#RobotoCondensed-Regular-75" transform="translate(1276.855469 0)"/>
     <use xlink:href="#RobotoCondensed-Regular-6e" transform="translate(1325.195312 0)"/>
     <use xlink:href="#RobotoCondensed-Regular-64" transform="translate(1373.632812 0)"/>
     <use xlink:href="#RobotoCondensed-Regular-73" transform="translate(1423.242188 0)"/>
    </g>
    <!-- Embedding Size = 64 (mean ± std across trials) -->
    <g transform="translate(329.660469 37.719) scale(0.13 -0.13)">
     <defs>
      <path id="RobotoCondensed-Regular-6d" d="M 1556 2956 
Q 1141 2956 969 2544 
L 969 0 
L 419 0 
L 419 3381 
L 938 3381 
L 953 3075 
Q 1256 3444 1766 3444 
Q 2325 3444 2553 2953 
Q 2872 3444 3441 3444 
Q 3903 3444 4151 3153 
Q 4400 2863 4400 2222 
L 4400 0 
L 3847 0 
L 3847 2228 
Q 3847 2653 3692 2804 
Q 3538 2956 3272 2956 
Q 3016 2956 2864 2757 
Q 2713 2559 2684 2272 
L 2684 0 
L 2131 0 
L 2131 2272 
Q 2116 2956 1556 2956 
z
" transform="scale(0.015625)"/>
      <path id="RobotoCondensed-Regular-62" d="M 2866 1528 
Q 2866 725 2575 331 
Q 2284 -63 1753 -63 
Q 1219 -63 950 400 
L 922 0 
L 416 0 
L 416 4800 
L 969 4800 
L 969 3016 
Q 1234 3444 1750 3444 
Q 2278 3444 2567 3073 
Q 2856 2703 2866 1897 
L 2866 1528 
z
M 1606 2956 
Q 1181 2956 969 2497 
L 969 884 
Q 1181 428 1609 428 
Q 1984 428 2146 690 
Q 2309 953 2313 1506 
L 2313 1844 
Q 2313 2406 2159 2681 
Q 2006 2956 1606 2956 
z
" transform="scale(0.015625)"/>
      <path id="RobotoCondensed-Regular-53" d="M 2481 1150 
Q 2481 1469 2312 1656 
Q 2144 1844 1591 2042 
Q 1038 2241 713 2547 
Q 388 2853 388 3375 
Q 388 3906 741 4259 
Q 1094 4613 1691 4613 
Q 2356 4613 2706 4191 
Q 3056 3769 3056 3238 
L 2481 3238 
Q 2481 3619 2293 3869 
Q 2106 4119 1691 4119 
Q 1313 4119 1139 3908 
Q 966 3697 966 3381 
Q 966 3094 1170 2903 
Q 1375 2713 1806 2556 
Q 2475 2338 2765 2013 
Q 3056 1688 3056 1156 
Q 3056 600 2695 268 
Q 2334 -63 1719 -63 
Q 1363 -63 1028 93 
Q 694 250 480 558 
Q 266 866 266 1319 
L 841 1319 
Q 841 853 1098 640 
Q 1356 428 1719 428 
Q 2094 428 2287 623 
Q 2481 819 2481 1150 
z
" transform="scale(0.015625)"/>
      <path id="RobotoCondensed-Regular-7a" d="M 306 2903 
L 306 3381 
L 2494 3381 
L 2494 2972 
L 931 475 
L 2556 475 
L 2556 0 
L 297 0 
L 297 425 
L 1844 2903 
L 306 2903 
z
" transform="scale(0.015625)"/>
      <path id="RobotoCondensed-Regular-3d" d="M 2653 3047 
L 2653 2544 
L 466 2544 
L 466 3047 
L 2653 3047 
z
M 2653 1750 
L 2653 1247 
L 466 1247 
L 466 1750 
L 2653 1750 
z
" transform="scale(0.015625)"/>
      <path id="RobotoCondensed-Regular-28" d="M 406 1850 
Q 406 2756 636 3434 
Q 866 4113 1177 4541 
Q 1488 4969 1728 5134 
L 1841 4753 
Q 1547 4475 1253 3761 
Q 959 3047 959 1813 
Q 959 625 1253 -97 
Q 1547 -819 1841 -1119 
L 1728 -1469 
Q 1488 -1306 1177 -878 
Q 866 -450 636 226 
Q 406 903 406 1850 
z
" transform="scale(0.015625)"/>
      <path id="RobotoCondensed-Regular-b1" d="M 2734 2197 
L 1809 2197 
L 1809 903 
L 1313 903 
L 1313 2197 
L 331 2197 
L 331 2672 
L 1313 2672 
L 1313 3959 
L 1809 3959 
L 1809 2672 
L 2734 2672 
L 2734 2197 
z
M 2616 475 
L 2616 3 
L 425 3 
L 425 475 
L 2616 475 
z
" transform="scale(0.015625)"/>
      <path id="RobotoCondensed-Regular-29" d="M 1603 1819 
Q 1603 906 1373 228 
Q 1144 -450 833 -878 
Q 522 -1306 281 -1469 
L 169 -1119 
Q 463 -841 758 -109 
Q 1053 622 1053 1856 
Q 1053 2647 904 3236 
Q 756 3825 550 4212 
Q 344 4600 169 4781 
L 281 5134 
Q 522 4969 833 4541 
Q 1144 4113 1373 3436 
Q 1603 2759 1603 1819 
z
" transform="scale(0.015625)"/>
     </defs>
     <use xlink:href="#RobotoCondensed-Regular-45"/>
     <use xlink:href="#RobotoCondensed-Regular-6d" transform="translate(49.707031 0)"/>
     <use xlink:href="#RobotoCondensed-Regular-62" transform="translate(125 0)"/>
     <use xlink:href="#RobotoCondensed-Regular-65" transform="translate(174.316406 0)"/>
     <use xlink:href="#RobotoCondensed-Regular-64" transform="translate(221.191406 0)"/>
     <use xlink:href="#RobotoCondensed-Regular-64" transform="translate(270.800781 0)"/>
     <use xlink:href="#RobotoCondensed-Regular-69" transform="translate(320.410156 0)"/>
     <use xlink:href="#RobotoCondensed-Regular-6e" transform="translate(343.359375 0)"/>
     <use xlink:href="#RobotoCondensed-Regular-67" transform="translate(391.796875 0)"/>
     <use xlink:href="#RobotoCondensed-Regular-20" transform="translate(441.113281 0)"/>
     <use xlink:href="#RobotoCondensed-Regular-53" transform="translate(464.0625 0)"/>
     <use xlink:href="#RobotoCondensed-Regular-69" transform="translate(515.917969 0)"/>
     <use xlink:href="#RobotoCondensed-Regular-7a" transform="translate(538.867188 0)"/>
     <use xlink:href="#RobotoCondensed-Regular-65" transform="translate(582.763672 0)"/>
     <use xlink:href="#RobotoCondensed-Regular-20" transform="translate(629.638672 0)"/>
     <use xlink:href="#RobotoCondensed-Regular-3d" transform="translate(652.587891 0)"/>
     <use xlink:href="#RobotoCondensed-Regular-20" transform="translate(700.488281 0)"/>
     <use xlink:href="#RobotoCondensed-Regular-36" transform="translate(723.4375 0)"/>
     <use xlink:href="#RobotoCondensed-Regular-34" transform="translate(772.802734 0)"/>
     <use xlink:href="#RobotoCondensed-Regular-20" transform="translate(822.167969 0)"/>
     <use xlink:href="#RobotoCondensed-Regular-28" transform="translate(845.117188 0)"/>
     <use xlink:href="#RobotoCondensed-Regular-6d" transform="translate(876.513672 0)"/>
     <use xlink:href="#RobotoCondensed-Regular-65" transform="translate(951.806641 0)"/>
     <use xlink:href="#RobotoCondensed-Regular-61" transform="translate(998.681641 0)"/>
     <use xlink:href="#RobotoCondensed-Regular-6e" transform="translate(1046.582031 0)"/>
     <use xlink:href="#RobotoCondensed-Regular-20" transform="translate(1095.019531 0)"/>
     <use xlink:href="#RobotoCondensed-Regular-b1" transform="translate(1117.96875 0)"/>
     <use xlink:href="#RobotoCondensed-Regular-20" transform="translate(1164.990234 0)"/>
     <use xlink:href="#RobotoCondensed-Regular-73" transform="translate(1187.939453 0)"/>
     <use xlink:href="#RobotoCondensed-Regular-74" transform="translate(1233.544922 0)"/>
     <use xlink:href="#RobotoCondensed-Regular-64" transform="translate(1263.134766 0)"/>
     <use xlink:href="#RobotoCondensed-Regular-20" transform="translate(1312.744141 0)"/>
     <use xlink:href="#RobotoCondensed-Regular-61" transform="translate(1335.693359 0)"/>
     <use xlink:href="#RobotoCondensed-Regular-63" transform="translate(1383.59375 0)"/>
     <use xlink:href="#RobotoCondensed-Regular-72" transform="translate(1429.785156 0)"/>
     <use xlink:href="#RobotoCondensed-Regular-6f" transform="translate(1460.253906 0)"/>
     <use xlink:href="#RobotoCondensed-Regular-73" transform="translate(1510.449219 0)"/>
     <use xlink:href="#RobotoCondensed-Regular-73" transform="translate(1556.054688 0)"/>
     <use xlink:href="#RobotoCondensed-Regular-20" transform="translate(1601.660156 0)"/>
     <use xlink:href="#RobotoCondensed-Regular-74" transform="translate(1624.609375 0)"/>
     <use xlink:href="#RobotoCondensed-Regular-72" transform="translate(1654.199219 0)"/>
     <use xlink:href="#RobotoCondensed-Regular-69" transform="translate(1684.667969 0)"/>
     <use xlink:href="#RobotoCondensed-Regular-61" transform="translate(1707.617188 0)"/>
     <use xlink:href="#RobotoCondensed-Regular-6c" transform="translate(1755.517578 0)"/>
     <use xlink:href="#RobotoCondensed-Regular-73" transform="translate(1778.466797 0)"/>
     <use xlink:href="#RobotoCondensed-Regular-29" transform="translate(1824.072266 0)"/>
    </g>
   </g>
   <g id="legend_1">
    <g id="patch_7">
     <path d="M 707.00375 111.201187 
L 836.185 111.201187 
Q 838.385 111.201187 838.385 109.001187 
L 838.385 60.419 
Q 838.385 58.219 836.185 58.219 
L 707.00375 58.219 
Q 704.80375 58.219 704.80375 60.419 
L 704.80375 109.001187 
Q 704.80375 111.201187 707.00375 111.201187 
z
" style="fill: #ffffff; opacity: 0.8; stroke: #cccccc; stroke-linejoin: miter"/>
    </g>
    <g id="line2d_26">
     <path d="M 709.20375 67.019 
L 720.20375 67.019 
L 731.20375 67.019 
" style="fill: none; stroke: #808080; stroke-width: 2.5; stroke-linecap: square"/>
    </g>
    <g id="text_15">
     <!-- Random Repr. -->
     <g transform="translate(740.00375 70.869) scale(0.11 -0.11)">
      <defs>
       <path id="RobotoCondensed-Regular-70" d="M 1750 -63 
Q 1244 -63 969 325 
L 969 -1300 
L 416 -1300 
L 416 3381 
L 919 3381 
L 947 3013 
Q 1222 3444 1744 3444 
Q 2275 3444 2562 3073 
Q 2850 2703 2859 1897 
L 2859 1528 
Q 2859 725 2570 331 
Q 2281 -63 1750 -63 
z
M 1572 2956 
Q 1181 2956 969 2559 
L 969 797 
Q 1178 409 1578 409 
Q 2288 409 2306 1472 
L 2306 1844 
Q 2306 2956 1572 2956 
z
" transform="scale(0.015625)"/>
      </defs>
      <use xlink:href="#RobotoCondensed-Regular-52"/>
      <use xlink:href="#RobotoCondensed-Regular-61" transform="translate(53.076172 0)"/>
      <use xlink:href="#RobotoCondensed-Regular-6e" transform="translate(100.976562 0)"/>
      <use xlink:href="#RobotoCondensed-Regular-64" transform="translate(149.414062 0)"/>
      <use xlink:href="#RobotoCondensed-Regular-6f" transform="translate(199.023438 0)"/>
      <use xlink:href="#RobotoCondensed-Regular-6d" transform="translate(249.21875 0)"/>
      <use xlink:href="#RobotoCondensed-Regular-20" transform="translate(324.511719 0)"/>
      <use xlink:href="#RobotoCondensed-Regular-52" transform="translate(347.460938 0)"/>
      <use xlink:href="#RobotoCondensed-Regular-65" transform="translate(400.537109 0)"/>
      <use xlink:href="#RobotoCondensed-Regular-70" transform="translate(447.412109 0)"/>
      <use xlink:href="#RobotoCondensed-Regular-72" transform="translate(496.728516 0)"/>
      <use xlink:href="#RobotoCondensed-Regular-2e" transform="translate(527.197266 0)"/>
     </g>
    </g>
    <g id="line2d_27">
     <path d="M 709.20375 83.577437 
L 720.20375 83.577437 
L 731.20375 83.577437 
" style="fill: none; stroke: #7c92ff; stroke-width: 2.5; stroke-linecap: square"/>
    </g>
    <g id="text_16">
     <!-- Morgan FP (Radius 2) -->
     <g transform="translate(740.00375 87.427437) scale(0.11 -0.11)">
      <defs>
       <path id="RobotoCondensed-Regular-4d" d="M 2419 841 
L 3606 4550 
L 4341 4550 
L 4341 0 
L 3769 0 
L 3769 1775 
L 3822 3538 
L 2634 0 
L 2197 0 
L 1009 3544 
L 1063 1775 
L 1063 0 
L 491 0 
L 491 4550 
L 1228 4550 
L 2419 841 
z
" transform="scale(0.015625)"/>
       <path id="RobotoCondensed-Regular-46" d="M 491 0 
L 491 4550 
L 2859 4550 
L 2859 4056 
L 1066 4056 
L 1066 2503 
L 2600 2503 
L 2600 2009 
L 1066 2009 
L 1066 0 
L 491 0 
z
" transform="scale(0.015625)"/>
       <path id="RobotoCondensed-Regular-50" d="M 1066 1784 
L 1066 0 
L 491 0 
L 491 4550 
L 1941 4550 
Q 2600 4550 2951 4159 
Q 3303 3769 3303 3163 
Q 3303 2506 2954 2147 
Q 2606 1788 1950 1784 
L 1066 1784 
z
M 1066 4056 
L 1066 2275 
L 1941 2275 
Q 2359 2275 2543 2522 
Q 2728 2769 2728 3156 
Q 2728 3506 2543 3781 
Q 2359 4056 1941 4056 
L 1066 4056 
z
" transform="scale(0.015625)"/>
      </defs>
      <use xlink:href="#RobotoCondensed-Regular-4d"/>
      <use xlink:href="#RobotoCondensed-Regular-6f" transform="translate(75.537109 0)"/>
      <use xlink:href="#RobotoCondensed-Regular-72" transform="translate(125.732422 0)"/>
      <use xlink:href="#RobotoCondensed-Regular-67" transform="translate(156.201172 0)"/>
      <use xlink:href="#RobotoCondensed-Regular-61" transform="translate(205.517578 0)"/>
      <use xlink:href="#RobotoCondensed-Regular-6e" transform="translate(253.417969 0)"/>
      <use xlink:href="#RobotoCondensed-Regular-20" transform="translate(301.855469 0)"/>
      <use xlink:href="#RobotoCondensed-Regular-46" transform="translate(324.804688 0)"/>
      <use xlink:href="#RobotoCondensed-Regular-50" transform="translate(372.900391 0)"/>
      <use xlink:href="#RobotoCondensed-Regular-20" transform="translate(428.320312 0)"/>
      <use xlink:href="#RobotoCondensed-Regular-28" transform="translate(451.269531 0)"/>
      <use xlink:href="#RobotoCondensed-Regular-52" transform="translate(482.666016 0)"/>
      <use xlink:href="#RobotoCondensed-Regular-61" transform="translate(535.742188 0)"/>
      <use xlink:href="#RobotoCondensed-Regular-64" transform="translate(583.642578 0)"/>
      <use xlink:href="#RobotoCondensed-Regular-69" transform="translate(633.251953 0)"/>
      <use xlink:href="#RobotoCondensed-Regular-75" transform="translate(656.201172 0)"/>
      <use xlink:href="#RobotoCondensed-Regular-73" transform="translate(704.541016 0)"/>
      <use xlink:href="#RobotoCondensed-Regular-20" transform="translate(750.146484 0)"/>
      <use xlink:href="#RobotoCondensed-Regular-32" transform="translate(773.095703 0)"/>
      <use xlink:href="#RobotoCondensed-Regular-29" transform="translate(822.460938 0)"/>
     </g>
    </g>
    <g id="line2d_28">
     <path d="M 709.20375 100.426344 
L 720.20375 100.426344 
L 731.20375 100.426344 
" style="fill: none; stroke: #69f7ae; stroke-width: 2.5; stroke-linecap: square"/>
    </g>
    <g id="text_17">
     <!-- HDC (Depth 2) -->
     <g transform="translate(740.00375 104.276344) scale(0.11 -0.11)">
      <defs>
       <path id="RobotoCondensed-Regular-48" d="M 2894 0 
L 2894 2103 
L 1066 2103 
L 1066 0 
L 491 0 
L 491 4550 
L 1066 4550 
L 1066 2594 
L 2894 2594 
L 2894 4550 
L 3469 4550 
L 3469 0 
L 2894 0 
z
" transform="scale(0.015625)"/>
       <path id="RobotoCondensed-Regular-43" d="M 2769 1447 
L 3344 1447 
Q 3313 744 2950 340 
Q 2588 -63 1878 -63 
Q 1194 -63 792 457 
Q 391 978 391 1856 
L 391 2697 
Q 391 3572 798 4092 
Q 1206 4613 1931 4613 
Q 2594 4613 2953 4219 
Q 3313 3825 3344 3091 
L 2769 3091 
Q 2734 3628 2543 3873 
Q 2353 4119 1931 4119 
Q 1431 4119 1198 3731 
Q 966 3344 966 2703 
L 966 1856 
Q 966 1259 1170 843 
Q 1375 428 1878 428 
Q 2350 428 2537 665 
Q 2725 903 2769 1447 
z
" transform="scale(0.015625)"/>
       <path id="RobotoCondensed-Regular-68" d="M 1603 2956 
Q 1400 2956 1236 2818 
Q 1072 2681 969 2459 
L 969 0 
L 416 0 
L 416 4800 
L 969 4800 
L 969 3041 
Q 1288 3444 1775 3444 
Q 2191 3444 2437 3162 
Q 2684 2881 2684 2216 
L 2684 0 
L 2131 0 
L 2131 2222 
Q 2131 2619 2000 2787 
Q 1869 2956 1603 2956 
z
" transform="scale(0.015625)"/>
      </defs>
      <use xlink:href="#RobotoCondensed-Regular-48"/>
      <use xlink:href="#RobotoCondensed-Regular-44" transform="translate(62.011719 0)"/>
      <use xlink:href="#RobotoCondensed-Regular-43" transform="translate(119.091797 0)"/>
      <use xlink:href="#RobotoCondensed-Regular-20" transform="translate(175.78125 0)"/>
      <use xlink:href="#RobotoCondensed-Regular-28" transform="translate(198.730469 0)"/>
      <use xlink:href="#RobotoCondensed-Regular-44" transform="translate(230.126953 0)"/>
      <use xlink:href="#RobotoCondensed-Regular-65" transform="translate(287.207031 0)"/>
      <use xlink:href="#RobotoCondensed-Regular-70" transform="translate(334.082031 0)"/>
      <use xlink:href="#RobotoCondensed-Regular-74" transform="translate(383.398438 0)"/>
      <use xlink:href="#RobotoCondensed-Regular-68" transform="translate(412.988281 0)"/>
      <use xlink:href="#RobotoCondensed-Regular-20" transform="translate(461.279297 0)"/>
      <use xlink:href="#RobotoCondensed-Regular-32" transform="translate(484.228516 0)"/>
      <use xlink:href="#RobotoCondensed-Regular-29" transform="translate(533.59375 0)"/>
     </g>
    </g>
   </g>
  </g>
 </g>
 <defs>
  <clipPath id="pf2f6b1dbb6">
   <rect x="56.72" y="52.719" width="787.165" height="191.521"/>
  </clipPath>
 </defs>
</svg>
