<?xml version="1.0" encoding="utf-8" standalone="no"?>
<!DOCTYPE svg PUBLIC "-//W3C//DTD SVG 1.1//EN"
  "http://www.w3.org/Graphics/SVG/1.1/DTD/svg11.dtd">
<svg xmlns:xlink="http://www.w3.org/1999/xlink" width="864pt" height="288pt" viewBox="0 0 864 288" xmlns="http://www.w3.org/2000/svg" version="1.1">
 <metadata>
  <rdf:RDF xmlns:dc="http://purl.org/dc/elements/1.1/" xmlns:cc="http://creativecommons.org/ns#" xmlns:rdf="http://www.w3.org/1999/02/22-rdf-syntax-ns#">
   <cc:Work>
    <dc:type rdf:resource="http://purl.org/dc/dcmitype/StillImage"/>
    <dc:date>2025-12-04T13:26:20.923148</dc:date>
    <dc:format>image/svg+xml</dc:format>
    <dc:creator>
     <cc:Agent>
      <dc:title>Matplotlib v3.10.7, https://matplotlib.org/</dc:title>
     </cc:Agent>
    </dc:creator>
   </cc:Work>
  </rdf:RDF>
 </metadata>
 <defs>
  <style type="text/css">*{stroke-linejoin: round; stroke-linecap: butt}</style>
 </defs>
 <g id="figure_1">
  <g id="patch_1">
   <path d="M 0 288 
L 864 288 
L 864 0 
L 0 0 
z
" style="fill: #ffffff"/>
  </g>
  <g id="axes_1">
   <g id="patch_2">
    <path d="M 42.77 244.24 
L 843.885 244.24 
L 843.885 52.719 
L 42.77 52.719 
z
" style="fill: #ffffff"/>
   </g>
   <g id="matplotlib.axis_1">
    <g id="xtick_1">
     <g id="line2d_1">
      <path d="M 42.77 244.24 
L 42.77 52.719 
" clip-path="url(#p27150eaff6)" style="fill: none; stroke-dasharray: 2.96,1.28; stroke-dashoffset: 0; stroke: #b0b0b0; stroke-opacity: 0.3; stroke-width: 0.8"/>
     </g>
     <g id="line2d_2">
      <defs>
       <path id="md1e02e11a9" d="M 0 0 
L 0 3.5 
" style="stroke: #000000; stroke-width: 0.8"/>
      </defs>
      <g>
       <use xlink:href="#md1e02e11a9" x="42.77" y="244.24" style="stroke: #000000; stroke-width: 0.8"/>
      </g>
     </g>
     <g id="text_1">
      <!-- 0 -->
      <g transform="translate(40.055234 259.49) scale(0.11 -0.11)">
       <defs>
        <path id="RobotoCondensed-Regular-30" d="M 2797 1944 
Q 2797 825 2467 381 
Q 2138 -63 1581 -63 
Q 1038 -63 703 370 
Q 369 803 359 1878 
L 359 2638 
Q 359 3753 695 4183 
Q 1031 4613 1578 4613 
Q 2131 4613 2461 4189 
Q 2791 3766 2797 2681 
L 2797 1944 
z
M 2247 2734 
Q 2247 3503 2073 3822 
Q 1900 4141 1578 4141 
Q 1266 4141 1092 3833 
Q 919 3525 913 2791 
L 913 1850 
Q 913 1088 1089 750 
Q 1266 413 1581 413 
Q 1903 413 2072 738 
Q 2241 1063 2247 1794 
L 2247 2734 
z
" transform="scale(0.015625)"/>
       </defs>
       <use xlink:href="#RobotoCondensed-Regular-30"/>
      </g>
     </g>
    </g>
    <g id="xtick_2">
     <g id="line2d_3">
      <path d="M 202.993 244.24 
L 202.993 52.719 
" clip-path="url(#p27150eaff6)" style="fill: none; stroke-dasharray: 2.96,1.28; stroke-dashoffset: 0; stroke: #b0b0b0; stroke-opacity: 0.3; stroke-width: 0.8"/>
     </g>
     <g id="line2d_4">
      <g>
       <use xlink:href="#md1e02e11a9" x="202.993" y="244.24" style="stroke: #000000; stroke-width: 0.8"/>
      </g>
     </g>
     <g id="text_2">
      <!-- 20 -->
      <g transform="translate(197.563469 259.49) scale(0.11 -0.11)">
       <defs>
        <path id="RobotoCondensed-Regular-32" d="M 2909 475 
L 2909 0 
L 366 0 
L 366 416 
L 1628 2088 
Q 1966 2541 2077 2802 
Q 2188 3063 2188 3328 
Q 2188 3663 2027 3900 
Q 1866 4138 1575 4138 
Q 1194 4138 1022 3878 
Q 850 3619 850 3213 
L 297 3213 
Q 297 3788 617 4200 
Q 938 4613 1575 4613 
Q 2125 4613 2433 4278 
Q 2741 3944 2741 3397 
Q 2741 2997 2541 2594 
Q 2341 2191 2047 1809 
L 1028 475 
L 2909 475 
z
" transform="scale(0.015625)"/>
       </defs>
       <use xlink:href="#RobotoCondensed-Regular-32"/>
       <use xlink:href="#RobotoCondensed-Regular-30" transform="translate(49.365234 0)"/>
      </g>
     </g>
    </g>
    <g id="xtick_3">
     <g id="line2d_5">
      <path d="M 363.216 244.24 
L 363.216 52.719 
" clip-path="url(#p27150eaff6)" style="fill: none; stroke-dasharray: 2.96,1.28; stroke-dashoffset: 0; stroke: #b0b0b0; stroke-opacity: 0.3; stroke-width: 0.8"/>
     </g>
     <g id="line2d_6">
      <g>
       <use xlink:href="#md1e02e11a9" x="363.216" y="244.24" style="stroke: #000000; stroke-width: 0.8"/>
      </g>
     </g>
     <g id="text_3">
      <!-- 40 -->
      <g transform="translate(357.786469 259.49) scale(0.11 -0.11)">
       <defs>
        <path id="RobotoCondensed-Regular-34" d="M 188 1397 
L 1878 4550 
L 2463 4550 
L 2463 1531 
L 2969 1531 
L 2969 1056 
L 2463 1056 
L 2463 0 
L 1909 0 
L 1909 1056 
L 188 1056 
L 188 1397 
z
M 803 1531 
L 1909 1531 
L 1909 3703 
L 1878 3638 
L 803 1531 
z
" transform="scale(0.015625)"/>
       </defs>
       <use xlink:href="#RobotoCondensed-Regular-34"/>
       <use xlink:href="#RobotoCondensed-Regular-30" transform="translate(49.365234 0)"/>
      </g>
     </g>
    </g>
    <g id="xtick_4">
     <g id="line2d_7">
      <path d="M 523.439 244.24 
L 523.439 52.719 
" clip-path="url(#p27150eaff6)" style="fill: none; stroke-dasharray: 2.96,1.28; stroke-dashoffset: 0; stroke: #b0b0b0; stroke-opacity: 0.3; stroke-width: 0.8"/>
     </g>
     <g id="line2d_8">
      <g>
       <use xlink:href="#md1e02e11a9" x="523.439" y="244.24" style="stroke: #000000; stroke-width: 0.8"/>
      </g>
     </g>
     <g id="text_4">
      <!-- 60 -->
      <g transform="translate(518.009469 259.49) scale(0.11 -0.11)">
       <defs>
        <path id="RobotoCondensed-Regular-36" d="M 2847 1484 
Q 2847 838 2544 387 
Q 2241 -63 1641 -63 
Q 1216 -63 944 198 
Q 672 459 542 861 
Q 413 1263 413 1684 
L 413 1956 
Q 413 2438 481 2900 
Q 550 3363 742 3738 
Q 934 4113 1296 4334 
Q 1659 4556 2291 4556 
L 2291 4066 
Q 1775 4066 1508 3859 
Q 1241 3653 1122 3318 
Q 1003 2984 978 2606 
Q 1272 2984 1750 2984 
Q 2138 2984 2380 2765 
Q 2622 2547 2734 2201 
Q 2847 1856 2847 1484 
z
M 969 1666 
Q 969 1059 1180 737 
Q 1391 416 1641 416 
Q 1959 416 2129 708 
Q 2300 1000 2300 1456 
Q 2300 1863 2144 2184 
Q 1988 2506 1659 2506 
Q 1425 2506 1236 2329 
Q 1047 2153 969 1900 
L 969 1666 
z
" transform="scale(0.015625)"/>
       </defs>
       <use xlink:href="#RobotoCondensed-Regular-36"/>
       <use xlink:href="#RobotoCondensed-Regular-30" transform="translate(49.365234 0)"/>
      </g>
     </g>
    </g>
    <g id="xtick_5">
     <g id="line2d_9">
      <path d="M 683.662 244.24 
L 683.662 52.719 
" clip-path="url(#p27150eaff6)" style="fill: none; stroke-dasharray: 2.96,1.28; stroke-dashoffset: 0; stroke: #b0b0b0; stroke-opacity: 0.3; stroke-width: 0.8"/>
     </g>
     <g id="line2d_10">
      <g>
       <use xlink:href="#md1e02e11a9" x="683.662" y="244.24" style="stroke: #000000; stroke-width: 0.8"/>
      </g>
     </g>
     <g id="text_5">
      <!-- 80 -->
      <g transform="translate(678.232469 259.49) scale(0.11 -0.11)">
       <defs>
        <path id="RobotoCondensed-Regular-38" d="M 2794 1231 
Q 2794 606 2445 271 
Q 2097 -63 1578 -63 
Q 1063 -63 714 273 
Q 366 609 366 1231 
Q 366 1613 536 1905 
Q 706 2197 1000 2347 
Q 450 2666 450 3366 
Q 450 3963 769 4288 
Q 1088 4613 1581 4613 
Q 2075 4613 2392 4288 
Q 2709 3963 2709 3366 
Q 2709 3028 2557 2761 
Q 2406 2494 2150 2344 
Q 2444 2194 2619 1901 
Q 2794 1609 2794 1231 
z
M 2156 3356 
Q 2156 3697 2000 3917 
Q 1844 4138 1581 4138 
Q 1319 4138 1161 3927 
Q 1003 3716 1003 3356 
Q 1003 3003 1159 2790 
Q 1316 2578 1581 2578 
Q 1844 2578 2000 2790 
Q 2156 3003 2156 3356 
z
M 2244 1244 
Q 2244 1625 2061 1865 
Q 1878 2106 1575 2106 
Q 1266 2106 1091 1865 
Q 916 1625 916 1244 
Q 916 850 1089 631 
Q 1263 413 1578 413 
Q 1897 413 2070 631 
Q 2244 850 2244 1244 
z
" transform="scale(0.015625)"/>
       </defs>
       <use xlink:href="#RobotoCondensed-Regular-38"/>
       <use xlink:href="#RobotoCondensed-Regular-30" transform="translate(49.365234 0)"/>
      </g>
     </g>
    </g>
    <g id="xtick_6">
     <g id="line2d_11">
      <path d="M 843.885 244.24 
L 843.885 52.719 
" clip-path="url(#p27150eaff6)" style="fill: none; stroke-dasharray: 2.96,1.28; stroke-dashoffset: 0; stroke: #b0b0b0; stroke-opacity: 0.3; stroke-width: 0.8"/>
     </g>
     <g id="line2d_12">
      <g>
       <use xlink:href="#md1e02e11a9" x="843.885" y="244.24" style="stroke: #000000; stroke-width: 0.8"/>
      </g>
     </g>
     <g id="text_6">
      <!-- 100 -->
      <g transform="translate(835.740703 259.49) scale(0.11 -0.11)">
       <defs>
        <path id="RobotoCondensed-Regular-31" d="M 2013 4575 
L 2013 0 
L 1459 0 
L 1459 3853 
L 503 3428 
L 503 3950 
L 1928 4575 
L 2013 4575 
z
" transform="scale(0.015625)"/>
       </defs>
       <use xlink:href="#RobotoCondensed-Regular-31"/>
       <use xlink:href="#RobotoCondensed-Regular-30" transform="translate(49.365234 0)"/>
       <use xlink:href="#RobotoCondensed-Regular-30" transform="translate(98.730469 0)"/>
      </g>
     </g>
    </g>
    <g id="text_7">
     <!-- BO Round -->
     <g transform="translate(420.087812 274.724375) scale(0.12 -0.12)">
      <defs>
       <path id="RobotoCondensed-Regular-42" d="M 3125 1313 
Q 3125 675 2776 337 
Q 2428 0 1847 0 
L 491 0 
L 491 4550 
L 1791 4550 
Q 2375 4550 2706 4261 
Q 3038 3972 3038 3338 
Q 3038 3025 2880 2779 
Q 2722 2534 2453 2400 
Q 2781 2297 2953 1998 
Q 3125 1700 3125 1313 
z
M 1066 4056 
L 1066 2613 
L 1797 2613 
Q 2088 2613 2275 2806 
Q 2463 3000 2463 3344 
Q 2463 4041 1819 4056 
L 1066 4056 
z
M 2550 1306 
Q 2550 2106 1906 2128 
L 1066 2128 
L 1066 491 
L 1847 491 
Q 2181 491 2365 711 
Q 2550 931 2550 1306 
z
" transform="scale(0.015625)"/>
       <path id="RobotoCondensed-Regular-4f" d="M 3450 1878 
Q 3450 913 3040 425 
Q 2631 -63 1925 -63 
Q 1253 -63 829 412 
Q 406 888 394 1822 
L 394 2669 
Q 394 3631 816 4122 
Q 1238 4613 1922 4613 
Q 2622 4613 3031 4131 
Q 3441 3650 3450 2713 
L 3450 1878 
z
M 2881 2675 
Q 2881 3425 2634 3762 
Q 2388 4100 1922 4100 
Q 1478 4100 1220 3762 
Q 963 3425 963 2675 
L 963 1878 
Q 963 1125 1223 786 
Q 1484 447 1925 447 
Q 2394 447 2636 781 
Q 2878 1116 2881 1859 
L 2881 2675 
z
" transform="scale(0.015625)"/>
       <path id="RobotoCondensed-Regular-20" transform="scale(0.015625)"/>
       <path id="RobotoCondensed-Regular-52" d="M 2678 0 
L 1869 1844 
L 1069 1844 
L 1069 0 
L 494 0 
L 494 4550 
L 1766 4550 
Q 2444 4550 2783 4208 
Q 3122 3866 3122 3184 
Q 3122 2303 2409 1975 
L 3294 38 
L 3294 0 
L 2678 0 
z
M 1069 4056 
L 1069 2334 
L 1759 2334 
Q 2153 2334 2350 2582 
Q 2547 2831 2547 3184 
Q 2547 3578 2369 3817 
Q 2191 4056 1766 4056 
L 1069 4056 
z
" transform="scale(0.015625)"/>
       <path id="RobotoCondensed-Regular-6f" d="M 300 1850 
Q 300 2641 678 3042 
Q 1056 3444 1603 3444 
Q 2156 3444 2536 3042 
Q 2916 2641 2916 1850 
L 2916 1528 
Q 2916 738 2536 337 
Q 2156 -63 1609 -63 
Q 1059 -63 679 337 
Q 300 738 300 1528 
L 300 1850 
z
M 853 1528 
Q 853 969 1068 689 
Q 1284 409 1609 409 
Q 2341 409 2363 1466 
L 2363 1850 
Q 2363 2403 2145 2686 
Q 1928 2969 1603 2969 
Q 1281 2969 1067 2686 
Q 853 2403 853 1850 
L 853 1528 
z
" transform="scale(0.015625)"/>
       <path id="RobotoCondensed-Regular-75" d="M 2153 0 
L 2144 297 
Q 1863 -63 1338 -63 
Q 919 -63 662 231 
Q 406 525 406 1200 
L 406 3381 
L 956 3381 
L 956 1178 
Q 959 731 1107 579 
Q 1256 428 1431 428 
Q 1931 428 2125 881 
L 2125 3381 
L 2678 3381 
L 2678 0 
L 2153 0 
z
" transform="scale(0.015625)"/>
       <path id="RobotoCondensed-Regular-6e" d="M 1603 2956 
Q 1400 2956 1236 2818 
Q 1072 2681 969 2459 
L 969 0 
L 416 0 
L 416 3381 
L 938 3381 
L 953 3022 
Q 1275 3444 1775 3444 
Q 2191 3444 2437 3162 
Q 2684 2881 2684 2216 
L 2684 0 
L 2131 0 
L 2131 2222 
Q 2131 2619 2000 2787 
Q 1869 2956 1603 2956 
z
" transform="scale(0.015625)"/>
       <path id="RobotoCondensed-Regular-64" d="M 2234 0 
L 2209 366 
Q 1941 -63 1425 -63 
Q 925 -63 611 331 
Q 297 725 297 1528 
L 297 1844 
Q 297 2678 609 3061 
Q 922 3444 1431 3444 
Q 1922 3444 2188 3050 
L 2188 4800 
L 2738 4800 
L 2738 0 
L 2234 0 
z
M 850 1528 
Q 850 963 1019 695 
Q 1188 428 1569 428 
Q 1981 428 2188 847 
L 2188 2544 
Q 1972 2956 1575 2956 
Q 1194 2956 1023 2687 
Q 853 2419 850 1866 
L 850 1528 
z
" transform="scale(0.015625)"/>
      </defs>
      <use xlink:href="#RobotoCondensed-Regular-42"/>
      <use xlink:href="#RobotoCondensed-Regular-4f" transform="translate(54.589844 0)"/>
      <use xlink:href="#RobotoCondensed-Regular-20" transform="translate(114.697266 0)"/>
      <use xlink:href="#RobotoCondensed-Regular-52" transform="translate(137.646484 0)"/>
      <use xlink:href="#RobotoCondensed-Regular-6f" transform="translate(190.722656 0)"/>
      <use xlink:href="#RobotoCondensed-Regular-75" transform="translate(240.917969 0)"/>
      <use xlink:href="#RobotoCondensed-Regular-6e" transform="translate(289.257812 0)"/>
      <use xlink:href="#RobotoCondensed-Regular-64" transform="translate(337.695312 0)"/>
     </g>
    </g>
   </g>
   <g id="matplotlib.axis_2">
    <g id="ytick_1">
     <g id="line2d_13">
      <path d="M 42.77 238.087688 
L 843.885 238.087688 
" clip-path="url(#p27150eaff6)" style="fill: none; stroke-dasharray: 2.96,1.28; stroke-dashoffset: 0; stroke: #b0b0b0; stroke-opacity: 0.3; stroke-width: 0.8"/>
     </g>
     <g id="line2d_14">
      <defs>
       <path id="m8d038be774" d="M 0 0 
L -3.5 0 
" style="stroke: #000000; stroke-width: 0.8"/>
      </defs>
      <g>
       <use xlink:href="#m8d038be774" x="42.77" y="238.087688" style="stroke: #000000; stroke-width: 0.8"/>
      </g>
     </g>
     <g id="text_8">
      <!-- 0 -->
      <g transform="translate(30.340469 242.212688) scale(0.11 -0.11)">
       <use xlink:href="#RobotoCondensed-Regular-30"/>
      </g>
     </g>
    </g>
    <g id="ytick_2">
     <g id="line2d_15">
      <path d="M 42.77 191.325794 
L 843.885 191.325794 
" clip-path="url(#p27150eaff6)" style="fill: none; stroke-dasharray: 2.96,1.28; stroke-dashoffset: 0; stroke: #b0b0b0; stroke-opacity: 0.3; stroke-width: 0.8"/>
     </g>
     <g id="line2d_16">
      <g>
       <use xlink:href="#m8d038be774" x="42.77" y="191.325794" style="stroke: #000000; stroke-width: 0.8"/>
      </g>
     </g>
     <g id="text_9">
      <!-- 2 -->
      <g transform="translate(30.340469 195.450794) scale(0.11 -0.11)">
       <use xlink:href="#RobotoCondensed-Regular-32"/>
      </g>
     </g>
    </g>
    <g id="ytick_3">
     <g id="line2d_17">
      <path d="M 42.77 144.563899 
L 843.885 144.563899 
" clip-path="url(#p27150eaff6)" style="fill: none; stroke-dasharray: 2.96,1.28; stroke-dashoffset: 0; stroke: #b0b0b0; stroke-opacity: 0.3; stroke-width: 0.8"/>
     </g>
     <g id="line2d_18">
      <g>
       <use xlink:href="#m8d038be774" x="42.77" y="144.563899" style="stroke: #000000; stroke-width: 0.8"/>
      </g>
     </g>
     <g id="text_10">
      <!-- 4 -->
      <g transform="translate(30.340469 148.688899) scale(0.11 -0.11)">
       <use xlink:href="#RobotoCondensed-Regular-34"/>
      </g>
     </g>
    </g>
    <g id="ytick_4">
     <g id="line2d_19">
      <path d="M 42.77 97.802004 
L 843.885 97.802004 
" clip-path="url(#p27150eaff6)" style="fill: none; stroke-dasharray: 2.96,1.28; stroke-dashoffset: 0; stroke: #b0b0b0; stroke-opacity: 0.3; stroke-width: 0.8"/>
     </g>
     <g id="line2d_20">
      <g>
       <use xlink:href="#m8d038be774" x="42.77" y="97.802004" style="stroke: #000000; stroke-width: 0.8"/>
      </g>
     </g>
     <g id="text_11">
      <!-- 6 -->
      <g transform="translate(30.340469 101.927004) scale(0.11 -0.11)">
       <use xlink:href="#RobotoCondensed-Regular-36"/>
      </g>
     </g>
    </g>
    <g id="text_12">
     <!-- Best Distance to Target $\downarrow$ -->
     <g transform="translate(23.820469 212.7995) rotate(-90) scale(0.12 -0.12)">
      <defs>
       <path id="RobotoCondensed-Regular-65" d="M 2722 447 
Q 2584 253 2323 95 
Q 2063 -63 1625 -63 
Q 1019 -63 666 301 
Q 313 666 309 1431 
L 309 1828 
Q 309 2722 696 3083 
Q 1084 3444 1563 3444 
Q 2197 3444 2472 3034 
Q 2747 2625 2747 1850 
L 2747 1528 
L 863 1528 
L 863 1447 
Q 863 906 1067 657 
Q 1272 409 1656 409 
Q 1934 409 2114 517 
Q 2294 625 2431 794 
L 2722 447 
z
M 1563 2969 
Q 1275 2969 1084 2770 
Q 894 2572 866 2000 
L 2194 2000 
L 2194 2078 
Q 2172 2469 2048 2719 
Q 1925 2969 1563 2969 
z
" transform="scale(0.015625)"/>
       <path id="RobotoCondensed-Regular-73" d="M 2056 866 
Q 2056 1059 1907 1190 
Q 1759 1322 1340 1500 
Q 922 1678 681 1863 
Q 409 2072 409 2484 
Q 409 2888 703 3166 
Q 997 3444 1481 3444 
Q 2000 3444 2287 3150 
Q 2575 2856 2575 2419 
L 2025 2419 
Q 2025 2628 1884 2798 
Q 1744 2969 1481 2969 
Q 1203 2969 1083 2828 
Q 963 2688 963 2503 
Q 963 2319 1081 2217 
Q 1200 2116 1553 1959 
Q 2066 1756 2337 1537 
Q 2609 1319 2609 909 
Q 2609 463 2303 200 
Q 1997 -63 1494 -63 
Q 919 -63 616 265 
Q 313 594 313 1013 
L 866 1013 
Q 881 653 1081 533 
Q 1281 413 1494 413 
Q 2056 413 2056 866 
z
" transform="scale(0.015625)"/>
       <path id="RobotoCondensed-Regular-74" d="M 1647 0 
Q 1488 -63 1259 -63 
Q 991 -63 789 134 
Q 588 331 588 841 
L 588 2938 
L 72 2938 
L 72 3381 
L 588 3381 
L 588 4203 
L 1141 4203 
L 1141 3381 
L 1650 3381 
L 1650 2938 
L 1141 2938 
L 1141 838 
Q 1141 578 1230 506 
Q 1319 434 1431 434 
Q 1550 434 1650 472 
L 1647 0 
z
" transform="scale(0.015625)"/>
       <path id="RobotoCondensed-Regular-44" d="M 491 0 
L 491 4550 
L 1575 4550 
Q 2344 4550 2800 4070 
Q 3256 3591 3256 2659 
L 3256 1888 
Q 3256 956 2797 478 
Q 2338 0 1522 0 
L 491 0 
z
M 1066 4056 
L 1066 491 
L 1522 491 
Q 2128 491 2404 836 
Q 2681 1181 2688 1856 
L 2688 2666 
Q 2688 3388 2413 3722 
Q 2138 4056 1575 4056 
L 1066 4056 
z
" transform="scale(0.015625)"/>
       <path id="RobotoCondensed-Regular-69" d="M 428 4278 
Q 428 4419 506 4516 
Q 584 4613 741 4613 
Q 894 4613 975 4516 
Q 1056 4419 1056 4278 
Q 1056 4144 975 4048 
Q 894 3953 741 3953 
Q 584 3953 506 4048 
Q 428 4144 428 4278 
z
M 1009 3381 
L 1009 0 
L 459 0 
L 459 3381 
L 1009 3381 
z
" transform="scale(0.015625)"/>
       <path id="RobotoCondensed-Regular-61" d="M 2156 0 
Q 2103 122 2081 366 
Q 1966 194 1775 65 
Q 1584 -63 1334 -63 
Q 891 -63 623 187 
Q 356 438 356 922 
Q 356 1409 690 1729 
Q 1025 2050 1691 2050 
L 2072 2050 
L 2072 2413 
Q 2072 2713 1936 2841 
Q 1800 2969 1528 2969 
Q 1263 2969 1114 2812 
Q 966 2656 966 2444 
L 413 2444 
Q 413 2806 722 3125 
Q 1031 3444 1556 3444 
Q 2025 3444 2325 3209 
Q 2625 2975 2625 2406 
L 2625 794 
Q 2625 316 2728 50 
L 2728 0 
L 2156 0 
z
M 1419 441 
Q 1653 441 1825 562 
Q 1997 684 2072 834 
L 2072 1644 
L 1781 1644 
Q 1384 1644 1146 1475 
Q 909 1306 909 991 
Q 909 688 1036 564 
Q 1163 441 1419 441 
z
" transform="scale(0.015625)"/>
       <path id="RobotoCondensed-Regular-63" d="M 1588 409 
Q 1834 409 2012 564 
Q 2191 719 2213 1069 
L 2731 1069 
Q 2713 559 2378 248 
Q 2044 -63 1588 -63 
Q 934 -63 621 342 
Q 309 747 303 1472 
L 303 1881 
Q 303 2619 617 3031 
Q 931 3444 1588 3444 
Q 2103 3444 2408 3120 
Q 2713 2797 2731 2219 
L 2213 2219 
Q 2169 2969 1588 2969 
Q 1150 2969 1003 2672 
Q 856 2375 856 1881 
L 856 1500 
Q 856 1003 1001 706 
Q 1147 409 1588 409 
z
" transform="scale(0.015625)"/>
       <path id="RobotoCondensed-Regular-54" d="M 191 4056 
L 191 4550 
L 3150 4550 
L 3150 4056 
L 1953 4056 
L 1953 0 
L 1384 0 
L 1384 4056 
L 191 4056 
z
" transform="scale(0.015625)"/>
       <path id="RobotoCondensed-Regular-72" d="M 1563 2888 
Q 1138 2888 969 2425 
L 969 0 
L 416 0 
L 416 3381 
L 950 3381 
L 963 3041 
Q 1184 3444 1591 3444 
Q 1738 3444 1809 3400 
L 1813 2863 
Q 1691 2888 1563 2888 
z
" transform="scale(0.015625)"/>
       <path id="RobotoCondensed-Regular-67" d="M 1525 -1334 
Q 1331 -1334 1007 -1229 
Q 684 -1125 497 -906 
L 725 -522 
Q 1056 -859 1484 -859 
Q 1806 -859 2000 -679 
Q 2194 -500 2194 -56 
L 2194 338 
Q 1925 -63 1428 -63 
Q 919 -63 611 331 
Q 303 725 303 1528 
L 303 1844 
Q 303 2678 608 3061 
Q 913 3444 1434 3444 
Q 1953 3444 2219 3006 
L 2247 3381 
L 2744 3381 
L 2744 -41 
Q 2741 -703 2402 -1018 
Q 2063 -1334 1525 -1334 
z
M 856 1528 
Q 856 963 1025 695 
Q 1194 428 1572 428 
Q 1988 428 2194 853 
L 2194 2541 
Q 1978 2956 1578 2956 
Q 1197 2956 1028 2687 
Q 859 2419 856 1866 
L 856 1528 
z
" transform="scale(0.015625)"/>
       <path id="DejaVuSans-2193" d="M 2822 -22 
L 2541 -22 
L 1309 1209 
L 1684 1584 
L 2416 853 
L 2416 4666 
L 2947 4666 
L 2947 853 
L 3672 1584 
L 4047 1209 
L 2822 -22 
z
" transform="scale(0.015625)"/>
      </defs>
      <use xlink:href="#RobotoCondensed-Regular-42" transform="translate(0 0.09375)"/>
      <use xlink:href="#RobotoCondensed-Regular-65" transform="translate(54.589844 0.09375)"/>
      <use xlink:href="#RobotoCondensed-Regular-73" transform="translate(101.464844 0.09375)"/>
      <use xlink:href="#RobotoCondensed-Regular-74" transform="translate(147.070312 0.09375)"/>
      <use xlink:href="#RobotoCondensed-Regular-20" transform="translate(176.660156 0.09375)"/>
      <use xlink:href="#RobotoCondensed-Regular-44" transform="translate(199.609375 0.09375)"/>
      <use xlink:href="#RobotoCondensed-Regular-69" transform="translate(256.689453 0.09375)"/>
      <use xlink:href="#RobotoCondensed-Regular-73" transform="translate(279.638672 0.09375)"/>
      <use xlink:href="#RobotoCondensed-Regular-74" transform="translate(325.244141 0.09375)"/>
      <use xlink:href="#RobotoCondensed-Regular-61" transform="translate(354.833984 0.09375)"/>
      <use xlink:href="#RobotoCondensed-Regular-6e" transform="translate(402.734375 0.09375)"/>
      <use xlink:href="#RobotoCondensed-Regular-63" transform="translate(451.171875 0.09375)"/>
      <use xlink:href="#RobotoCondensed-Regular-65" transform="translate(497.363281 0.09375)"/>
      <use xlink:href="#RobotoCondensed-Regular-20" transform="translate(544.238281 0.09375)"/>
      <use xlink:href="#RobotoCondensed-Regular-74" transform="translate(567.1875 0.09375)"/>
      <use xlink:href="#RobotoCondensed-Regular-6f" transform="translate(596.777344 0.09375)"/>
      <use xlink:href="#RobotoCondensed-Regular-20" transform="translate(646.972656 0.09375)"/>
      <use xlink:href="#RobotoCondensed-Regular-54" transform="translate(669.921875 0.09375)"/>
      <use xlink:href="#RobotoCondensed-Regular-61" transform="translate(721.972656 0.09375)"/>
      <use xlink:href="#RobotoCondensed-Regular-72" transform="translate(769.873047 0.09375)"/>
      <use xlink:href="#RobotoCondensed-Regular-67" transform="translate(800.341797 0.09375)"/>
      <use xlink:href="#RobotoCondensed-Regular-65" transform="translate(849.658203 0.09375)"/>
      <use xlink:href="#RobotoCondensed-Regular-74" transform="translate(896.533203 0.09375)"/>
      <use xlink:href="#RobotoCondensed-Regular-20" transform="translate(926.123047 0.09375)"/>
      <use xlink:href="#DejaVuSans-2193" transform="translate(968.554688 0.09375)"/>
     </g>
    </g>
   </g>
   <g id="FillBetweenPolyCollection_1">
    <defs>
     <path id="m581341c248" d="M 42.77 -226.5755 
L 42.77 -182.489651 
L 50.78115 -182.489651 
L 58.7923 -181.801795 
L 66.80345 -181.801795 
L 74.8146 -181.801795 
L 82.82575 -181.801795 
L 90.8369 -181.801795 
L 98.84805 -181.801795 
L 106.8592 -181.801795 
L 114.87035 -181.801795 
L 122.8815 -181.801795 
L 130.89265 -181.801795 
L 138.9038 -181.801795 
L 146.91495 -181.801795 
L 154.9261 -181.801795 
L 162.93725 -181.801795 
L 170.9484 -181.801795 
L 178.95955 -181.801795 
L 186.9707 -181.801795 
L 194.98185 -181.801795 
L 202.993 -181.801795 
L 211.00415 -181.801795 
L 219.0153 -181.801795 
L 227.02645 -181.801795 
L 235.0376 -181.801795 
L 243.04875 -181.801795 
L 251.0599 -181.359719 
L 259.07105 -180.413114 
L 267.0822 -155.208026 
L 275.09335 -145.068529 
L 283.1045 -145.068529 
L 291.11565 -145.068529 
L 299.1268 -145.068529 
L 307.13795 -141.16513 
L 315.1491 -141.16513 
L 323.16025 -141.16513 
L 331.1714 -141.16513 
L 339.18255 -141.16513 
L 347.1937 -141.16513 
L 355.20485 -141.16513 
L 363.216 -141.16513 
L 371.22715 -141.16513 
L 379.2383 -141.16513 
L 387.24945 -141.16513 
L 395.2606 -141.16513 
L 403.27175 -141.16513 
L 411.2829 -141.16513 
L 419.29405 -141.16513 
L 427.3052 -141.16513 
L 435.31635 -141.16513 
L 443.3275 -141.16513 
L 451.33865 -141.16513 
L 459.3498 -141.16513 
L 467.36095 -141.16513 
L 475.3721 -141.16513 
L 483.38325 -141.16513 
L 491.3944 -141.16513 
L 499.40555 -141.16513 
L 507.4167 -141.16513 
L 515.42785 -141.16513 
L 523.439 -141.16513 
L 531.45015 -141.16513 
L 539.4613 -141.16513 
L 547.47245 -141.16513 
L 555.4836 -141.16513 
L 563.49475 -141.16513 
L 571.5059 -141.16513 
L 579.51705 -141.16513 
L 587.5282 -141.16513 
L 595.53935 -141.16513 
L 603.5505 -141.16513 
L 611.56165 -141.16513 
L 619.5728 -141.16513 
L 627.58395 -141.16513 
L 635.5951 -141.16513 
L 643.60625 -141.16513 
L 651.6174 -141.16513 
L 659.62855 -141.16513 
L 667.6397 -141.16513 
L 675.65085 -141.16513 
L 683.662 -141.16513 
L 691.67315 -141.16513 
L 699.6843 -141.16513 
L 707.69545 -141.16513 
L 715.7066 -141.16513 
L 723.71775 -141.16513 
L 731.7289 -141.16513 
L 739.74005 -141.16513 
L 747.7512 -141.16513 
L 755.76235 -141.16513 
L 763.7735 -141.16513 
L 771.78465 -141.16513 
L 779.7958 -141.16513 
L 787.80695 -141.16513 
L 795.8181 -141.16513 
L 803.82925 -141.16513 
L 811.8404 -141.16513 
L 819.85155 -141.16513 
L 827.8627 -141.16513 
L 835.87385 -141.16513 
L 843.885 -141.16513 
L 843.885 -160.237855 
L 843.885 -160.237855 
L 835.87385 -160.237855 
L 827.8627 -160.237855 
L 819.85155 -160.237855 
L 811.8404 -160.237855 
L 803.82925 -160.237855 
L 795.8181 -160.237855 
L 787.80695 -160.237855 
L 779.7958 -160.237855 
L 771.78465 -160.237855 
L 763.7735 -160.237855 
L 755.76235 -160.237855 
L 747.7512 -160.237855 
L 739.74005 -160.237855 
L 731.7289 -160.237855 
L 723.71775 -160.237855 
L 715.7066 -160.237855 
L 707.69545 -160.237855 
L 699.6843 -160.237855 
L 691.67315 -160.237855 
L 683.662 -160.237855 
L 675.65085 -160.237855 
L 667.6397 -160.237855 
L 659.62855 -160.237855 
L 651.6174 -160.237855 
L 643.60625 -160.237855 
L 635.5951 -160.237855 
L 627.58395 -160.237855 
L 619.5728 -160.237855 
L 611.56165 -160.237855 
L 603.5505 -160.237855 
L 595.53935 -160.237855 
L 587.5282 -160.237855 
L 579.51705 -160.237855 
L 571.5059 -160.237855 
L 563.49475 -160.237855 
L 555.4836 -160.237855 
L 547.47245 -160.237855 
L 539.4613 -160.237855 
L 531.45015 -160.237855 
L 523.439 -160.237855 
L 515.42785 -160.237855 
L 507.4167 -160.237855 
L 499.40555 -160.237855 
L 491.3944 -160.237855 
L 483.38325 -160.237855 
L 475.3721 -160.237855 
L 467.36095 -160.237855 
L 459.3498 -160.237855 
L 451.33865 -160.237855 
L 443.3275 -160.237855 
L 435.31635 -160.237855 
L 427.3052 -160.237855 
L 419.29405 -160.237855 
L 411.2829 -160.237855 
L 403.27175 -160.237855 
L 395.2606 -160.237855 
L 387.24945 -160.237855 
L 379.2383 -160.237855 
L 371.22715 -160.237855 
L 363.216 -160.237855 
L 355.20485 -160.237855 
L 347.1937 -160.237855 
L 339.18255 -160.237855 
L 331.1714 -160.237855 
L 323.16025 -160.237855 
L 315.1491 -160.237855 
L 307.13795 -160.237855 
L 299.1268 -171.611567 
L 291.11565 -171.611567 
L 283.1045 -171.611567 
L 275.09335 -171.611567 
L 267.0822 -190.586499 
L 259.07105 -221.844444 
L 251.0599 -223.955689 
L 243.04875 -224.86503 
L 235.0376 -224.86503 
L 227.02645 -224.86503 
L 219.0153 -224.86503 
L 211.00415 -224.86503 
L 202.993 -224.86503 
L 194.98185 -224.86503 
L 186.9707 -224.86503 
L 178.95955 -224.86503 
L 170.9484 -224.86503 
L 162.93725 -224.86503 
L 154.9261 -224.86503 
L 146.91495 -224.86503 
L 138.9038 -224.86503 
L 130.89265 -224.86503 
L 122.8815 -224.86503 
L 114.87035 -224.86503 
L 106.8592 -224.86503 
L 98.84805 -224.86503 
L 90.8369 -224.86503 
L 82.82575 -224.86503 
L 74.8146 -224.86503 
L 66.80345 -224.86503 
L 58.7923 -224.86503 
L 50.78115 -226.5755 
L 42.77 -226.5755 
z
" style="stroke: #808080; stroke-opacity: 0.15; stroke-width: 2"/>
    </defs>
    <g clip-path="url(#p27150eaff6)">
     <use xlink:href="#m581341c248" x="0" y="288" style="fill: #808080; fill-opacity: 0.15; stroke: #808080; stroke-opacity: 0.15; stroke-width: 2"/>
    </g>
   </g>
   <g id="FillBetweenPolyCollection_2">
    <defs>
     <path id="ma797c72ca6" d="M 42.77 -226.5755 
L 42.77 -182.489651 
L 50.78115 -168.379507 
L 58.7923 -165.102612 
L 66.80345 -162.426038 
L 74.8146 -161.16491 
L 82.82575 -159.802257 
L 90.8369 -159.802257 
L 98.84805 -157.285398 
L 106.8592 -157.285398 
L 114.87035 -157.285398 
L 122.8815 -148.538329 
L 130.89265 -148.302245 
L 138.9038 -146.758279 
L 146.91495 -142.241824 
L 154.9261 -122.976837 
L 162.93725 -122.976837 
L 170.9484 -121.736565 
L 178.95955 -120.73133 
L 186.9707 -119.963298 
L 194.98185 -119.963298 
L 202.993 -116.126043 
L 211.00415 -115.082563 
L 219.0153 -112.384356 
L 227.02645 -112.384356 
L 235.0376 -112.384356 
L 243.04875 -111.837956 
L 251.0599 -111.361749 
L 259.07105 -110.280158 
L 267.0822 -110.280158 
L 275.09335 -110.280158 
L 283.1045 -110.280158 
L 291.11565 -109.579702 
L 299.1268 -109.579702 
L 307.13795 -108.799312 
L 315.1491 -108.799312 
L 323.16025 -108.799312 
L 331.1714 -108.799312 
L 339.18255 -108.799312 
L 347.1937 -108.060001 
L 355.20485 -108.060001 
L 363.216 -107.908314 
L 371.22715 -106.28067 
L 379.2383 -105.371202 
L 387.24945 -105.371202 
L 395.2606 -105.371202 
L 403.27175 -105.371202 
L 411.2829 -105.371202 
L 419.29405 -105.371202 
L 427.3052 -105.371202 
L 435.31635 -105.371202 
L 443.3275 -105.371202 
L 451.33865 -102.934589 
L 459.3498 -102.934589 
L 467.36095 -102.934589 
L 475.3721 -102.092618 
L 483.38325 -102.092618 
L 491.3944 -102.092618 
L 499.40555 -102.092618 
L 507.4167 -102.092618 
L 515.42785 -102.092618 
L 523.439 -101.918888 
L 531.45015 -101.918888 
L 539.4613 -101.918888 
L 547.47245 -101.918888 
L 555.4836 -101.918888 
L 563.49475 -101.918888 
L 571.5059 -101.918888 
L 579.51705 -101.746535 
L 587.5282 -101.746535 
L 595.53935 -101.746535 
L 603.5505 -101.746535 
L 611.56165 -101.746535 
L 619.5728 -101.746535 
L 627.58395 -101.746535 
L 635.5951 -101.746535 
L 643.60625 -101.746535 
L 651.6174 -101.746535 
L 659.62855 -101.746535 
L 667.6397 -101.746535 
L 675.65085 -101.746535 
L 683.662 -100.517118 
L 691.67315 -100.517118 
L 699.6843 -100.517118 
L 707.69545 -100.517118 
L 715.7066 -100.517118 
L 723.71775 -99.54716 
L 731.7289 -99.54716 
L 739.74005 -99.54716 
L 747.7512 -99.54716 
L 755.76235 -99.54716 
L 763.7735 -99.2473 
L 771.78465 -99.2473 
L 779.7958 -98.501617 
L 787.80695 -98.313226 
L 795.8181 -97.417747 
L 803.82925 -97.417747 
L 811.8404 -97.417747 
L 819.85155 -97.417747 
L 827.8627 -97.417747 
L 835.87385 -97.417747 
L 843.885 -88.731446 
L 843.885 -118.921984 
L 843.885 -118.921984 
L 835.87385 -129.079789 
L 827.8627 -129.079789 
L 819.85155 -129.079789 
L 811.8404 -129.079789 
L 803.82925 -129.079789 
L 795.8181 -129.079789 
L 787.80695 -131.239733 
L 779.7958 -131.637272 
L 771.78465 -133.361084 
L 763.7735 -133.361084 
L 755.76235 -133.578788 
L 747.7512 -133.578788 
L 739.74005 -133.578788 
L 731.7289 -133.578788 
L 723.71775 -133.578788 
L 715.7066 -135.664253 
L 707.69545 -135.664253 
L 699.6843 -135.664253 
L 691.67315 -135.664253 
L 683.662 -135.664253 
L 675.65085 -136.236107 
L 667.6397 -136.236107 
L 659.62855 -136.236107 
L 651.6174 -136.236107 
L 643.60625 -136.236107 
L 635.5951 -136.236107 
L 627.58395 -136.236107 
L 619.5728 -136.236107 
L 611.56165 -136.236107 
L 603.5505 -136.236107 
L 595.53935 -136.236107 
L 587.5282 -136.236107 
L 579.51705 -136.236107 
L 571.5059 -136.649683 
L 563.49475 -136.649683 
L 555.4836 -136.649683 
L 547.47245 -136.649683 
L 539.4613 -136.649683 
L 531.45015 -136.649683 
L 523.439 -136.649683 
L 515.42785 -137.061881 
L 507.4167 -137.061881 
L 499.40555 -137.061881 
L 491.3944 -137.061881 
L 483.38325 -137.061881 
L 475.3721 -137.061881 
L 467.36095 -139.27533 
L 459.3498 -139.27533 
L 451.33865 -139.27533 
L 443.3275 -140.772794 
L 435.31635 -140.772794 
L 427.3052 -140.772794 
L 419.29405 -140.772794 
L 411.2829 -140.772794 
L 403.27175 -140.772794 
L 395.2606 -140.772794 
L 387.24945 -140.772794 
L 379.2383 -140.772794 
L 371.22715 -142.918747 
L 363.216 -147.401948 
L 355.20485 -147.836188 
L 347.1937 -147.836188 
L 339.18255 -150.152299 
L 331.1714 -150.152299 
L 323.16025 -150.152299 
L 315.1491 -150.152299 
L 307.13795 -150.152299 
L 299.1268 -152.427331 
L 291.11565 -152.427331 
L 283.1045 -154.782299 
L 275.09335 -154.782299 
L 267.0822 -154.782299 
L 259.07105 -154.782299 
L 251.0599 -156.756127 
L 243.04875 -156.997714 
L 235.0376 -158.104349 
L 227.02645 -158.104349 
L 219.0153 -158.104349 
L 211.00415 -159.432345 
L 202.993 -162.586588 
L 194.98185 -167.829091 
L 186.9707 -167.829091 
L 178.95955 -170.116483 
L 170.9484 -171.822505 
L 162.93725 -176.040278 
L 154.9261 -176.040278 
L 146.91495 -192.136637 
L 138.9038 -194.169655 
L 130.89265 -196.629441 
L 122.8815 -197.421183 
L 114.87035 -200.967815 
L 106.8592 -200.967815 
L 98.84805 -200.967815 
L 90.8369 -204.480897 
L 82.82575 -204.480897 
L 74.8146 -206.173668 
L 66.80345 -207.967963 
L 58.7923 -211.40223 
L 50.78115 -216.659384 
L 42.77 -226.5755 
z
" style="stroke: #7c92ff; stroke-opacity: 0.15; stroke-width: 2"/>
    </defs>
    <g clip-path="url(#p27150eaff6)">
     <use xlink:href="#ma797c72ca6" x="0" y="288" style="fill: #7c92ff; fill-opacity: 0.15; stroke: #7c92ff; stroke-opacity: 0.15; stroke-width: 2"/>
    </g>
   </g>
   <g id="FillBetweenPolyCollection_3">
    <defs>
     <path id="m6c76bee0a0" d="M 42.77 -226.5755 
L 42.77 -182.489651 
L 50.78115 -173.137973 
L 58.7923 -148.583104 
L 66.80345 -138.770238 
L 74.8146 -116.043813 
L 82.82575 -101.062718 
L 90.8369 -93.298559 
L 98.84805 -92.561168 
L 106.8592 -85.623247 
L 114.87035 -78.95873 
L 122.8815 -72.576741 
L 130.89265 -66.500579 
L 138.9038 -61.603733 
L 146.91495 -61.603733 
L 154.9261 -61.603733 
L 162.93725 -61.603733 
L 170.9484 -61.603733 
L 178.95955 -61.603733 
L 186.9707 -61.603733 
L 194.98185 -61.603733 
L 202.993 -61.366149 
L 211.00415 -59.21423 
L 219.0153 -57.655508 
L 227.02645 -55.296116 
L 235.0376 -55.296116 
L 243.04875 -54.645667 
L 251.0599 -54.645667 
L 259.07105 -54.645667 
L 267.0822 -53.491357 
L 275.09335 -53.491357 
L 283.1045 -53.491357 
L 291.11565 -53.491357 
L 299.1268 -53.491357 
L 307.13795 -53.491357 
L 315.1491 -53.491357 
L 323.16025 -53.491357 
L 331.1714 -53.491357 
L 339.18255 -52.966708 
L 347.1937 -52.966708 
L 355.20485 -52.966708 
L 363.216 -52.966708 
L 371.22715 -52.966708 
L 379.2383 -52.966708 
L 387.24945 -52.966708 
L 395.2606 -52.966708 
L 403.27175 -52.966708 
L 411.2829 -52.966708 
L 419.29405 -52.966708 
L 427.3052 -52.966708 
L 435.31635 -52.966708 
L 443.3275 -52.966708 
L 451.33865 -52.966708 
L 459.3498 -52.966708 
L 467.36095 -52.966708 
L 475.3721 -52.966708 
L 483.38325 -52.828841 
L 491.3944 -52.828841 
L 499.40555 -52.828841 
L 507.4167 -52.4655 
L 515.42785 -52.4655 
L 523.439 -52.4655 
L 531.45015 -52.4655 
L 539.4613 -52.4655 
L 547.47245 -52.4655 
L 555.4836 -52.4655 
L 563.49475 -52.4655 
L 571.5059 -52.4655 
L 579.51705 -52.4655 
L 587.5282 -52.4655 
L 595.53935 -52.4655 
L 603.5505 -52.4655 
L 611.56165 -52.4655 
L 619.5728 -52.4655 
L 627.58395 -52.4655 
L 635.5951 -52.4655 
L 643.60625 -52.4655 
L 651.6174 -52.4655 
L 659.62855 -52.4655 
L 667.6397 -52.4655 
L 675.65085 -52.4655 
L 683.662 -52.4655 
L 691.67315 -52.4655 
L 699.6843 -52.4655 
L 707.69545 -52.4655 
L 715.7066 -52.4655 
L 723.71775 -52.4655 
L 731.7289 -52.4655 
L 739.74005 -52.4655 
L 747.7512 -52.4655 
L 755.76235 -52.4655 
L 763.7735 -52.4655 
L 771.78465 -52.4655 
L 779.7958 -52.4655 
L 787.80695 -52.4655 
L 795.8181 -52.4655 
L 803.82925 -52.4655 
L 811.8404 -52.4655 
L 819.85155 -52.4655 
L 827.8627 -52.4655 
L 835.87385 -52.4655 
L 843.885 -52.4655 
L 843.885 -52.4655 
L 843.885 -52.4655 
L 835.87385 -52.4655 
L 827.8627 -52.4655 
L 819.85155 -52.4655 
L 811.8404 -52.4655 
L 803.82925 -52.4655 
L 795.8181 -52.4655 
L 787.80695 -52.4655 
L 779.7958 -52.4655 
L 771.78465 -52.4655 
L 763.7735 -52.4655 
L 755.76235 -52.4655 
L 747.7512 -52.4655 
L 739.74005 -52.4655 
L 731.7289 -52.4655 
L 723.71775 -52.4655 
L 715.7066 -52.4655 
L 707.69545 -52.4655 
L 699.6843 -52.4655 
L 691.67315 -52.4655 
L 683.662 -52.4655 
L 675.65085 -52.4655 
L 667.6397 -52.4655 
L 659.62855 -52.4655 
L 651.6174 -52.4655 
L 643.60625 -52.4655 
L 635.5951 -52.4655 
L 627.58395 -52.4655 
L 619.5728 -52.4655 
L 611.56165 -52.4655 
L 603.5505 -52.4655 
L 595.53935 -53.555524 
L 587.5282 -53.555524 
L 579.51705 -53.555524 
L 571.5059 -53.555524 
L 563.49475 -53.555524 
L 555.4836 -53.555524 
L 547.47245 -53.555524 
L 539.4613 -53.555524 
L 531.45015 -53.555524 
L 523.439 -53.555524 
L 515.42785 -53.555524 
L 507.4167 -53.555524 
L 499.40555 -54.282207 
L 491.3944 -54.282207 
L 483.38325 -54.282207 
L 475.3721 -55.882195 
L 467.36095 -55.882195 
L 459.3498 -55.882195 
L 451.33865 -55.882195 
L 443.3275 -55.882195 
L 435.31635 -55.882195 
L 427.3052 -55.882195 
L 419.29405 -55.882195 
L 411.2829 -55.882195 
L 403.27175 -55.882195 
L 395.2606 -55.882195 
L 387.24945 -55.882195 
L 379.2383 -55.882195 
L 371.22715 -55.882195 
L 363.216 -55.882195 
L 355.20485 -55.882195 
L 347.1937 -55.882195 
L 339.18255 -55.882195 
L 331.1714 -56.44757 
L 323.16025 -56.44757 
L 315.1491 -56.44757 
L 307.13795 -56.44757 
L 299.1268 -56.44757 
L 291.11565 -56.44757 
L 283.1045 -56.44757 
L 275.09335 -56.44757 
L 267.0822 -56.44757 
L 259.07105 -59.119319 
L 251.0599 -59.119319 
L 243.04875 -59.119319 
L 235.0376 -63.382424 
L 227.02645 -63.382424 
L 219.0153 -75.862268 
L 211.00415 -77.319223 
L 202.993 -79.133183 
L 194.98185 -93.748299 
L 186.9707 -93.748299 
L 178.95955 -93.748299 
L 170.9484 -93.748299 
L 162.93725 -93.748299 
L 154.9261 -93.748299 
L 146.91495 -93.748299 
L 138.9038 -93.748299 
L 130.89265 -102.066084 
L 122.8815 -109.732308 
L 114.87035 -117.092703 
L 106.8592 -124.170572 
L 98.84805 -130.975035 
L 90.8369 -131.442048 
L 82.82575 -146.197012 
L 74.8146 -166.457083 
L 66.80345 -185.528781 
L 58.7923 -193.044938 
L 50.78115 -216.741799 
L 42.77 -226.5755 
z
" style="stroke: #69f7ae; stroke-opacity: 0.15; stroke-width: 2"/>
    </defs>
    <g clip-path="url(#p27150eaff6)">
     <use xlink:href="#m6c76bee0a0" x="0" y="288" style="fill: #69f7ae; fill-opacity: 0.15; stroke: #69f7ae; stroke-opacity: 0.15; stroke-width: 2"/>
    </g>
   </g>
   <g id="patch_3">
    <path d="M 42.77 244.24 
L 42.77 52.719 
" style="fill: none; stroke: #000000; stroke-width: 0.8; stroke-linejoin: miter; stroke-linecap: square"/>
   </g>
   <g id="patch_4">
    <path d="M 843.885 244.24 
L 843.885 52.719 
" style="fill: none; stroke: #000000; stroke-width: 0.8; stroke-linejoin: miter; stroke-linecap: square"/>
   </g>
   <g id="patch_5">
    <path d="M 42.77 244.24 
L 843.885 244.24 
" style="fill: none; stroke: #000000; stroke-width: 0.8; stroke-linejoin: miter; stroke-linecap: square"/>
   </g>
   <g id="patch_6">
    <path d="M 42.77 52.719 
L 843.885 52.719 
" style="fill: none; stroke: #000000; stroke-width: 0.8; stroke-linejoin: miter; stroke-linecap: square"/>
   </g>
   <g id="line2d_21">
    <path d="M 42.77 83.467425 
L 50.78115 83.467425 
L 58.7923 84.666588 
L 66.80345 84.666588 
L 74.8146 84.666588 
L 82.82575 84.666588 
L 90.8369 84.666588 
L 98.84805 84.666588 
L 106.8592 84.666588 
L 114.87035 84.666588 
L 122.8815 84.666588 
L 130.89265 84.666588 
L 138.9038 84.666588 
L 146.91495 84.666588 
L 154.9261 84.666588 
L 162.93725 84.666588 
L 170.9484 84.666588 
L 178.95955 84.666588 
L 186.9707 84.666588 
L 194.98185 84.666588 
L 202.993 84.666588 
L 211.00415 84.666588 
L 219.0153 84.666588 
L 227.02645 84.666588 
L 235.0376 84.666588 
L 243.04875 84.666588 
L 251.0599 85.342296 
L 259.07105 86.871221 
L 267.0822 115.102738 
L 275.09335 129.659952 
L 283.1045 129.659952 
L 291.11565 129.659952 
L 299.1268 129.659952 
L 307.13795 137.298508 
L 315.1491 137.298508 
L 323.16025 137.298508 
L 331.1714 137.298508 
L 339.18255 137.298508 
L 347.1937 137.298508 
L 355.20485 137.298508 
L 363.216 137.298508 
L 371.22715 137.298508 
L 379.2383 137.298508 
L 387.24945 137.298508 
L 395.2606 137.298508 
L 403.27175 137.298508 
L 411.2829 137.298508 
L 419.29405 137.298508 
L 427.3052 137.298508 
L 435.31635 137.298508 
L 443.3275 137.298508 
L 451.33865 137.298508 
L 459.3498 137.298508 
L 467.36095 137.298508 
L 475.3721 137.298508 
L 483.38325 137.298508 
L 491.3944 137.298508 
L 499.40555 137.298508 
L 507.4167 137.298508 
L 515.42785 137.298508 
L 523.439 137.298508 
L 531.45015 137.298508 
L 539.4613 137.298508 
L 547.47245 137.298508 
L 555.4836 137.298508 
L 563.49475 137.298508 
L 571.5059 137.298508 
L 579.51705 137.298508 
L 587.5282 137.298508 
L 595.53935 137.298508 
L 603.5505 137.298508 
L 611.56165 137.298508 
L 619.5728 137.298508 
L 627.58395 137.298508 
L 635.5951 137.298508 
L 643.60625 137.298508 
L 651.6174 137.298508 
L 659.62855 137.298508 
L 667.6397 137.298508 
L 675.65085 137.298508 
L 683.662 137.298508 
L 691.67315 137.298508 
L 699.6843 137.298508 
L 707.69545 137.298508 
L 715.7066 137.298508 
L 723.71775 137.298508 
L 731.7289 137.298508 
L 739.74005 137.298508 
L 747.7512 137.298508 
L 755.76235 137.298508 
L 763.7735 137.298508 
L 771.78465 137.298508 
L 779.7958 137.298508 
L 787.80695 137.298508 
L 795.8181 137.298508 
L 803.82925 137.298508 
L 811.8404 137.298508 
L 819.85155 137.298508 
L 827.8627 137.298508 
L 835.87385 137.298508 
L 843.885 137.298508 
" clip-path="url(#p27150eaff6)" style="fill: none; stroke: #808080; stroke-width: 2.5; stroke-linecap: square"/>
   </g>
   <g id="line2d_22">
    <path d="M 42.77 83.467425 
L 50.78115 95.480554 
L 58.7923 99.747579 
L 66.80345 102.803 
L 74.8146 104.330711 
L 82.82575 105.858423 
L 90.8369 105.858423 
L 98.84805 108.873393 
L 106.8592 108.873393 
L 114.87035 108.873393 
L 122.8815 115.020244 
L 130.89265 115.534157 
L 138.9038 117.536033 
L 146.91495 120.81077 
L 154.9261 138.491443 
L 162.93725 138.491443 
L 170.9484 141.220465 
L 178.95955 142.576094 
L 186.9707 144.103806 
L 194.98185 144.103806 
L 202.993 148.643684 
L 211.00415 150.742546 
L 219.0153 152.755648 
L 227.02645 152.755648 
L 235.0376 152.755648 
L 243.04875 153.582165 
L 251.0599 153.941062 
L 259.07105 155.468772 
L 267.0822 155.468772 
L 275.09335 155.468772 
L 283.1045 155.468772 
L 291.11565 156.996484 
L 299.1268 156.996484 
L 307.13795 158.524195 
L 315.1491 158.524195 
L 323.16025 158.524195 
L 331.1714 158.524195 
L 339.18255 158.524195 
L 347.1937 160.051906 
L 355.20485 160.051906 
L 363.216 160.344869 
L 371.22715 163.400292 
L 379.2383 164.928002 
L 387.24945 164.928002 
L 395.2606 164.928002 
L 403.27175 164.928002 
L 411.2829 164.928002 
L 419.29405 164.928002 
L 427.3052 164.928002 
L 435.31635 164.928002 
L 443.3275 164.928002 
L 451.33865 166.895041 
L 459.3498 166.895041 
L 467.36095 166.895041 
L 475.3721 168.422751 
L 483.38325 168.422751 
L 491.3944 168.422751 
L 499.40555 168.422751 
L 507.4167 168.422751 
L 515.42785 168.422751 
L 523.439 168.715715 
L 531.45015 168.715715 
L 539.4613 168.715715 
L 547.47245 168.715715 
L 555.4836 168.715715 
L 563.49475 168.715715 
L 571.5059 168.715715 
L 579.51705 169.008679 
L 587.5282 169.008679 
L 595.53935 169.008679 
L 603.5505 169.008679 
L 611.56165 169.008679 
L 619.5728 169.008679 
L 627.58395 169.008679 
L 635.5951 169.008679 
L 643.60625 169.008679 
L 651.6174 169.008679 
L 659.62855 169.008679 
L 667.6397 169.008679 
L 675.65085 169.008679 
L 683.662 169.909314 
L 691.67315 169.909314 
L 699.6843 169.909314 
L 707.69545 169.909314 
L 715.7066 169.909314 
L 723.71775 171.437026 
L 731.7289 171.437026 
L 739.74005 171.437026 
L 747.7512 171.437026 
L 755.76235 171.437026 
L 763.7735 171.695808 
L 771.78465 171.695808 
L 779.7958 172.930556 
L 787.80695 173.22352 
L 795.8181 174.751232 
L 803.82925 174.751232 
L 811.8404 174.751232 
L 819.85155 174.751232 
L 827.8627 174.751232 
L 835.87385 174.751232 
L 843.885 184.173285 
" clip-path="url(#p27150eaff6)" style="fill: none; stroke: #7c92ff; stroke-width: 2.5; stroke-linecap: square"/>
   </g>
   <g id="line2d_23">
    <path d="M 42.77 83.467425 
L 50.78115 93.060114 
L 58.7923 117.185979 
L 66.80345 125.85049 
L 74.8146 146.749552 
L 82.82575 164.370135 
L 90.8369 175.629697 
L 98.84805 176.231898 
L 106.8592 183.103091 
L 114.87035 189.974283 
L 122.8815 196.845476 
L 130.89265 203.716668 
L 138.9038 210.323984 
L 146.91495 210.323984 
L 154.9261 210.323984 
L 162.93725 210.323984 
L 170.9484 210.323984 
L 178.95955 210.323984 
L 186.9707 210.323984 
L 194.98185 210.323984 
L 202.993 217.750334 
L 211.00415 219.733274 
L 219.0153 221.241112 
L 227.02645 228.66073 
L 235.0376 228.66073 
L 243.04875 231.117507 
L 251.0599 231.117507 
L 259.07105 231.117507 
L 267.0822 233.030536 
L 275.09335 233.030536 
L 283.1045 233.030536 
L 291.11565 233.030536 
L 299.1268 233.030536 
L 307.13795 233.030536 
L 315.1491 233.030536 
L 323.16025 233.030536 
L 331.1714 233.030536 
L 339.18255 233.575548 
L 347.1937 233.575548 
L 355.20485 233.575548 
L 363.216 233.575548 
L 371.22715 233.575548 
L 379.2383 233.575548 
L 387.24945 233.575548 
L 395.2606 233.575548 
L 403.27175 233.575548 
L 411.2829 233.575548 
L 419.29405 233.575548 
L 427.3052 233.575548 
L 435.31635 233.575548 
L 443.3275 233.575548 
L 451.33865 233.575548 
L 459.3498 233.575548 
L 467.36095 233.575548 
L 475.3721 233.575548 
L 483.38325 234.444476 
L 491.3944 234.444476 
L 499.40555 234.444476 
L 507.4167 234.989488 
L 515.42785 234.989488 
L 523.439 234.989488 
L 531.45015 234.989488 
L 539.4613 234.989488 
L 547.47245 234.989488 
L 555.4836 234.989488 
L 563.49475 234.989488 
L 571.5059 234.989488 
L 579.51705 234.989488 
L 587.5282 234.989488 
L 595.53935 234.989488 
L 603.5505 235.5345 
L 611.56165 235.5345 
L 619.5728 235.5345 
L 627.58395 235.5345 
L 635.5951 235.5345 
L 643.60625 235.5345 
L 651.6174 235.5345 
L 659.62855 235.5345 
L 667.6397 235.5345 
L 675.65085 235.5345 
L 683.662 235.5345 
L 691.67315 235.5345 
L 699.6843 235.5345 
L 707.69545 235.5345 
L 715.7066 235.5345 
L 723.71775 235.5345 
L 731.7289 235.5345 
L 739.74005 235.5345 
L 747.7512 235.5345 
L 755.76235 235.5345 
L 763.7735 235.5345 
L 771.78465 235.5345 
L 779.7958 235.5345 
L 787.80695 235.5345 
L 795.8181 235.5345 
L 803.82925 235.5345 
L 811.8404 235.5345 
L 819.85155 235.5345 
L 827.8627 235.5345 
L 835.87385 235.5345 
L 843.885 235.5345 
" clip-path="url(#p27150eaff6)" style="fill: none; stroke: #69f7ae; stroke-width: 2.5; stroke-linecap: square"/>
   </g>
   <g id="text_13">
    <!-- Best Value Evolution Over BO Rounds -->
    <g transform="translate(347.844531 22.56425) scale(0.13 -0.13)">
     <defs>
      <path id="RobotoCondensed-Regular-56" d="M 3459 4550 
L 2047 0 
L 1547 0 
L 134 4550 
L 759 4550 
L 1794 872 
L 2834 4550 
L 3459 4550 
z
" transform="scale(0.015625)"/>
      <path id="RobotoCondensed-Regular-6c" d="M 1009 4800 
L 1009 0 
L 459 0 
L 459 4800 
L 1009 4800 
z
" transform="scale(0.015625)"/>
      <path id="RobotoCondensed-Regular-45" d="M 491 0 
L 491 4550 
L 2906 4550 
L 2906 4056 
L 1066 4056 
L 1066 2594 
L 2672 2594 
L 2672 2103 
L 1066 2103 
L 1066 491 
L 2938 491 
L 2938 0 
L 491 0 
z
" transform="scale(0.015625)"/>
      <path id="RobotoCondensed-Regular-76" d="M 2578 3381 
L 1575 0 
L 1159 0 
L 144 3381 
L 706 3381 
L 1372 847 
L 2016 3381 
L 2578 3381 
z
" transform="scale(0.015625)"/>
     </defs>
     <use xlink:href="#RobotoCondensed-Regular-42"/>
     <use xlink:href="#RobotoCondensed-Regular-65" transform="translate(54.589844 0)"/>
     <use xlink:href="#RobotoCondensed-Regular-73" transform="translate(101.464844 0)"/>
     <use xlink:href="#RobotoCondensed-Regular-74" transform="translate(147.070312 0)"/>
     <use xlink:href="#RobotoCondensed-Regular-20" transform="translate(176.660156 0)"/>
     <use xlink:href="#RobotoCondensed-Regular-56" transform="translate(199.609375 0)"/>
     <use xlink:href="#RobotoCondensed-Regular-61" transform="translate(255.664062 0)"/>
     <use xlink:href="#RobotoCondensed-Regular-6c" transform="translate(303.564453 0)"/>
     <use xlink:href="#RobotoCondensed-Regular-75" transform="translate(326.513672 0)"/>
     <use xlink:href="#RobotoCondensed-Regular-65" transform="translate(374.853516 0)"/>
     <use xlink:href="#RobotoCondensed-Regular-20" transform="translate(421.728516 0)"/>
     <use xlink:href="#RobotoCondensed-Regular-45" transform="translate(444.677734 0)"/>
     <use xlink:href="#RobotoCondensed-Regular-76" transform="translate(494.384766 0)"/>
     <use xlink:href="#RobotoCondensed-Regular-6f" transform="translate(537.158203 0)"/>
     <use xlink:href="#RobotoCondensed-Regular-6c" transform="translate(587.353516 0)"/>
     <use xlink:href="#RobotoCondensed-Regular-75" transform="translate(610.302734 0)"/>
     <use xlink:href="#RobotoCondensed-Regular-74" transform="translate(658.642578 0)"/>
     <use xlink:href="#RobotoCondensed-Regular-69" transform="translate(688.232422 0)"/>
     <use xlink:href="#RobotoCondensed-Regular-6f" transform="translate(711.181641 0)"/>
     <use xlink:href="#RobotoCondensed-Regular-6e" transform="translate(761.376953 0)"/>
     <use xlink:href="#RobotoCondensed-Regular-20" transform="translate(809.814453 0)"/>
     <use xlink:href="#RobotoCondensed-Regular-4f" transform="translate(832.763672 0)"/>
     <use xlink:href="#RobotoCondensed-Regular-76" transform="translate(892.871094 0)"/>
     <use xlink:href="#RobotoCondensed-Regular-65" transform="translate(935.644531 0)"/>
     <use xlink:href="#RobotoCondensed-Regular-72" transform="translate(982.519531 0)"/>
     <use xlink:href="#RobotoCondensed-Regular-20" transform="translate(1012.988281 0)"/>
     <use xlink:href="#RobotoCondensed-Regular-42" transform="translate(1035.9375 0)"/>
     <use xlink:href="#RobotoCondensed-Regular-4f" transform="translate(1090.527344 0)"/>
     <use xlink:href="#RobotoCondensed-Regular-20" transform="translate(1150.634766 0)"/>
     <use xlink:href="#RobotoCondensed-Regular-52" transform="translate(1173.583984 0)"/>
     <use xlink:href="#RobotoCondensed-Regular-6f" transform="translate(1226.660156 0)"/>
     <use xlink:href="#RobotoCondensed-Regular-75" transform="translate(1276.855469 0)"/>
     <use xlink:href="#RobotoCondensed-Regular-6e" transform="translate(1325.195312 0)"/>
     <use xlink:href="#RobotoCondensed-Regular-64" transform="translate(1373.632812 0)"/>
     <use xlink:href="#RobotoCondensed-Regular-73" transform="translate(1423.242188 0)"/>
    </g>
    <!-- Embedding Size = 64 (mean ± std across trials) -->
    <g transform="translate(322.685469 37.719) scale(0.13 -0.13)">
     <defs>
      <path id="RobotoCondensed-Regular-6d" d="M 1556 2956 
Q 1141 2956 969 2544 
L 969 0 
L 419 0 
L 419 3381 
L 938 3381 
L 953 3075 
Q 1256 3444 1766 3444 
Q 2325 3444 2553 2953 
Q 2872 3444 3441 3444 
Q 3903 3444 4151 3153 
Q 4400 2863 4400 2222 
L 4400 0 
L 3847 0 
L 3847 2228 
Q 3847 2653 3692 2804 
Q 3538 2956 3272 2956 
Q 3016 2956 2864 2757 
Q 2713 2559 2684 2272 
L 2684 0 
L 2131 0 
L 2131 2272 
Q 2116 2956 1556 2956 
z
" transform="scale(0.015625)"/>
      <path id="RobotoCondensed-Regular-62" d="M 2866 1528 
Q 2866 725 2575 331 
Q 2284 -63 1753 -63 
Q 1219 -63 950 400 
L 922 0 
L 416 0 
L 416 4800 
L 969 4800 
L 969 3016 
Q 1234 3444 1750 3444 
Q 2278 3444 2567 3073 
Q 2856 2703 2866 1897 
L 2866 1528 
z
M 1606 2956 
Q 1181 2956 969 2497 
L 969 884 
Q 1181 428 1609 428 
Q 1984 428 2146 690 
Q 2309 953 2313 1506 
L 2313 1844 
Q 2313 2406 2159 2681 
Q 2006 2956 1606 2956 
z
" transform="scale(0.015625)"/>
      <path id="RobotoCondensed-Regular-53" d="M 2481 1150 
Q 2481 1469 2312 1656 
Q 2144 1844 1591 2042 
Q 1038 2241 713 2547 
Q 388 2853 388 3375 
Q 388 3906 741 4259 
Q 1094 4613 1691 4613 
Q 2356 4613 2706 4191 
Q 3056 3769 3056 3238 
L 2481 3238 
Q 2481 3619 2293 3869 
Q 2106 4119 1691 4119 
Q 1313 4119 1139 3908 
Q 966 3697 966 3381 
Q 966 3094 1170 2903 
Q 1375 2713 1806 2556 
Q 2475 2338 2765 2013 
Q 3056 1688 3056 1156 
Q 3056 600 2695 268 
Q 2334 -63 1719 -63 
Q 1363 -63 1028 93 
Q 694 250 480 558 
Q 266 866 266 1319 
L 841 1319 
Q 841 853 1098 640 
Q 1356 428 1719 428 
Q 2094 428 2287 623 
Q 2481 819 2481 1150 
z
" transform="scale(0.015625)"/>
      <path id="RobotoCondensed-Regular-7a" d="M 306 2903 
L 306 3381 
L 2494 3381 
L 2494 2972 
L 931 475 
L 2556 475 
L 2556 0 
L 297 0 
L 297 425 
L 1844 2903 
L 306 2903 
z
" transform="scale(0.015625)"/>
      <path id="RobotoCondensed-Regular-3d" d="M 2653 3047 
L 2653 2544 
L 466 2544 
L 466 3047 
L 2653 3047 
z
M 2653 1750 
L 2653 1247 
L 466 1247 
L 466 1750 
L 2653 1750 
z
" transform="scale(0.015625)"/>
      <path id="RobotoCondensed-Regular-28" d="M 406 1850 
Q 406 2756 636 3434 
Q 866 4113 1177 4541 
Q 1488 4969 1728 5134 
L 1841 4753 
Q 1547 4475 1253 3761 
Q 959 3047 959 1813 
Q 959 625 1253 -97 
Q 1547 -819 1841 -1119 
L 1728 -1469 
Q 1488 -1306 1177 -878 
Q 866 -450 636 226 
Q 406 903 406 1850 
z
" transform="scale(0.015625)"/>
      <path id="RobotoCondensed-Regular-b1" d="M 2734 2197 
L 1809 2197 
L 1809 903 
L 1313 903 
L 1313 2197 
L 331 2197 
L 331 2672 
L 1313 2672 
L 1313 3959 
L 1809 3959 
L 1809 2672 
L 2734 2672 
L 2734 2197 
z
M 2616 475 
L 2616 3 
L 425 3 
L 425 475 
L 2616 475 
z
" transform="scale(0.015625)"/>
      <path id="RobotoCondensed-Regular-29" d="M 1603 1819 
Q 1603 906 1373 228 
Q 1144 -450 833 -878 
Q 522 -1306 281 -1469 
L 169 -1119 
Q 463 -841 758 -109 
Q 1053 622 1053 1856 
Q 1053 2647 904 3236 
Q 756 3825 550 4212 
Q 344 4600 169 4781 
L 281 5134 
Q 522 4969 833 4541 
Q 1144 4113 1373 3436 
Q 1603 2759 1603 1819 
z
" transform="scale(0.015625)"/>
     </defs>
     <use xlink:href="#RobotoCondensed-Regular-45"/>
     <use xlink:href="#RobotoCondensed-Regular-6d" transform="translate(49.707031 0)"/>
     <use xlink:href="#RobotoCondensed-Regular-62" transform="translate(125 0)"/>
     <use xlink:href="#RobotoCondensed-Regular-65" transform="translate(174.316406 0)"/>
     <use xlink:href="#RobotoCondensed-Regular-64" transform="translate(221.191406 0)"/>
     <use xlink:href="#RobotoCondensed-Regular-64" transform="translate(270.800781 0)"/>
     <use xlink:href="#RobotoCondensed-Regular-69" transform="translate(320.410156 0)"/>
     <use xlink:href="#RobotoCondensed-Regular-6e" transform="translate(343.359375 0)"/>
     <use xlink:href="#RobotoCondensed-Regular-67" transform="translate(391.796875 0)"/>
     <use xlink:href="#RobotoCondensed-Regular-20" transform="translate(441.113281 0)"/>
     <use xlink:href="#RobotoCondensed-Regular-53" transform="translate(464.0625 0)"/>
     <use xlink:href="#RobotoCondensed-Regular-69" transform="translate(515.917969 0)"/>
     <use xlink:href="#RobotoCondensed-Regular-7a" transform="translate(538.867188 0)"/>
     <use xlink:href="#RobotoCondensed-Regular-65" transform="translate(582.763672 0)"/>
     <use xlink:href="#RobotoCondensed-Regular-20" transform="translate(629.638672 0)"/>
     <use xlink:href="#RobotoCondensed-Regular-3d" transform="translate(652.587891 0)"/>
     <use xlink:href="#RobotoCondensed-Regular-20" transform="translate(700.488281 0)"/>
     <use xlink:href="#RobotoCondensed-Regular-36" transform="translate(723.4375 0)"/>
     <use xlink:href="#RobotoCondensed-Regular-34" transform="translate(772.802734 0)"/>
     <use xlink:href="#RobotoCondensed-Regular-20" transform="translate(822.167969 0)"/>
     <use xlink:href="#RobotoCondensed-Regular-28" transform="translate(845.117188 0)"/>
     <use xlink:href="#RobotoCondensed-Regular-6d" transform="translate(876.513672 0)"/>
     <use xlink:href="#RobotoCondensed-Regular-65" transform="translate(951.806641 0)"/>
     <use xlink:href="#RobotoCondensed-Regular-61" transform="translate(998.681641 0)"/>
     <use xlink:href="#RobotoCondensed-Regular-6e" transform="translate(1046.582031 0)"/>
     <use xlink:href="#RobotoCondensed-Regular-20" transform="translate(1095.019531 0)"/>
     <use xlink:href="#RobotoCondensed-Regular-b1" transform="translate(1117.96875 0)"/>
     <use xlink:href="#RobotoCondensed-Regular-20" transform="translate(1164.990234 0)"/>
     <use xlink:href="#RobotoCondensed-Regular-73" transform="translate(1187.939453 0)"/>
     <use xlink:href="#RobotoCondensed-Regular-74" transform="translate(1233.544922 0)"/>
     <use xlink:href="#RobotoCondensed-Regular-64" transform="translate(1263.134766 0)"/>
     <use xlink:href="#RobotoCondensed-Regular-20" transform="translate(1312.744141 0)"/>
     <use xlink:href="#RobotoCondensed-Regular-61" transform="translate(1335.693359 0)"/>
     <use xlink:href="#RobotoCondensed-Regular-63" transform="translate(1383.59375 0)"/>
     <use xlink:href="#RobotoCondensed-Regular-72" transform="translate(1429.785156 0)"/>
     <use xlink:href="#RobotoCondensed-Regular-6f" transform="translate(1460.253906 0)"/>
     <use xlink:href="#RobotoCondensed-Regular-73" transform="translate(1510.449219 0)"/>
     <use xlink:href="#RobotoCondensed-Regular-73" transform="translate(1556.054688 0)"/>
     <use xlink:href="#RobotoCondensed-Regular-20" transform="translate(1601.660156 0)"/>
     <use xlink:href="#RobotoCondensed-Regular-74" transform="translate(1624.609375 0)"/>
     <use xlink:href="#RobotoCondensed-Regular-72" transform="translate(1654.199219 0)"/>
     <use xlink:href="#RobotoCondensed-Regular-69" transform="translate(1684.667969 0)"/>
     <use xlink:href="#RobotoCondensed-Regular-61" transform="translate(1707.617188 0)"/>
     <use xlink:href="#RobotoCondensed-Regular-6c" transform="translate(1755.517578 0)"/>
     <use xlink:href="#RobotoCondensed-Regular-73" transform="translate(1778.466797 0)"/>
     <use xlink:href="#RobotoCondensed-Regular-29" transform="translate(1824.072266 0)"/>
    </g>
   </g>
   <g id="legend_1">
    <g id="patch_7">
     <path d="M 707.00375 111.201187 
L 836.185 111.201187 
Q 838.385 111.201187 838.385 109.001187 
L 838.385 60.419 
Q 838.385 58.219 836.185 58.219 
L 707.00375 58.219 
Q 704.80375 58.219 704.80375 60.419 
L 704.80375 109.001187 
Q 704.80375 111.201187 707.00375 111.201187 
z
" style="fill: #ffffff; opacity: 0.8; stroke: #cccccc; stroke-linejoin: miter"/>
    </g>
    <g id="line2d_24">
     <path d="M 709.20375 67.019 
L 720.20375 67.019 
L 731.20375 67.019 
" style="fill: none; stroke: #808080; stroke-width: 2.5; stroke-linecap: square"/>
    </g>
    <g id="text_14">
     <!-- Random Repr. -->
     <g transform="translate(740.00375 70.869) scale(0.11 -0.11)">
      <defs>
       <path id="RobotoCondensed-Regular-70" d="M 1750 -63 
Q 1244 -63 969 325 
L 969 -1300 
L 416 -1300 
L 416 3381 
L 919 3381 
L 947 3013 
Q 1222 3444 1744 3444 
Q 2275 3444 2562 3073 
Q 2850 2703 2859 1897 
L 2859 1528 
Q 2859 725 2570 331 
Q 2281 -63 1750 -63 
z
M 1572 2956 
Q 1181 2956 969 2559 
L 969 797 
Q 1178 409 1578 409 
Q 2288 409 2306 1472 
L 2306 1844 
Q 2306 2956 1572 2956 
z
" transform="scale(0.015625)"/>
       <path id="RobotoCondensed-Regular-2e" d="M 450 306 
Q 450 453 542 554 
Q 634 656 809 656 
Q 984 656 1076 554 
Q 1169 453 1169 306 
Q 1169 163 1076 62 
Q 984 -38 809 -38 
Q 634 -38 542 62 
Q 450 163 450 306 
z
" transform="scale(0.015625)"/>
      </defs>
      <use xlink:href="#RobotoCondensed-Regular-52"/>
      <use xlink:href="#RobotoCondensed-Regular-61" transform="translate(53.076172 0)"/>
      <use xlink:href="#RobotoCondensed-Regular-6e" transform="translate(100.976562 0)"/>
      <use xlink:href="#RobotoCondensed-Regular-64" transform="translate(149.414062 0)"/>
      <use xlink:href="#RobotoCondensed-Regular-6f" transform="translate(199.023438 0)"/>
      <use xlink:href="#RobotoCondensed-Regular-6d" transform="translate(249.21875 0)"/>
      <use xlink:href="#RobotoCondensed-Regular-20" transform="translate(324.511719 0)"/>
      <use xlink:href="#RobotoCondensed-Regular-52" transform="translate(347.460938 0)"/>
      <use xlink:href="#RobotoCondensed-Regular-65" transform="translate(400.537109 0)"/>
      <use xlink:href="#RobotoCondensed-Regular-70" transform="translate(447.412109 0)"/>
      <use xlink:href="#RobotoCondensed-Regular-72" transform="translate(496.728516 0)"/>
      <use xlink:href="#RobotoCondensed-Regular-2e" transform="translate(527.197266 0)"/>
     </g>
    </g>
    <g id="line2d_25">
     <path d="M 709.20375 83.577437 
L 720.20375 83.577437 
L 731.20375 83.577437 
" style="fill: none; stroke: #7c92ff; stroke-width: 2.5; stroke-linecap: square"/>
    </g>
    <g id="text_15">
     <!-- Morgan FP (Radius 2) -->
     <g transform="translate(740.00375 87.427437) scale(0.11 -0.11)">
      <defs>
       <path id="RobotoCondensed-Regular-4d" d="M 2419 841 
L 3606 4550 
L 4341 4550 
L 4341 0 
L 3769 0 
L 3769 1775 
L 3822 3538 
L 2634 0 
L 2197 0 
L 1009 3544 
L 1063 1775 
L 1063 0 
L 491 0 
L 491 4550 
L 1228 4550 
L 2419 841 
z
" transform="scale(0.015625)"/>
       <path id="RobotoCondensed-Regular-46" d="M 491 0 
L 491 4550 
L 2859 4550 
L 2859 4056 
L 1066 4056 
L 1066 2503 
L 2600 2503 
L 2600 2009 
L 1066 2009 
L 1066 0 
L 491 0 
z
" transform="scale(0.015625)"/>
       <path id="RobotoCondensed-Regular-50" d="M 1066 1784 
L 1066 0 
L 491 0 
L 491 4550 
L 1941 4550 
Q 2600 4550 2951 4159 
Q 3303 3769 3303 3163 
Q 3303 2506 2954 2147 
Q 2606 1788 1950 1784 
L 1066 1784 
z
M 1066 4056 
L 1066 2275 
L 1941 2275 
Q 2359 2275 2543 2522 
Q 2728 2769 2728 3156 
Q 2728 3506 2543 3781 
Q 2359 4056 1941 4056 
L 1066 4056 
z
" transform="scale(0.015625)"/>
      </defs>
      <use xlink:href="#RobotoCondensed-Regular-4d"/>
      <use xlink:href="#RobotoCondensed-Regular-6f" transform="translate(75.537109 0)"/>
      <use xlink:href="#RobotoCondensed-Regular-72" transform="translate(125.732422 0)"/>
      <use xlink:href="#RobotoCondensed-Regular-67" transform="translate(156.201172 0)"/>
      <use xlink:href="#RobotoCondensed-Regular-61" transform="translate(205.517578 0)"/>
      <use xlink:href="#RobotoCondensed-Regular-6e" transform="translate(253.417969 0)"/>
      <use xlink:href="#RobotoCondensed-Regular-20" transform="translate(301.855469 0)"/>
      <use xlink:href="#RobotoCondensed-Regular-46" transform="translate(324.804688 0)"/>
      <use xlink:href="#RobotoCondensed-Regular-50" transform="translate(372.900391 0)"/>
      <use xlink:href="#RobotoCondensed-Regular-20" transform="translate(428.320312 0)"/>
      <use xlink:href="#RobotoCondensed-Regular-28" transform="translate(451.269531 0)"/>
      <use xlink:href="#RobotoCondensed-Regular-52" transform="translate(482.666016 0)"/>
      <use xlink:href="#RobotoCondensed-Regular-61" transform="translate(535.742188 0)"/>
      <use xlink:href="#RobotoCondensed-Regular-64" transform="translate(583.642578 0)"/>
      <use xlink:href="#RobotoCondensed-Regular-69" transform="translate(633.251953 0)"/>
      <use xlink:href="#RobotoCondensed-Regular-75" transform="translate(656.201172 0)"/>
      <use xlink:href="#RobotoCondensed-Regular-73" transform="translate(704.541016 0)"/>
      <use xlink:href="#RobotoCondensed-Regular-20" transform="translate(750.146484 0)"/>
      <use xlink:href="#RobotoCondensed-Regular-32" transform="translate(773.095703 0)"/>
      <use xlink:href="#RobotoCondensed-Regular-29" transform="translate(822.460938 0)"/>
     </g>
    </g>
    <g id="line2d_26">
     <path d="M 709.20375 100.426344 
L 720.20375 100.426344 
L 731.20375 100.426344 
" style="fill: none; stroke: #69f7ae; stroke-width: 2.5; stroke-linecap: square"/>
    </g>
    <g id="text_16">
     <!-- HDC (Depth 2) -->
     <g transform="translate(740.00375 104.276344) scale(0.11 -0.11)">
      <defs>
       <path id="RobotoCondensed-Regular-48" d="M 2894 0 
L 2894 2103 
L 1066 2103 
L 1066 0 
L 491 0 
L 491 4550 
L 1066 4550 
L 1066 2594 
L 2894 2594 
L 2894 4550 
L 3469 4550 
L 3469 0 
L 2894 0 
z
" transform="scale(0.015625)"/>
       <path id="RobotoCondensed-Regular-43" d="M 2769 1447 
L 3344 1447 
Q 3313 744 2950 340 
Q 2588 -63 1878 -63 
Q 1194 -63 792 457 
Q 391 978 391 1856 
L 391 2697 
Q 391 3572 798 4092 
Q 1206 4613 1931 4613 
Q 2594 4613 2953 4219 
Q 3313 3825 3344 3091 
L 2769 3091 
Q 2734 3628 2543 3873 
Q 2353 4119 1931 4119 
Q 1431 4119 1198 3731 
Q 966 3344 966 2703 
L 966 1856 
Q 966 1259 1170 843 
Q 1375 428 1878 428 
Q 2350 428 2537 665 
Q 2725 903 2769 1447 
z
" transform="scale(0.015625)"/>
       <path id="RobotoCondensed-Regular-68" d="M 1603 2956 
Q 1400 2956 1236 2818 
Q 1072 2681 969 2459 
L 969 0 
L 416 0 
L 416 4800 
L 969 4800 
L 969 3041 
Q 1288 3444 1775 3444 
Q 2191 3444 2437 3162 
Q 2684 2881 2684 2216 
L 2684 0 
L 2131 0 
L 2131 2222 
Q 2131 2619 2000 2787 
Q 1869 2956 1603 2956 
z
" transform="scale(0.015625)"/>
      </defs>
      <use xlink:href="#RobotoCondensed-Regular-48"/>
      <use xlink:href="#RobotoCondensed-Regular-44" transform="translate(62.011719 0)"/>
      <use xlink:href="#RobotoCondensed-Regular-43" transform="translate(119.091797 0)"/>
      <use xlink:href="#RobotoCondensed-Regular-20" transform="translate(175.78125 0)"/>
      <use xlink:href="#RobotoCondensed-Regular-28" transform="translate(198.730469 0)"/>
      <use xlink:href="#RobotoCondensed-Regular-44" transform="translate(230.126953 0)"/>
      <use xlink:href="#RobotoCondensed-Regular-65" transform="translate(287.207031 0)"/>
      <use xlink:href="#RobotoCondensed-Regular-70" transform="translate(334.082031 0)"/>
      <use xlink:href="#RobotoCondensed-Regular-74" transform="translate(383.398438 0)"/>
      <use xlink:href="#RobotoCondensed-Regular-68" transform="translate(412.988281 0)"/>
      <use xlink:href="#RobotoCondensed-Regular-20" transform="translate(461.279297 0)"/>
      <use xlink:href="#RobotoCondensed-Regular-32" transform="translate(484.228516 0)"/>
      <use xlink:href="#RobotoCondensed-Regular-29" transform="translate(533.59375 0)"/>
     </g>
    </g>
   </g>
  </g>
 </g>
 <defs>
  <clipPath id="p27150eaff6">
   <rect x="42.77" y="52.719" width="801.115" height="191.521"/>
  </clipPath>
 </defs>
</svg>
