<?xml version="1.0" encoding="utf-8" standalone="no"?>
<!DOCTYPE svg PUBLIC "-//W3C//DTD SVG 1.1//EN"
  "http://www.w3.org/Graphics/SVG/1.1/DTD/svg11.dtd">
<svg xmlns:xlink="http://www.w3.org/1999/xlink" width="432pt" height="216pt" viewBox="0 0 432 216" xmlns="http://www.w3.org/2000/svg" version="1.1">
 <metadata>
  <rdf:RDF xmlns:dc="http://purl.org/dc/elements/1.1/" xmlns:cc="http://creativecommons.org/ns#" xmlns:rdf="http://www.w3.org/1999/02/22-rdf-syntax-ns#">
   <cc:Work>
    <dc:type rdf:resource="http://purl.org/dc/dcmitype/StillImage"/>
    <dc:date>2026-03-25T11:10:25.037773</dc:date>
    <dc:format>image/svg+xml</dc:format>
    <dc:creator>
     <cc:Agent>
      <dc:title>Matplotlib v3.10.7, https://matplotlib.org/</dc:title>
     </cc:Agent>
    </dc:creator>
   </cc:Work>
  </rdf:RDF>
 </metadata>
 <defs>
  <style type="text/css">*{stroke-linejoin: round; stroke-linecap: butt}</style>
 </defs>
 <g id="figure_1">
  <g id="patch_1">
   <path d="M 0 216 
L 432 216 
L 432 0 
L 0 0 
z
" style="fill: #ffffff"/>
  </g>
  <g id="axes_1">
   <g id="patch_2">
    <path d="M 56.72 172.24 
L 411.885 172.24 
L 411.885 52.719 
L 56.72 52.719 
z
" style="fill: #ffffff"/>
   </g>
   <g id="matplotlib.axis_1">
    <g id="xtick_1">
     <g id="line2d_1">
      <path d="M 56.72 172.24 
L 56.72 52.719 
" clip-path="url(#pc739fb20b0)" style="fill: none; stroke-dasharray: 2.96,1.28; stroke-dashoffset: 0; stroke: #b0b0b0; stroke-opacity: 0.3; stroke-width: 0.8"/>
     </g>
     <g id="line2d_2">
      <defs>
       <path id="m82b0715288" d="M 0 0 
L 0 3.5 
" style="stroke: #000000; stroke-width: 0.8"/>
      </defs>
      <g>
       <use xlink:href="#m82b0715288" x="56.72" y="172.24" style="stroke: #000000; stroke-width: 0.8"/>
      </g>
     </g>
     <g id="text_1">
      <!-- 0 -->
      <g transform="translate(54.005234 187.49) scale(0.11 -0.11)">
       <defs>
        <path id="RobotoCondensed-Regular-30" d="M 2797 1944 
Q 2797 825 2467 381 
Q 2138 -63 1581 -63 
Q 1038 -63 703 370 
Q 369 803 359 1878 
L 359 2638 
Q 359 3753 695 4183 
Q 1031 4613 1578 4613 
Q 2131 4613 2461 4189 
Q 2791 3766 2797 2681 
L 2797 1944 
z
M 2247 2734 
Q 2247 3503 2073 3822 
Q 1900 4141 1578 4141 
Q 1266 4141 1092 3833 
Q 919 3525 913 2791 
L 913 1850 
Q 913 1088 1089 750 
Q 1266 413 1581 413 
Q 1903 413 2072 738 
Q 2241 1063 2247 1794 
L 2247 2734 
z
" transform="scale(0.015625)"/>
       </defs>
       <use xlink:href="#RobotoCondensed-Regular-30"/>
      </g>
     </g>
    </g>
    <g id="xtick_2">
     <g id="line2d_3">
      <path d="M 127.753 172.24 
L 127.753 52.719 
" clip-path="url(#pc739fb20b0)" style="fill: none; stroke-dasharray: 2.96,1.28; stroke-dashoffset: 0; stroke: #b0b0b0; stroke-opacity: 0.3; stroke-width: 0.8"/>
     </g>
     <g id="line2d_4">
      <g>
       <use xlink:href="#m82b0715288" x="127.753" y="172.24" style="stroke: #000000; stroke-width: 0.8"/>
      </g>
     </g>
     <g id="text_2">
      <!-- 20 -->
      <g transform="translate(122.323469 187.49) scale(0.11 -0.11)">
       <defs>
        <path id="RobotoCondensed-Regular-32" d="M 2909 475 
L 2909 0 
L 366 0 
L 366 416 
L 1628 2088 
Q 1966 2541 2077 2802 
Q 2188 3063 2188 3328 
Q 2188 3663 2027 3900 
Q 1866 4138 1575 4138 
Q 1194 4138 1022 3878 
Q 850 3619 850 3213 
L 297 3213 
Q 297 3788 617 4200 
Q 938 4613 1575 4613 
Q 2125 4613 2433 4278 
Q 2741 3944 2741 3397 
Q 2741 2997 2541 2594 
Q 2341 2191 2047 1809 
L 1028 475 
L 2909 475 
z
" transform="scale(0.015625)"/>
       </defs>
       <use xlink:href="#RobotoCondensed-Regular-32"/>
       <use xlink:href="#RobotoCondensed-Regular-30" transform="translate(49.365234 0)"/>
      </g>
     </g>
    </g>
    <g id="xtick_3">
     <g id="line2d_5">
      <path d="M 198.786 172.24 
L 198.786 52.719 
" clip-path="url(#pc739fb20b0)" style="fill: none; stroke-dasharray: 2.96,1.28; stroke-dashoffset: 0; stroke: #b0b0b0; stroke-opacity: 0.3; stroke-width: 0.8"/>
     </g>
     <g id="line2d_6">
      <g>
       <use xlink:href="#m82b0715288" x="198.786" y="172.24" style="stroke: #000000; stroke-width: 0.8"/>
      </g>
     </g>
     <g id="text_3">
      <!-- 40 -->
      <g transform="translate(193.356469 187.49) scale(0.11 -0.11)">
       <defs>
        <path id="RobotoCondensed-Regular-34" d="M 188 1397 
L 1878 4550 
L 2463 4550 
L 2463 1531 
L 2969 1531 
L 2969 1056 
L 2463 1056 
L 2463 0 
L 1909 0 
L 1909 1056 
L 188 1056 
L 188 1397 
z
M 803 1531 
L 1909 1531 
L 1909 3703 
L 1878 3638 
L 803 1531 
z
" transform="scale(0.015625)"/>
       </defs>
       <use xlink:href="#RobotoCondensed-Regular-34"/>
       <use xlink:href="#RobotoCondensed-Regular-30" transform="translate(49.365234 0)"/>
      </g>
     </g>
    </g>
    <g id="xtick_4">
     <g id="line2d_7">
      <path d="M 269.819 172.24 
L 269.819 52.719 
" clip-path="url(#pc739fb20b0)" style="fill: none; stroke-dasharray: 2.96,1.28; stroke-dashoffset: 0; stroke: #b0b0b0; stroke-opacity: 0.3; stroke-width: 0.8"/>
     </g>
     <g id="line2d_8">
      <g>
       <use xlink:href="#m82b0715288" x="269.819" y="172.24" style="stroke: #000000; stroke-width: 0.8"/>
      </g>
     </g>
     <g id="text_4">
      <!-- 60 -->
      <g transform="translate(264.389469 187.49) scale(0.11 -0.11)">
       <defs>
        <path id="RobotoCondensed-Regular-36" d="M 2847 1484 
Q 2847 838 2544 387 
Q 2241 -63 1641 -63 
Q 1216 -63 944 198 
Q 672 459 542 861 
Q 413 1263 413 1684 
L 413 1956 
Q 413 2438 481 2900 
Q 550 3363 742 3738 
Q 934 4113 1296 4334 
Q 1659 4556 2291 4556 
L 2291 4066 
Q 1775 4066 1508 3859 
Q 1241 3653 1122 3318 
Q 1003 2984 978 2606 
Q 1272 2984 1750 2984 
Q 2138 2984 2380 2765 
Q 2622 2547 2734 2201 
Q 2847 1856 2847 1484 
z
M 969 1666 
Q 969 1059 1180 737 
Q 1391 416 1641 416 
Q 1959 416 2129 708 
Q 2300 1000 2300 1456 
Q 2300 1863 2144 2184 
Q 1988 2506 1659 2506 
Q 1425 2506 1236 2329 
Q 1047 2153 969 1900 
L 969 1666 
z
" transform="scale(0.015625)"/>
       </defs>
       <use xlink:href="#RobotoCondensed-Regular-36"/>
       <use xlink:href="#RobotoCondensed-Regular-30" transform="translate(49.365234 0)"/>
      </g>
     </g>
    </g>
    <g id="xtick_5">
     <g id="line2d_9">
      <path d="M 340.852 172.24 
L 340.852 52.719 
" clip-path="url(#pc739fb20b0)" style="fill: none; stroke-dasharray: 2.96,1.28; stroke-dashoffset: 0; stroke: #b0b0b0; stroke-opacity: 0.3; stroke-width: 0.8"/>
     </g>
     <g id="line2d_10">
      <g>
       <use xlink:href="#m82b0715288" x="340.852" y="172.24" style="stroke: #000000; stroke-width: 0.8"/>
      </g>
     </g>
     <g id="text_5">
      <!-- 80 -->
      <g transform="translate(335.422469 187.49) scale(0.11 -0.11)">
       <defs>
        <path id="RobotoCondensed-Regular-38" d="M 2794 1231 
Q 2794 606 2445 271 
Q 2097 -63 1578 -63 
Q 1063 -63 714 273 
Q 366 609 366 1231 
Q 366 1613 536 1905 
Q 706 2197 1000 2347 
Q 450 2666 450 3366 
Q 450 3963 769 4288 
Q 1088 4613 1581 4613 
Q 2075 4613 2392 4288 
Q 2709 3963 2709 3366 
Q 2709 3028 2557 2761 
Q 2406 2494 2150 2344 
Q 2444 2194 2619 1901 
Q 2794 1609 2794 1231 
z
M 2156 3356 
Q 2156 3697 2000 3917 
Q 1844 4138 1581 4138 
Q 1319 4138 1161 3927 
Q 1003 3716 1003 3356 
Q 1003 3003 1159 2790 
Q 1316 2578 1581 2578 
Q 1844 2578 2000 2790 
Q 2156 3003 2156 3356 
z
M 2244 1244 
Q 2244 1625 2061 1865 
Q 1878 2106 1575 2106 
Q 1266 2106 1091 1865 
Q 916 1625 916 1244 
Q 916 850 1089 631 
Q 1263 413 1578 413 
Q 1897 413 2070 631 
Q 2244 850 2244 1244 
z
" transform="scale(0.015625)"/>
       </defs>
       <use xlink:href="#RobotoCondensed-Regular-38"/>
       <use xlink:href="#RobotoCondensed-Regular-30" transform="translate(49.365234 0)"/>
      </g>
     </g>
    </g>
    <g id="xtick_6">
     <g id="line2d_11">
      <path d="M 411.885 172.24 
L 411.885 52.719 
" clip-path="url(#pc739fb20b0)" style="fill: none; stroke-dasharray: 2.96,1.28; stroke-dashoffset: 0; stroke: #b0b0b0; stroke-opacity: 0.3; stroke-width: 0.8"/>
     </g>
     <g id="line2d_12">
      <g>
       <use xlink:href="#m82b0715288" x="411.885" y="172.24" style="stroke: #000000; stroke-width: 0.8"/>
      </g>
     </g>
     <g id="text_6">
      <!-- 100 -->
      <g transform="translate(403.740703 187.49) scale(0.11 -0.11)">
       <defs>
        <path id="RobotoCondensed-Regular-31" d="M 2013 4575 
L 2013 0 
L 1459 0 
L 1459 3853 
L 503 3428 
L 503 3950 
L 1928 4575 
L 2013 4575 
z
" transform="scale(0.015625)"/>
       </defs>
       <use xlink:href="#RobotoCondensed-Regular-31"/>
       <use xlink:href="#RobotoCondensed-Regular-30" transform="translate(49.365234 0)"/>
       <use xlink:href="#RobotoCondensed-Regular-30" transform="translate(98.730469 0)"/>
      </g>
     </g>
    </g>
    <g id="text_7">
     <!-- BO Round -->
     <g transform="translate(211.062813 202.724375) scale(0.12 -0.12)">
      <defs>
       <path id="RobotoCondensed-Regular-42" d="M 3125 1313 
Q 3125 675 2776 337 
Q 2428 0 1847 0 
L 491 0 
L 491 4550 
L 1791 4550 
Q 2375 4550 2706 4261 
Q 3038 3972 3038 3338 
Q 3038 3025 2880 2779 
Q 2722 2534 2453 2400 
Q 2781 2297 2953 1998 
Q 3125 1700 3125 1313 
z
M 1066 4056 
L 1066 2613 
L 1797 2613 
Q 2088 2613 2275 2806 
Q 2463 3000 2463 3344 
Q 2463 4041 1819 4056 
L 1066 4056 
z
M 2550 1306 
Q 2550 2106 1906 2128 
L 1066 2128 
L 1066 491 
L 1847 491 
Q 2181 491 2365 711 
Q 2550 931 2550 1306 
z
" transform="scale(0.015625)"/>
       <path id="RobotoCondensed-Regular-4f" d="M 3450 1878 
Q 3450 913 3040 425 
Q 2631 -63 1925 -63 
Q 1253 -63 829 412 
Q 406 888 394 1822 
L 394 2669 
Q 394 3631 816 4122 
Q 1238 4613 1922 4613 
Q 2622 4613 3031 4131 
Q 3441 3650 3450 2713 
L 3450 1878 
z
M 2881 2675 
Q 2881 3425 2634 3762 
Q 2388 4100 1922 4100 
Q 1478 4100 1220 3762 
Q 963 3425 963 2675 
L 963 1878 
Q 963 1125 1223 786 
Q 1484 447 1925 447 
Q 2394 447 2636 781 
Q 2878 1116 2881 1859 
L 2881 2675 
z
" transform="scale(0.015625)"/>
       <path id="RobotoCondensed-Regular-20" transform="scale(0.015625)"/>
       <path id="RobotoCondensed-Regular-52" d="M 2678 0 
L 1869 1844 
L 1069 1844 
L 1069 0 
L 494 0 
L 494 4550 
L 1766 4550 
Q 2444 4550 2783 4208 
Q 3122 3866 3122 3184 
Q 3122 2303 2409 1975 
L 3294 38 
L 3294 0 
L 2678 0 
z
M 1069 4056 
L 1069 2334 
L 1759 2334 
Q 2153 2334 2350 2582 
Q 2547 2831 2547 3184 
Q 2547 3578 2369 3817 
Q 2191 4056 1766 4056 
L 1069 4056 
z
" transform="scale(0.015625)"/>
       <path id="RobotoCondensed-Regular-6f" d="M 300 1850 
Q 300 2641 678 3042 
Q 1056 3444 1603 3444 
Q 2156 3444 2536 3042 
Q 2916 2641 2916 1850 
L 2916 1528 
Q 2916 738 2536 337 
Q 2156 -63 1609 -63 
Q 1059 -63 679 337 
Q 300 738 300 1528 
L 300 1850 
z
M 853 1528 
Q 853 969 1068 689 
Q 1284 409 1609 409 
Q 2341 409 2363 1466 
L 2363 1850 
Q 2363 2403 2145 2686 
Q 1928 2969 1603 2969 
Q 1281 2969 1067 2686 
Q 853 2403 853 1850 
L 853 1528 
z
" transform="scale(0.015625)"/>
       <path id="RobotoCondensed-Regular-75" d="M 2153 0 
L 2144 297 
Q 1863 -63 1338 -63 
Q 919 -63 662 231 
Q 406 525 406 1200 
L 406 3381 
L 956 3381 
L 956 1178 
Q 959 731 1107 579 
Q 1256 428 1431 428 
Q 1931 428 2125 881 
L 2125 3381 
L 2678 3381 
L 2678 0 
L 2153 0 
z
" transform="scale(0.015625)"/>
       <path id="RobotoCondensed-Regular-6e" d="M 1603 2956 
Q 1400 2956 1236 2818 
Q 1072 2681 969 2459 
L 969 0 
L 416 0 
L 416 3381 
L 938 3381 
L 953 3022 
Q 1275 3444 1775 3444 
Q 2191 3444 2437 3162 
Q 2684 2881 2684 2216 
L 2684 0 
L 2131 0 
L 2131 2222 
Q 2131 2619 2000 2787 
Q 1869 2956 1603 2956 
z
" transform="scale(0.015625)"/>
       <path id="RobotoCondensed-Regular-64" d="M 2234 0 
L 2209 366 
Q 1941 -63 1425 -63 
Q 925 -63 611 331 
Q 297 725 297 1528 
L 297 1844 
Q 297 2678 609 3061 
Q 922 3444 1431 3444 
Q 1922 3444 2188 3050 
L 2188 4800 
L 2738 4800 
L 2738 0 
L 2234 0 
z
M 850 1528 
Q 850 963 1019 695 
Q 1188 428 1569 428 
Q 1981 428 2188 847 
L 2188 2544 
Q 1972 2956 1575 2956 
Q 1194 2956 1023 2687 
Q 853 2419 850 1866 
L 850 1528 
z
" transform="scale(0.015625)"/>
      </defs>
      <use xlink:href="#RobotoCondensed-Regular-42"/>
      <use xlink:href="#RobotoCondensed-Regular-4f" transform="translate(54.589844 0)"/>
      <use xlink:href="#RobotoCondensed-Regular-20" transform="translate(114.697266 0)"/>
      <use xlink:href="#RobotoCondensed-Regular-52" transform="translate(137.646484 0)"/>
      <use xlink:href="#RobotoCondensed-Regular-6f" transform="translate(190.722656 0)"/>
      <use xlink:href="#RobotoCondensed-Regular-75" transform="translate(240.917969 0)"/>
      <use xlink:href="#RobotoCondensed-Regular-6e" transform="translate(289.257812 0)"/>
      <use xlink:href="#RobotoCondensed-Regular-64" transform="translate(337.695312 0)"/>
     </g>
    </g>
   </g>
   <g id="matplotlib.axis_2">
    <g id="ytick_1">
     <g id="line2d_13">
      <path d="M 56.72 127.706414 
L 411.885 127.706414 
" clip-path="url(#pc739fb20b0)" style="fill: none; stroke-dasharray: 2.96,1.28; stroke-dashoffset: 0; stroke: #b0b0b0; stroke-opacity: 0.3; stroke-width: 0.8"/>
     </g>
     <g id="line2d_14">
      <defs>
       <path id="m151bc70a61" d="M 0 0 
L -3.5 0 
" style="stroke: #000000; stroke-width: 0.8"/>
      </defs>
      <g>
       <use xlink:href="#m151bc70a61" x="56.72" y="127.706414" style="stroke: #000000; stroke-width: 0.8"/>
      </g>
     </g>
     <g id="text_8">
      <!-- 0.1 -->
      <g transform="translate(35.959688 131.831414) scale(0.11 -0.11)">
       <defs>
        <path id="RobotoCondensed-Regular-2e" d="M 450 306 
Q 450 453 542 554 
Q 634 656 809 656 
Q 984 656 1076 554 
Q 1169 453 1169 306 
Q 1169 163 1076 62 
Q 984 -38 809 -38 
Q 634 -38 542 62 
Q 450 163 450 306 
z
" transform="scale(0.015625)"/>
       </defs>
       <use xlink:href="#RobotoCondensed-Regular-30"/>
       <use xlink:href="#RobotoCondensed-Regular-2e" transform="translate(49.365234 0)"/>
       <use xlink:href="#RobotoCondensed-Regular-31" transform="translate(75.732422 0)"/>
      </g>
     </g>
    </g>
    <g id="ytick_2">
     <g id="line2d_15">
      <path d="M 56.72 80.209239 
L 411.885 80.209239 
" clip-path="url(#pc739fb20b0)" style="fill: none; stroke-dasharray: 2.96,1.28; stroke-dashoffset: 0; stroke: #b0b0b0; stroke-opacity: 0.3; stroke-width: 0.8"/>
     </g>
     <g id="line2d_16">
      <g>
       <use xlink:href="#m151bc70a61" x="56.72" y="80.209239" style="stroke: #000000; stroke-width: 0.8"/>
      </g>
     </g>
     <g id="text_9">
      <!-- 0.2 -->
      <g transform="translate(35.959688 84.334239) scale(0.11 -0.11)">
       <use xlink:href="#RobotoCondensed-Regular-30"/>
       <use xlink:href="#RobotoCondensed-Regular-2e" transform="translate(49.365234 0)"/>
       <use xlink:href="#RobotoCondensed-Regular-32" transform="translate(75.732422 0)"/>
      </g>
     </g>
    </g>
    <g id="text_10">
     <!-- Best Distance to Target $\downarrow$ -->
     <g transform="translate(29.439688 176.7995) rotate(-90) scale(0.12 -0.12)">
      <defs>
       <path id="RobotoCondensed-Regular-65" d="M 2722 447 
Q 2584 253 2323 95 
Q 2063 -63 1625 -63 
Q 1019 -63 666 301 
Q 313 666 309 1431 
L 309 1828 
Q 309 2722 696 3083 
Q 1084 3444 1563 3444 
Q 2197 3444 2472 3034 
Q 2747 2625 2747 1850 
L 2747 1528 
L 863 1528 
L 863 1447 
Q 863 906 1067 657 
Q 1272 409 1656 409 
Q 1934 409 2114 517 
Q 2294 625 2431 794 
L 2722 447 
z
M 1563 2969 
Q 1275 2969 1084 2770 
Q 894 2572 866 2000 
L 2194 2000 
L 2194 2078 
Q 2172 2469 2048 2719 
Q 1925 2969 1563 2969 
z
" transform="scale(0.015625)"/>
       <path id="RobotoCondensed-Regular-73" d="M 2056 866 
Q 2056 1059 1907 1190 
Q 1759 1322 1340 1500 
Q 922 1678 681 1863 
Q 409 2072 409 2484 
Q 409 2888 703 3166 
Q 997 3444 1481 3444 
Q 2000 3444 2287 3150 
Q 2575 2856 2575 2419 
L 2025 2419 
Q 2025 2628 1884 2798 
Q 1744 2969 1481 2969 
Q 1203 2969 1083 2828 
Q 963 2688 963 2503 
Q 963 2319 1081 2217 
Q 1200 2116 1553 1959 
Q 2066 1756 2337 1537 
Q 2609 1319 2609 909 
Q 2609 463 2303 200 
Q 1997 -63 1494 -63 
Q 919 -63 616 265 
Q 313 594 313 1013 
L 866 1013 
Q 881 653 1081 533 
Q 1281 413 1494 413 
Q 2056 413 2056 866 
z
" transform="scale(0.015625)"/>
       <path id="RobotoCondensed-Regular-74" d="M 1647 0 
Q 1488 -63 1259 -63 
Q 991 -63 789 134 
Q 588 331 588 841 
L 588 2938 
L 72 2938 
L 72 3381 
L 588 3381 
L 588 4203 
L 1141 4203 
L 1141 3381 
L 1650 3381 
L 1650 2938 
L 1141 2938 
L 1141 838 
Q 1141 578 1230 506 
Q 1319 434 1431 434 
Q 1550 434 1650 472 
L 1647 0 
z
" transform="scale(0.015625)"/>
       <path id="RobotoCondensed-Regular-44" d="M 491 0 
L 491 4550 
L 1575 4550 
Q 2344 4550 2800 4070 
Q 3256 3591 3256 2659 
L 3256 1888 
Q 3256 956 2797 478 
Q 2338 0 1522 0 
L 491 0 
z
M 1066 4056 
L 1066 491 
L 1522 491 
Q 2128 491 2404 836 
Q 2681 1181 2688 1856 
L 2688 2666 
Q 2688 3388 2413 3722 
Q 2138 4056 1575 4056 
L 1066 4056 
z
" transform="scale(0.015625)"/>
       <path id="RobotoCondensed-Regular-69" d="M 428 4278 
Q 428 4419 506 4516 
Q 584 4613 741 4613 
Q 894 4613 975 4516 
Q 1056 4419 1056 4278 
Q 1056 4144 975 4048 
Q 894 3953 741 3953 
Q 584 3953 506 4048 
Q 428 4144 428 4278 
z
M 1009 3381 
L 1009 0 
L 459 0 
L 459 3381 
L 1009 3381 
z
" transform="scale(0.015625)"/>
       <path id="RobotoCondensed-Regular-61" d="M 2156 0 
Q 2103 122 2081 366 
Q 1966 194 1775 65 
Q 1584 -63 1334 -63 
Q 891 -63 623 187 
Q 356 438 356 922 
Q 356 1409 690 1729 
Q 1025 2050 1691 2050 
L 2072 2050 
L 2072 2413 
Q 2072 2713 1936 2841 
Q 1800 2969 1528 2969 
Q 1263 2969 1114 2812 
Q 966 2656 966 2444 
L 413 2444 
Q 413 2806 722 3125 
Q 1031 3444 1556 3444 
Q 2025 3444 2325 3209 
Q 2625 2975 2625 2406 
L 2625 794 
Q 2625 316 2728 50 
L 2728 0 
L 2156 0 
z
M 1419 441 
Q 1653 441 1825 562 
Q 1997 684 2072 834 
L 2072 1644 
L 1781 1644 
Q 1384 1644 1146 1475 
Q 909 1306 909 991 
Q 909 688 1036 564 
Q 1163 441 1419 441 
z
" transform="scale(0.015625)"/>
       <path id="RobotoCondensed-Regular-63" d="M 1588 409 
Q 1834 409 2012 564 
Q 2191 719 2213 1069 
L 2731 1069 
Q 2713 559 2378 248 
Q 2044 -63 1588 -63 
Q 934 -63 621 342 
Q 309 747 303 1472 
L 303 1881 
Q 303 2619 617 3031 
Q 931 3444 1588 3444 
Q 2103 3444 2408 3120 
Q 2713 2797 2731 2219 
L 2213 2219 
Q 2169 2969 1588 2969 
Q 1150 2969 1003 2672 
Q 856 2375 856 1881 
L 856 1500 
Q 856 1003 1001 706 
Q 1147 409 1588 409 
z
" transform="scale(0.015625)"/>
       <path id="RobotoCondensed-Regular-54" d="M 191 4056 
L 191 4550 
L 3150 4550 
L 3150 4056 
L 1953 4056 
L 1953 0 
L 1384 0 
L 1384 4056 
L 191 4056 
z
" transform="scale(0.015625)"/>
       <path id="RobotoCondensed-Regular-72" d="M 1563 2888 
Q 1138 2888 969 2425 
L 969 0 
L 416 0 
L 416 3381 
L 950 3381 
L 963 3041 
Q 1184 3444 1591 3444 
Q 1738 3444 1809 3400 
L 1813 2863 
Q 1691 2888 1563 2888 
z
" transform="scale(0.015625)"/>
       <path id="RobotoCondensed-Regular-67" d="M 1525 -1334 
Q 1331 -1334 1007 -1229 
Q 684 -1125 497 -906 
L 725 -522 
Q 1056 -859 1484 -859 
Q 1806 -859 2000 -679 
Q 2194 -500 2194 -56 
L 2194 338 
Q 1925 -63 1428 -63 
Q 919 -63 611 331 
Q 303 725 303 1528 
L 303 1844 
Q 303 2678 608 3061 
Q 913 3444 1434 3444 
Q 1953 3444 2219 3006 
L 2247 3381 
L 2744 3381 
L 2744 -41 
Q 2741 -703 2402 -1018 
Q 2063 -1334 1525 -1334 
z
M 856 1528 
Q 856 963 1025 695 
Q 1194 428 1572 428 
Q 1988 428 2194 853 
L 2194 2541 
Q 1978 2956 1578 2956 
Q 1197 2956 1028 2687 
Q 859 2419 856 1866 
L 856 1528 
z
" transform="scale(0.015625)"/>
       <path id="DejaVuSans-2193" d="M 2822 -22 
L 2541 -22 
L 1309 1209 
L 1684 1584 
L 2416 853 
L 2416 4666 
L 2947 4666 
L 2947 853 
L 3672 1584 
L 4047 1209 
L 2822 -22 
z
" transform="scale(0.015625)"/>
      </defs>
      <use xlink:href="#RobotoCondensed-Regular-42" transform="translate(0 0.09375)"/>
      <use xlink:href="#RobotoCondensed-Regular-65" transform="translate(54.589844 0.09375)"/>
      <use xlink:href="#RobotoCondensed-Regular-73" transform="translate(101.464844 0.09375)"/>
      <use xlink:href="#RobotoCondensed-Regular-74" transform="translate(147.070312 0.09375)"/>
      <use xlink:href="#RobotoCondensed-Regular-20" transform="translate(176.660156 0.09375)"/>
      <use xlink:href="#RobotoCondensed-Regular-44" transform="translate(199.609375 0.09375)"/>
      <use xlink:href="#RobotoCondensed-Regular-69" transform="translate(256.689453 0.09375)"/>
      <use xlink:href="#RobotoCondensed-Regular-73" transform="translate(279.638672 0.09375)"/>
      <use xlink:href="#RobotoCondensed-Regular-74" transform="translate(325.244141 0.09375)"/>
      <use xlink:href="#RobotoCondensed-Regular-61" transform="translate(354.833984 0.09375)"/>
      <use xlink:href="#RobotoCondensed-Regular-6e" transform="translate(402.734375 0.09375)"/>
      <use xlink:href="#RobotoCondensed-Regular-63" transform="translate(451.171875 0.09375)"/>
      <use xlink:href="#RobotoCondensed-Regular-65" transform="translate(497.363281 0.09375)"/>
      <use xlink:href="#RobotoCondensed-Regular-20" transform="translate(544.238281 0.09375)"/>
      <use xlink:href="#RobotoCondensed-Regular-74" transform="translate(567.1875 0.09375)"/>
      <use xlink:href="#RobotoCondensed-Regular-6f" transform="translate(596.777344 0.09375)"/>
      <use xlink:href="#RobotoCondensed-Regular-20" transform="translate(646.972656 0.09375)"/>
      <use xlink:href="#RobotoCondensed-Regular-54" transform="translate(669.921875 0.09375)"/>
      <use xlink:href="#RobotoCondensed-Regular-61" transform="translate(721.972656 0.09375)"/>
      <use xlink:href="#RobotoCondensed-Regular-72" transform="translate(769.873047 0.09375)"/>
      <use xlink:href="#RobotoCondensed-Regular-67" transform="translate(800.341797 0.09375)"/>
      <use xlink:href="#RobotoCondensed-Regular-65" transform="translate(849.658203 0.09375)"/>
      <use xlink:href="#RobotoCondensed-Regular-74" transform="translate(896.533203 0.09375)"/>
      <use xlink:href="#RobotoCondensed-Regular-20" transform="translate(926.123047 0.09375)"/>
      <use xlink:href="#DejaVuSans-2193" transform="translate(968.554688 0.09375)"/>
     </g>
    </g>
   </g>
   <g id="FillBetweenPolyCollection_1">
    <defs>
     <path id="ma1619379f5" d="M 56.72 -157.848227 
L 56.72 -138.890076 
L 60.27165 -138.890076 
L 63.8233 -138.890076 
L 67.37495 -138.890076 
L 70.9266 -138.890076 
L 74.47825 -138.890076 
L 78.0299 -138.890076 
L 81.58155 -138.890076 
L 85.1332 -138.890076 
L 88.68485 -138.890076 
L 92.2365 -138.890076 
L 95.78815 -124.525029 
L 99.3398 -115.278259 
L 102.89145 -115.278259 
L 106.4431 -115.278259 
L 109.99475 -115.278259 
L 113.5464 -115.278259 
L 117.09805 -115.278259 
L 120.6497 -115.278259 
L 124.20135 -115.278259 
L 127.753 -115.278259 
L 131.30465 -115.278259 
L 134.8563 -115.278259 
L 138.40795 -115.278259 
L 141.9596 -115.278259 
L 145.51125 -115.278259 
L 149.0629 -115.278259 
L 152.61455 -115.278259 
L 156.1662 -115.278259 
L 159.71785 -115.278259 
L 163.2695 -115.278259 
L 166.82115 -115.278259 
L 170.3728 -115.278259 
L 173.92445 -115.278259 
L 177.4761 -115.278259 
L 181.02775 -115.278259 
L 184.5794 -115.278259 
L 188.13105 -115.09805 
L 191.6827 -115.09805 
L 195.23435 -115.09805 
L 198.786 -115.09805 
L 202.33765 -115.09805 
L 205.8893 -107.196932 
L 209.44095 -94.877442 
L 212.9926 -89.461779 
L 216.54425 -84.435163 
L 220.0959 -84.435163 
L 223.64755 -84.435163 
L 227.1992 -84.435163 
L 230.75085 -79.815738 
L 234.3025 -75.767321 
L 237.85415 -75.767321 
L 241.4058 -72.447486 
L 244.95745 -72.447486 
L 248.5091 -72.447486 
L 252.06075 -72.447486 
L 255.6124 -72.447486 
L 259.16405 -72.447486 
L 262.7157 -72.447486 
L 266.26735 -72.447486 
L 269.819 -72.447486 
L 273.37065 -72.447486 
L 276.9223 -72.447486 
L 280.47395 -72.447486 
L 284.0256 -72.447486 
L 287.57725 -72.447486 
L 291.1289 -72.447486 
L 294.68055 -72.447486 
L 298.2322 -72.447486 
L 301.78385 -72.447486 
L 305.3355 -72.447486 
L 308.88715 -72.447486 
L 312.4388 -72.447486 
L 315.99045 -70.31839 
L 319.5421 -70.31839 
L 323.09375 -70.31839 
L 326.6454 -70.31839 
L 330.19705 -70.31839 
L 333.7487 -70.31839 
L 337.30035 -70.31839 
L 340.852 -70.31839 
L 344.40365 -70.31839 
L 347.9553 -70.31839 
L 351.50695 -70.31839 
L 355.0586 -70.31839 
L 358.61025 -70.31839 
L 362.1619 -70.31839 
L 365.71355 -70.31839 
L 369.2652 -70.31839 
L 372.81685 -70.31839 
L 376.3685 -70.31839 
L 379.92015 -70.31839 
L 383.4718 -70.31839 
L 387.02345 -70.31839 
L 390.5751 -70.31839 
L 394.12675 -70.31839 
L 397.6784 -70.31839 
L 401.23005 -70.31839 
L 404.7817 -70.31839 
L 408.33335 -70.31839 
L 411.885 -70.31839 
L 411.885 -70.31839 
L 411.885 -70.31839 
L 408.33335 -70.31839 
L 404.7817 -70.31839 
L 401.23005 -70.31839 
L 397.6784 -70.31839 
L 394.12675 -70.31839 
L 390.5751 -70.31839 
L 387.02345 -70.31839 
L 383.4718 -70.31839 
L 379.92015 -70.31839 
L 376.3685 -70.31839 
L 372.81685 -70.31839 
L 369.2652 -70.31839 
L 365.71355 -70.31839 
L 362.1619 -70.31839 
L 358.61025 -76.181411 
L 355.0586 -76.181411 
L 351.50695 -76.181411 
L 347.9553 -76.181411 
L 344.40365 -76.181411 
L 340.852 -76.181411 
L 337.30035 -76.181411 
L 333.7487 -76.181411 
L 330.19705 -76.181411 
L 326.6454 -76.181411 
L 323.09375 -76.181411 
L 319.5421 -76.181411 
L 315.99045 -76.181411 
L 312.4388 -81.099228 
L 308.88715 -81.099228 
L 305.3355 -81.099228 
L 301.78385 -81.099228 
L 298.2322 -81.099228 
L 294.68055 -81.099228 
L 291.1289 -81.099228 
L 287.57725 -81.099228 
L 284.0256 -81.099228 
L 280.47395 -81.099228 
L 276.9223 -81.099228 
L 273.37065 -81.099228 
L 269.819 -81.099228 
L 266.26735 -81.099228 
L 262.7157 -81.099228 
L 259.16405 -81.099228 
L 255.6124 -81.099228 
L 252.06075 -81.099228 
L 248.5091 -81.099228 
L 244.95745 -81.099228 
L 241.4058 -81.099228 
L 237.85415 -88.051261 
L 234.3025 -88.051261 
L 230.75085 -93.862822 
L 227.1992 -99.515263 
L 223.64755 -99.515263 
L 220.0959 -99.515263 
L 216.54425 -99.515263 
L 212.9926 -104.760515 
L 209.44095 -109.61672 
L 205.8893 -117.840964 
L 202.33765 -120.211713 
L 198.786 -120.211713 
L 195.23435 -120.211713 
L 191.6827 -120.211713 
L 188.13105 -120.211713 
L 184.5794 -120.443394 
L 181.02775 -120.443394 
L 177.4761 -120.443394 
L 173.92445 -120.443394 
L 170.3728 -120.443394 
L 166.82115 -120.443394 
L 163.2695 -120.443394 
L 159.71785 -120.443394 
L 156.1662 -120.443394 
L 152.61455 -120.443394 
L 149.0629 -120.443394 
L 145.51125 -120.443394 
L 141.9596 -120.443394 
L 138.40795 -120.443394 
L 134.8563 -120.443394 
L 131.30465 -120.443394 
L 127.753 -120.443394 
L 124.20135 -120.443394 
L 120.6497 -120.443394 
L 117.09805 -120.443394 
L 113.5464 -120.443394 
L 109.99475 -120.443394 
L 106.4431 -120.443394 
L 102.89145 -120.443394 
L 99.3398 -120.443394 
L 95.78815 -141.001224 
L 92.2365 -157.848227 
L 88.68485 -157.848227 
L 85.1332 -157.848227 
L 81.58155 -157.848227 
L 78.0299 -157.848227 
L 74.47825 -157.848227 
L 70.9266 -157.848227 
L 67.37495 -157.848227 
L 63.8233 -157.848227 
L 60.27165 -157.848227 
L 56.72 -157.848227 
z
" style="stroke: #808080; stroke-opacity: 0.15; stroke-width: 2"/>
    </defs>
    <g clip-path="url(#pc739fb20b0)">
     <use xlink:href="#ma1619379f5" x="0" y="216" style="fill: #808080; fill-opacity: 0.15; stroke: #808080; stroke-opacity: 0.15; stroke-width: 2"/>
    </g>
   </g>
   <g id="FillBetweenPolyCollection_2">
    <defs>
     <path id="m240c26d4ef" d="M 56.72 -157.848227 
L 56.72 -138.890076 
L 60.27165 -132.734055 
L 63.8233 -132.734055 
L 67.37495 -132.734055 
L 70.9266 -132.734055 
L 74.47825 -116.273463 
L 78.0299 -114.490187 
L 81.58155 -114.243788 
L 85.1332 -111.453468 
L 88.68485 -109.217083 
L 92.2365 -106.607851 
L 95.78815 -106.607851 
L 99.3398 -105.742559 
L 102.89145 -105.742559 
L 106.4431 -105.742559 
L 109.99475 -105.742559 
L 113.5464 -105.742559 
L 117.09805 -103.44475 
L 120.6497 -102.292536 
L 124.20135 -100.483287 
L 127.753 -100.483287 
L 131.30465 -100.483287 
L 134.8563 -100.483287 
L 138.40795 -98.458181 
L 141.9596 -98.458181 
L 145.51125 -93.363349 
L 149.0629 -93.363349 
L 152.61455 -93.363349 
L 156.1662 -93.363349 
L 159.71785 -93.363349 
L 163.2695 -93.363349 
L 166.82115 -93.363349 
L 170.3728 -85.968448 
L 173.92445 -85.697585 
L 177.4761 -85.697585 
L 181.02775 -85.697585 
L 184.5794 -85.322264 
L 188.13105 -85.322264 
L 191.6827 -85.322264 
L 195.23435 -80.542799 
L 198.786 -78.225968 
L 202.33765 -78.225968 
L 205.8893 -78.225968 
L 209.44095 -78.225968 
L 212.9926 -78.225968 
L 216.54425 -78.101495 
L 220.0959 -78.101495 
L 223.64755 -75.189655 
L 227.1992 -75.189655 
L 230.75085 -75.189655 
L 234.3025 -75.189655 
L 237.85415 -71.905679 
L 241.4058 -71.905679 
L 244.95745 -71.905679 
L 248.5091 -71.905679 
L 252.06075 -71.905679 
L 255.6124 -71.905679 
L 259.16405 -67.943353 
L 262.7157 -67.943353 
L 266.26735 -67.943353 
L 269.819 -66.964863 
L 273.37065 -66.713721 
L 276.9223 -66.713721 
L 280.47395 -66.713721 
L 284.0256 -66.246833 
L 287.57725 -66.246833 
L 291.1289 -66.246833 
L 294.68055 -66.246833 
L 298.2322 -66.246833 
L 301.78385 -66.246833 
L 305.3355 -66.246833 
L 308.88715 -66.246833 
L 312.4388 -66.246833 
L 315.99045 -66.246833 
L 319.5421 -66.246833 
L 323.09375 -66.246833 
L 326.6454 -66.079401 
L 330.19705 -66.079401 
L 333.7487 -66.079401 
L 337.30035 -66.079401 
L 340.852 -66.079401 
L 344.40365 -66.079401 
L 347.9553 -66.079401 
L 351.50695 -64.738453 
L 355.0586 -64.738453 
L 358.61025 -64.738453 
L 362.1619 -64.738453 
L 365.71355 -64.738453 
L 369.2652 -64.738453 
L 372.81685 -64.595742 
L 376.3685 -64.595742 
L 379.92015 -64.595742 
L 383.4718 -64.595742 
L 387.02345 -62.557109 
L 390.5751 -62.44001 
L 394.12675 -62.135388 
L 397.6784 -62.135388 
L 401.23005 -60.707336 
L 404.7817 -60.239855 
L 408.33335 -60.239855 
L 411.885 -60.239855 
L 411.885 -79.922356 
L 411.885 -79.922356 
L 408.33335 -79.922356 
L 404.7817 -79.922356 
L 401.23005 -80.20784 
L 397.6784 -81.237345 
L 394.12675 -81.237345 
L 390.5751 -81.393429 
L 387.02345 -81.487958 
L 383.4718 -83.541752 
L 379.92015 -83.541752 
L 376.3685 -83.541752 
L 372.81685 -83.541752 
L 369.2652 -83.656668 
L 365.71355 -83.656668 
L 362.1619 -83.656668 
L 358.61025 -83.656668 
L 355.0586 -83.656668 
L 351.50695 -83.656668 
L 347.9553 -84.413392 
L 344.40365 -84.413392 
L 340.852 -84.413392 
L 337.30035 -84.413392 
L 333.7487 -84.413392 
L 330.19705 -84.413392 
L 326.6454 -84.413392 
L 323.09375 -84.963476 
L 319.5421 -84.963476 
L 315.99045 -84.963476 
L 312.4388 -84.963476 
L 308.88715 -84.963476 
L 305.3355 -84.963476 
L 301.78385 -84.963476 
L 298.2322 -84.963476 
L 294.68055 -84.963476 
L 291.1289 -84.963476 
L 287.57725 -84.963476 
L 284.0256 -84.963476 
L 280.47395 -85.931413 
L 276.9223 -85.931413 
L 273.37065 -85.931413 
L 269.819 -86.517805 
L 266.26735 -90.315843 
L 262.7157 -90.315843 
L 259.16405 -90.315843 
L 255.6124 -94.485134 
L 252.06075 -94.485134 
L 248.5091 -94.485134 
L 244.95745 -94.485134 
L 241.4058 -94.485134 
L 237.85415 -94.485134 
L 234.3025 -102.343747 
L 230.75085 -102.343747 
L 227.1992 -102.343747 
L 223.64755 -102.343747 
L 220.0959 -104.351227 
L 216.54425 -104.351227 
L 212.9926 -104.830805 
L 209.44095 -104.830805 
L 205.8893 -104.830805 
L 202.33765 -104.830805 
L 198.786 -104.830805 
L 195.23435 -107.900812 
L 191.6827 -112.317455 
L 188.13105 -112.317455 
L 184.5794 -112.317455 
L 181.02775 -112.502128 
L 177.4761 -112.502128 
L 173.92445 -112.502128 
L 170.3728 -112.90783 
L 166.82115 -116.465614 
L 163.2695 -116.465614 
L 159.71785 -116.465614 
L 156.1662 -116.465614 
L 152.61455 -116.465614 
L 149.0629 -116.465614 
L 145.51125 -116.465614 
L 141.9596 -120.038889 
L 138.40795 -120.038889 
L 134.8563 -121.378026 
L 131.30465 -121.378026 
L 127.753 -121.378026 
L 124.20135 -121.378026 
L 120.6497 -121.96811 
L 117.09805 -122.540964 
L 113.5464 -124.849455 
L 109.99475 -124.849455 
L 106.4431 -124.849455 
L 102.89145 -124.849455 
L 99.3398 -124.849455 
L 95.78815 -125.971921 
L 92.2365 -125.971921 
L 88.68485 -127.334189 
L 85.1332 -131.796884 
L 81.58155 -135.826547 
L 78.0299 -136.621471 
L 74.47825 -137.525591 
L 70.9266 -149.294313 
L 67.37495 -149.294313 
L 63.8233 -149.294313 
L 60.27165 -149.294313 
L 56.72 -157.848227 
z
" style="stroke: #7c92ff; stroke-opacity: 0.15; stroke-width: 2"/>
    </defs>
    <g clip-path="url(#pc739fb20b0)">
     <use xlink:href="#m240c26d4ef" x="0" y="216" style="fill: #7c92ff; fill-opacity: 0.15; stroke: #7c92ff; stroke-opacity: 0.15; stroke-width: 2"/>
    </g>
   </g>
   <g id="FillBetweenPolyCollection_3">
    <defs>
     <path id="m6af022acf7" d="M 56.72 -157.848227 
L 56.72 -138.890076 
L 60.27165 -138.890076 
L 63.8233 -134.003435 
L 67.37495 -126.925445 
L 70.9266 -123.33019 
L 74.47825 -122.286373 
L 78.0299 -114.999181 
L 81.58155 -106.062529 
L 85.1332 -93.527071 
L 88.68485 -86.289124 
L 92.2365 -85.741123 
L 95.78815 -85.741123 
L 99.3398 -83.684821 
L 102.89145 -83.684821 
L 106.4431 -83.684821 
L 109.99475 -83.684821 
L 113.5464 -83.684821 
L 117.09805 -83.684821 
L 120.6497 -78.000497 
L 124.20135 -78.000497 
L 127.753 -78.000497 
L 131.30465 -73.184585 
L 134.8563 -71.896775 
L 138.40795 -70.625651 
L 141.9596 -70.625651 
L 145.51125 -70.625651 
L 149.0629 -70.625651 
L 152.61455 -70.625651 
L 156.1662 -70.625651 
L 159.71785 -70.347155 
L 163.2695 -67.65144 
L 166.82115 -67.65144 
L 170.3728 -66.641366 
L 173.92445 -66.641366 
L 177.4761 -66.641366 
L 181.02775 -66.641366 
L 184.5794 -66.641366 
L 188.13105 -66.641366 
L 191.6827 -66.641366 
L 195.23435 -66.641366 
L 198.786 -66.199751 
L 202.33765 -66.199751 
L 205.8893 -66.199751 
L 209.44095 -63.811544 
L 212.9926 -62.909859 
L 216.54425 -60.05487 
L 220.0959 -60.05487 
L 223.64755 -59.759529 
L 227.1992 -59.759529 
L 230.75085 -59.759529 
L 234.3025 -59.759529 
L 237.85415 -59.759529 
L 241.4058 -59.759529 
L 244.95745 -59.759529 
L 248.5091 -58.867805 
L 252.06075 -58.867805 
L 255.6124 -58.867805 
L 259.16405 -58.867805 
L 262.7157 -57.800072 
L 266.26735 -57.800072 
L 269.819 -57.800072 
L 273.37065 -57.800072 
L 276.9223 -57.800072 
L 280.47395 -57.800072 
L 284.0256 -57.800072 
L 287.57725 -57.800072 
L 291.1289 -57.800072 
L 294.68055 -57.800072 
L 298.2322 -57.800072 
L 301.78385 -56.38282 
L 305.3355 -56.38282 
L 308.88715 -56.38282 
L 312.4388 -56.38282 
L 315.99045 -54.675389 
L 319.5421 -54.675389 
L 323.09375 -53.843814 
L 326.6454 -51.341843 
L 330.19705 -51.341843 
L 333.7487 -51.341843 
L 337.30035 -51.341843 
L 340.852 -51.341843 
L 344.40365 -51.341843 
L 347.9553 -51.341843 
L 351.50695 -51.341843 
L 355.0586 -50.956647 
L 358.61025 -50.956647 
L 362.1619 -50.956647 
L 365.71355 -50.956647 
L 369.2652 -50.956647 
L 372.81685 -50.956647 
L 376.3685 -50.001765 
L 379.92015 -49.910957 
L 383.4718 -49.910957 
L 387.02345 -49.546851 
L 390.5751 -49.546851 
L 394.12675 -49.546851 
L 397.6784 -49.546851 
L 401.23005 -49.546851 
L 404.7817 -49.546851 
L 408.33335 -49.192773 
L 411.885 -49.192773 
L 411.885 -60.856175 
L 411.885 -60.856175 
L 408.33335 -60.856175 
L 404.7817 -61.093706 
L 401.23005 -61.093706 
L 397.6784 -61.093706 
L 394.12675 -61.093706 
L 390.5751 -61.093706 
L 387.02345 -61.093706 
L 383.4718 -61.402458 
L 379.92015 -61.402458 
L 376.3685 -61.487432 
L 372.81685 -62.502959 
L 369.2652 -62.502959 
L 365.71355 -62.502959 
L 362.1619 -62.502959 
L 358.61025 -62.502959 
L 355.0586 -62.502959 
L 351.50695 -63.028974 
L 347.9553 -63.028974 
L 344.40365 -63.028974 
L 340.852 -63.028974 
L 337.30035 -63.028974 
L 333.7487 -63.028974 
L 330.19705 -63.028974 
L 326.6454 -63.028974 
L 323.09375 -66.449805 
L 319.5421 -67.712611 
L 315.99045 -67.712611 
L 312.4388 -72.523845 
L 308.88715 -72.523845 
L 305.3355 -72.523845 
L 301.78385 -72.523845 
L 298.2322 -73.361961 
L 294.68055 -73.361961 
L 291.1289 -73.361961 
L 287.57725 -73.361961 
L 284.0256 -73.361961 
L 280.47395 -73.361961 
L 276.9223 -73.361961 
L 273.37065 -73.361961 
L 269.819 -73.361961 
L 266.26735 -73.361961 
L 262.7157 -73.361961 
L 259.16405 -75.275954 
L 255.6124 -75.275954 
L 252.06075 -75.275954 
L 248.5091 -75.275954 
L 244.95745 -75.836713 
L 241.4058 -75.836713 
L 237.85415 -75.836713 
L 234.3025 -75.836713 
L 230.75085 -75.836713 
L 227.1992 -75.836713 
L 223.64755 -75.836713 
L 220.0959 -76.510376 
L 216.54425 -76.510376 
L 212.9926 -79.090407 
L 209.44095 -81.958116 
L 205.8893 -83.877022 
L 202.33765 -83.877022 
L 198.786 -83.877022 
L 195.23435 -84.398925 
L 191.6827 -84.398925 
L 188.13105 -84.398925 
L 184.5794 -84.398925 
L 181.02775 -84.398925 
L 177.4761 -84.398925 
L 173.92445 -84.398925 
L 170.3728 -84.398925 
L 166.82115 -84.867926 
L 163.2695 -84.867926 
L 159.71785 -89.976564 
L 156.1662 -90.119144 
L 152.61455 -90.119144 
L 149.0629 -90.119144 
L 145.51125 -90.119144 
L 141.9596 -90.119144 
L 138.40795 -90.119144 
L 134.8563 -92.877239 
L 131.30465 -97.042576 
L 127.753 -100.033119 
L 124.20135 -100.033119 
L 120.6497 -100.033119 
L 117.09805 -104.893131 
L 113.5464 -104.893131 
L 109.99475 -104.893131 
L 106.4431 -104.893131 
L 102.89145 -104.893131 
L 99.3398 -104.893131 
L 95.78815 -106.172121 
L 92.2365 -106.172121 
L 88.68485 -106.540449 
L 85.1332 -113.71824 
L 81.58155 -124.261117 
L 78.0299 -128.105248 
L 74.47825 -136.627106 
L 70.9266 -138.282768 
L 67.37495 -143.40123 
L 63.8233 -152.375005 
L 60.27165 -157.848227 
L 56.72 -157.848227 
z
" style="stroke: #69f7ae; stroke-opacity: 0.15; stroke-width: 2"/>
    </defs>
    <g clip-path="url(#pc739fb20b0)">
     <use xlink:href="#m6af022acf7" x="0" y="216" style="fill: #69f7ae; fill-opacity: 0.15; stroke: #69f7ae; stroke-opacity: 0.15; stroke-width: 2"/>
    </g>
   </g>
   <g id="patch_3">
    <path d="M 56.72 172.24 
L 56.72 52.719 
" style="fill: none; stroke: #000000; stroke-width: 0.8; stroke-linejoin: miter; stroke-linecap: square"/>
   </g>
   <g id="patch_4">
    <path d="M 411.885 172.24 
L 411.885 52.719 
" style="fill: none; stroke: #000000; stroke-width: 0.8; stroke-linejoin: miter; stroke-linecap: square"/>
   </g>
   <g id="patch_5">
    <path d="M 56.72 172.24 
L 411.885 172.24 
" style="fill: none; stroke: #000000; stroke-width: 0.8; stroke-linejoin: miter; stroke-linecap: square"/>
   </g>
   <g id="patch_6">
    <path d="M 56.72 52.719 
L 411.885 52.719 
" style="fill: none; stroke: #000000; stroke-width: 0.8; stroke-linejoin: miter; stroke-linecap: square"/>
   </g>
   <g id="line2d_17">
    <path d="M 56.72 67.630848 
L 60.27165 67.630848 
L 63.8233 67.630848 
L 67.37495 67.630848 
L 70.9266 67.630848 
L 74.47825 67.630848 
L 78.0299 67.630848 
L 81.58155 67.630848 
L 85.1332 67.630848 
L 88.68485 67.630848 
L 92.2365 67.630848 
L 95.78815 83.236873 
L 99.3398 98.139173 
L 102.89145 98.139173 
L 106.4431 98.139173 
L 109.99475 98.139173 
L 113.5464 98.139173 
L 117.09805 98.139173 
L 120.6497 98.139173 
L 124.20135 98.139173 
L 127.753 98.139173 
L 131.30465 98.139173 
L 134.8563 98.139173 
L 138.40795 98.139173 
L 141.9596 98.139173 
L 145.51125 98.139173 
L 149.0629 98.139173 
L 152.61455 98.139173 
L 156.1662 98.139173 
L 159.71785 98.139173 
L 163.2695 98.139173 
L 166.82115 98.139173 
L 170.3728 98.139173 
L 173.92445 98.139173 
L 177.4761 98.139173 
L 181.02775 98.139173 
L 184.5794 98.139173 
L 188.13105 98.345118 
L 191.6827 98.345118 
L 195.23435 98.345118 
L 198.786 98.345118 
L 202.33765 98.345118 
L 205.8893 103.481052 
L 209.44095 113.752919 
L 212.9926 118.888853 
L 216.54425 124.024787 
L 220.0959 124.024787 
L 223.64755 124.024787 
L 227.1992 124.024787 
L 230.75085 129.16072 
L 234.3025 134.090709 
L 237.85415 134.090709 
L 241.4058 139.226643 
L 244.95745 139.226643 
L 248.5091 139.226643 
L 252.06075 139.226643 
L 255.6124 139.226643 
L 259.16405 139.226643 
L 262.7157 139.226643 
L 266.26735 139.226643 
L 269.819 139.226643 
L 273.37065 139.226643 
L 276.9223 139.226643 
L 280.47395 139.226643 
L 284.0256 139.226643 
L 287.57725 139.226643 
L 291.1289 139.226643 
L 294.68055 139.226643 
L 298.2322 139.226643 
L 301.78385 139.226643 
L 305.3355 139.226643 
L 308.88715 139.226643 
L 312.4388 139.226643 
L 315.99045 142.7501 
L 319.5421 142.7501 
L 323.09375 142.7501 
L 326.6454 142.7501 
L 330.19705 142.7501 
L 333.7487 142.7501 
L 337.30035 142.7501 
L 340.852 142.7501 
L 344.40365 142.7501 
L 347.9553 142.7501 
L 351.50695 142.7501 
L 355.0586 142.7501 
L 358.61025 142.7501 
L 362.1619 145.68161 
L 365.71355 145.68161 
L 369.2652 145.68161 
L 372.81685 145.68161 
L 376.3685 145.68161 
L 379.92015 145.68161 
L 383.4718 145.68161 
L 387.02345 145.68161 
L 390.5751 145.68161 
L 394.12675 145.68161 
L 397.6784 145.68161 
L 401.23005 145.68161 
L 404.7817 145.68161 
L 408.33335 145.68161 
L 411.885 145.68161 
" clip-path="url(#pc739fb20b0)" style="fill: none; stroke: #808080; stroke-width: 2.5; stroke-linecap: square"/>
   </g>
   <g id="line2d_18">
    <path d="M 56.72 67.630848 
L 60.27165 74.985816 
L 63.8233 74.985816 
L 67.37495 74.985816 
L 70.9266 74.985816 
L 74.47825 89.100473 
L 78.0299 90.444171 
L 81.58155 90.964833 
L 85.1332 94.374824 
L 88.68485 97.724364 
L 92.2365 99.710114 
L 95.78815 99.710114 
L 99.3398 100.703993 
L 102.89145 100.703993 
L 106.4431 100.703993 
L 109.99475 100.703993 
L 113.5464 100.703993 
L 117.09805 103.007143 
L 120.6497 103.869677 
L 124.20135 105.069343 
L 127.753 105.069343 
L 131.30465 105.069343 
L 134.8563 105.069343 
L 138.40795 106.751465 
L 141.9596 106.751465 
L 145.51125 111.085518 
L 149.0629 111.085518 
L 152.61455 111.085518 
L 156.1662 111.085518 
L 159.71785 111.085518 
L 163.2695 111.085518 
L 166.82115 111.085518 
L 170.3728 116.561861 
L 173.92445 116.900144 
L 177.4761 116.900144 
L 181.02775 116.900144 
L 184.5794 117.18014 
L 188.13105 117.18014 
L 191.6827 117.18014 
L 195.23435 121.778195 
L 198.786 124.471614 
L 202.33765 124.471614 
L 205.8893 124.471614 
L 209.44095 124.471614 
L 212.9926 124.471614 
L 216.54425 124.773639 
L 220.0959 124.773639 
L 223.64755 127.233299 
L 227.1992 127.233299 
L 230.75085 127.233299 
L 234.3025 127.233299 
L 237.85415 132.804594 
L 241.4058 132.804594 
L 244.95745 132.804594 
L 248.5091 132.804594 
L 252.06075 132.804594 
L 255.6124 132.804594 
L 259.16405 136.870402 
L 262.7157 136.870402 
L 266.26735 136.870402 
L 269.819 139.258666 
L 273.37065 139.677433 
L 276.9223 139.677433 
L 280.47395 139.677433 
L 284.0256 140.394845 
L 287.57725 140.394845 
L 291.1289 140.394845 
L 294.68055 140.394845 
L 298.2322 140.394845 
L 301.78385 140.394845 
L 305.3355 140.394845 
L 308.88715 140.394845 
L 312.4388 140.394845 
L 315.99045 140.394845 
L 319.5421 140.394845 
L 323.09375 140.394845 
L 326.6454 140.753603 
L 330.19705 140.753603 
L 333.7487 140.753603 
L 337.30035 140.753603 
L 340.852 140.753603 
L 344.40365 140.753603 
L 347.9553 140.753603 
L 351.50695 141.80244 
L 355.0586 141.80244 
L 358.61025 141.80244 
L 362.1619 141.80244 
L 365.71355 141.80244 
L 369.2652 141.80244 
L 372.81685 141.931253 
L 376.3685 141.931253 
L 379.92015 141.931253 
L 383.4718 141.931253 
L 387.02345 143.977466 
L 390.5751 144.08328 
L 394.12675 144.313633 
L 397.6784 144.313633 
L 401.23005 145.542412 
L 404.7817 145.918894 
L 408.33335 145.918894 
L 411.885 145.918894 
" clip-path="url(#pc739fb20b0)" style="fill: none; stroke: #7c92ff; stroke-width: 2.5; stroke-linecap: square"/>
   </g>
   <g id="line2d_19">
    <path d="M 56.72 67.630848 
L 60.27165 67.630848 
L 63.8233 72.81078 
L 67.37495 80.836662 
L 70.9266 85.193521 
L 74.47825 86.543261 
L 78.0299 94.447786 
L 81.58155 100.838177 
L 85.1332 112.377344 
L 88.68485 119.585213 
L 92.2365 120.043378 
L 95.78815 120.043378 
L 99.3398 121.711024 
L 102.89145 121.711024 
L 106.4431 121.711024 
L 109.99475 121.711024 
L 113.5464 121.711024 
L 117.09805 121.711024 
L 120.6497 126.983192 
L 124.20135 126.983192 
L 127.753 126.983192 
L 131.30465 130.886419 
L 134.8563 133.612993 
L 138.40795 135.627603 
L 141.9596 135.627603 
L 145.51125 135.627603 
L 149.0629 135.627603 
L 152.61455 135.627603 
L 156.1662 135.627603 
L 159.71785 135.83814 
L 163.2695 139.740317 
L 166.82115 139.740317 
L 170.3728 140.479855 
L 173.92445 140.479855 
L 177.4761 140.479855 
L 181.02775 140.479855 
L 184.5794 140.479855 
L 188.13105 140.479855 
L 191.6827 140.479855 
L 195.23435 140.479855 
L 198.786 140.961614 
L 202.33765 140.961614 
L 205.8893 140.961614 
L 209.44095 143.11517 
L 212.9926 144.999867 
L 216.54425 147.717377 
L 220.0959 147.717377 
L 223.64755 148.201879 
L 227.1992 148.201879 
L 230.75085 148.201879 
L 234.3025 148.201879 
L 237.85415 148.201879 
L 241.4058 148.201879 
L 244.95745 148.201879 
L 248.5091 148.92812 
L 252.06075 148.92812 
L 255.6124 148.92812 
L 259.16405 148.92812 
L 262.7157 150.418984 
L 266.26735 150.418984 
L 269.819 150.418984 
L 273.37065 150.418984 
L 276.9223 150.418984 
L 280.47395 150.418984 
L 284.0256 150.418984 
L 287.57725 150.418984 
L 291.1289 150.418984 
L 294.68055 150.418984 
L 298.2322 150.418984 
L 301.78385 151.546667 
L 305.3355 151.546667 
L 308.88715 151.546667 
L 312.4388 151.546667 
L 315.99045 154.806 
L 319.5421 154.806 
L 323.09375 155.853191 
L 326.6454 158.814592 
L 330.19705 158.814592 
L 333.7487 158.814592 
L 337.30035 158.814592 
L 340.852 158.814592 
L 344.40365 158.814592 
L 347.9553 158.814592 
L 351.50695 158.814592 
L 355.0586 159.270197 
L 358.61025 159.270197 
L 362.1619 159.270197 
L 365.71355 159.270197 
L 369.2652 159.270197 
L 372.81685 159.270197 
L 376.3685 160.255402 
L 379.92015 160.343293 
L 383.4718 160.343293 
L 387.02345 160.679721 
L 390.5751 160.679721 
L 394.12675 160.679721 
L 397.6784 160.679721 
L 401.23005 160.679721 
L 404.7817 160.679721 
L 408.33335 160.975526 
L 411.885 160.975526 
" clip-path="url(#pc739fb20b0)" style="fill: none; stroke: #69f7ae; stroke-width: 2.5; stroke-linecap: square"/>
   </g>
   <g id="text_11">
    <!-- Best Value Evolution Over BO Rounds -->
    <g transform="translate(138.819531 22.56425) scale(0.13 -0.13)">
     <defs>
      <path id="RobotoCondensed-Regular-56" d="M 3459 4550 
L 2047 0 
L 1547 0 
L 134 4550 
L 759 4550 
L 1794 872 
L 2834 4550 
L 3459 4550 
z
" transform="scale(0.015625)"/>
      <path id="RobotoCondensed-Regular-6c" d="M 1009 4800 
L 1009 0 
L 459 0 
L 459 4800 
L 1009 4800 
z
" transform="scale(0.015625)"/>
      <path id="RobotoCondensed-Regular-45" d="M 491 0 
L 491 4550 
L 2906 4550 
L 2906 4056 
L 1066 4056 
L 1066 2594 
L 2672 2594 
L 2672 2103 
L 1066 2103 
L 1066 491 
L 2938 491 
L 2938 0 
L 491 0 
z
" transform="scale(0.015625)"/>
      <path id="RobotoCondensed-Regular-76" d="M 2578 3381 
L 1575 0 
L 1159 0 
L 144 3381 
L 706 3381 
L 1372 847 
L 2016 3381 
L 2578 3381 
z
" transform="scale(0.015625)"/>
     </defs>
     <use xlink:href="#RobotoCondensed-Regular-42"/>
     <use xlink:href="#RobotoCondensed-Regular-65" transform="translate(54.589844 0)"/>
     <use xlink:href="#RobotoCondensed-Regular-73" transform="translate(101.464844 0)"/>
     <use xlink:href="#RobotoCondensed-Regular-74" transform="translate(147.070312 0)"/>
     <use xlink:href="#RobotoCondensed-Regular-20" transform="translate(176.660156 0)"/>
     <use xlink:href="#RobotoCondensed-Regular-56" transform="translate(199.609375 0)"/>
     <use xlink:href="#RobotoCondensed-Regular-61" transform="translate(255.664062 0)"/>
     <use xlink:href="#RobotoCondensed-Regular-6c" transform="translate(303.564453 0)"/>
     <use xlink:href="#RobotoCondensed-Regular-75" transform="translate(326.513672 0)"/>
     <use xlink:href="#RobotoCondensed-Regular-65" transform="translate(374.853516 0)"/>
     <use xlink:href="#RobotoCondensed-Regular-20" transform="translate(421.728516 0)"/>
     <use xlink:href="#RobotoCondensed-Regular-45" transform="translate(444.677734 0)"/>
     <use xlink:href="#RobotoCondensed-Regular-76" transform="translate(494.384766 0)"/>
     <use xlink:href="#RobotoCondensed-Regular-6f" transform="translate(537.158203 0)"/>
     <use xlink:href="#RobotoCondensed-Regular-6c" transform="translate(587.353516 0)"/>
     <use xlink:href="#RobotoCondensed-Regular-75" transform="translate(610.302734 0)"/>
     <use xlink:href="#RobotoCondensed-Regular-74" transform="translate(658.642578 0)"/>
     <use xlink:href="#RobotoCondensed-Regular-69" transform="translate(688.232422 0)"/>
     <use xlink:href="#RobotoCondensed-Regular-6f" transform="translate(711.181641 0)"/>
     <use xlink:href="#RobotoCondensed-Regular-6e" transform="translate(761.376953 0)"/>
     <use xlink:href="#RobotoCondensed-Regular-20" transform="translate(809.814453 0)"/>
     <use xlink:href="#RobotoCondensed-Regular-4f" transform="translate(832.763672 0)"/>
     <use xlink:href="#RobotoCondensed-Regular-76" transform="translate(892.871094 0)"/>
     <use xlink:href="#RobotoCondensed-Regular-65" transform="translate(935.644531 0)"/>
     <use xlink:href="#RobotoCondensed-Regular-72" transform="translate(982.519531 0)"/>
     <use xlink:href="#RobotoCondensed-Regular-20" transform="translate(1012.988281 0)"/>
     <use xlink:href="#RobotoCondensed-Regular-42" transform="translate(1035.9375 0)"/>
     <use xlink:href="#RobotoCondensed-Regular-4f" transform="translate(1090.527344 0)"/>
     <use xlink:href="#RobotoCondensed-Regular-20" transform="translate(1150.634766 0)"/>
     <use xlink:href="#RobotoCondensed-Regular-52" transform="translate(1173.583984 0)"/>
     <use xlink:href="#RobotoCondensed-Regular-6f" transform="translate(1226.660156 0)"/>
     <use xlink:href="#RobotoCondensed-Regular-75" transform="translate(1276.855469 0)"/>
     <use xlink:href="#RobotoCondensed-Regular-6e" transform="translate(1325.195312 0)"/>
     <use xlink:href="#RobotoCondensed-Regular-64" transform="translate(1373.632812 0)"/>
     <use xlink:href="#RobotoCondensed-Regular-73" transform="translate(1423.242188 0)"/>
    </g>
    <!-- Embedding Size = 64 (mean ± std across trials) -->
    <g transform="translate(113.660469 37.719) scale(0.13 -0.13)">
     <defs>
      <path id="RobotoCondensed-Regular-6d" d="M 1556 2956 
Q 1141 2956 969 2544 
L 969 0 
L 419 0 
L 419 3381 
L 938 3381 
L 953 3075 
Q 1256 3444 1766 3444 
Q 2325 3444 2553 2953 
Q 2872 3444 3441 3444 
Q 3903 3444 4151 3153 
Q 4400 2863 4400 2222 
L 4400 0 
L 3847 0 
L 3847 2228 
Q 3847 2653 3692 2804 
Q 3538 2956 3272 2956 
Q 3016 2956 2864 2757 
Q 2713 2559 2684 2272 
L 2684 0 
L 2131 0 
L 2131 2272 
Q 2116 2956 1556 2956 
z
" transform="scale(0.015625)"/>
      <path id="RobotoCondensed-Regular-62" d="M 2866 1528 
Q 2866 725 2575 331 
Q 2284 -63 1753 -63 
Q 1219 -63 950 400 
L 922 0 
L 416 0 
L 416 4800 
L 969 4800 
L 969 3016 
Q 1234 3444 1750 3444 
Q 2278 3444 2567 3073 
Q 2856 2703 2866 1897 
L 2866 1528 
z
M 1606 2956 
Q 1181 2956 969 2497 
L 969 884 
Q 1181 428 1609 428 
Q 1984 428 2146 690 
Q 2309 953 2313 1506 
L 2313 1844 
Q 2313 2406 2159 2681 
Q 2006 2956 1606 2956 
z
" transform="scale(0.015625)"/>
      <path id="RobotoCondensed-Regular-53" d="M 2481 1150 
Q 2481 1469 2312 1656 
Q 2144 1844 1591 2042 
Q 1038 2241 713 2547 
Q 388 2853 388 3375 
Q 388 3906 741 4259 
Q 1094 4613 1691 4613 
Q 2356 4613 2706 4191 
Q 3056 3769 3056 3238 
L 2481 3238 
Q 2481 3619 2293 3869 
Q 2106 4119 1691 4119 
Q 1313 4119 1139 3908 
Q 966 3697 966 3381 
Q 966 3094 1170 2903 
Q 1375 2713 1806 2556 
Q 2475 2338 2765 2013 
Q 3056 1688 3056 1156 
Q 3056 600 2695 268 
Q 2334 -63 1719 -63 
Q 1363 -63 1028 93 
Q 694 250 480 558 
Q 266 866 266 1319 
L 841 1319 
Q 841 853 1098 640 
Q 1356 428 1719 428 
Q 2094 428 2287 623 
Q 2481 819 2481 1150 
z
" transform="scale(0.015625)"/>
      <path id="RobotoCondensed-Regular-7a" d="M 306 2903 
L 306 3381 
L 2494 3381 
L 2494 2972 
L 931 475 
L 2556 475 
L 2556 0 
L 297 0 
L 297 425 
L 1844 2903 
L 306 2903 
z
" transform="scale(0.015625)"/>
      <path id="RobotoCondensed-Regular-3d" d="M 2653 3047 
L 2653 2544 
L 466 2544 
L 466 3047 
L 2653 3047 
z
M 2653 1750 
L 2653 1247 
L 466 1247 
L 466 1750 
L 2653 1750 
z
" transform="scale(0.015625)"/>
      <path id="RobotoCondensed-Regular-28" d="M 406 1850 
Q 406 2756 636 3434 
Q 866 4113 1177 4541 
Q 1488 4969 1728 5134 
L 1841 4753 
Q 1547 4475 1253 3761 
Q 959 3047 959 1813 
Q 959 625 1253 -97 
Q 1547 -819 1841 -1119 
L 1728 -1469 
Q 1488 -1306 1177 -878 
Q 866 -450 636 226 
Q 406 903 406 1850 
z
" transform="scale(0.015625)"/>
      <path id="RobotoCondensed-Regular-b1" d="M 2734 2197 
L 1809 2197 
L 1809 903 
L 1313 903 
L 1313 2197 
L 331 2197 
L 331 2672 
L 1313 2672 
L 1313 3959 
L 1809 3959 
L 1809 2672 
L 2734 2672 
L 2734 2197 
z
M 2616 475 
L 2616 3 
L 425 3 
L 425 475 
L 2616 475 
z
" transform="scale(0.015625)"/>
      <path id="RobotoCondensed-Regular-29" d="M 1603 1819 
Q 1603 906 1373 228 
Q 1144 -450 833 -878 
Q 522 -1306 281 -1469 
L 169 -1119 
Q 463 -841 758 -109 
Q 1053 622 1053 1856 
Q 1053 2647 904 3236 
Q 756 3825 550 4212 
Q 344 4600 169 4781 
L 281 5134 
Q 522 4969 833 4541 
Q 1144 4113 1373 3436 
Q 1603 2759 1603 1819 
z
" transform="scale(0.015625)"/>
     </defs>
     <use xlink:href="#RobotoCondensed-Regular-45"/>
     <use xlink:href="#RobotoCondensed-Regular-6d" transform="translate(49.707031 0)"/>
     <use xlink:href="#RobotoCondensed-Regular-62" transform="translate(125 0)"/>
     <use xlink:href="#RobotoCondensed-Regular-65" transform="translate(174.316406 0)"/>
     <use xlink:href="#RobotoCondensed-Regular-64" transform="translate(221.191406 0)"/>
     <use xlink:href="#RobotoCondensed-Regular-64" transform="translate(270.800781 0)"/>
     <use xlink:href="#RobotoCondensed-Regular-69" transform="translate(320.410156 0)"/>
     <use xlink:href="#RobotoCondensed-Regular-6e" transform="translate(343.359375 0)"/>
     <use xlink:href="#RobotoCondensed-Regular-67" transform="translate(391.796875 0)"/>
     <use xlink:href="#RobotoCondensed-Regular-20" transform="translate(441.113281 0)"/>
     <use xlink:href="#RobotoCondensed-Regular-53" transform="translate(464.0625 0)"/>
     <use xlink:href="#RobotoCondensed-Regular-69" transform="translate(515.917969 0)"/>
     <use xlink:href="#RobotoCondensed-Regular-7a" transform="translate(538.867188 0)"/>
     <use xlink:href="#RobotoCondensed-Regular-65" transform="translate(582.763672 0)"/>
     <use xlink:href="#RobotoCondensed-Regular-20" transform="translate(629.638672 0)"/>
     <use xlink:href="#RobotoCondensed-Regular-3d" transform="translate(652.587891 0)"/>
     <use xlink:href="#RobotoCondensed-Regular-20" transform="translate(700.488281 0)"/>
     <use xlink:href="#RobotoCondensed-Regular-36" transform="translate(723.4375 0)"/>
     <use xlink:href="#RobotoCondensed-Regular-34" transform="translate(772.802734 0)"/>
     <use xlink:href="#RobotoCondensed-Regular-20" transform="translate(822.167969 0)"/>
     <use xlink:href="#RobotoCondensed-Regular-28" transform="translate(845.117188 0)"/>
     <use xlink:href="#RobotoCondensed-Regular-6d" transform="translate(876.513672 0)"/>
     <use xlink:href="#RobotoCondensed-Regular-65" transform="translate(951.806641 0)"/>
     <use xlink:href="#RobotoCondensed-Regular-61" transform="translate(998.681641 0)"/>
     <use xlink:href="#RobotoCondensed-Regular-6e" transform="translate(1046.582031 0)"/>
     <use xlink:href="#RobotoCondensed-Regular-20" transform="translate(1095.019531 0)"/>
     <use xlink:href="#RobotoCondensed-Regular-b1" transform="translate(1117.96875 0)"/>
     <use xlink:href="#RobotoCondensed-Regular-20" transform="translate(1164.990234 0)"/>
     <use xlink:href="#RobotoCondensed-Regular-73" transform="translate(1187.939453 0)"/>
     <use xlink:href="#RobotoCondensed-Regular-74" transform="translate(1233.544922 0)"/>
     <use xlink:href="#RobotoCondensed-Regular-64" transform="translate(1263.134766 0)"/>
     <use xlink:href="#RobotoCondensed-Regular-20" transform="translate(1312.744141 0)"/>
     <use xlink:href="#RobotoCondensed-Regular-61" transform="translate(1335.693359 0)"/>
     <use xlink:href="#RobotoCondensed-Regular-63" transform="translate(1383.59375 0)"/>
     <use xlink:href="#RobotoCondensed-Regular-72" transform="translate(1429.785156 0)"/>
     <use xlink:href="#RobotoCondensed-Regular-6f" transform="translate(1460.253906 0)"/>
     <use xlink:href="#RobotoCondensed-Regular-73" transform="translate(1510.449219 0)"/>
     <use xlink:href="#RobotoCondensed-Regular-73" transform="translate(1556.054688 0)"/>
     <use xlink:href="#RobotoCondensed-Regular-20" transform="translate(1601.660156 0)"/>
     <use xlink:href="#RobotoCondensed-Regular-74" transform="translate(1624.609375 0)"/>
     <use xlink:href="#RobotoCondensed-Regular-72" transform="translate(1654.199219 0)"/>
     <use xlink:href="#RobotoCondensed-Regular-69" transform="translate(1684.667969 0)"/>
     <use xlink:href="#RobotoCondensed-Regular-61" transform="translate(1707.617188 0)"/>
     <use xlink:href="#RobotoCondensed-Regular-6c" transform="translate(1755.517578 0)"/>
     <use xlink:href="#RobotoCondensed-Regular-73" transform="translate(1778.466797 0)"/>
     <use xlink:href="#RobotoCondensed-Regular-29" transform="translate(1824.072266 0)"/>
    </g>
   </g>
   <g id="legend_1">
    <g id="patch_7">
     <path d="M 275.00375 111.201188 
L 404.185 111.201188 
Q 406.385 111.201188 406.385 109.001188 
L 406.385 60.419 
Q 406.385 58.219 404.185 58.219 
L 275.00375 58.219 
Q 272.80375 58.219 272.80375 60.419 
L 272.80375 109.001188 
Q 272.80375 111.201188 275.00375 111.201188 
z
" style="fill: #ffffff; opacity: 0.8; stroke: #cccccc; stroke-linejoin: miter"/>
    </g>
    <g id="line2d_20">
     <path d="M 277.20375 67.019 
L 288.20375 67.019 
L 299.20375 67.019 
" style="fill: none; stroke: #808080; stroke-width: 2.5; stroke-linecap: square"/>
    </g>
    <g id="text_12">
     <!-- Random Repr. -->
     <g transform="translate(308.00375 70.869) scale(0.11 -0.11)">
      <defs>
       <path id="RobotoCondensed-Regular-70" d="M 1750 -63 
Q 1244 -63 969 325 
L 969 -1300 
L 416 -1300 
L 416 3381 
L 919 3381 
L 947 3013 
Q 1222 3444 1744 3444 
Q 2275 3444 2562 3073 
Q 2850 2703 2859 1897 
L 2859 1528 
Q 2859 725 2570 331 
Q 2281 -63 1750 -63 
z
M 1572 2956 
Q 1181 2956 969 2559 
L 969 797 
Q 1178 409 1578 409 
Q 2288 409 2306 1472 
L 2306 1844 
Q 2306 2956 1572 2956 
z
" transform="scale(0.015625)"/>
      </defs>
      <use xlink:href="#RobotoCondensed-Regular-52"/>
      <use xlink:href="#RobotoCondensed-Regular-61" transform="translate(53.076172 0)"/>
      <use xlink:href="#RobotoCondensed-Regular-6e" transform="translate(100.976562 0)"/>
      <use xlink:href="#RobotoCondensed-Regular-64" transform="translate(149.414062 0)"/>
      <use xlink:href="#RobotoCondensed-Regular-6f" transform="translate(199.023438 0)"/>
      <use xlink:href="#RobotoCondensed-Regular-6d" transform="translate(249.21875 0)"/>
      <use xlink:href="#RobotoCondensed-Regular-20" transform="translate(324.511719 0)"/>
      <use xlink:href="#RobotoCondensed-Regular-52" transform="translate(347.460938 0)"/>
      <use xlink:href="#RobotoCondensed-Regular-65" transform="translate(400.537109 0)"/>
      <use xlink:href="#RobotoCondensed-Regular-70" transform="translate(447.412109 0)"/>
      <use xlink:href="#RobotoCondensed-Regular-72" transform="translate(496.728516 0)"/>
      <use xlink:href="#RobotoCondensed-Regular-2e" transform="translate(527.197266 0)"/>
     </g>
    </g>
    <g id="line2d_21">
     <path d="M 277.20375 83.577438 
L 288.20375 83.577438 
L 299.20375 83.577438 
" style="fill: none; stroke: #7c92ff; stroke-width: 2.5; stroke-linecap: square"/>
    </g>
    <g id="text_13">
     <!-- Morgan FP (Radius 2) -->
     <g transform="translate(308.00375 87.427437) scale(0.11 -0.11)">
      <defs>
       <path id="RobotoCondensed-Regular-4d" d="M 2419 841 
L 3606 4550 
L 4341 4550 
L 4341 0 
L 3769 0 
L 3769 1775 
L 3822 3538 
L 2634 0 
L 2197 0 
L 1009 3544 
L 1063 1775 
L 1063 0 
L 491 0 
L 491 4550 
L 1228 4550 
L 2419 841 
z
" transform="scale(0.015625)"/>
       <path id="RobotoCondensed-Regular-46" d="M 491 0 
L 491 4550 
L 2859 4550 
L 2859 4056 
L 1066 4056 
L 1066 2503 
L 2600 2503 
L 2600 2009 
L 1066 2009 
L 1066 0 
L 491 0 
z
" transform="scale(0.015625)"/>
       <path id="RobotoCondensed-Regular-50" d="M 1066 1784 
L 1066 0 
L 491 0 
L 491 4550 
L 1941 4550 
Q 2600 4550 2951 4159 
Q 3303 3769 3303 3163 
Q 3303 2506 2954 2147 
Q 2606 1788 1950 1784 
L 1066 1784 
z
M 1066 4056 
L 1066 2275 
L 1941 2275 
Q 2359 2275 2543 2522 
Q 2728 2769 2728 3156 
Q 2728 3506 2543 3781 
Q 2359 4056 1941 4056 
L 1066 4056 
z
" transform="scale(0.015625)"/>
      </defs>
      <use xlink:href="#RobotoCondensed-Regular-4d"/>
      <use xlink:href="#RobotoCondensed-Regular-6f" transform="translate(75.537109 0)"/>
      <use xlink:href="#RobotoCondensed-Regular-72" transform="translate(125.732422 0)"/>
      <use xlink:href="#RobotoCondensed-Regular-67" transform="translate(156.201172 0)"/>
      <use xlink:href="#RobotoCondensed-Regular-61" transform="translate(205.517578 0)"/>
      <use xlink:href="#RobotoCondensed-Regular-6e" transform="translate(253.417969 0)"/>
      <use xlink:href="#RobotoCondensed-Regular-20" transform="translate(301.855469 0)"/>
      <use xlink:href="#RobotoCondensed-Regular-46" transform="translate(324.804688 0)"/>
      <use xlink:href="#RobotoCondensed-Regular-50" transform="translate(372.900391 0)"/>
      <use xlink:href="#RobotoCondensed-Regular-20" transform="translate(428.320312 0)"/>
      <use xlink:href="#RobotoCondensed-Regular-28" transform="translate(451.269531 0)"/>
      <use xlink:href="#RobotoCondensed-Regular-52" transform="translate(482.666016 0)"/>
      <use xlink:href="#RobotoCondensed-Regular-61" transform="translate(535.742188 0)"/>
      <use xlink:href="#RobotoCondensed-Regular-64" transform="translate(583.642578 0)"/>
      <use xlink:href="#RobotoCondensed-Regular-69" transform="translate(633.251953 0)"/>
      <use xlink:href="#RobotoCondensed-Regular-75" transform="translate(656.201172 0)"/>
      <use xlink:href="#RobotoCondensed-Regular-73" transform="translate(704.541016 0)"/>
      <use xlink:href="#RobotoCondensed-Regular-20" transform="translate(750.146484 0)"/>
      <use xlink:href="#RobotoCondensed-Regular-32" transform="translate(773.095703 0)"/>
      <use xlink:href="#RobotoCondensed-Regular-29" transform="translate(822.460938 0)"/>
     </g>
    </g>
    <g id="line2d_22">
     <path d="M 277.20375 100.426344 
L 288.20375 100.426344 
L 299.20375 100.426344 
" style="fill: none; stroke: #69f7ae; stroke-width: 2.5; stroke-linecap: square"/>
    </g>
    <g id="text_14">
     <!-- HDC (Depth 2) -->
     <g transform="translate(308.00375 104.276344) scale(0.11 -0.11)">
      <defs>
       <path id="RobotoCondensed-Regular-48" d="M 2894 0 
L 2894 2103 
L 1066 2103 
L 1066 0 
L 491 0 
L 491 4550 
L 1066 4550 
L 1066 2594 
L 2894 2594 
L 2894 4550 
L 3469 4550 
L 3469 0 
L 2894 0 
z
" transform="scale(0.015625)"/>
       <path id="RobotoCondensed-Regular-43" d="M 2769 1447 
L 3344 1447 
Q 3313 744 2950 340 
Q 2588 -63 1878 -63 
Q 1194 -63 792 457 
Q 391 978 391 1856 
L 391 2697 
Q 391 3572 798 4092 
Q 1206 4613 1931 4613 
Q 2594 4613 2953 4219 
Q 3313 3825 3344 3091 
L 2769 3091 
Q 2734 3628 2543 3873 
Q 2353 4119 1931 4119 
Q 1431 4119 1198 3731 
Q 966 3344 966 2703 
L 966 1856 
Q 966 1259 1170 843 
Q 1375 428 1878 428 
Q 2350 428 2537 665 
Q 2725 903 2769 1447 
z
" transform="scale(0.015625)"/>
       <path id="RobotoCondensed-Regular-68" d="M 1603 2956 
Q 1400 2956 1236 2818 
Q 1072 2681 969 2459 
L 969 0 
L 416 0 
L 416 4800 
L 969 4800 
L 969 3041 
Q 1288 3444 1775 3444 
Q 2191 3444 2437 3162 
Q 2684 2881 2684 2216 
L 2684 0 
L 2131 0 
L 2131 2222 
Q 2131 2619 2000 2787 
Q 1869 2956 1603 2956 
z
" transform="scale(0.015625)"/>
      </defs>
      <use xlink:href="#RobotoCondensed-Regular-48"/>
      <use xlink:href="#RobotoCondensed-Regular-44" transform="translate(62.011719 0)"/>
      <use xlink:href="#RobotoCondensed-Regular-43" transform="translate(119.091797 0)"/>
      <use xlink:href="#RobotoCondensed-Regular-20" transform="translate(175.78125 0)"/>
      <use xlink:href="#RobotoCondensed-Regular-28" transform="translate(198.730469 0)"/>
      <use xlink:href="#RobotoCondensed-Regular-44" transform="translate(230.126953 0)"/>
      <use xlink:href="#RobotoCondensed-Regular-65" transform="translate(287.207031 0)"/>
      <use xlink:href="#RobotoCondensed-Regular-70" transform="translate(334.082031 0)"/>
      <use xlink:href="#RobotoCondensed-Regular-74" transform="translate(383.398438 0)"/>
      <use xlink:href="#RobotoCondensed-Regular-68" transform="translate(412.988281 0)"/>
      <use xlink:href="#RobotoCondensed-Regular-20" transform="translate(461.279297 0)"/>
      <use xlink:href="#RobotoCondensed-Regular-32" transform="translate(484.228516 0)"/>
      <use xlink:href="#RobotoCondensed-Regular-29" transform="translate(533.59375 0)"/>
     </g>
    </g>
   </g>
  </g>
 </g>
 <defs>
  <clipPath id="pc739fb20b0">
   <rect x="56.72" y="52.719" width="355.165" height="119.521"/>
  </clipPath>
 </defs>
</svg>
