<?xml version="1.0" encoding="utf-8" standalone="no"?>
<!DOCTYPE svg PUBLIC "-//W3C//DTD SVG 1.1//EN"
  "http://www.w3.org/Graphics/SVG/1.1/DTD/svg11.dtd">
<svg xmlns:xlink="http://www.w3.org/1999/xlink" width="415.597062pt" height="274.700886pt" viewBox="0 0 415.597062 274.700886" xmlns="http://www.w3.org/2000/svg" version="1.1">
 <metadata>
  <rdf:RDF xmlns:dc="http://purl.org/dc/elements/1.1/" xmlns:cc="http://creativecommons.org/ns#" xmlns:rdf="http://www.w3.org/1999/02/22-rdf-syntax-ns#">
   <cc:Work>
    <dc:type rdf:resource="http://purl.org/dc/dcmitype/StillImage"/>
    <dc:date>2026-04-21T11:34:59.367108</dc:date>
    <dc:format>image/svg+xml</dc:format>
    <dc:creator>
     <cc:Agent>
      <dc:title>Matplotlib v3.10.7, https://matplotlib.org/</dc:title>
     </cc:Agent>
    </dc:creator>
   </cc:Work>
  </rdf:RDF>
 </metadata>
 <defs>
  <style type="text/css">*{stroke-linejoin: round; stroke-linecap: butt}</style>
 </defs>
 <g id="figure_1">
  <g id="patch_1">
   <path d="M 0 274.700886 
L 415.597062 274.700886 
L 415.597062 0 
L 0 0 
z
" style="fill: #ffffff"/>
  </g>
  <g id="axes_1">
   <g id="patch_2">
    <path d="M 48.759062 215.138607 
L 408.397063 215.138607 
L 408.397063 7.2 
L 48.759062 7.2 
z
" style="fill: #ffffff"/>
   </g>
   <g id="matplotlib.axis_1">
    <g id="xtick_1">
     <g id="line2d_1">
      <path d="M 65.106244 215.138607 
L 65.106244 7.2 
" clip-path="url(#p61fd4c6988)" style="fill: none; stroke-dasharray: 2.96,1.28; stroke-dashoffset: 0; stroke: #b0b0b0; stroke-opacity: 0.3; stroke-width: 0.8"/>
     </g>
     <g id="line2d_2">
      <defs>
       <path id="m8f7e565b41" d="M 0 0 
L 0 3.5 
" style="stroke: #000000; stroke-width: 0.8"/>
      </defs>
      <g>
       <use xlink:href="#m8f7e565b41" x="65.106244" y="215.138607" style="stroke: #000000; stroke-width: 0.8"/>
      </g>
     </g>
     <g id="text_1">
      <!-- 32 -->
      <g transform="translate(54.16443 238.107509) rotate(-45) scale(0.13 -0.13)">
       <defs>
        <path id="RobotoCondensed-Regular-33" d="M 1075 2084 
L 1075 2559 
L 1431 2559 
Q 1788 2559 1961 2781 
Q 2134 3003 2134 3338 
Q 2134 4138 1519 4138 
Q 1228 4138 1054 3927 
Q 881 3716 881 3359 
L 331 3359 
Q 331 3881 653 4247 
Q 975 4613 1519 4613 
Q 2038 4613 2363 4286 
Q 2688 3959 2688 3325 
Q 2688 3072 2550 2786 
Q 2413 2500 2100 2338 
Q 2484 2194 2612 1886 
Q 2741 1578 2741 1269 
Q 2741 631 2389 284 
Q 2038 -63 1516 -63 
Q 1006 -63 656 267 
Q 306 597 306 1203 
L 859 1203 
Q 859 844 1032 628 
Q 1206 413 1516 413 
Q 1822 413 2005 622 
Q 2188 831 2188 1256 
Q 2188 2084 1403 2084 
L 1075 2084 
z
" transform="scale(0.015625)"/>
        <path id="RobotoCondensed-Regular-32" d="M 2909 475 
L 2909 0 
L 366 0 
L 366 416 
L 1628 2088 
Q 1966 2541 2077 2802 
Q 2188 3063 2188 3328 
Q 2188 3663 2027 3900 
Q 1866 4138 1575 4138 
Q 1194 4138 1022 3878 
Q 850 3619 850 3213 
L 297 3213 
Q 297 3788 617 4200 
Q 938 4613 1575 4613 
Q 2125 4613 2433 4278 
Q 2741 3944 2741 3397 
Q 2741 2997 2541 2594 
Q 2341 2191 2047 1809 
L 1028 475 
L 2909 475 
z
" transform="scale(0.015625)"/>
       </defs>
       <use xlink:href="#RobotoCondensed-Regular-33"/>
       <use xlink:href="#RobotoCondensed-Regular-32" transform="translate(49.365234 0)"/>
      </g>
     </g>
    </g>
    <g id="xtick_2">
     <g id="line2d_3">
      <path d="M 119.59685 215.138607 
L 119.59685 7.2 
" clip-path="url(#p61fd4c6988)" style="fill: none; stroke-dasharray: 2.96,1.28; stroke-dashoffset: 0; stroke: #b0b0b0; stroke-opacity: 0.3; stroke-width: 0.8"/>
     </g>
     <g id="line2d_4">
      <g>
       <use xlink:href="#m8f7e565b41" x="119.59685" y="215.138607" style="stroke: #000000; stroke-width: 0.8"/>
      </g>
     </g>
     <g id="text_2">
      <!-- 64 -->
      <g transform="translate(108.655036 238.107509) rotate(-45) scale(0.13 -0.13)">
       <defs>
        <path id="RobotoCondensed-Regular-36" d="M 2847 1484 
Q 2847 838 2544 387 
Q 2241 -63 1641 -63 
Q 1216 -63 944 198 
Q 672 459 542 861 
Q 413 1263 413 1684 
L 413 1956 
Q 413 2438 481 2900 
Q 550 3363 742 3738 
Q 934 4113 1296 4334 
Q 1659 4556 2291 4556 
L 2291 4066 
Q 1775 4066 1508 3859 
Q 1241 3653 1122 3318 
Q 1003 2984 978 2606 
Q 1272 2984 1750 2984 
Q 2138 2984 2380 2765 
Q 2622 2547 2734 2201 
Q 2847 1856 2847 1484 
z
M 969 1666 
Q 969 1059 1180 737 
Q 1391 416 1641 416 
Q 1959 416 2129 708 
Q 2300 1000 2300 1456 
Q 2300 1863 2144 2184 
Q 1988 2506 1659 2506 
Q 1425 2506 1236 2329 
Q 1047 2153 969 1900 
L 969 1666 
z
" transform="scale(0.015625)"/>
        <path id="RobotoCondensed-Regular-34" d="M 188 1397 
L 1878 4550 
L 2463 4550 
L 2463 1531 
L 2969 1531 
L 2969 1056 
L 2463 1056 
L 2463 0 
L 1909 0 
L 1909 1056 
L 188 1056 
L 188 1397 
z
M 803 1531 
L 1909 1531 
L 1909 3703 
L 1878 3638 
L 803 1531 
z
" transform="scale(0.015625)"/>
       </defs>
       <use xlink:href="#RobotoCondensed-Regular-36"/>
       <use xlink:href="#RobotoCondensed-Regular-34" transform="translate(49.365234 0)"/>
      </g>
     </g>
    </g>
    <g id="xtick_3">
     <g id="line2d_5">
      <path d="M 174.087456 215.138607 
L 174.087456 7.2 
" clip-path="url(#p61fd4c6988)" style="fill: none; stroke-dasharray: 2.96,1.28; stroke-dashoffset: 0; stroke: #b0b0b0; stroke-opacity: 0.3; stroke-width: 0.8"/>
     </g>
     <g id="line2d_6">
      <g>
       <use xlink:href="#m8f7e565b41" x="174.087456" y="215.138607" style="stroke: #000000; stroke-width: 0.8"/>
      </g>
     </g>
     <g id="text_3">
      <!-- 128 -->
      <g transform="translate(158.608337 242.644814) rotate(-45) scale(0.13 -0.13)">
       <defs>
        <path id="RobotoCondensed-Regular-31" d="M 2013 4575 
L 2013 0 
L 1459 0 
L 1459 3853 
L 503 3428 
L 503 3950 
L 1928 4575 
L 2013 4575 
z
" transform="scale(0.015625)"/>
        <path id="RobotoCondensed-Regular-38" d="M 2794 1231 
Q 2794 606 2445 271 
Q 2097 -63 1578 -63 
Q 1063 -63 714 273 
Q 366 609 366 1231 
Q 366 1613 536 1905 
Q 706 2197 1000 2347 
Q 450 2666 450 3366 
Q 450 3963 769 4288 
Q 1088 4613 1581 4613 
Q 2075 4613 2392 4288 
Q 2709 3963 2709 3366 
Q 2709 3028 2557 2761 
Q 2406 2494 2150 2344 
Q 2444 2194 2619 1901 
Q 2794 1609 2794 1231 
z
M 2156 3356 
Q 2156 3697 2000 3917 
Q 1844 4138 1581 4138 
Q 1319 4138 1161 3927 
Q 1003 3716 1003 3356 
Q 1003 3003 1159 2790 
Q 1316 2578 1581 2578 
Q 1844 2578 2000 2790 
Q 2156 3003 2156 3356 
z
M 2244 1244 
Q 2244 1625 2061 1865 
Q 1878 2106 1575 2106 
Q 1266 2106 1091 1865 
Q 916 1625 916 1244 
Q 916 850 1089 631 
Q 1263 413 1578 413 
Q 1897 413 2070 631 
Q 2244 850 2244 1244 
z
" transform="scale(0.015625)"/>
       </defs>
       <use xlink:href="#RobotoCondensed-Regular-31"/>
       <use xlink:href="#RobotoCondensed-Regular-32" transform="translate(49.365234 0)"/>
       <use xlink:href="#RobotoCondensed-Regular-38" transform="translate(98.730469 0)"/>
      </g>
     </g>
    </g>
    <g id="xtick_4">
     <g id="line2d_7">
      <path d="M 228.578062 215.138607 
L 228.578062 7.2 
" clip-path="url(#p61fd4c6988)" style="fill: none; stroke-dasharray: 2.96,1.28; stroke-dashoffset: 0; stroke: #b0b0b0; stroke-opacity: 0.3; stroke-width: 0.8"/>
     </g>
     <g id="line2d_8">
      <g>
       <use xlink:href="#m8f7e565b41" x="228.578062" y="215.138607" style="stroke: #000000; stroke-width: 0.8"/>
      </g>
     </g>
     <g id="text_4">
      <!-- 256 -->
      <g transform="translate(213.098943 242.644814) rotate(-45) scale(0.13 -0.13)">
       <defs>
        <path id="RobotoCondensed-Regular-35" d="M 1034 2166 
L 594 2284 
L 788 4550 
L 2769 4550 
L 2769 4016 
L 1253 4016 
L 1147 2778 
Q 1438 2975 1753 2975 
Q 2288 2975 2591 2561 
Q 2894 2147 2894 1450 
Q 2894 797 2584 367 
Q 2275 -63 1656 -63 
Q 1194 -63 850 248 
Q 506 559 453 1197 
L 975 1197 
Q 1066 413 1656 413 
Q 1978 413 2159 691 
Q 2341 969 2341 1444 
Q 2341 1872 2153 2164 
Q 1966 2456 1619 2456 
Q 1384 2456 1273 2378 
Q 1163 2300 1034 2166 
z
" transform="scale(0.015625)"/>
       </defs>
       <use xlink:href="#RobotoCondensed-Regular-32"/>
       <use xlink:href="#RobotoCondensed-Regular-35" transform="translate(49.365234 0)"/>
       <use xlink:href="#RobotoCondensed-Regular-36" transform="translate(98.730469 0)"/>
      </g>
     </g>
    </g>
    <g id="xtick_5">
     <g id="line2d_9">
      <path d="M 283.068669 215.138607 
L 283.068669 7.2 
" clip-path="url(#p61fd4c6988)" style="fill: none; stroke-dasharray: 2.96,1.28; stroke-dashoffset: 0; stroke: #b0b0b0; stroke-opacity: 0.3; stroke-width: 0.8"/>
     </g>
     <g id="line2d_10">
      <g>
       <use xlink:href="#m8f7e565b41" x="283.068669" y="215.138607" style="stroke: #000000; stroke-width: 0.8"/>
      </g>
     </g>
     <g id="text_5">
      <!-- 512 -->
      <g transform="translate(267.589549 242.644814) rotate(-45) scale(0.13 -0.13)">
       <use xlink:href="#RobotoCondensed-Regular-35"/>
       <use xlink:href="#RobotoCondensed-Regular-31" transform="translate(49.365234 0)"/>
       <use xlink:href="#RobotoCondensed-Regular-32" transform="translate(98.730469 0)"/>
      </g>
     </g>
    </g>
    <g id="xtick_6">
     <g id="line2d_11">
      <path d="M 337.559275 215.138607 
L 337.559275 7.2 
" clip-path="url(#p61fd4c6988)" style="fill: none; stroke-dasharray: 2.96,1.28; stroke-dashoffset: 0; stroke: #b0b0b0; stroke-opacity: 0.3; stroke-width: 0.8"/>
     </g>
     <g id="line2d_12">
      <g>
       <use xlink:href="#m8f7e565b41" x="337.559275" y="215.138607" style="stroke: #000000; stroke-width: 0.8"/>
      </g>
     </g>
     <g id="text_6">
      <!-- 1024 -->
      <g transform="translate(317.542849 247.18212) rotate(-45) scale(0.13 -0.13)">
       <defs>
        <path id="RobotoCondensed-Regular-30" d="M 2797 1944 
Q 2797 825 2467 381 
Q 2138 -63 1581 -63 
Q 1038 -63 703 370 
Q 369 803 359 1878 
L 359 2638 
Q 359 3753 695 4183 
Q 1031 4613 1578 4613 
Q 2131 4613 2461 4189 
Q 2791 3766 2797 2681 
L 2797 1944 
z
M 2247 2734 
Q 2247 3503 2073 3822 
Q 1900 4141 1578 4141 
Q 1266 4141 1092 3833 
Q 919 3525 913 2791 
L 913 1850 
Q 913 1088 1089 750 
Q 1266 413 1581 413 
Q 1903 413 2072 738 
Q 2241 1063 2247 1794 
L 2247 2734 
z
" transform="scale(0.015625)"/>
       </defs>
       <use xlink:href="#RobotoCondensed-Regular-31"/>
       <use xlink:href="#RobotoCondensed-Regular-30" transform="translate(49.365234 0)"/>
       <use xlink:href="#RobotoCondensed-Regular-32" transform="translate(98.730469 0)"/>
       <use xlink:href="#RobotoCondensed-Regular-34" transform="translate(148.095703 0)"/>
      </g>
     </g>
    </g>
    <g id="xtick_7">
     <g id="line2d_13">
      <path d="M 392.049881 215.138607 
L 392.049881 7.2 
" clip-path="url(#p61fd4c6988)" style="fill: none; stroke-dasharray: 2.96,1.28; stroke-dashoffset: 0; stroke: #b0b0b0; stroke-opacity: 0.3; stroke-width: 0.8"/>
     </g>
     <g id="line2d_14">
      <g>
       <use xlink:href="#m8f7e565b41" x="392.049881" y="215.138607" style="stroke: #000000; stroke-width: 0.8"/>
      </g>
     </g>
     <g id="text_7">
      <!-- 2048 -->
      <g transform="translate(372.033455 247.18212) rotate(-45) scale(0.13 -0.13)">
       <use xlink:href="#RobotoCondensed-Regular-32"/>
       <use xlink:href="#RobotoCondensed-Regular-30" transform="translate(49.365234 0)"/>
       <use xlink:href="#RobotoCondensed-Regular-34" transform="translate(98.730469 0)"/>
       <use xlink:href="#RobotoCondensed-Regular-38" transform="translate(148.095703 0)"/>
      </g>
     </g>
    </g>
    <g id="text_8">
     <!-- Embedding Dimensionality -->
     <g transform="translate(150.055406 264.299324) scale(0.15 -0.15)">
      <defs>
       <path id="RobotoCondensed-Regular-45" d="M 491 0 
L 491 4550 
L 2906 4550 
L 2906 4056 
L 1066 4056 
L 1066 2594 
L 2672 2594 
L 2672 2103 
L 1066 2103 
L 1066 491 
L 2938 491 
L 2938 0 
L 491 0 
z
" transform="scale(0.015625)"/>
       <path id="RobotoCondensed-Regular-6d" d="M 1556 2956 
Q 1141 2956 969 2544 
L 969 0 
L 419 0 
L 419 3381 
L 938 3381 
L 953 3075 
Q 1256 3444 1766 3444 
Q 2325 3444 2553 2953 
Q 2872 3444 3441 3444 
Q 3903 3444 4151 3153 
Q 4400 2863 4400 2222 
L 4400 0 
L 3847 0 
L 3847 2228 
Q 3847 2653 3692 2804 
Q 3538 2956 3272 2956 
Q 3016 2956 2864 2757 
Q 2713 2559 2684 2272 
L 2684 0 
L 2131 0 
L 2131 2272 
Q 2116 2956 1556 2956 
z
" transform="scale(0.015625)"/>
       <path id="RobotoCondensed-Regular-62" d="M 2866 1528 
Q 2866 725 2575 331 
Q 2284 -63 1753 -63 
Q 1219 -63 950 400 
L 922 0 
L 416 0 
L 416 4800 
L 969 4800 
L 969 3016 
Q 1234 3444 1750 3444 
Q 2278 3444 2567 3073 
Q 2856 2703 2866 1897 
L 2866 1528 
z
M 1606 2956 
Q 1181 2956 969 2497 
L 969 884 
Q 1181 428 1609 428 
Q 1984 428 2146 690 
Q 2309 953 2313 1506 
L 2313 1844 
Q 2313 2406 2159 2681 
Q 2006 2956 1606 2956 
z
" transform="scale(0.015625)"/>
       <path id="RobotoCondensed-Regular-65" d="M 2722 447 
Q 2584 253 2323 95 
Q 2063 -63 1625 -63 
Q 1019 -63 666 301 
Q 313 666 309 1431 
L 309 1828 
Q 309 2722 696 3083 
Q 1084 3444 1563 3444 
Q 2197 3444 2472 3034 
Q 2747 2625 2747 1850 
L 2747 1528 
L 863 1528 
L 863 1447 
Q 863 906 1067 657 
Q 1272 409 1656 409 
Q 1934 409 2114 517 
Q 2294 625 2431 794 
L 2722 447 
z
M 1563 2969 
Q 1275 2969 1084 2770 
Q 894 2572 866 2000 
L 2194 2000 
L 2194 2078 
Q 2172 2469 2048 2719 
Q 1925 2969 1563 2969 
z
" transform="scale(0.015625)"/>
       <path id="RobotoCondensed-Regular-64" d="M 2234 0 
L 2209 366 
Q 1941 -63 1425 -63 
Q 925 -63 611 331 
Q 297 725 297 1528 
L 297 1844 
Q 297 2678 609 3061 
Q 922 3444 1431 3444 
Q 1922 3444 2188 3050 
L 2188 4800 
L 2738 4800 
L 2738 0 
L 2234 0 
z
M 850 1528 
Q 850 963 1019 695 
Q 1188 428 1569 428 
Q 1981 428 2188 847 
L 2188 2544 
Q 1972 2956 1575 2956 
Q 1194 2956 1023 2687 
Q 853 2419 850 1866 
L 850 1528 
z
" transform="scale(0.015625)"/>
       <path id="RobotoCondensed-Regular-69" d="M 428 4278 
Q 428 4419 506 4516 
Q 584 4613 741 4613 
Q 894 4613 975 4516 
Q 1056 4419 1056 4278 
Q 1056 4144 975 4048 
Q 894 3953 741 3953 
Q 584 3953 506 4048 
Q 428 4144 428 4278 
z
M 1009 3381 
L 1009 0 
L 459 0 
L 459 3381 
L 1009 3381 
z
" transform="scale(0.015625)"/>
       <path id="RobotoCondensed-Regular-6e" d="M 1603 2956 
Q 1400 2956 1236 2818 
Q 1072 2681 969 2459 
L 969 0 
L 416 0 
L 416 3381 
L 938 3381 
L 953 3022 
Q 1275 3444 1775 3444 
Q 2191 3444 2437 3162 
Q 2684 2881 2684 2216 
L 2684 0 
L 2131 0 
L 2131 2222 
Q 2131 2619 2000 2787 
Q 1869 2956 1603 2956 
z
" transform="scale(0.015625)"/>
       <path id="RobotoCondensed-Regular-67" d="M 1525 -1334 
Q 1331 -1334 1007 -1229 
Q 684 -1125 497 -906 
L 725 -522 
Q 1056 -859 1484 -859 
Q 1806 -859 2000 -679 
Q 2194 -500 2194 -56 
L 2194 338 
Q 1925 -63 1428 -63 
Q 919 -63 611 331 
Q 303 725 303 1528 
L 303 1844 
Q 303 2678 608 3061 
Q 913 3444 1434 3444 
Q 1953 3444 2219 3006 
L 2247 3381 
L 2744 3381 
L 2744 -41 
Q 2741 -703 2402 -1018 
Q 2063 -1334 1525 -1334 
z
M 856 1528 
Q 856 963 1025 695 
Q 1194 428 1572 428 
Q 1988 428 2194 853 
L 2194 2541 
Q 1978 2956 1578 2956 
Q 1197 2956 1028 2687 
Q 859 2419 856 1866 
L 856 1528 
z
" transform="scale(0.015625)"/>
       <path id="RobotoCondensed-Regular-20" transform="scale(0.015625)"/>
       <path id="RobotoCondensed-Regular-44" d="M 491 0 
L 491 4550 
L 1575 4550 
Q 2344 4550 2800 4070 
Q 3256 3591 3256 2659 
L 3256 1888 
Q 3256 956 2797 478 
Q 2338 0 1522 0 
L 491 0 
z
M 1066 4056 
L 1066 491 
L 1522 491 
Q 2128 491 2404 836 
Q 2681 1181 2688 1856 
L 2688 2666 
Q 2688 3388 2413 3722 
Q 2138 4056 1575 4056 
L 1066 4056 
z
" transform="scale(0.015625)"/>
       <path id="RobotoCondensed-Regular-73" d="M 2056 866 
Q 2056 1059 1907 1190 
Q 1759 1322 1340 1500 
Q 922 1678 681 1863 
Q 409 2072 409 2484 
Q 409 2888 703 3166 
Q 997 3444 1481 3444 
Q 2000 3444 2287 3150 
Q 2575 2856 2575 2419 
L 2025 2419 
Q 2025 2628 1884 2798 
Q 1744 2969 1481 2969 
Q 1203 2969 1083 2828 
Q 963 2688 963 2503 
Q 963 2319 1081 2217 
Q 1200 2116 1553 1959 
Q 2066 1756 2337 1537 
Q 2609 1319 2609 909 
Q 2609 463 2303 200 
Q 1997 -63 1494 -63 
Q 919 -63 616 265 
Q 313 594 313 1013 
L 866 1013 
Q 881 653 1081 533 
Q 1281 413 1494 413 
Q 2056 413 2056 866 
z
" transform="scale(0.015625)"/>
       <path id="RobotoCondensed-Regular-6f" d="M 300 1850 
Q 300 2641 678 3042 
Q 1056 3444 1603 3444 
Q 2156 3444 2536 3042 
Q 2916 2641 2916 1850 
L 2916 1528 
Q 2916 738 2536 337 
Q 2156 -63 1609 -63 
Q 1059 -63 679 337 
Q 300 738 300 1528 
L 300 1850 
z
M 853 1528 
Q 853 969 1068 689 
Q 1284 409 1609 409 
Q 2341 409 2363 1466 
L 2363 1850 
Q 2363 2403 2145 2686 
Q 1928 2969 1603 2969 
Q 1281 2969 1067 2686 
Q 853 2403 853 1850 
L 853 1528 
z
" transform="scale(0.015625)"/>
       <path id="RobotoCondensed-Regular-61" d="M 2156 0 
Q 2103 122 2081 366 
Q 1966 194 1775 65 
Q 1584 -63 1334 -63 
Q 891 -63 623 187 
Q 356 438 356 922 
Q 356 1409 690 1729 
Q 1025 2050 1691 2050 
L 2072 2050 
L 2072 2413 
Q 2072 2713 1936 2841 
Q 1800 2969 1528 2969 
Q 1263 2969 1114 2812 
Q 966 2656 966 2444 
L 413 2444 
Q 413 2806 722 3125 
Q 1031 3444 1556 3444 
Q 2025 3444 2325 3209 
Q 2625 2975 2625 2406 
L 2625 794 
Q 2625 316 2728 50 
L 2728 0 
L 2156 0 
z
M 1419 441 
Q 1653 441 1825 562 
Q 1997 684 2072 834 
L 2072 1644 
L 1781 1644 
Q 1384 1644 1146 1475 
Q 909 1306 909 991 
Q 909 688 1036 564 
Q 1163 441 1419 441 
z
" transform="scale(0.015625)"/>
       <path id="RobotoCondensed-Regular-6c" d="M 1009 4800 
L 1009 0 
L 459 0 
L 459 4800 
L 1009 4800 
z
" transform="scale(0.015625)"/>
       <path id="RobotoCondensed-Regular-74" d="M 1647 0 
Q 1488 -63 1259 -63 
Q 991 -63 789 134 
Q 588 331 588 841 
L 588 2938 
L 72 2938 
L 72 3381 
L 588 3381 
L 588 4203 
L 1141 4203 
L 1141 3381 
L 1650 3381 
L 1650 2938 
L 1141 2938 
L 1141 838 
Q 1141 578 1230 506 
Q 1319 434 1431 434 
Q 1550 434 1650 472 
L 1647 0 
z
" transform="scale(0.015625)"/>
       <path id="RobotoCondensed-Regular-79" d="M 1425 -522 
Q 1153 -1366 563 -1366 
Q 409 -1366 278 -1316 
L 278 -847 
Q 328 -859 397 -859 
Q 631 -859 770 -746 
Q 909 -634 997 -338 
L 1106 31 
L 109 3381 
L 713 3381 
L 1341 922 
L 1953 3381 
L 2541 3381 
L 1425 -522 
z
" transform="scale(0.015625)"/>
      </defs>
      <use xlink:href="#RobotoCondensed-Regular-45"/>
      <use xlink:href="#RobotoCondensed-Regular-6d" transform="translate(49.707031 0)"/>
      <use xlink:href="#RobotoCondensed-Regular-62" transform="translate(125 0)"/>
      <use xlink:href="#RobotoCondensed-Regular-65" transform="translate(174.316406 0)"/>
      <use xlink:href="#RobotoCondensed-Regular-64" transform="translate(221.191406 0)"/>
      <use xlink:href="#RobotoCondensed-Regular-64" transform="translate(270.800781 0)"/>
      <use xlink:href="#RobotoCondensed-Regular-69" transform="translate(320.410156 0)"/>
      <use xlink:href="#RobotoCondensed-Regular-6e" transform="translate(343.359375 0)"/>
      <use xlink:href="#RobotoCondensed-Regular-67" transform="translate(391.796875 0)"/>
      <use xlink:href="#RobotoCondensed-Regular-20" transform="translate(441.113281 0)"/>
      <use xlink:href="#RobotoCondensed-Regular-44" transform="translate(464.0625 0)"/>
      <use xlink:href="#RobotoCondensed-Regular-69" transform="translate(521.142578 0)"/>
      <use xlink:href="#RobotoCondensed-Regular-6d" transform="translate(544.091797 0)"/>
      <use xlink:href="#RobotoCondensed-Regular-65" transform="translate(619.384766 0)"/>
      <use xlink:href="#RobotoCondensed-Regular-6e" transform="translate(666.259766 0)"/>
      <use xlink:href="#RobotoCondensed-Regular-73" transform="translate(714.697266 0)"/>
      <use xlink:href="#RobotoCondensed-Regular-69" transform="translate(760.302734 0)"/>
      <use xlink:href="#RobotoCondensed-Regular-6f" transform="translate(783.251953 0)"/>
      <use xlink:href="#RobotoCondensed-Regular-6e" transform="translate(833.447266 0)"/>
      <use xlink:href="#RobotoCondensed-Regular-61" transform="translate(881.884766 0)"/>
      <use xlink:href="#RobotoCondensed-Regular-6c" transform="translate(929.785156 0)"/>
      <use xlink:href="#RobotoCondensed-Regular-69" transform="translate(952.734375 0)"/>
      <use xlink:href="#RobotoCondensed-Regular-74" transform="translate(975.683594 0)"/>
      <use xlink:href="#RobotoCondensed-Regular-79" transform="translate(1005.273438 0)"/>
     </g>
    </g>
   </g>
   <g id="matplotlib.axis_2">
    <g id="ytick_1">
     <g id="line2d_15">
      <path d="M 48.759062 214.459203 
L 408.397063 214.459203 
" clip-path="url(#p61fd4c6988)" style="fill: none; stroke-dasharray: 2.96,1.28; stroke-dashoffset: 0; stroke: #b0b0b0; stroke-opacity: 0.3; stroke-width: 0.8"/>
     </g>
     <g id="line2d_16">
      <defs>
       <path id="m3f610c70eb" d="M 0 0 
L -3.5 0 
" style="stroke: #000000; stroke-width: 0.8"/>
      </defs>
      <g>
       <use xlink:href="#m3f610c70eb" x="48.759062" y="214.459203" style="stroke: #000000; stroke-width: 0.8"/>
      </g>
     </g>
     <g id="text_9">
      <!-- 0.8 -->
      <g transform="translate(25.496875 219.334203) scale(0.13 -0.13)">
       <defs>
        <path id="RobotoCondensed-Regular-2e" d="M 450 306 
Q 450 453 542 554 
Q 634 656 809 656 
Q 984 656 1076 554 
Q 1169 453 1169 306 
Q 1169 163 1076 62 
Q 984 -38 809 -38 
Q 634 -38 542 62 
Q 450 163 450 306 
z
" transform="scale(0.015625)"/>
       </defs>
       <use xlink:href="#RobotoCondensed-Regular-30"/>
       <use xlink:href="#RobotoCondensed-Regular-2e" transform="translate(49.365234 0)"/>
       <use xlink:href="#RobotoCondensed-Regular-38" transform="translate(75.732422 0)"/>
      </g>
     </g>
    </g>
    <g id="ytick_2">
     <g id="line2d_17">
      <path d="M 48.759062 172.214962 
L 408.397063 172.214962 
" clip-path="url(#p61fd4c6988)" style="fill: none; stroke-dasharray: 2.96,1.28; stroke-dashoffset: 0; stroke: #b0b0b0; stroke-opacity: 0.3; stroke-width: 0.8"/>
     </g>
     <g id="line2d_18">
      <g>
       <use xlink:href="#m3f610c70eb" x="48.759062" y="172.214962" style="stroke: #000000; stroke-width: 0.8"/>
      </g>
     </g>
     <g id="text_10">
      <!-- 1.0 -->
      <g transform="translate(25.496875 177.089962) scale(0.13 -0.13)">
       <use xlink:href="#RobotoCondensed-Regular-31"/>
       <use xlink:href="#RobotoCondensed-Regular-2e" transform="translate(49.365234 0)"/>
       <use xlink:href="#RobotoCondensed-Regular-30" transform="translate(75.732422 0)"/>
      </g>
     </g>
    </g>
    <g id="ytick_3">
     <g id="line2d_19">
      <path d="M 48.759062 129.970721 
L 408.397063 129.970721 
" clip-path="url(#p61fd4c6988)" style="fill: none; stroke-dasharray: 2.96,1.28; stroke-dashoffset: 0; stroke: #b0b0b0; stroke-opacity: 0.3; stroke-width: 0.8"/>
     </g>
     <g id="line2d_20">
      <g>
       <use xlink:href="#m3f610c70eb" x="48.759062" y="129.970721" style="stroke: #000000; stroke-width: 0.8"/>
      </g>
     </g>
     <g id="text_11">
      <!-- 1.2 -->
      <g transform="translate(25.496875 134.845721) scale(0.13 -0.13)">
       <use xlink:href="#RobotoCondensed-Regular-31"/>
       <use xlink:href="#RobotoCondensed-Regular-2e" transform="translate(49.365234 0)"/>
       <use xlink:href="#RobotoCondensed-Regular-32" transform="translate(75.732422 0)"/>
      </g>
     </g>
    </g>
    <g id="ytick_4">
     <g id="line2d_21">
      <path d="M 48.759062 87.726481 
L 408.397063 87.726481 
" clip-path="url(#p61fd4c6988)" style="fill: none; stroke-dasharray: 2.96,1.28; stroke-dashoffset: 0; stroke: #b0b0b0; stroke-opacity: 0.3; stroke-width: 0.8"/>
     </g>
     <g id="line2d_22">
      <g>
       <use xlink:href="#m3f610c70eb" x="48.759062" y="87.726481" style="stroke: #000000; stroke-width: 0.8"/>
      </g>
     </g>
     <g id="text_12">
      <!-- 1.4 -->
      <g transform="translate(25.496875 92.601481) scale(0.13 -0.13)">
       <use xlink:href="#RobotoCondensed-Regular-31"/>
       <use xlink:href="#RobotoCondensed-Regular-2e" transform="translate(49.365234 0)"/>
       <use xlink:href="#RobotoCondensed-Regular-34" transform="translate(75.732422 0)"/>
      </g>
     </g>
    </g>
    <g id="ytick_5">
     <g id="line2d_23">
      <path d="M 48.759062 45.48224 
L 408.397063 45.48224 
" clip-path="url(#p61fd4c6988)" style="fill: none; stroke-dasharray: 2.96,1.28; stroke-dashoffset: 0; stroke: #b0b0b0; stroke-opacity: 0.3; stroke-width: 0.8"/>
     </g>
     <g id="line2d_24">
      <g>
       <use xlink:href="#m3f610c70eb" x="48.759062" y="45.48224" style="stroke: #000000; stroke-width: 0.8"/>
      </g>
     </g>
     <g id="text_13">
      <!-- 1.6 -->
      <g transform="translate(25.496875 50.35724) scale(0.13 -0.13)">
       <use xlink:href="#RobotoCondensed-Regular-31"/>
       <use xlink:href="#RobotoCondensed-Regular-2e" transform="translate(49.365234 0)"/>
       <use xlink:href="#RobotoCondensed-Regular-36" transform="translate(75.732422 0)"/>
      </g>
     </g>
    </g>
    <g id="text_14">
     <!-- Error$_{\mathrm{FP}}$ / Error$_{\mathrm{HDC}}$ $\uparrow$ -->
     <g transform="translate(18.45 175.444304) rotate(-90) scale(0.15 -0.15)">
      <defs>
       <path id="RobotoCondensed-Regular-72" d="M 1563 2888 
Q 1138 2888 969 2425 
L 969 0 
L 416 0 
L 416 3381 
L 950 3381 
L 963 3041 
Q 1184 3444 1591 3444 
Q 1738 3444 1809 3400 
L 1813 2863 
Q 1691 2888 1563 2888 
z
" transform="scale(0.015625)"/>
       <path id="DejaVuSans-46" d="M 628 4666 
L 3309 4666 
L 3309 4134 
L 1259 4134 
L 1259 2759 
L 3109 2759 
L 3109 2228 
L 1259 2228 
L 1259 0 
L 628 0 
L 628 4666 
z
" transform="scale(0.015625)"/>
       <path id="DejaVuSans-50" d="M 1259 4147 
L 1259 2394 
L 2053 2394 
Q 2494 2394 2734 2622 
Q 2975 2850 2975 3272 
Q 2975 3691 2734 3919 
Q 2494 4147 2053 4147 
L 1259 4147 
z
M 628 4666 
L 2053 4666 
Q 2838 4666 3239 4311 
Q 3641 3956 3641 3272 
Q 3641 2581 3239 2228 
Q 2838 1875 2053 1875 
L 1259 1875 
L 1259 0 
L 628 0 
L 628 4666 
z
" transform="scale(0.015625)"/>
       <path id="RobotoCondensed-Regular-2f" d="M 2159 4550 
L 566 -391 
L 100 -391 
L 1697 4550 
L 2159 4550 
z
" transform="scale(0.015625)"/>
       <path id="DejaVuSans-48" d="M 628 4666 
L 1259 4666 
L 1259 2753 
L 3553 2753 
L 3553 4666 
L 4184 4666 
L 4184 0 
L 3553 0 
L 3553 2222 
L 1259 2222 
L 1259 0 
L 628 0 
L 628 4666 
z
" transform="scale(0.015625)"/>
       <path id="DejaVuSans-44" d="M 1259 4147 
L 1259 519 
L 2022 519 
Q 2988 519 3436 956 
Q 3884 1394 3884 2338 
Q 3884 3275 3436 3711 
Q 2988 4147 2022 4147 
L 1259 4147 
z
M 628 4666 
L 1925 4666 
Q 3281 4666 3915 4102 
Q 4550 3538 4550 2338 
Q 4550 1131 3912 565 
Q 3275 0 1925 0 
L 628 0 
L 628 4666 
z
" transform="scale(0.015625)"/>
       <path id="DejaVuSans-43" d="M 4122 4306 
L 4122 3641 
Q 3803 3938 3442 4084 
Q 3081 4231 2675 4231 
Q 1875 4231 1450 3742 
Q 1025 3253 1025 2328 
Q 1025 1406 1450 917 
Q 1875 428 2675 428 
Q 3081 428 3442 575 
Q 3803 722 4122 1019 
L 4122 359 
Q 3791 134 3420 21 
Q 3050 -91 2638 -91 
Q 1578 -91 968 557 
Q 359 1206 359 2328 
Q 359 3453 968 4101 
Q 1578 4750 2638 4750 
Q 3056 4750 3426 4639 
Q 3797 4528 4122 4306 
z
" transform="scale(0.015625)"/>
       <path id="DejaVuSans-2191" d="M 2541 4688 
L 2822 4688 
L 4047 3456 
L 3672 3081 
L 2947 3813 
L 2947 0 
L 2416 0 
L 2416 3813 
L 1684 3081 
L 1309 3456 
L 2541 4688 
z
" transform="scale(0.015625)"/>
      </defs>
      <use xlink:href="#RobotoCondensed-Regular-45" transform="translate(0 0.75)"/>
      <use xlink:href="#RobotoCondensed-Regular-72" transform="translate(49.707031 0.75)"/>
      <use xlink:href="#RobotoCondensed-Regular-72" transform="translate(80.175781 0.75)"/>
      <use xlink:href="#RobotoCondensed-Regular-6f" transform="translate(110.644531 0.75)"/>
      <use xlink:href="#RobotoCondensed-Regular-72" transform="translate(160.839844 0.75)"/>
      <use xlink:href="#DejaVuSans-46" transform="translate(192.265625 -15.65625) scale(0.7)"/>
      <use xlink:href="#DejaVuSans-50" transform="translate(232.529297 -15.65625) scale(0.7)"/>
      <use xlink:href="#RobotoCondensed-Regular-20" transform="translate(277.475586 0.75)"/>
      <use xlink:href="#RobotoCondensed-Regular-2f" transform="translate(300.424805 0.75)"/>
      <use xlink:href="#RobotoCondensed-Regular-20" transform="translate(337.53418 0.75)"/>
      <use xlink:href="#RobotoCondensed-Regular-45" transform="translate(360.483398 0.75)"/>
      <use xlink:href="#RobotoCondensed-Regular-72" transform="translate(410.19043 0.75)"/>
      <use xlink:href="#RobotoCondensed-Regular-72" transform="translate(440.65918 0.75)"/>
      <use xlink:href="#RobotoCondensed-Regular-6f" transform="translate(471.12793 0.75)"/>
      <use xlink:href="#RobotoCondensed-Regular-72" transform="translate(521.323242 0.75)"/>
      <use xlink:href="#DejaVuSans-48" transform="translate(552.749023 -15.65625) scale(0.7)"/>
      <use xlink:href="#DejaVuSans-44" transform="translate(605.385742 -15.65625) scale(0.7)"/>
      <use xlink:href="#DejaVuSans-43" transform="translate(659.287109 -15.65625) scale(0.7)"/>
      <use xlink:href="#RobotoCondensed-Regular-20" transform="translate(710.898438 0.75)"/>
      <use xlink:href="#DejaVuSans-2191" transform="translate(753.330078 0.75)"/>
     </g>
    </g>
   </g>
   <g id="line2d_25">
    <path d="M 65.106244 176.507314 
L 75.791285 172.214962 
" clip-path="url(#p61fd4c6988)" style="fill: none; stroke: #697cd8; stroke-width: 2; stroke-linecap: square"/>
   </g>
   <g id="line2d_26">
    <path d="M 75.791285 172.214962 
L 119.59685 154.617562 
" clip-path="url(#p61fd4c6988)" style="fill: none; stroke: #59d193; stroke-width: 2; stroke-linecap: square"/>
   </g>
   <g id="line2d_27">
    <path d="M 119.59685 154.617562 
L 174.087456 155.185654 
" clip-path="url(#p61fd4c6988)" style="fill: none; stroke: #59d193; stroke-width: 2; stroke-linecap: square"/>
   </g>
   <g id="line2d_28">
    <path d="M 174.087456 155.185654 
L 228.578062 133.901811 
" clip-path="url(#p61fd4c6988)" style="fill: none; stroke: #59d193; stroke-width: 2; stroke-linecap: square"/>
   </g>
   <g id="line2d_29">
    <path d="M 228.578062 133.901811 
L 283.068669 137.081312 
" clip-path="url(#p61fd4c6988)" style="fill: none; stroke: #59d193; stroke-width: 2; stroke-linecap: square"/>
   </g>
   <g id="line2d_30">
    <path d="M 283.068669 137.081312 
L 337.559275 128.955076 
" clip-path="url(#p61fd4c6988)" style="fill: none; stroke: #59d193; stroke-width: 2; stroke-linecap: square"/>
   </g>
   <g id="line2d_31">
    <path d="M 337.559275 128.955076 
L 392.049881 123.766827 
" clip-path="url(#p61fd4c6988)" style="fill: none; stroke: #59d193; stroke-width: 2; stroke-linecap: square"/>
   </g>
   <g id="line2d_32">
    <path d="M 65.106244 146.123716 
L 105.981996 172.214962 
" clip-path="url(#p61fd4c6988)" style="fill: none; stroke-dasharray: 7.4,3.2; stroke-dashoffset: 0; stroke: #70f7b2; stroke-width: 2"/>
   </g>
   <g id="line2d_33">
    <path d="M 105.981996 172.214962 
L 119.59685 180.905408 
" clip-path="url(#p61fd4c6988)" style="fill: none; stroke-dasharray: 7.4,3.2; stroke-dashoffset: 0; stroke: #8297ff; stroke-width: 2"/>
   </g>
   <g id="line2d_34">
    <path d="M 119.59685 180.905408 
L 174.087456 185.348258 
" clip-path="url(#p61fd4c6988)" style="fill: none; stroke-dasharray: 7.4,3.2; stroke-dashoffset: 0; stroke: #8297ff; stroke-width: 2"/>
   </g>
   <g id="line2d_35">
    <path d="M 174.087456 185.348258 
L 213.483299 172.214962 
" clip-path="url(#p61fd4c6988)" style="fill: none; stroke-dasharray: 7.4,3.2; stroke-dashoffset: 0; stroke: #8297ff; stroke-width: 2"/>
   </g>
   <g id="line2d_36">
    <path d="M 213.483299 172.214962 
L 228.578062 167.182858 
" clip-path="url(#p61fd4c6988)" style="fill: none; stroke-dasharray: 7.4,3.2; stroke-dashoffset: 0; stroke: #70f7b2; stroke-width: 2"/>
   </g>
   <g id="line2d_37">
    <path d="M 228.578062 167.182858 
L 263.103374 172.214962 
" clip-path="url(#p61fd4c6988)" style="fill: none; stroke-dasharray: 7.4,3.2; stroke-dashoffset: 0; stroke: #70f7b2; stroke-width: 2"/>
   </g>
   <g id="line2d_38">
    <path d="M 263.103374 172.214962 
L 283.068669 175.124927 
" clip-path="url(#p61fd4c6988)" style="fill: none; stroke-dasharray: 7.4,3.2; stroke-dashoffset: 0; stroke: #8297ff; stroke-width: 2"/>
   </g>
   <g id="line2d_39">
    <path d="M 283.068669 175.124927 
L 303.930249 172.214962 
" clip-path="url(#p61fd4c6988)" style="fill: none; stroke-dasharray: 7.4,3.2; stroke-dashoffset: 0; stroke: #8297ff; stroke-width: 2"/>
   </g>
   <g id="line2d_40">
    <path d="M 303.930249 172.214962 
L 337.559275 167.524076 
" clip-path="url(#p61fd4c6988)" style="fill: none; stroke-dasharray: 7.4,3.2; stroke-dashoffset: 0; stroke: #70f7b2; stroke-width: 2"/>
   </g>
   <g id="line2d_41">
    <path d="M 337.559275 167.524076 
L 392.049881 170.695448 
" clip-path="url(#p61fd4c6988)" style="fill: none; stroke-dasharray: 7.4,3.2; stroke-dashoffset: 0; stroke: #70f7b2; stroke-width: 2"/>
   </g>
   <g id="line2d_42">
    <path d="M 65.106244 69.952199 
L 119.59685 97.946008 
" clip-path="url(#p61fd4c6988)" style="fill: none; stroke-dasharray: 12.8,3.2,2,3.2; stroke-dashoffset: 0; stroke: #8ef9c2; stroke-width: 2"/>
   </g>
   <g id="line2d_43">
    <path d="M 119.59685 97.946008 
L 174.087456 92.060154 
" clip-path="url(#p61fd4c6988)" style="fill: none; stroke-dasharray: 12.8,3.2,2,3.2; stroke-dashoffset: 0; stroke: #8ef9c2; stroke-width: 2"/>
   </g>
   <g id="line2d_44">
    <path d="M 174.087456 92.060154 
L 228.578062 99.909941 
" clip-path="url(#p61fd4c6988)" style="fill: none; stroke-dasharray: 12.8,3.2,2,3.2; stroke-dashoffset: 0; stroke: #8ef9c2; stroke-width: 2"/>
   </g>
   <g id="line2d_45">
    <path d="M 228.578062 99.909941 
L 283.068669 104.476959 
" clip-path="url(#p61fd4c6988)" style="fill: none; stroke-dasharray: 12.8,3.2,2,3.2; stroke-dashoffset: 0; stroke: #8ef9c2; stroke-width: 2"/>
   </g>
   <g id="line2d_46">
    <path d="M 283.068669 104.476959 
L 337.559275 95.775234 
" clip-path="url(#p61fd4c6988)" style="fill: none; stroke-dasharray: 12.8,3.2,2,3.2; stroke-dashoffset: 0; stroke: #8ef9c2; stroke-width: 2"/>
   </g>
   <g id="line2d_47">
    <path d="M 337.559275 95.775234 
L 392.049881 100.252884 
" clip-path="url(#p61fd4c6988)" style="fill: none; stroke-dasharray: 12.8,3.2,2,3.2; stroke-dashoffset: 0; stroke: #8ef9c2; stroke-width: 2"/>
   </g>
   <g id="line2d_48">
    <path d="M 65.106244 16.651755 
L 119.59685 119.651355 
" clip-path="url(#p61fd4c6988)" style="fill: none; stroke-dasharray: 10,4; stroke-dashoffset: 0; stroke: #acfad2; stroke-width: 2"/>
   </g>
   <g id="line2d_49">
    <path d="M 119.59685 119.651355 
L 162.019895 172.214962 
" clip-path="url(#p61fd4c6988)" style="fill: none; stroke-dasharray: 10,4; stroke-dashoffset: 0; stroke: #acfad2; stroke-width: 2"/>
   </g>
   <g id="line2d_50">
    <path d="M 162.019895 172.214962 
L 174.087456 187.167085 
" clip-path="url(#p61fd4c6988)" style="fill: none; stroke-dasharray: 10,4; stroke-dashoffset: 0; stroke: #b6c3ff; stroke-width: 2"/>
   </g>
   <g id="line2d_51">
    <path d="M 174.087456 187.167085 
L 228.578062 205.686852 
" clip-path="url(#p61fd4c6988)" style="fill: none; stroke-dasharray: 10,4; stroke-dashoffset: 0; stroke: #b6c3ff; stroke-width: 2"/>
   </g>
   <g id="line2d_52">
    <path d="M 228.578062 205.686852 
L 283.068669 203.519809 
" clip-path="url(#p61fd4c6988)" style="fill: none; stroke-dasharray: 10,4; stroke-dashoffset: 0; stroke: #b6c3ff; stroke-width: 2"/>
   </g>
   <g id="line2d_53">
    <path d="M 283.068669 203.519809 
L 337.559275 186.710324 
" clip-path="url(#p61fd4c6988)" style="fill: none; stroke-dasharray: 10,4; stroke-dashoffset: 0; stroke: #b6c3ff; stroke-width: 2"/>
   </g>
   <g id="line2d_54">
    <path d="M 337.559275 186.710324 
L 392.049881 193.218172 
" clip-path="url(#p61fd4c6988)" style="fill: none; stroke-dasharray: 10,4; stroke-dashoffset: 0; stroke: #b6c3ff; stroke-width: 2"/>
   </g>
   <g id="line2d_55">
    <path d="M 48.759062 172.214962 
L 408.397063 172.214962 
" clip-path="url(#p61fd4c6988)" style="fill: none; stroke-dasharray: 3.7,1.6; stroke-dashoffset: 0; stroke: #000000; stroke-opacity: 0.6"/>
   </g>
   <g id="patch_3">
    <path d="M 48.759062 215.138607 
L 48.759062 7.2 
" style="fill: none; stroke: #000000; stroke-width: 0.8; stroke-linejoin: miter; stroke-linecap: square"/>
   </g>
   <g id="patch_4">
    <path d="M 408.397063 215.138607 
L 408.397063 7.2 
" style="fill: none; stroke: #000000; stroke-width: 0.8; stroke-linejoin: miter; stroke-linecap: square"/>
   </g>
   <g id="patch_5">
    <path d="M 48.759062 215.138607 
L 408.397063 215.138607 
" style="fill: none; stroke: #000000; stroke-width: 0.8; stroke-linejoin: miter; stroke-linecap: square"/>
   </g>
   <g id="patch_6">
    <path d="M 48.759062 7.2 
L 408.397063 7.2 
" style="fill: none; stroke: #000000; stroke-width: 0.8; stroke-linejoin: miter; stroke-linecap: square"/>
   </g>
   <g id="line2d_56">
    <path d="M 65.106244 176.507314 
" clip-path="url(#p61fd4c6988)" style="fill: none; stroke: #697cd8; stroke-width: 1.5; stroke-linecap: square"/>
    <defs>
     <path id="m57df66a8e8" d="M 0 4.5 
C 1.193414 4.5 2.338109 4.025852 3.181981 3.181981 
C 4.025852 2.338109 4.5 1.193414 4.5 0 
C 4.5 -1.193414 4.025852 -2.338109 3.181981 -3.181981 
C 2.338109 -4.025852 1.193414 -4.5 0 -4.5 
C -1.193414 -4.5 -2.338109 -4.025852 -3.181981 -3.181981 
C -4.025852 -2.338109 -4.5 -1.193414 -4.5 0 
C -4.5 1.193414 -4.025852 2.338109 -3.181981 3.181981 
C -2.338109 4.025852 -1.193414 4.5 0 4.5 
z
" style="stroke: #000000"/>
    </defs>
    <g clip-path="url(#p61fd4c6988)">
     <use xlink:href="#m57df66a8e8" x="65.106244" y="176.507314" style="fill: #697cd8; stroke: #000000"/>
    </g>
   </g>
   <g id="line2d_57">
    <path d="M 119.59685 154.617562 
" clip-path="url(#p61fd4c6988)" style="fill: none; stroke: #59d193; stroke-width: 1.5; stroke-linecap: square"/>
    <defs>
     <path id="m6c024de856" d="M 0 4.5 
C 1.193414 4.5 2.338109 4.025852 3.181981 3.181981 
C 4.025852 2.338109 4.5 1.193414 4.5 0 
C 4.5 -1.193414 4.025852 -2.338109 3.181981 -3.181981 
C 2.338109 -4.025852 1.193414 -4.5 0 -4.5 
C -1.193414 -4.5 -2.338109 -4.025852 -3.181981 -3.181981 
C -4.025852 -2.338109 -4.5 -1.193414 -4.5 0 
C -4.5 1.193414 -4.025852 2.338109 -3.181981 3.181981 
C -2.338109 4.025852 -1.193414 4.5 0 4.5 
z
" style="stroke: #000000"/>
    </defs>
    <g clip-path="url(#p61fd4c6988)">
     <use xlink:href="#m6c024de856" x="119.59685" y="154.617562" style="fill: #59d193; stroke: #000000"/>
    </g>
   </g>
   <g id="line2d_58">
    <path d="M 174.087456 155.185654 
" clip-path="url(#p61fd4c6988)" style="fill: none; stroke: #59d193; stroke-width: 1.5; stroke-linecap: square"/>
    <g clip-path="url(#p61fd4c6988)">
     <use xlink:href="#m6c024de856" x="174.087456" y="155.185654" style="fill: #59d193; stroke: #000000"/>
    </g>
   </g>
   <g id="line2d_59">
    <path d="M 228.578062 133.901811 
" clip-path="url(#p61fd4c6988)" style="fill: none; stroke: #59d193; stroke-width: 1.5; stroke-linecap: square"/>
    <g clip-path="url(#p61fd4c6988)">
     <use xlink:href="#m6c024de856" x="228.578062" y="133.901811" style="fill: #59d193; stroke: #000000"/>
    </g>
   </g>
   <g id="line2d_60">
    <path d="M 283.068669 137.081312 
" clip-path="url(#p61fd4c6988)" style="fill: none; stroke: #59d193; stroke-width: 1.5; stroke-linecap: square"/>
    <g clip-path="url(#p61fd4c6988)">
     <use xlink:href="#m6c024de856" x="283.068669" y="137.081312" style="fill: #59d193; stroke: #000000"/>
    </g>
   </g>
   <g id="line2d_61">
    <path d="M 337.559275 128.955076 
" clip-path="url(#p61fd4c6988)" style="fill: none; stroke: #59d193; stroke-width: 1.5; stroke-linecap: square"/>
    <g clip-path="url(#p61fd4c6988)">
     <use xlink:href="#m6c024de856" x="337.559275" y="128.955076" style="fill: #59d193; stroke: #000000"/>
    </g>
   </g>
   <g id="line2d_62">
    <path d="M 392.049881 123.766827 
" clip-path="url(#p61fd4c6988)" style="fill: none; stroke: #59d193; stroke-width: 1.5; stroke-linecap: square"/>
    <g clip-path="url(#p61fd4c6988)">
     <use xlink:href="#m6c024de856" x="392.049881" y="123.766827" style="fill: #59d193; stroke: #000000"/>
    </g>
   </g>
   <g id="line2d_63">
    <path d="M 65.106244 146.123716 
" clip-path="url(#p61fd4c6988)" style="fill: none; stroke: #70f7b2; stroke-width: 1.5; stroke-linecap: square"/>
    <defs>
     <path id="ma69e705aa2" d="M -4.5 4.5 
L 4.5 4.5 
L 4.5 -4.5 
L -4.5 -4.5 
z
" style="stroke: #000000; stroke-linejoin: miter"/>
    </defs>
    <g clip-path="url(#p61fd4c6988)">
     <use xlink:href="#ma69e705aa2" x="65.106244" y="146.123716" style="fill: #70f7b2; stroke: #000000; stroke-linejoin: miter"/>
    </g>
   </g>
   <g id="line2d_64">
    <path d="M 119.59685 180.905408 
" clip-path="url(#p61fd4c6988)" style="fill: none; stroke: #8297ff; stroke-width: 1.5; stroke-linecap: square"/>
    <defs>
     <path id="mafbe26668f" d="M -4.5 4.5 
L 4.5 4.5 
L 4.5 -4.5 
L -4.5 -4.5 
z
" style="stroke: #000000; stroke-linejoin: miter"/>
    </defs>
    <g clip-path="url(#p61fd4c6988)">
     <use xlink:href="#mafbe26668f" x="119.59685" y="180.905408" style="fill: #8297ff; stroke: #000000; stroke-linejoin: miter"/>
    </g>
   </g>
   <g id="line2d_65">
    <path d="M 174.087456 185.348258 
" clip-path="url(#p61fd4c6988)" style="fill: none; stroke: #8297ff; stroke-width: 1.5; stroke-linecap: square"/>
    <g clip-path="url(#p61fd4c6988)">
     <use xlink:href="#mafbe26668f" x="174.087456" y="185.348258" style="fill: #8297ff; stroke: #000000; stroke-linejoin: miter"/>
    </g>
   </g>
   <g id="line2d_66">
    <path d="M 228.578062 167.182858 
" clip-path="url(#p61fd4c6988)" style="fill: none; stroke: #70f7b2; stroke-width: 1.5; stroke-linecap: square"/>
    <g clip-path="url(#p61fd4c6988)">
     <use xlink:href="#ma69e705aa2" x="228.578062" y="167.182858" style="fill: #70f7b2; stroke: #000000; stroke-linejoin: miter"/>
    </g>
   </g>
   <g id="line2d_67">
    <path d="M 283.068669 175.124927 
" clip-path="url(#p61fd4c6988)" style="fill: none; stroke: #8297ff; stroke-width: 1.5; stroke-linecap: square"/>
    <g clip-path="url(#p61fd4c6988)">
     <use xlink:href="#mafbe26668f" x="283.068669" y="175.124927" style="fill: #8297ff; stroke: #000000; stroke-linejoin: miter"/>
    </g>
   </g>
   <g id="line2d_68">
    <path d="M 337.559275 167.524076 
" clip-path="url(#p61fd4c6988)" style="fill: none; stroke: #70f7b2; stroke-width: 1.5; stroke-linecap: square"/>
    <g clip-path="url(#p61fd4c6988)">
     <use xlink:href="#ma69e705aa2" x="337.559275" y="167.524076" style="fill: #70f7b2; stroke: #000000; stroke-linejoin: miter"/>
    </g>
   </g>
   <g id="line2d_69">
    <path d="M 392.049881 170.695448 
" clip-path="url(#p61fd4c6988)" style="fill: none; stroke: #70f7b2; stroke-width: 1.5; stroke-linecap: square"/>
    <g clip-path="url(#p61fd4c6988)">
     <use xlink:href="#ma69e705aa2" x="392.049881" y="170.695448" style="fill: #70f7b2; stroke: #000000; stroke-linejoin: miter"/>
    </g>
   </g>
   <g id="line2d_70">
    <path d="M 65.106244 69.952199 
" clip-path="url(#p61fd4c6988)" style="fill: none; stroke: #8ef9c2; stroke-width: 1.5; stroke-linecap: square"/>
    <defs>
     <path id="m274d32f320" d="M -0 6.363961 
L 6.363961 0 
L 0 -6.363961 
L -6.363961 -0 
z
" style="stroke: #000000; stroke-linejoin: miter"/>
    </defs>
    <g clip-path="url(#p61fd4c6988)">
     <use xlink:href="#m274d32f320" x="65.106244" y="69.952199" style="fill: #8ef9c2; stroke: #000000; stroke-linejoin: miter"/>
    </g>
   </g>
   <g id="line2d_71">
    <path d="M 119.59685 97.946008 
" clip-path="url(#p61fd4c6988)" style="fill: none; stroke: #8ef9c2; stroke-width: 1.5; stroke-linecap: square"/>
    <g clip-path="url(#p61fd4c6988)">
     <use xlink:href="#m274d32f320" x="119.59685" y="97.946008" style="fill: #8ef9c2; stroke: #000000; stroke-linejoin: miter"/>
    </g>
   </g>
   <g id="line2d_72">
    <path d="M 174.087456 92.060154 
" clip-path="url(#p61fd4c6988)" style="fill: none; stroke: #8ef9c2; stroke-width: 1.5; stroke-linecap: square"/>
    <g clip-path="url(#p61fd4c6988)">
     <use xlink:href="#m274d32f320" x="174.087456" y="92.060154" style="fill: #8ef9c2; stroke: #000000; stroke-linejoin: miter"/>
    </g>
   </g>
   <g id="line2d_73">
    <path d="M 228.578062 99.909941 
" clip-path="url(#p61fd4c6988)" style="fill: none; stroke: #8ef9c2; stroke-width: 1.5; stroke-linecap: square"/>
    <g clip-path="url(#p61fd4c6988)">
     <use xlink:href="#m274d32f320" x="228.578062" y="99.909941" style="fill: #8ef9c2; stroke: #000000; stroke-linejoin: miter"/>
    </g>
   </g>
   <g id="line2d_74">
    <path d="M 283.068669 104.476959 
" clip-path="url(#p61fd4c6988)" style="fill: none; stroke: #8ef9c2; stroke-width: 1.5; stroke-linecap: square"/>
    <g clip-path="url(#p61fd4c6988)">
     <use xlink:href="#m274d32f320" x="283.068669" y="104.476959" style="fill: #8ef9c2; stroke: #000000; stroke-linejoin: miter"/>
    </g>
   </g>
   <g id="line2d_75">
    <path d="M 337.559275 95.775234 
" clip-path="url(#p61fd4c6988)" style="fill: none; stroke: #8ef9c2; stroke-width: 1.5; stroke-linecap: square"/>
    <g clip-path="url(#p61fd4c6988)">
     <use xlink:href="#m274d32f320" x="337.559275" y="95.775234" style="fill: #8ef9c2; stroke: #000000; stroke-linejoin: miter"/>
    </g>
   </g>
   <g id="line2d_76">
    <path d="M 392.049881 100.252884 
" clip-path="url(#p61fd4c6988)" style="fill: none; stroke: #8ef9c2; stroke-width: 1.5; stroke-linecap: square"/>
    <g clip-path="url(#p61fd4c6988)">
     <use xlink:href="#m274d32f320" x="392.049881" y="100.252884" style="fill: #8ef9c2; stroke: #000000; stroke-linejoin: miter"/>
    </g>
   </g>
   <g id="line2d_77">
    <path d="M 65.106244 16.651755 
" clip-path="url(#p61fd4c6988)" style="fill: none; stroke: #acfad2; stroke-width: 1.5; stroke-linecap: square"/>
    <defs>
     <path id="m6ee0792c93" d="M 0 -4.5 
L -4.279754 -1.390576 
L -2.645034 3.640576 
L 2.645034 3.640576 
L 4.279754 -1.390576 
z
" style="stroke: #000000; stroke-linejoin: miter"/>
    </defs>
    <g clip-path="url(#p61fd4c6988)">
     <use xlink:href="#m6ee0792c93" x="65.106244" y="16.651755" style="fill: #acfad2; stroke: #000000; stroke-linejoin: miter"/>
    </g>
   </g>
   <g id="line2d_78">
    <path d="M 119.59685 119.651355 
" clip-path="url(#p61fd4c6988)" style="fill: none; stroke: #acfad2; stroke-width: 1.5; stroke-linecap: square"/>
    <g clip-path="url(#p61fd4c6988)">
     <use xlink:href="#m6ee0792c93" x="119.59685" y="119.651355" style="fill: #acfad2; stroke: #000000; stroke-linejoin: miter"/>
    </g>
   </g>
   <g id="line2d_79">
    <path d="M 174.087456 187.167085 
" clip-path="url(#p61fd4c6988)" style="fill: none; stroke: #b6c3ff; stroke-width: 1.5; stroke-linecap: square"/>
    <defs>
     <path id="m62a63ec708" d="M 0 -4.5 
L -4.279754 -1.390576 
L -2.645034 3.640576 
L 2.645034 3.640576 
L 4.279754 -1.390576 
z
" style="stroke: #000000; stroke-linejoin: miter"/>
    </defs>
    <g clip-path="url(#p61fd4c6988)">
     <use xlink:href="#m62a63ec708" x="174.087456" y="187.167085" style="fill: #b6c3ff; stroke: #000000; stroke-linejoin: miter"/>
    </g>
   </g>
   <g id="line2d_80">
    <path d="M 228.578062 205.686852 
" clip-path="url(#p61fd4c6988)" style="fill: none; stroke: #b6c3ff; stroke-width: 1.5; stroke-linecap: square"/>
    <g clip-path="url(#p61fd4c6988)">
     <use xlink:href="#m62a63ec708" x="228.578062" y="205.686852" style="fill: #b6c3ff; stroke: #000000; stroke-linejoin: miter"/>
    </g>
   </g>
   <g id="line2d_81">
    <path d="M 283.068669 203.519809 
" clip-path="url(#p61fd4c6988)" style="fill: none; stroke: #b6c3ff; stroke-width: 1.5; stroke-linecap: square"/>
    <g clip-path="url(#p61fd4c6988)">
     <use xlink:href="#m62a63ec708" x="283.068669" y="203.519809" style="fill: #b6c3ff; stroke: #000000; stroke-linejoin: miter"/>
    </g>
   </g>
   <g id="line2d_82">
    <path d="M 337.559275 186.710324 
" clip-path="url(#p61fd4c6988)" style="fill: none; stroke: #b6c3ff; stroke-width: 1.5; stroke-linecap: square"/>
    <g clip-path="url(#p61fd4c6988)">
     <use xlink:href="#m62a63ec708" x="337.559275" y="186.710324" style="fill: #b6c3ff; stroke: #000000; stroke-linejoin: miter"/>
    </g>
   </g>
   <g id="line2d_83">
    <path d="M 392.049881 193.218172 
" clip-path="url(#p61fd4c6988)" style="fill: none; stroke: #b6c3ff; stroke-width: 1.5; stroke-linecap: square"/>
    <g clip-path="url(#p61fd4c6988)">
     <use xlink:href="#m62a63ec708" x="392.049881" y="193.218172" style="fill: #b6c3ff; stroke: #000000; stroke-linejoin: miter"/>
    </g>
   </g>
   <g id="legend_1">
    <g id="patch_7">
     <path d="M 176.780172 112.32125 
L 280.375953 112.32125 
Q 282.975953 112.32125 282.975953 109.72125 
L 282.975953 16.3 
Q 282.975953 13.7 280.375953 13.7 
L 176.780172 13.7 
Q 174.180172 13.7 174.180172 16.3 
L 174.180172 109.72125 
Q 174.180172 112.32125 176.780172 112.32125 
z
" style="fill: #ffffff; opacity: 0.9; stroke: #cccccc; stroke-linejoin: miter"/>
    </g>
    <g id="line2d_84">
     <path d="M 179.380172 24.1 
L 192.380172 24.1 
L 205.380172 24.1 
" style="fill: none; stroke: #000000; stroke-width: 2; stroke-linecap: square"/>
     <defs>
      <path id="m7d3e706d5f" d="M 0 4.5 
C 1.193414 4.5 2.338109 4.025852 3.181981 3.181981 
C 4.025852 2.338109 4.5 1.193414 4.5 0 
C 4.5 -1.193414 4.025852 -2.338109 3.181981 -3.181981 
C 2.338109 -4.025852 1.193414 -4.5 0 -4.5 
C -1.193414 -4.5 -2.338109 -4.025852 -3.181981 -3.181981 
C -4.025852 -2.338109 -4.5 -1.193414 -4.5 0 
C -4.5 1.193414 -4.025852 2.338109 -3.181981 3.181981 
C -2.338109 4.025852 -1.193414 4.5 0 4.5 
z
" style="stroke: #000000"/>
     </defs>
     <g>
      <use xlink:href="#m7d3e706d5f" x="192.380172" y="24.1" style="fill: #ffffff; stroke: #000000"/>
     </g>
    </g>
    <g id="text_15">
     <!-- FreeSolv -->
     <g transform="translate(215.780172 28.65) scale(0.13 -0.13)">
      <defs>
       <path id="RobotoCondensed-Regular-46" d="M 491 0 
L 491 4550 
L 2859 4550 
L 2859 4056 
L 1066 4056 
L 1066 2503 
L 2600 2503 
L 2600 2009 
L 1066 2009 
L 1066 0 
L 491 0 
z
" transform="scale(0.015625)"/>
       <path id="RobotoCondensed-Regular-53" d="M 2481 1150 
Q 2481 1469 2312 1656 
Q 2144 1844 1591 2042 
Q 1038 2241 713 2547 
Q 388 2853 388 3375 
Q 388 3906 741 4259 
Q 1094 4613 1691 4613 
Q 2356 4613 2706 4191 
Q 3056 3769 3056 3238 
L 2481 3238 
Q 2481 3619 2293 3869 
Q 2106 4119 1691 4119 
Q 1313 4119 1139 3908 
Q 966 3697 966 3381 
Q 966 3094 1170 2903 
Q 1375 2713 1806 2556 
Q 2475 2338 2765 2013 
Q 3056 1688 3056 1156 
Q 3056 600 2695 268 
Q 2334 -63 1719 -63 
Q 1363 -63 1028 93 
Q 694 250 480 558 
Q 266 866 266 1319 
L 841 1319 
Q 841 853 1098 640 
Q 1356 428 1719 428 
Q 2094 428 2287 623 
Q 2481 819 2481 1150 
z
" transform="scale(0.015625)"/>
       <path id="RobotoCondensed-Regular-76" d="M 2578 3381 
L 1575 0 
L 1159 0 
L 144 3381 
L 706 3381 
L 1372 847 
L 2016 3381 
L 2578 3381 
z
" transform="scale(0.015625)"/>
      </defs>
      <use xlink:href="#RobotoCondensed-Regular-46"/>
      <use xlink:href="#RobotoCondensed-Regular-72" transform="translate(48.095703 0)"/>
      <use xlink:href="#RobotoCondensed-Regular-65" transform="translate(78.564453 0)"/>
      <use xlink:href="#RobotoCondensed-Regular-65" transform="translate(125.439453 0)"/>
      <use xlink:href="#RobotoCondensed-Regular-53" transform="translate(172.314453 0)"/>
      <use xlink:href="#RobotoCondensed-Regular-6f" transform="translate(224.169922 0)"/>
      <use xlink:href="#RobotoCondensed-Regular-6c" transform="translate(274.365234 0)"/>
      <use xlink:href="#RobotoCondensed-Regular-76" transform="translate(297.314453 0)"/>
     </g>
    </g>
    <g id="line2d_85">
     <path d="M 179.380172 42.990625 
L 192.380172 42.990625 
L 205.380172 42.990625 
" style="fill: none; stroke-dasharray: 7.4,3.2; stroke-dashoffset: 0; stroke: #000000; stroke-width: 2"/>
     <defs>
      <path id="m0c9e5ae431" d="M -4.5 4.5 
L 4.5 4.5 
L 4.5 -4.5 
L -4.5 -4.5 
z
" style="stroke: #000000; stroke-linejoin: miter"/>
     </defs>
     <g>
      <use xlink:href="#m0c9e5ae431" x="192.380172" y="42.990625" style="fill: #ffffff; stroke: #000000; stroke-linejoin: miter"/>
     </g>
    </g>
    <g id="text_16">
     <!-- Lipophilicity -->
     <g transform="translate(215.780172 47.540625) scale(0.13 -0.13)">
      <defs>
       <path id="RobotoCondensed-Regular-4c" d="M 2850 491 
L 2850 0 
L 491 0 
L 491 4550 
L 1066 4550 
L 1066 491 
L 2850 491 
z
" transform="scale(0.015625)"/>
       <path id="RobotoCondensed-Regular-70" d="M 1750 -63 
Q 1244 -63 969 325 
L 969 -1300 
L 416 -1300 
L 416 3381 
L 919 3381 
L 947 3013 
Q 1222 3444 1744 3444 
Q 2275 3444 2562 3073 
Q 2850 2703 2859 1897 
L 2859 1528 
Q 2859 725 2570 331 
Q 2281 -63 1750 -63 
z
M 1572 2956 
Q 1181 2956 969 2559 
L 969 797 
Q 1178 409 1578 409 
Q 2288 409 2306 1472 
L 2306 1844 
Q 2306 2956 1572 2956 
z
" transform="scale(0.015625)"/>
       <path id="RobotoCondensed-Regular-68" d="M 1603 2956 
Q 1400 2956 1236 2818 
Q 1072 2681 969 2459 
L 969 0 
L 416 0 
L 416 4800 
L 969 4800 
L 969 3041 
Q 1288 3444 1775 3444 
Q 2191 3444 2437 3162 
Q 2684 2881 2684 2216 
L 2684 0 
L 2131 0 
L 2131 2222 
Q 2131 2619 2000 2787 
Q 1869 2956 1603 2956 
z
" transform="scale(0.015625)"/>
       <path id="RobotoCondensed-Regular-63" d="M 1588 409 
Q 1834 409 2012 564 
Q 2191 719 2213 1069 
L 2731 1069 
Q 2713 559 2378 248 
Q 2044 -63 1588 -63 
Q 934 -63 621 342 
Q 309 747 303 1472 
L 303 1881 
Q 303 2619 617 3031 
Q 931 3444 1588 3444 
Q 2103 3444 2408 3120 
Q 2713 2797 2731 2219 
L 2213 2219 
Q 2169 2969 1588 2969 
Q 1150 2969 1003 2672 
Q 856 2375 856 1881 
L 856 1500 
Q 856 1003 1001 706 
Q 1147 409 1588 409 
z
" transform="scale(0.015625)"/>
      </defs>
      <use xlink:href="#RobotoCondensed-Regular-4c"/>
      <use xlink:href="#RobotoCondensed-Regular-69" transform="translate(47.558594 0)"/>
      <use xlink:href="#RobotoCondensed-Regular-70" transform="translate(70.507812 0)"/>
      <use xlink:href="#RobotoCondensed-Regular-6f" transform="translate(119.824219 0)"/>
      <use xlink:href="#RobotoCondensed-Regular-70" transform="translate(170.019531 0)"/>
      <use xlink:href="#RobotoCondensed-Regular-68" transform="translate(219.335938 0)"/>
      <use xlink:href="#RobotoCondensed-Regular-69" transform="translate(267.626953 0)"/>
      <use xlink:href="#RobotoCondensed-Regular-6c" transform="translate(290.576172 0)"/>
      <use xlink:href="#RobotoCondensed-Regular-69" transform="translate(313.525391 0)"/>
      <use xlink:href="#RobotoCondensed-Regular-63" transform="translate(336.474609 0)"/>
      <use xlink:href="#RobotoCondensed-Regular-69" transform="translate(382.666016 0)"/>
      <use xlink:href="#RobotoCondensed-Regular-74" transform="translate(405.615234 0)"/>
      <use xlink:href="#RobotoCondensed-Regular-79" transform="translate(435.205078 0)"/>
     </g>
    </g>
    <g id="line2d_86">
     <path d="M 179.380172 62.015312 
L 192.380172 62.015312 
L 205.380172 62.015312 
" style="fill: none; stroke-dasharray: 12.8,3.2,2,3.2; stroke-dashoffset: 0; stroke: #000000; stroke-width: 2"/>
     <defs>
      <path id="mf52170ba90" d="M -0 6.363961 
L 6.363961 0 
L 0 -6.363961 
L -6.363961 -0 
z
" style="stroke: #000000; stroke-linejoin: miter"/>
     </defs>
     <g>
      <use xlink:href="#mf52170ba90" x="192.380172" y="62.015312" style="fill: #ffffff; stroke: #000000; stroke-linejoin: miter"/>
     </g>
    </g>
    <g id="text_17">
     <!-- AqSolDB -->
     <g transform="translate(215.780172 66.565312) scale(0.13 -0.13)">
      <defs>
       <path id="RobotoCondensed-Regular-41" d="M 134 0 
L 1600 4550 
L 2094 4550 
L 3559 0 
L 2972 0 
L 2616 1191 
L 1078 1191 
L 722 0 
L 134 0 
z
M 1228 1684 
L 2466 1684 
L 1847 3750 
L 1228 1684 
z
" transform="scale(0.015625)"/>
       <path id="RobotoCondensed-Regular-71" d="M 2738 3381 
L 2738 -1300 
L 2184 -1300 
L 2184 300 
Q 1916 -63 1438 -63 
Q 906 -63 601 331 
Q 297 725 297 1528 
L 297 1844 
Q 297 2678 600 3061 
Q 903 3444 1444 3444 
Q 1938 3444 2206 3050 
L 2231 3381 
L 2738 3381 
z
M 850 1528 
Q 850 409 1581 409 
Q 1975 409 2184 788 
L 2184 2594 
Q 1959 2969 1588 2969 
Q 869 2969 850 1900 
L 850 1528 
z
" transform="scale(0.015625)"/>
       <path id="RobotoCondensed-Regular-42" d="M 3125 1313 
Q 3125 675 2776 337 
Q 2428 0 1847 0 
L 491 0 
L 491 4550 
L 1791 4550 
Q 2375 4550 2706 4261 
Q 3038 3972 3038 3338 
Q 3038 3025 2880 2779 
Q 2722 2534 2453 2400 
Q 2781 2297 2953 1998 
Q 3125 1700 3125 1313 
z
M 1066 4056 
L 1066 2613 
L 1797 2613 
Q 2088 2613 2275 2806 
Q 2463 3000 2463 3344 
Q 2463 4041 1819 4056 
L 1066 4056 
z
M 2550 1306 
Q 2550 2106 1906 2128 
L 1066 2128 
L 1066 491 
L 1847 491 
Q 2181 491 2365 711 
Q 2550 931 2550 1306 
z
" transform="scale(0.015625)"/>
      </defs>
      <use xlink:href="#RobotoCondensed-Regular-41"/>
      <use xlink:href="#RobotoCondensed-Regular-71" transform="translate(57.666016 0)"/>
      <use xlink:href="#RobotoCondensed-Regular-53" transform="translate(107.714844 0)"/>
      <use xlink:href="#RobotoCondensed-Regular-6f" transform="translate(159.570312 0)"/>
      <use xlink:href="#RobotoCondensed-Regular-6c" transform="translate(209.765625 0)"/>
      <use xlink:href="#RobotoCondensed-Regular-44" transform="translate(232.714844 0)"/>
      <use xlink:href="#RobotoCondensed-Regular-42" transform="translate(289.794922 0)"/>
     </g>
    </g>
    <g id="line2d_87">
     <path d="M 179.380172 80.905937 
L 192.380172 80.905937 
L 205.380172 80.905937 
" style="fill: none; stroke-dasharray: 10,4; stroke-dashoffset: 0; stroke: #000000; stroke-width: 2"/>
     <defs>
      <path id="m0f09a8a670" d="M 0 -4.5 
L -4.279754 -1.390576 
L -2.645034 3.640576 
L 2.645034 3.640576 
L 4.279754 -1.390576 
z
" style="stroke: #000000; stroke-linejoin: miter"/>
     </defs>
     <g>
      <use xlink:href="#m0f09a8a670" x="192.380172" y="80.905937" style="fill: #ffffff; stroke: #000000; stroke-linejoin: miter"/>
     </g>
    </g>
    <g id="text_18">
     <!-- QM9-Gap -->
     <g transform="translate(215.780172 85.455937) scale(0.13 -0.13)">
      <defs>
       <path id="RobotoCondensed-Regular-51" d="M 3488 -394 
L 3097 -769 
L 2281 -22 
Q 2100 -63 1897 -63 
Q 1225 -63 801 412 
Q 378 888 366 1825 
L 366 2669 
Q 366 3634 787 4123 
Q 1209 4613 1894 4613 
Q 2594 4613 3005 4133 
Q 3416 3653 3425 2713 
L 3425 1881 
Q 3425 703 2809 222 
L 3488 -394 
z
M 2856 2675 
Q 2856 3425 2607 3762 
Q 2359 4100 1894 4100 
Q 1453 4100 1195 3762 
Q 938 3425 938 2675 
L 938 1881 
Q 938 1125 1198 786 
Q 1459 447 1897 447 
Q 2366 447 2609 781 
Q 2853 1116 2856 1863 
L 2856 2675 
z
" transform="scale(0.015625)"/>
       <path id="RobotoCondensed-Regular-4d" d="M 2419 841 
L 3606 4550 
L 4341 4550 
L 4341 0 
L 3769 0 
L 3769 1775 
L 3822 3538 
L 2634 0 
L 2197 0 
L 1009 3544 
L 1063 1775 
L 1063 0 
L 491 0 
L 491 4550 
L 1228 4550 
L 2419 841 
z
" transform="scale(0.015625)"/>
       <path id="RobotoCondensed-Regular-39" d="M 2744 2563 
Q 2744 2119 2687 1667 
Q 2631 1216 2450 836 
Q 2269 456 1903 225 
Q 1538 -6 869 -6 
L 866 484 
Q 1428 484 1698 690 
Q 1969 897 2072 1233 
Q 2175 1569 2191 1950 
Q 1859 1522 1413 1522 
Q 1025 1522 786 1747 
Q 547 1972 436 2320 
Q 325 2669 325 3041 
Q 325 3691 623 4152 
Q 922 4613 1522 4613 
Q 1969 4613 2237 4344 
Q 2506 4075 2625 3653 
Q 2744 3231 2744 2772 
L 2744 2563 
z
M 866 3072 
Q 866 2666 1020 2334 
Q 1175 2003 1506 2003 
Q 1716 2003 1906 2179 
Q 2097 2356 2194 2616 
L 2194 2850 
Q 2194 3472 1983 3803 
Q 1772 4134 1522 4134 
Q 1206 4134 1036 3829 
Q 866 3525 866 3072 
z
" transform="scale(0.015625)"/>
       <path id="RobotoCondensed-Regular-2d" d="M 1441 2172 
L 1441 1697 
L 150 1697 
L 150 2172 
L 1441 2172 
z
" transform="scale(0.015625)"/>
       <path id="RobotoCondensed-Regular-47" d="M 3341 2266 
L 3341 569 
Q 3266 469 3114 319 
Q 2963 169 2691 53 
Q 2419 -63 1978 -63 
Q 1272 -63 830 412 
Q 388 888 388 1850 
L 388 2703 
Q 388 3656 770 4134 
Q 1153 4613 1919 4613 
Q 2581 4613 2943 4244 
Q 3306 3875 3341 3219 
L 2766 3219 
Q 2731 3641 2529 3880 
Q 2328 4119 1919 4119 
Q 1400 4119 1183 3773 
Q 966 3428 963 2731 
L 963 1850 
Q 963 1125 1239 776 
Q 1516 428 1981 428 
Q 2378 428 2537 547 
Q 2697 666 2769 728 
L 2769 1778 
L 1934 1778 
L 1934 2266 
L 3341 2266 
z
" transform="scale(0.015625)"/>
      </defs>
      <use xlink:href="#RobotoCondensed-Regular-51"/>
      <use xlink:href="#RobotoCondensed-Regular-4d" transform="translate(60.107422 0)"/>
      <use xlink:href="#RobotoCondensed-Regular-39" transform="translate(135.644531 0)"/>
      <use xlink:href="#RobotoCondensed-Regular-2d" transform="translate(185.009766 0)"/>
      <use xlink:href="#RobotoCondensed-Regular-47" transform="translate(209.814453 0)"/>
      <use xlink:href="#RobotoCondensed-Regular-61" transform="translate(268.896484 0)"/>
      <use xlink:href="#RobotoCondensed-Regular-70" transform="translate(316.796875 0)"/>
     </g>
    </g>
    <g id="line2d_88">
     <path d="M 179.380172 99.796562 
L 192.380172 99.796562 
L 205.380172 99.796562 
" style="fill: none; stroke-dasharray: 3.7,1.6; stroke-dashoffset: 0; stroke: #000000; stroke-opacity: 0.6"/>
    </g>
    <g id="text_19">
     <!-- Parity -->
     <g transform="translate(215.780172 104.346562) scale(0.13 -0.13)">
      <defs>
       <path id="RobotoCondensed-Regular-50" d="M 1066 1784 
L 1066 0 
L 491 0 
L 491 4550 
L 1941 4550 
Q 2600 4550 2951 4159 
Q 3303 3769 3303 3163 
Q 3303 2506 2954 2147 
Q 2606 1788 1950 1784 
L 1066 1784 
z
M 1066 4056 
L 1066 2275 
L 1941 2275 
Q 2359 2275 2543 2522 
Q 2728 2769 2728 3156 
Q 2728 3506 2543 3781 
Q 2359 4056 1941 4056 
L 1066 4056 
z
" transform="scale(0.015625)"/>
      </defs>
      <use xlink:href="#RobotoCondensed-Regular-50"/>
      <use xlink:href="#RobotoCondensed-Regular-61" transform="translate(55.419922 0)"/>
      <use xlink:href="#RobotoCondensed-Regular-72" transform="translate(103.320312 0)"/>
      <use xlink:href="#RobotoCondensed-Regular-69" transform="translate(133.789062 0)"/>
      <use xlink:href="#RobotoCondensed-Regular-74" transform="translate(156.738281 0)"/>
      <use xlink:href="#RobotoCondensed-Regular-79" transform="translate(186.328125 0)"/>
     </g>
    </g>
   </g>
  </g>
 </g>
 <defs>
  <clipPath id="p61fd4c6988">
   <rect x="48.759062" y="7.2" width="359.638" height="207.938607"/>
  </clipPath>
 </defs>
</svg>
